%TF.GenerationSoftware,KiCad,Pcbnew,8.0.6*%
%TF.CreationDate,2026-03-23T17:40:54+00:00*%
%TF.ProjectId,AIS IREC 2026 FC,41495320-4952-4454-9320-323032362046,1*%
%TF.SameCoordinates,Original*%
%TF.FileFunction,Copper,L2,Inr*%
%TF.FilePolarity,Positive*%
%FSLAX46Y46*%
G04 Gerber Fmt 4.6, Leading zero omitted, Abs format (unit mm)*
G04 Created by KiCad (PCBNEW 8.0.6) date 2026-03-23 17:40:54*
%MOMM*%
%LPD*%
G01*
G04 APERTURE LIST*
G04 Aperture macros list*
%AMRoundRect*
0 Rectangle with rounded corners*
0 $1 Rounding radius*
0 $2 $3 $4 $5 $6 $7 $8 $9 X,Y pos of 4 corners*
0 Add a 4 corners polygon primitive as box body*
4,1,4,$2,$3,$4,$5,$6,$7,$8,$9,$2,$3,0*
0 Add four circle primitives for the rounded corners*
1,1,$1+$1,$2,$3*
1,1,$1+$1,$4,$5*
1,1,$1+$1,$6,$7*
1,1,$1+$1,$8,$9*
0 Add four rect primitives between the rounded corners*
20,1,$1+$1,$2,$3,$4,$5,0*
20,1,$1+$1,$4,$5,$6,$7,0*
20,1,$1+$1,$6,$7,$8,$9,0*
20,1,$1+$1,$8,$9,$2,$3,0*%
G04 Aperture macros list end*
%TA.AperFunction,ComponentPad*%
%ADD10RoundRect,0.225000X0.225000X0.475000X-0.225000X0.475000X-0.225000X-0.475000X0.225000X-0.475000X0*%
%TD*%
%TA.AperFunction,ComponentPad*%
%ADD11O,0.900000X1.400000*%
%TD*%
%TA.AperFunction,ComponentPad*%
%ADD12R,1.800000X1.800000*%
%TD*%
%TA.AperFunction,ComponentPad*%
%ADD13C,1.800000*%
%TD*%
%TA.AperFunction,ComponentPad*%
%ADD14RoundRect,0.225000X-0.225000X-0.475000X0.225000X-0.475000X0.225000X0.475000X-0.225000X0.475000X0*%
%TD*%
%TA.AperFunction,ViaPad*%
%ADD15C,0.600000*%
%TD*%
%TA.AperFunction,ViaPad*%
%ADD16C,3.500000*%
%TD*%
%TA.AperFunction,ViaPad*%
%ADD17C,0.400000*%
%TD*%
%TA.AperFunction,Conductor*%
%ADD18C,0.200000*%
%TD*%
%TA.AperFunction,Conductor*%
%ADD19C,0.150000*%
%TD*%
G04 APERTURE END LIST*
D10*
%TO.N,3.3V*%
%TO.C,J6*%
X208000000Y-32250000D03*
D11*
%TO.N,USB ID*%
X206750000Y-32250000D03*
%TO.N,GND*%
X205500000Y-32250000D03*
%TO.N,unconnected-(J6-Pin_4-Pad4)*%
X204250000Y-32250000D03*
%TO.N,unconnected-(J6-Pin_5-Pad5)*%
X203000000Y-32250000D03*
%TO.N,unconnected-(J6-Pin_6-Pad6)*%
X201750000Y-32250000D03*
%TO.N,3.3V*%
X200500000Y-32250000D03*
%TO.N,BOOT High*%
X199250000Y-32250000D03*
%TD*%
D12*
%TO.N,DROGUE OUT*%
%TO.C,J5*%
X152750000Y-45850000D03*
D13*
%TO.N,GND*%
X152750000Y-50850000D03*
%TD*%
D12*
%TO.N,MAIN OUT*%
%TO.C,J4*%
X205500000Y-48000000D03*
D13*
%TO.N,GND*%
X205500000Y-43000000D03*
%TD*%
D14*
%TO.N,unconnected-(J3-Pin_1-Pad1)*%
%TO.C,J3*%
X171310000Y-28000000D03*
D11*
%TO.N,unconnected-(J3-Pin_2-Pad2)*%
X172560000Y-28000000D03*
%TO.N,3.3V*%
X173810000Y-28000000D03*
%TO.N,GND*%
X175060000Y-28000000D03*
%TO.N,RADIO CS*%
X176310000Y-28000000D03*
%TO.N,MOSI1*%
X177560000Y-28000000D03*
%TO.N,MISO1*%
X178810000Y-28000000D03*
%TO.N,CLK1*%
X180060000Y-28000000D03*
%TD*%
D12*
%TO.N,Vsrc*%
%TO.C,J2*%
X164750000Y-30250000D03*
D13*
%TO.N,GND*%
X159750000Y-30250000D03*
%TD*%
D15*
%TO.N,CLK*%
X177400000Y-40800000D03*
%TO.N,MISO*%
X166650000Y-54600000D03*
%TO.N,MOSI*%
X176000000Y-60000000D03*
D16*
%TO.N,*%
X207500000Y-57250000D03*
X150000000Y-57250000D03*
X150000000Y-27750000D03*
X207500000Y-27750000D03*
D15*
%TO.N,GND*%
X204250000Y-56500000D03*
D17*
X174744145Y-47135777D03*
D15*
X195250000Y-30250000D03*
D17*
X197750000Y-56110000D03*
D15*
X160000000Y-49000000D03*
D17*
X169500000Y-49000000D03*
X197250000Y-37000000D03*
D15*
X196750000Y-49500000D03*
X185060000Y-30250000D03*
X194980000Y-39750000D03*
X185000000Y-44500000D03*
D17*
X162250000Y-52000000D03*
D15*
X196500000Y-43000000D03*
X198750000Y-56750000D03*
X190750000Y-45250000D03*
D17*
X169250000Y-53250000D03*
X164500000Y-38000000D03*
D15*
X173750000Y-59000000D03*
X173500000Y-38500000D03*
X173500000Y-52750000D03*
X190750000Y-35500000D03*
X162250000Y-55000000D03*
D17*
X187750000Y-57750000D03*
X173250000Y-48500000D03*
D15*
X169000000Y-54500000D03*
X185000000Y-52000000D03*
X185000000Y-54000000D03*
X192750000Y-56750000D03*
D17*
X161750000Y-56750000D03*
X198804626Y-37227456D03*
D15*
X168250000Y-58250000D03*
X196500000Y-46250000D03*
D17*
X172250000Y-41750000D03*
X169500000Y-46500000D03*
%TO.N,3.3V*%
X162250000Y-51000000D03*
D15*
X155750000Y-48250000D03*
X155750000Y-43500000D03*
D17*
X199712250Y-58900000D03*
X170750000Y-46500000D03*
X186000000Y-57750000D03*
D15*
X169000000Y-50500000D03*
D17*
X170750000Y-53000000D03*
X170750000Y-49000000D03*
D15*
X168750000Y-55500000D03*
X201500000Y-54250000D03*
X189250000Y-40850000D03*
D17*
X197250000Y-57000000D03*
D15*
X206000000Y-54250000D03*
D17*
X199234998Y-56110000D03*
X174750000Y-47750000D03*
X171516054Y-42808945D03*
X189039124Y-44039124D03*
X198249999Y-37456350D03*
X162750000Y-57250000D03*
X174567393Y-58761893D03*
X172516054Y-43016054D03*
D15*
X159000000Y-47500000D03*
X166450000Y-37900000D03*
X191031587Y-38718413D03*
X172500000Y-40250000D03*
%TO.N,ACCELEROMETER CS*%
X169750000Y-43750000D03*
X159750000Y-45500000D03*
X175750000Y-40250000D03*
%TO.N,MOSI*%
X168237851Y-56114579D03*
X167250000Y-53300000D03*
%TO.N,CLK*%
X164500000Y-53750000D03*
X168500000Y-45750000D03*
X165250000Y-51500000D03*
%TO.N,NAND4*%
X197807108Y-54400000D03*
X190350000Y-52250000D03*
X192250000Y-52250000D03*
%TO.N,NAND5*%
X195350000Y-56750000D03*
%TO.N,NAND3*%
X200269369Y-56764087D03*
%TO.N,NAND7*%
X188426017Y-43566896D03*
%TO.N,RE*%
X195533403Y-36892529D03*
X182500000Y-40850000D03*
%TO.N,NAND2*%
X189150000Y-55500000D03*
%TO.N,NAND EN*%
X196000000Y-39750000D03*
X181500000Y-41000000D03*
%TO.N,WP*%
X181034456Y-45357772D03*
%TO.N,WE*%
X183500000Y-46300000D03*
%TO.N,NAND1*%
X195350000Y-53750000D03*
X194150000Y-53111003D03*
X189000000Y-54000000D03*
X182500000Y-55750000D03*
X190350000Y-54250000D03*
%TO.N,ALE*%
X182500000Y-45700000D03*
%TO.N,CLE*%
X181750000Y-45000000D03*
%TO.N,NAND6*%
X189750000Y-48500000D03*
%TO.N,NAND0*%
X201769615Y-59200000D03*
%TO.N,DP*%
X189500000Y-35250000D03*
X188867463Y-46367463D03*
X189000000Y-34000000D03*
X189500000Y-38000000D03*
D17*
%TO.N,DN*%
X188835876Y-45585876D03*
D15*
X187250000Y-40850000D03*
%TO.N,BOOT High*%
X177750000Y-36250000D03*
%TO.N,RADIO CS*%
X175250000Y-34000000D03*
%TO.N,Buzzer control*%
X173014352Y-44499999D03*
%TO.N,DROGUE*%
X174475000Y-40750000D03*
D17*
%TO.N,MAIN*%
X194250000Y-52250000D03*
X181000000Y-47250000D03*
%TO.N,BAROMETER CS*%
X176000000Y-44750000D03*
X166371446Y-53128554D03*
D15*
%TO.N,OSC_CLK*%
X173014352Y-49499999D03*
D17*
%TO.N,unconnected-(U1-PC3-Pad18)*%
X170000000Y-52000000D03*
%TO.N,VCAP*%
X182750000Y-49500000D03*
D15*
X185003569Y-56495550D03*
D17*
%TO.N,INDICATOR 1*%
X190250000Y-50000000D03*
X170000000Y-45100000D03*
%TO.N,INDICATOR 2*%
X180250000Y-49250000D03*
X189000000Y-49000000D03*
%TO.N,INDICATOR 3*%
X173750000Y-46250000D03*
X190500000Y-47500000D03*
%TO.N,INDICATOR 4*%
X185500000Y-48250000D03*
X190250000Y-41850000D03*
D15*
%TO.N,USB ID*%
X189950735Y-46799265D03*
%TD*%
D18*
%TO.N,GND*%
X185000000Y-54000000D02*
X185000000Y-52000000D01*
%TO.N,RE*%
X195325932Y-37100000D02*
X195533403Y-36892529D01*
X182500000Y-40850000D02*
X182500000Y-39501891D01*
X182500000Y-39501891D02*
X184901891Y-37100000D01*
X184901891Y-37100000D02*
X195325932Y-37100000D01*
D19*
%TO.N,DP*%
X190175000Y-45575000D02*
X190175000Y-45011827D01*
X188867463Y-46367463D02*
X189382537Y-46367463D01*
X191250000Y-39750000D02*
X189500000Y-38000000D01*
X189382537Y-46367463D02*
X190175000Y-45575000D01*
X191250000Y-43936827D02*
X191250000Y-39750000D01*
X190175000Y-45011827D02*
X191250000Y-43936827D01*
%TO.N,INDICATOR 1*%
X170000000Y-45100000D02*
X170350000Y-45100000D01*
X173446752Y-48025000D02*
X173725000Y-48303248D01*
X173725000Y-48475000D02*
X175250000Y-50000000D01*
X175250000Y-50000000D02*
X190250000Y-50000000D01*
X173725000Y-48303248D02*
X173725000Y-48475000D01*
X173275000Y-48025000D02*
X173446752Y-48025000D01*
X170350000Y-45100000D02*
X173275000Y-48025000D01*
%TO.N,INDICATOR 3*%
X188000000Y-47500000D02*
X186775000Y-48725000D01*
X186775000Y-48725000D02*
X177005120Y-48725000D01*
X177005120Y-48725000D02*
X174530120Y-46250000D01*
X190500000Y-47500000D02*
X188000000Y-47500000D01*
X174530120Y-46250000D02*
X173750000Y-46250000D01*
%TO.N,INDICATOR 4*%
X185500000Y-48250000D02*
X190004166Y-43745834D01*
X190004166Y-43745834D02*
X190004166Y-42095834D01*
X190004166Y-42095834D02*
X190250000Y-41850000D01*
D18*
%TO.N,USB ID*%
X189950735Y-46799265D02*
X190049264Y-46799265D01*
X203598529Y-33250000D02*
X206150000Y-33250000D01*
X206150000Y-33250000D02*
X206750000Y-32650000D01*
X190049264Y-46799265D02*
X203598529Y-33250000D01*
X206750000Y-32650000D02*
X206750000Y-32250000D01*
%TD*%
%TA.AperFunction,Conductor*%
%TO.N,GND*%
G36*
X211142539Y-24120185D02*
G01*
X211188294Y-24172989D01*
X211199500Y-24224500D01*
X211199500Y-60975500D01*
X211179815Y-61042539D01*
X211127011Y-61088294D01*
X211075500Y-61099500D01*
X147024500Y-61099500D01*
X146957461Y-61079815D01*
X146911706Y-61027011D01*
X146900500Y-60975500D01*
X146900500Y-59999996D01*
X175194435Y-59999996D01*
X175194435Y-60000003D01*
X175214630Y-60179249D01*
X175214631Y-60179254D01*
X175274211Y-60349523D01*
X175370184Y-60502262D01*
X175497738Y-60629816D01*
X175650478Y-60725789D01*
X175820745Y-60785368D01*
X175820750Y-60785369D01*
X175999996Y-60805565D01*
X176000000Y-60805565D01*
X176000004Y-60805565D01*
X176179249Y-60785369D01*
X176179252Y-60785368D01*
X176179255Y-60785368D01*
X176349522Y-60725789D01*
X176502262Y-60629816D01*
X176629816Y-60502262D01*
X176725789Y-60349522D01*
X176785368Y-60179255D01*
X176805565Y-60000000D01*
X176803916Y-59985369D01*
X176785369Y-59820750D01*
X176785368Y-59820745D01*
X176725788Y-59650476D01*
X176662354Y-59549522D01*
X176629816Y-59497738D01*
X176502262Y-59370184D01*
X176458409Y-59342629D01*
X176349523Y-59274211D01*
X176179254Y-59214631D01*
X176179249Y-59214630D01*
X176000004Y-59194435D01*
X175999996Y-59194435D01*
X175820750Y-59214630D01*
X175820745Y-59214631D01*
X175650476Y-59274211D01*
X175497737Y-59370184D01*
X175370184Y-59497737D01*
X175274211Y-59650476D01*
X175214631Y-59820745D01*
X175214630Y-59820750D01*
X175194435Y-59999996D01*
X146900500Y-59999996D01*
X146900500Y-57249992D01*
X147744671Y-57249992D01*
X147744671Y-57250007D01*
X147763964Y-57544363D01*
X147763965Y-57544373D01*
X147763966Y-57544380D01*
X147763968Y-57544390D01*
X147821518Y-57833716D01*
X147821521Y-57833730D01*
X147916349Y-58113080D01*
X148046825Y-58377660D01*
X148046829Y-58377667D01*
X148210725Y-58622955D01*
X148405241Y-58844758D01*
X148627044Y-59039274D01*
X148671341Y-59068872D01*
X148872335Y-59203172D01*
X149136923Y-59333652D01*
X149416278Y-59428481D01*
X149705620Y-59486034D01*
X149733888Y-59487886D01*
X149999993Y-59505329D01*
X150000000Y-59505329D01*
X150000007Y-59505329D01*
X150235675Y-59489881D01*
X150294380Y-59486034D01*
X150583722Y-59428481D01*
X150863077Y-59333652D01*
X151127665Y-59203172D01*
X151372957Y-59039273D01*
X151594758Y-58844758D01*
X151667429Y-58761893D01*
X173861748Y-58761893D01*
X173882252Y-58930762D01*
X173882253Y-58930767D01*
X173942575Y-59089824D01*
X174004868Y-59180070D01*
X174039210Y-59229822D01*
X174144898Y-59323453D01*
X174166543Y-59342629D01*
X174317166Y-59421682D01*
X174317168Y-59421683D01*
X174482337Y-59462393D01*
X174652449Y-59462393D01*
X174817618Y-59421683D01*
X174920037Y-59367929D01*
X174968242Y-59342629D01*
X174968243Y-59342627D01*
X174968245Y-59342627D01*
X175095576Y-59229822D01*
X175192211Y-59089823D01*
X175252533Y-58930765D01*
X175256269Y-58900000D01*
X199006605Y-58900000D01*
X199027109Y-59068869D01*
X199027110Y-59068874D01*
X199087432Y-59227931D01*
X199149725Y-59318177D01*
X199184067Y-59367929D01*
X199289755Y-59461560D01*
X199311400Y-59480736D01*
X199442461Y-59549522D01*
X199462025Y-59559790D01*
X199627194Y-59600500D01*
X199797306Y-59600500D01*
X199962475Y-59559790D01*
X200080706Y-59497737D01*
X200113099Y-59480736D01*
X200113100Y-59480734D01*
X200113102Y-59480734D01*
X200240433Y-59367929D01*
X200337068Y-59227930D01*
X200347662Y-59199996D01*
X200964050Y-59199996D01*
X200964050Y-59200003D01*
X200984245Y-59379249D01*
X200984246Y-59379254D01*
X201043826Y-59549523D01*
X201107261Y-59650478D01*
X201139799Y-59702262D01*
X201267353Y-59829816D01*
X201420093Y-59925789D01*
X201590360Y-59985368D01*
X201590365Y-59985369D01*
X201769611Y-60005565D01*
X201769615Y-60005565D01*
X201769619Y-60005565D01*
X201948864Y-59985369D01*
X201948867Y-59985368D01*
X201948870Y-59985368D01*
X202119137Y-59925789D01*
X202271877Y-59829816D01*
X202399431Y-59702262D01*
X202495404Y-59549522D01*
X202554983Y-59379255D01*
X202556259Y-59367929D01*
X202575180Y-59200003D01*
X202575180Y-59199996D01*
X202554984Y-59020750D01*
X202554983Y-59020745D01*
X202523498Y-58930767D01*
X202495404Y-58850478D01*
X202399431Y-58697738D01*
X202271877Y-58570184D01*
X202119138Y-58474211D01*
X201948869Y-58414631D01*
X201948864Y-58414630D01*
X201769619Y-58394435D01*
X201769611Y-58394435D01*
X201590365Y-58414630D01*
X201590360Y-58414631D01*
X201420091Y-58474211D01*
X201267352Y-58570184D01*
X201139799Y-58697737D01*
X201043826Y-58850476D01*
X200984246Y-59020745D01*
X200984245Y-59020750D01*
X200964050Y-59199996D01*
X200347662Y-59199996D01*
X200397390Y-59068872D01*
X200417895Y-58900000D01*
X200397390Y-58731128D01*
X200337068Y-58572070D01*
X200335766Y-58570184D01*
X200269520Y-58474211D01*
X200240433Y-58432071D01*
X200113102Y-58319266D01*
X200113099Y-58319263D01*
X199962476Y-58240210D01*
X199797306Y-58199500D01*
X199627194Y-58199500D01*
X199462023Y-58240210D01*
X199311400Y-58319263D01*
X199184066Y-58432072D01*
X199087432Y-58572068D01*
X199027110Y-58731125D01*
X199027109Y-58731130D01*
X199006605Y-58900000D01*
X175256269Y-58900000D01*
X175273038Y-58761893D01*
X175252533Y-58593021D01*
X175244587Y-58572070D01*
X175207475Y-58474211D01*
X175192211Y-58433963D01*
X175178866Y-58414630D01*
X175120958Y-58330736D01*
X175095576Y-58293964D01*
X174968245Y-58181159D01*
X174968242Y-58181156D01*
X174817619Y-58102103D01*
X174652449Y-58061393D01*
X174482337Y-58061393D01*
X174317166Y-58102103D01*
X174166543Y-58181156D01*
X174039209Y-58293965D01*
X173942575Y-58433961D01*
X173882253Y-58593018D01*
X173882252Y-58593023D01*
X173861748Y-58761893D01*
X151667429Y-58761893D01*
X151789273Y-58622957D01*
X151953172Y-58377665D01*
X152083652Y-58113077D01*
X152178481Y-57833722D01*
X152236034Y-57544380D01*
X152246820Y-57379816D01*
X152255329Y-57250007D01*
X152255329Y-57250000D01*
X162044355Y-57250000D01*
X162064859Y-57418869D01*
X162064860Y-57418874D01*
X162125182Y-57577931D01*
X162181686Y-57659789D01*
X162221817Y-57717929D01*
X162327505Y-57811560D01*
X162349150Y-57830736D01*
X162499773Y-57909789D01*
X162499775Y-57909790D01*
X162664944Y-57950500D01*
X162835056Y-57950500D01*
X163000225Y-57909790D01*
X163145144Y-57833730D01*
X163150849Y-57830736D01*
X163150850Y-57830734D01*
X163150852Y-57830734D01*
X163278183Y-57717929D01*
X163374818Y-57577930D01*
X163435140Y-57418872D01*
X163455645Y-57250000D01*
X163435140Y-57081128D01*
X163374818Y-56922070D01*
X163369988Y-56915073D01*
X163312045Y-56831128D01*
X163278183Y-56782071D01*
X163175087Y-56690736D01*
X163150849Y-56669263D01*
X163000226Y-56590210D01*
X162835056Y-56549500D01*
X162664944Y-56549500D01*
X162499773Y-56590210D01*
X162349150Y-56669263D01*
X162221816Y-56782072D01*
X162125182Y-56922068D01*
X162064860Y-57081125D01*
X162064859Y-57081130D01*
X162044355Y-57250000D01*
X152255329Y-57250000D01*
X152255329Y-57249992D01*
X152236035Y-56955636D01*
X152236034Y-56955620D01*
X152178481Y-56666278D01*
X152083652Y-56386923D01*
X151953172Y-56122336D01*
X151947986Y-56114575D01*
X167432286Y-56114575D01*
X167432286Y-56114582D01*
X167452481Y-56293828D01*
X167452482Y-56293833D01*
X167512062Y-56464102D01*
X167591302Y-56590210D01*
X167608035Y-56616841D01*
X167735589Y-56744395D01*
X167776005Y-56769790D01*
X167873623Y-56831128D01*
X167888329Y-56840368D01*
X167921423Y-56851948D01*
X168058596Y-56899947D01*
X168058601Y-56899948D01*
X168237847Y-56920144D01*
X168237851Y-56920144D01*
X168237855Y-56920144D01*
X168417100Y-56899948D01*
X168417103Y-56899947D01*
X168417106Y-56899947D01*
X168587373Y-56840368D01*
X168740113Y-56744395D01*
X168867667Y-56616841D01*
X168963640Y-56464101D01*
X169019982Y-56303083D01*
X169060704Y-56246308D01*
X169096075Y-56226994D01*
X169099522Y-56225789D01*
X169252262Y-56129816D01*
X169379816Y-56002262D01*
X169475789Y-55849522D01*
X169510615Y-55749996D01*
X181694435Y-55749996D01*
X181694435Y-55750003D01*
X181714630Y-55929249D01*
X181714631Y-55929254D01*
X181774211Y-56099523D01*
X181853549Y-56225788D01*
X181870184Y-56252262D01*
X181997738Y-56379816D01*
X182060522Y-56419266D01*
X182131876Y-56464101D01*
X182150478Y-56475789D01*
X182311323Y-56532071D01*
X182320745Y-56535368D01*
X182320750Y-56535369D01*
X182499996Y-56555565D01*
X182500000Y-56555565D01*
X182500004Y-56555565D01*
X182679249Y-56535369D01*
X182679252Y-56535368D01*
X182679255Y-56535368D01*
X182793060Y-56495546D01*
X184198004Y-56495546D01*
X184198004Y-56495553D01*
X184218199Y-56674799D01*
X184218200Y-56674804D01*
X184277780Y-56845073D01*
X184339527Y-56943342D01*
X184373753Y-56997812D01*
X184501307Y-57125366D01*
X184654047Y-57221339D01*
X184782678Y-57266349D01*
X184824314Y-57280918D01*
X184824319Y-57280919D01*
X185003565Y-57301115D01*
X185003569Y-57301115D01*
X185003573Y-57301115D01*
X185182818Y-57280919D01*
X185182819Y-57280918D01*
X185182824Y-57280918D01*
X185215026Y-57269649D01*
X185284802Y-57266087D01*
X185345431Y-57300814D01*
X185377659Y-57362807D01*
X185371923Y-57430661D01*
X185314861Y-57581122D01*
X185314859Y-57581130D01*
X185294355Y-57750000D01*
X185314859Y-57918869D01*
X185314860Y-57918874D01*
X185375182Y-58077931D01*
X185399442Y-58113077D01*
X185471817Y-58217929D01*
X185557643Y-58293964D01*
X185599150Y-58330736D01*
X185749773Y-58409789D01*
X185749775Y-58409790D01*
X185914944Y-58450500D01*
X186085056Y-58450500D01*
X186250225Y-58409790D01*
X186329692Y-58368081D01*
X186400849Y-58330736D01*
X186400850Y-58330734D01*
X186400852Y-58330734D01*
X186528183Y-58217929D01*
X186624818Y-58077930D01*
X186685140Y-57918872D01*
X186705645Y-57750000D01*
X186685140Y-57581128D01*
X186671203Y-57544380D01*
X186624817Y-57422068D01*
X186541120Y-57300814D01*
X186528183Y-57282071D01*
X186400852Y-57169266D01*
X186400849Y-57169263D01*
X186250226Y-57090210D01*
X186085056Y-57049500D01*
X185914944Y-57049500D01*
X185914940Y-57049500D01*
X185841267Y-57067658D01*
X185771465Y-57064588D01*
X185714404Y-57024268D01*
X185688199Y-56959498D01*
X185701172Y-56890843D01*
X185706590Y-56881306D01*
X185729358Y-56845072D01*
X185762627Y-56749996D01*
X194544435Y-56749996D01*
X194544435Y-56750003D01*
X194564630Y-56929249D01*
X194564631Y-56929254D01*
X194624211Y-57099523D01*
X194668032Y-57169263D01*
X194720184Y-57252262D01*
X194847738Y-57379816D01*
X194914982Y-57422068D01*
X194987965Y-57467927D01*
X195000478Y-57475789D01*
X195170745Y-57535368D01*
X195170750Y-57535369D01*
X195349996Y-57555565D01*
X195350000Y-57555565D01*
X195350004Y-57555565D01*
X195529249Y-57535369D01*
X195529252Y-57535368D01*
X195529255Y-57535368D01*
X195699522Y-57475789D01*
X195852262Y-57379816D01*
X195979816Y-57252262D01*
X196075789Y-57099522D01*
X196110613Y-57000000D01*
X196544355Y-57000000D01*
X196564859Y-57168869D01*
X196564860Y-57168874D01*
X196625182Y-57327931D01*
X196670719Y-57393902D01*
X196721817Y-57467929D01*
X196808113Y-57544380D01*
X196849150Y-57580736D01*
X196999773Y-57659789D01*
X196999775Y-57659790D01*
X197164944Y-57700500D01*
X197335056Y-57700500D01*
X197500225Y-57659790D01*
X197579692Y-57618081D01*
X197650849Y-57580736D01*
X197650850Y-57580734D01*
X197650852Y-57580734D01*
X197778183Y-57467929D01*
X197874818Y-57327930D01*
X197935140Y-57168872D01*
X197955645Y-57000000D01*
X197935140Y-56831128D01*
X197874818Y-56672070D01*
X197872880Y-56669263D01*
X197836696Y-56616841D01*
X197778183Y-56532071D01*
X197671921Y-56437931D01*
X197650849Y-56419263D01*
X197500226Y-56340210D01*
X197335056Y-56299500D01*
X197164944Y-56299500D01*
X196999773Y-56340210D01*
X196849150Y-56419263D01*
X196721816Y-56532072D01*
X196625182Y-56672068D01*
X196564860Y-56831125D01*
X196564859Y-56831130D01*
X196544355Y-57000000D01*
X196110613Y-57000000D01*
X196135368Y-56929255D01*
X196138670Y-56899948D01*
X196155565Y-56750003D01*
X196155565Y-56749996D01*
X196135369Y-56570750D01*
X196135368Y-56570745D01*
X196098052Y-56464102D01*
X196075789Y-56400478D01*
X196067269Y-56386919D01*
X196003461Y-56285369D01*
X195979816Y-56247738D01*
X195852262Y-56120184D01*
X195836054Y-56110000D01*
X198529353Y-56110000D01*
X198549857Y-56278869D01*
X198549858Y-56278874D01*
X198610180Y-56437931D01*
X198672473Y-56528177D01*
X198706815Y-56577929D01*
X198750738Y-56616841D01*
X198834148Y-56690736D01*
X198984771Y-56769789D01*
X198984773Y-56769790D01*
X199149942Y-56810500D01*
X199320055Y-56810500D01*
X199327917Y-56808562D01*
X199397720Y-56811629D01*
X199454783Y-56851948D01*
X199480815Y-56915073D01*
X199483999Y-56943336D01*
X199543579Y-57113608D01*
X199611271Y-57221338D01*
X199639553Y-57266349D01*
X199767107Y-57393903D01*
X199825607Y-57430661D01*
X199897427Y-57475789D01*
X199919847Y-57489876D01*
X200075639Y-57544390D01*
X200090114Y-57549455D01*
X200090119Y-57549456D01*
X200269365Y-57569652D01*
X200269369Y-57569652D01*
X200269373Y-57569652D01*
X200448618Y-57549456D01*
X200448621Y-57549455D01*
X200448624Y-57549455D01*
X200618891Y-57489876D01*
X200771631Y-57393903D01*
X200899185Y-57266349D01*
X200909463Y-57249992D01*
X205244671Y-57249992D01*
X205244671Y-57250007D01*
X205263964Y-57544363D01*
X205263965Y-57544373D01*
X205263966Y-57544380D01*
X205263968Y-57544390D01*
X205321518Y-57833716D01*
X205321521Y-57833730D01*
X205416349Y-58113080D01*
X205546825Y-58377660D01*
X205546829Y-58377667D01*
X205710725Y-58622955D01*
X205905241Y-58844758D01*
X206127044Y-59039274D01*
X206171341Y-59068872D01*
X206372335Y-59203172D01*
X206636923Y-59333652D01*
X206916278Y-59428481D01*
X207205620Y-59486034D01*
X207233888Y-59487886D01*
X207499993Y-59505329D01*
X207500000Y-59505329D01*
X207500007Y-59505329D01*
X207735675Y-59489881D01*
X207794380Y-59486034D01*
X208083722Y-59428481D01*
X208363077Y-59333652D01*
X208627665Y-59203172D01*
X208872957Y-59039273D01*
X209094758Y-58844758D01*
X209289273Y-58622957D01*
X209453172Y-58377665D01*
X209583652Y-58113077D01*
X209678481Y-57833722D01*
X209736034Y-57544380D01*
X209746820Y-57379816D01*
X209755329Y-57250007D01*
X209755329Y-57249992D01*
X209736035Y-56955636D01*
X209736034Y-56955620D01*
X209678481Y-56666278D01*
X209583652Y-56386923D01*
X209453172Y-56122336D01*
X209447986Y-56114575D01*
X209366945Y-55993288D01*
X209289273Y-55877043D01*
X209191062Y-55765055D01*
X209094758Y-55655241D01*
X208872955Y-55460725D01*
X208627667Y-55296829D01*
X208627660Y-55296825D01*
X208363080Y-55166349D01*
X208083730Y-55071521D01*
X208083724Y-55071519D01*
X208083722Y-55071519D01*
X207794380Y-55013966D01*
X207794373Y-55013965D01*
X207794363Y-55013964D01*
X207500007Y-54994671D01*
X207499993Y-54994671D01*
X207205636Y-55013964D01*
X207205624Y-55013965D01*
X207205620Y-55013966D01*
X207205612Y-55013967D01*
X207205609Y-55013968D01*
X206916283Y-55071518D01*
X206916269Y-55071521D01*
X206636919Y-55166349D01*
X206372334Y-55296828D01*
X206127041Y-55460728D01*
X205905241Y-55655241D01*
X205710728Y-55877041D01*
X205546828Y-56122334D01*
X205416349Y-56386919D01*
X205321521Y-56666269D01*
X205321518Y-56666283D01*
X205263968Y-56955609D01*
X205263964Y-56955636D01*
X205244671Y-57249992D01*
X200909463Y-57249992D01*
X200995158Y-57113609D01*
X201054737Y-56943342D01*
X201054738Y-56943336D01*
X201074934Y-56764090D01*
X201074934Y-56764083D01*
X201054738Y-56584837D01*
X201054737Y-56584832D01*
X200995157Y-56414563D01*
X200933411Y-56316295D01*
X200899185Y-56261825D01*
X200771631Y-56134271D01*
X200752637Y-56122336D01*
X200618892Y-56038298D01*
X200448623Y-55978718D01*
X200448618Y-55978717D01*
X200269373Y-55958522D01*
X200269365Y-55958522D01*
X200090115Y-55978718D01*
X200090114Y-55978718D01*
X200066686Y-55986916D01*
X199996907Y-55990477D01*
X199936280Y-55955747D01*
X199909791Y-55913845D01*
X199859815Y-55782068D01*
X199810194Y-55710181D01*
X199763181Y-55642071D01*
X199635850Y-55529266D01*
X199635847Y-55529263D01*
X199485224Y-55450210D01*
X199320054Y-55409500D01*
X199149942Y-55409500D01*
X198984771Y-55450210D01*
X198834148Y-55529263D01*
X198706814Y-55642072D01*
X198610180Y-55782068D01*
X198549858Y-55941125D01*
X198549857Y-55941130D01*
X198529353Y-56110000D01*
X195836054Y-56110000D01*
X195699523Y-56024211D01*
X195529254Y-55964631D01*
X195529249Y-55964630D01*
X195350004Y-55944435D01*
X195349996Y-55944435D01*
X195170750Y-55964630D01*
X195170745Y-55964631D01*
X195000476Y-56024211D01*
X194847737Y-56120184D01*
X194720184Y-56247737D01*
X194624211Y-56400476D01*
X194564631Y-56570745D01*
X194564630Y-56570750D01*
X194544435Y-56749996D01*
X185762627Y-56749996D01*
X185788937Y-56674805D01*
X185789245Y-56672070D01*
X185809134Y-56495553D01*
X185809134Y-56495546D01*
X185788938Y-56316300D01*
X185788937Y-56316295D01*
X185781075Y-56293828D01*
X185729358Y-56146028D01*
X185719171Y-56129816D01*
X185690151Y-56083630D01*
X185633385Y-55993288D01*
X185505831Y-55865734D01*
X185353092Y-55769761D01*
X185182823Y-55710181D01*
X185182818Y-55710180D01*
X185003573Y-55689985D01*
X185003565Y-55689985D01*
X184824319Y-55710180D01*
X184824314Y-55710181D01*
X184654045Y-55769761D01*
X184501306Y-55865734D01*
X184373753Y-55993287D01*
X184277780Y-56146026D01*
X184218200Y-56316295D01*
X184218199Y-56316300D01*
X184198004Y-56495546D01*
X182793060Y-56495546D01*
X182849522Y-56475789D01*
X183002262Y-56379816D01*
X183129816Y-56252262D01*
X183225789Y-56099522D01*
X183285368Y-55929255D01*
X183285369Y-55929249D01*
X183305565Y-55750003D01*
X183305565Y-55749996D01*
X183285369Y-55570750D01*
X183285368Y-55570745D01*
X183260612Y-55499996D01*
X183225789Y-55400478D01*
X183218444Y-55388789D01*
X183178858Y-55325788D01*
X183129816Y-55247738D01*
X183002262Y-55120184D01*
X182849523Y-55024211D01*
X182679254Y-54964631D01*
X182679249Y-54964630D01*
X182500004Y-54944435D01*
X182499996Y-54944435D01*
X182320750Y-54964630D01*
X182320745Y-54964631D01*
X182150476Y-55024211D01*
X181997737Y-55120184D01*
X181870184Y-55247737D01*
X181774211Y-55400476D01*
X181714631Y-55570745D01*
X181714630Y-55570750D01*
X181694435Y-55749996D01*
X169510615Y-55749996D01*
X169535368Y-55679255D01*
X169538074Y-55655241D01*
X169555565Y-55500003D01*
X169555565Y-55499996D01*
X169535369Y-55320750D01*
X169535368Y-55320745D01*
X169509821Y-55247737D01*
X169475789Y-55150478D01*
X169472182Y-55144738D01*
X169403461Y-55035369D01*
X169379816Y-54997738D01*
X169252262Y-54870184D01*
X169099523Y-54774211D01*
X168929254Y-54714631D01*
X168929249Y-54714630D01*
X168750004Y-54694435D01*
X168749996Y-54694435D01*
X168570750Y-54714630D01*
X168570745Y-54714631D01*
X168400476Y-54774211D01*
X168247737Y-54870184D01*
X168120184Y-54997737D01*
X168024210Y-55150478D01*
X167967869Y-55311494D01*
X167927147Y-55368271D01*
X167891789Y-55387579D01*
X167888330Y-55388789D01*
X167888326Y-55388791D01*
X167735588Y-55484763D01*
X167608035Y-55612316D01*
X167512062Y-55765055D01*
X167452482Y-55935324D01*
X167452481Y-55935329D01*
X167432286Y-56114575D01*
X151947986Y-56114575D01*
X151866945Y-55993288D01*
X151789273Y-55877043D01*
X151691062Y-55765055D01*
X151594758Y-55655241D01*
X151372955Y-55460725D01*
X151127667Y-55296829D01*
X151127660Y-55296825D01*
X150863080Y-55166349D01*
X150583730Y-55071521D01*
X150583724Y-55071519D01*
X150583722Y-55071519D01*
X150294380Y-55013966D01*
X150294373Y-55013965D01*
X150294363Y-55013964D01*
X150000007Y-54994671D01*
X149999993Y-54994671D01*
X149705636Y-55013964D01*
X149705624Y-55013965D01*
X149705620Y-55013966D01*
X149705612Y-55013967D01*
X149705609Y-55013968D01*
X149416283Y-55071518D01*
X149416269Y-55071521D01*
X149136919Y-55166349D01*
X148872334Y-55296828D01*
X148627041Y-55460728D01*
X148405241Y-55655241D01*
X148210728Y-55877041D01*
X148046828Y-56122334D01*
X147916349Y-56386919D01*
X147821521Y-56666269D01*
X147821518Y-56666283D01*
X147763968Y-56955609D01*
X147763964Y-56955636D01*
X147744671Y-57249992D01*
X146900500Y-57249992D01*
X146900500Y-53749996D01*
X163694435Y-53749996D01*
X163694435Y-53750003D01*
X163714630Y-53929249D01*
X163714631Y-53929254D01*
X163774211Y-54099523D01*
X163850384Y-54220750D01*
X163870184Y-54252262D01*
X163997738Y-54379816D01*
X164150478Y-54475789D01*
X164310048Y-54531625D01*
X164320745Y-54535368D01*
X164320750Y-54535369D01*
X164499996Y-54555565D01*
X164500000Y-54555565D01*
X164500004Y-54555565D01*
X164679249Y-54535369D01*
X164679252Y-54535368D01*
X164679255Y-54535368D01*
X164849522Y-54475789D01*
X165002262Y-54379816D01*
X165129816Y-54252262D01*
X165225789Y-54099522D01*
X165285368Y-53929255D01*
X165285369Y-53929249D01*
X165305565Y-53750003D01*
X165305565Y-53749996D01*
X165285369Y-53570750D01*
X165285368Y-53570745D01*
X165246800Y-53460525D01*
X165225789Y-53400478D01*
X165129816Y-53247738D01*
X165010632Y-53128554D01*
X165665801Y-53128554D01*
X165686305Y-53297423D01*
X165686306Y-53297428D01*
X165746628Y-53456485D01*
X165793377Y-53524211D01*
X165843263Y-53596483D01*
X165931000Y-53674211D01*
X165970596Y-53709290D01*
X166108645Y-53781744D01*
X166158858Y-53830329D01*
X166174832Y-53898348D01*
X166151497Y-53964205D01*
X166138701Y-53979221D01*
X166020183Y-54097739D01*
X165924211Y-54250476D01*
X165864631Y-54420745D01*
X165864630Y-54420750D01*
X165844435Y-54599996D01*
X165844435Y-54600003D01*
X165864630Y-54779249D01*
X165864631Y-54779254D01*
X165924211Y-54949523D01*
X165978152Y-55035369D01*
X166020184Y-55102262D01*
X166147738Y-55229816D01*
X166176259Y-55247737D01*
X166292450Y-55320745D01*
X166300478Y-55325789D01*
X166409070Y-55363787D01*
X166470745Y-55385368D01*
X166470750Y-55385369D01*
X166649996Y-55405565D01*
X166650000Y-55405565D01*
X166650004Y-55405565D01*
X166829249Y-55385369D01*
X166829252Y-55385368D01*
X166829255Y-55385368D01*
X166999522Y-55325789D01*
X167152262Y-55229816D01*
X167279816Y-55102262D01*
X167375789Y-54949522D01*
X167435368Y-54779255D01*
X167435642Y-54776822D01*
X167455565Y-54600003D01*
X167455565Y-54599996D01*
X167435369Y-54420750D01*
X167435368Y-54420745D01*
X167376413Y-54252262D01*
X167375789Y-54250478D01*
X167375784Y-54250471D01*
X167375661Y-54250213D01*
X167375629Y-54250022D01*
X167373489Y-54243905D01*
X167374560Y-54243530D01*
X167364303Y-54181272D01*
X167392021Y-54117135D01*
X167446421Y-54079361D01*
X167599522Y-54025789D01*
X167640571Y-53999996D01*
X188194435Y-53999996D01*
X188194435Y-54000003D01*
X188214630Y-54179249D01*
X188214631Y-54179254D01*
X188274211Y-54349523D01*
X188353549Y-54475788D01*
X188370184Y-54502262D01*
X188497738Y-54629816D01*
X188605813Y-54697724D01*
X188652104Y-54750059D01*
X188662752Y-54819112D01*
X188634377Y-54882961D01*
X188627523Y-54890399D01*
X188520183Y-54997739D01*
X188424211Y-55150476D01*
X188364631Y-55320745D01*
X188364630Y-55320750D01*
X188344435Y-55499996D01*
X188344435Y-55500003D01*
X188364630Y-55679249D01*
X188364631Y-55679254D01*
X188424211Y-55849523D01*
X188492700Y-55958522D01*
X188520184Y-56002262D01*
X188647738Y-56129816D01*
X188800478Y-56225789D01*
X188952186Y-56278874D01*
X188970745Y-56285368D01*
X188970750Y-56285369D01*
X189149996Y-56305565D01*
X189150000Y-56305565D01*
X189150004Y-56305565D01*
X189329249Y-56285369D01*
X189329252Y-56285368D01*
X189329255Y-56285368D01*
X189499522Y-56225789D01*
X189652262Y-56129816D01*
X189779816Y-56002262D01*
X189875789Y-55849522D01*
X189935368Y-55679255D01*
X189938074Y-55655241D01*
X189955565Y-55500003D01*
X189955565Y-55499996D01*
X189935369Y-55320750D01*
X189935366Y-55320737D01*
X189873781Y-55144738D01*
X189870219Y-55074959D01*
X189904947Y-55014332D01*
X189966941Y-54982104D01*
X190031777Y-54986741D01*
X190170745Y-55035368D01*
X190170750Y-55035369D01*
X190349996Y-55055565D01*
X190350000Y-55055565D01*
X190350004Y-55055565D01*
X190529249Y-55035369D01*
X190529252Y-55035368D01*
X190529255Y-55035368D01*
X190699522Y-54975789D01*
X190852262Y-54879816D01*
X190979816Y-54752262D01*
X191075789Y-54599522D01*
X191135368Y-54429255D01*
X191135369Y-54429249D01*
X191155565Y-54250003D01*
X191155565Y-54249996D01*
X191135369Y-54070750D01*
X191135368Y-54070745D01*
X191086054Y-53929815D01*
X191075789Y-53900478D01*
X191074067Y-53897738D01*
X191030910Y-53829054D01*
X190979816Y-53747738D01*
X190852262Y-53620184D01*
X190843426Y-53614632D01*
X190699523Y-53524211D01*
X190529254Y-53464631D01*
X190529249Y-53464630D01*
X190350004Y-53444435D01*
X190349996Y-53444435D01*
X190170750Y-53464630D01*
X190170745Y-53464631D01*
X190000476Y-53524211D01*
X189851654Y-53617723D01*
X189784417Y-53636723D01*
X189717582Y-53616355D01*
X189680688Y-53578701D01*
X189675692Y-53570750D01*
X189629816Y-53497738D01*
X189502262Y-53370184D01*
X189435017Y-53327931D01*
X189349523Y-53274211D01*
X189179254Y-53214631D01*
X189179249Y-53214630D01*
X189000004Y-53194435D01*
X188999996Y-53194435D01*
X188820750Y-53214630D01*
X188820745Y-53214631D01*
X188650476Y-53274211D01*
X188497737Y-53370184D01*
X188370184Y-53497737D01*
X188274211Y-53650476D01*
X188214631Y-53820745D01*
X188214630Y-53820750D01*
X188194435Y-53999996D01*
X167640571Y-53999996D01*
X167752262Y-53929816D01*
X167879816Y-53802262D01*
X167975789Y-53649522D01*
X168035368Y-53479255D01*
X168036644Y-53467929D01*
X168055565Y-53300003D01*
X168055565Y-53299996D01*
X168035369Y-53120750D01*
X168035368Y-53120745D01*
X168012819Y-53056304D01*
X167975789Y-52950478D01*
X167879816Y-52797738D01*
X167752262Y-52670184D01*
X167735720Y-52659790D01*
X167599523Y-52574211D01*
X167429254Y-52514631D01*
X167429249Y-52514630D01*
X167250004Y-52494435D01*
X167249996Y-52494435D01*
X167070750Y-52514630D01*
X167070745Y-52514631D01*
X166898646Y-52574852D01*
X166828867Y-52578413D01*
X166775461Y-52550623D01*
X166772298Y-52547820D01*
X166772296Y-52547819D01*
X166772295Y-52547818D01*
X166621672Y-52468764D01*
X166456502Y-52428054D01*
X166286390Y-52428054D01*
X166121219Y-52468764D01*
X165970596Y-52547817D01*
X165843262Y-52660626D01*
X165746628Y-52800622D01*
X165686306Y-52959679D01*
X165686305Y-52959684D01*
X165665801Y-53128554D01*
X165010632Y-53128554D01*
X165002262Y-53120184D01*
X164899422Y-53055565D01*
X164849523Y-53024211D01*
X164679254Y-52964631D01*
X164679249Y-52964630D01*
X164500004Y-52944435D01*
X164499996Y-52944435D01*
X164320750Y-52964630D01*
X164320745Y-52964631D01*
X164150476Y-53024211D01*
X163997737Y-53120184D01*
X163870184Y-53247737D01*
X163774211Y-53400476D01*
X163714631Y-53570745D01*
X163714630Y-53570750D01*
X163694435Y-53749996D01*
X146900500Y-53749996D01*
X146900500Y-50849994D01*
X151345202Y-50849994D01*
X151345202Y-50850005D01*
X151364361Y-51081218D01*
X151421317Y-51306135D01*
X151514515Y-51518606D01*
X151598812Y-51647633D01*
X152185387Y-51061058D01*
X152190889Y-51081591D01*
X152269881Y-51218408D01*
X152381592Y-51330119D01*
X152518409Y-51409111D01*
X152538940Y-51414612D01*
X151951201Y-52002351D01*
X151981649Y-52026050D01*
X152185697Y-52136476D01*
X152185706Y-52136479D01*
X152405139Y-52211811D01*
X152633993Y-52250000D01*
X152866007Y-52250000D01*
X153094860Y-52211811D01*
X153314293Y-52136479D01*
X153314301Y-52136476D01*
X153518355Y-52026047D01*
X153548797Y-52002351D01*
X153548798Y-52002350D01*
X152961060Y-51414612D01*
X152981591Y-51409111D01*
X153118408Y-51330119D01*
X153230119Y-51218408D01*
X153309111Y-51081591D01*
X153314612Y-51061059D01*
X153901186Y-51647633D01*
X153985482Y-51518611D01*
X154078682Y-51306135D01*
X154135638Y-51081218D01*
X154142368Y-51000000D01*
X161544355Y-51000000D01*
X161564859Y-51168869D01*
X161564860Y-51168874D01*
X161625182Y-51327931D01*
X161633658Y-51340210D01*
X161721817Y-51467929D01*
X161794219Y-51532071D01*
X161849150Y-51580736D01*
X161976612Y-51647633D01*
X161999775Y-51659790D01*
X162164944Y-51700500D01*
X162335056Y-51700500D01*
X162500225Y-51659790D01*
X162579692Y-51618081D01*
X162650849Y-51580736D01*
X162650850Y-51580734D01*
X162650852Y-51580734D01*
X162741987Y-51499996D01*
X164444435Y-51499996D01*
X164444435Y-51500003D01*
X164464630Y-51679249D01*
X164464631Y-51679254D01*
X164524211Y-51849523D01*
X164569796Y-51922070D01*
X164620184Y-52002262D01*
X164747738Y-52129816D01*
X164900478Y-52225789D01*
X165070745Y-52285368D01*
X165070750Y-52285369D01*
X165249996Y-52305565D01*
X165250000Y-52305565D01*
X165250004Y-52305565D01*
X165429249Y-52285369D01*
X165429252Y-52285368D01*
X165429255Y-52285368D01*
X165599522Y-52225789D01*
X165752262Y-52129816D01*
X165879816Y-52002262D01*
X165881237Y-52000000D01*
X169294355Y-52000000D01*
X169314859Y-52168869D01*
X169314860Y-52168874D01*
X169375182Y-52327931D01*
X169383658Y-52340210D01*
X169471817Y-52467929D01*
X169577505Y-52561560D01*
X169599150Y-52580736D01*
X169749773Y-52659789D01*
X169749775Y-52659790D01*
X169914944Y-52700500D01*
X169940754Y-52700500D01*
X170007793Y-52720185D01*
X170053548Y-52772989D01*
X170063850Y-52839447D01*
X170044355Y-53000000D01*
X170064859Y-53168869D01*
X170064860Y-53168874D01*
X170125182Y-53327931D01*
X170187475Y-53418177D01*
X170221817Y-53467929D01*
X170327505Y-53561560D01*
X170349150Y-53580736D01*
X170499773Y-53659789D01*
X170499775Y-53659790D01*
X170664944Y-53700500D01*
X170835056Y-53700500D01*
X171000225Y-53659790D01*
X171082983Y-53616355D01*
X171150849Y-53580736D01*
X171150850Y-53580734D01*
X171150852Y-53580734D01*
X171278183Y-53467929D01*
X171374818Y-53327930D01*
X171435140Y-53168872D01*
X171442167Y-53110999D01*
X193344435Y-53110999D01*
X193344435Y-53111006D01*
X193364630Y-53290252D01*
X193364631Y-53290257D01*
X193424211Y-53460526D01*
X193493467Y-53570745D01*
X193520184Y-53613265D01*
X193647738Y-53740819D01*
X193800478Y-53836792D01*
X193970742Y-53896370D01*
X193970745Y-53896371D01*
X193970750Y-53896372D01*
X194149996Y-53916568D01*
X194150000Y-53916568D01*
X194150004Y-53916568D01*
X194329249Y-53896372D01*
X194329251Y-53896371D01*
X194329255Y-53896371D01*
X194411663Y-53867534D01*
X194481439Y-53863972D01*
X194542067Y-53898700D01*
X194569659Y-53943621D01*
X194624211Y-54099523D01*
X194700384Y-54220750D01*
X194720184Y-54252262D01*
X194847738Y-54379816D01*
X195000478Y-54475789D01*
X195160048Y-54531625D01*
X195170745Y-54535368D01*
X195170750Y-54535369D01*
X195349996Y-54555565D01*
X195350000Y-54555565D01*
X195350004Y-54555565D01*
X195529249Y-54535369D01*
X195529252Y-54535368D01*
X195529255Y-54535368D01*
X195699522Y-54475789D01*
X195820146Y-54399996D01*
X197001543Y-54399996D01*
X197001543Y-54400003D01*
X197021738Y-54579249D01*
X197021739Y-54579254D01*
X197081319Y-54749523D01*
X197125045Y-54819112D01*
X197177292Y-54902262D01*
X197304846Y-55029816D01*
X197371214Y-55071518D01*
X197448665Y-55120184D01*
X197457586Y-55125789D01*
X197573497Y-55166348D01*
X197627853Y-55185368D01*
X197627858Y-55185369D01*
X197807104Y-55205565D01*
X197807108Y-55205565D01*
X197807112Y-55205565D01*
X197986357Y-55185369D01*
X197986360Y-55185368D01*
X197986363Y-55185368D01*
X198156630Y-55125789D01*
X198309370Y-55029816D01*
X198436924Y-54902262D01*
X198532897Y-54749522D01*
X198592476Y-54579255D01*
X198592477Y-54579249D01*
X198612673Y-54400003D01*
X198612673Y-54399996D01*
X198595772Y-54249996D01*
X200694435Y-54249996D01*
X200694435Y-54250003D01*
X200714630Y-54429249D01*
X200714631Y-54429254D01*
X200774211Y-54599523D01*
X200833849Y-54694435D01*
X200870184Y-54752262D01*
X200997738Y-54879816D01*
X201014581Y-54890399D01*
X201132721Y-54964632D01*
X201150478Y-54975789D01*
X201304878Y-55029816D01*
X201320745Y-55035368D01*
X201320750Y-55035369D01*
X201499996Y-55055565D01*
X201500000Y-55055565D01*
X201500004Y-55055565D01*
X201679249Y-55035369D01*
X201679252Y-55035368D01*
X201679255Y-55035368D01*
X201849522Y-54975789D01*
X202002262Y-54879816D01*
X202129816Y-54752262D01*
X202225789Y-54599522D01*
X202285368Y-54429255D01*
X202285369Y-54429249D01*
X202305565Y-54250003D01*
X202305565Y-54249996D01*
X205194435Y-54249996D01*
X205194435Y-54250003D01*
X205214630Y-54429249D01*
X205214631Y-54429254D01*
X205274211Y-54599523D01*
X205333849Y-54694435D01*
X205370184Y-54752262D01*
X205497738Y-54879816D01*
X205514581Y-54890399D01*
X205632721Y-54964632D01*
X205650478Y-54975789D01*
X205804878Y-55029816D01*
X205820745Y-55035368D01*
X205820750Y-55035369D01*
X205999996Y-55055565D01*
X206000000Y-55055565D01*
X206000004Y-55055565D01*
X206179249Y-55035369D01*
X206179252Y-55035368D01*
X206179255Y-55035368D01*
X206349522Y-54975789D01*
X206502262Y-54879816D01*
X206629816Y-54752262D01*
X206725789Y-54599522D01*
X206785368Y-54429255D01*
X206785369Y-54429249D01*
X206805565Y-54250003D01*
X206805565Y-54249996D01*
X206785369Y-54070750D01*
X206785368Y-54070745D01*
X206736054Y-53929815D01*
X206725789Y-53900478D01*
X206724067Y-53897738D01*
X206680910Y-53829054D01*
X206629816Y-53747738D01*
X206502262Y-53620184D01*
X206493426Y-53614632D01*
X206349523Y-53524211D01*
X206179254Y-53464631D01*
X206179249Y-53464630D01*
X206000004Y-53444435D01*
X205999996Y-53444435D01*
X205820750Y-53464630D01*
X205820745Y-53464631D01*
X205650476Y-53524211D01*
X205497737Y-53620184D01*
X205370184Y-53747737D01*
X205274211Y-53900476D01*
X205214631Y-54070745D01*
X205214630Y-54070750D01*
X205194435Y-54249996D01*
X202305565Y-54249996D01*
X202285369Y-54070750D01*
X202285368Y-54070745D01*
X202236054Y-53929815D01*
X202225789Y-53900478D01*
X202224067Y-53897738D01*
X202180910Y-53829054D01*
X202129816Y-53747738D01*
X202002262Y-53620184D01*
X201993426Y-53614632D01*
X201849523Y-53524211D01*
X201679254Y-53464631D01*
X201679249Y-53464630D01*
X201500004Y-53444435D01*
X201499996Y-53444435D01*
X201320750Y-53464630D01*
X201320745Y-53464631D01*
X201150476Y-53524211D01*
X200997737Y-53620184D01*
X200870184Y-53747737D01*
X200774211Y-53900476D01*
X200714631Y-54070745D01*
X200714630Y-54070750D01*
X200694435Y-54249996D01*
X198595772Y-54249996D01*
X198592477Y-54220750D01*
X198592476Y-54220745D01*
X198550894Y-54101910D01*
X198532897Y-54050478D01*
X198436924Y-53897738D01*
X198309370Y-53770184D01*
X198277252Y-53750003D01*
X198156631Y-53674211D01*
X197986362Y-53614631D01*
X197986357Y-53614630D01*
X197807112Y-53594435D01*
X197807104Y-53594435D01*
X197627858Y-53614630D01*
X197627853Y-53614631D01*
X197457584Y-53674211D01*
X197304845Y-53770184D01*
X197177292Y-53897737D01*
X197081319Y-54050476D01*
X197021739Y-54220745D01*
X197021738Y-54220750D01*
X197001543Y-54399996D01*
X195820146Y-54399996D01*
X195852262Y-54379816D01*
X195979816Y-54252262D01*
X196075789Y-54099522D01*
X196135368Y-53929255D01*
X196135369Y-53929249D01*
X196155565Y-53750003D01*
X196155565Y-53749996D01*
X196135369Y-53570750D01*
X196135368Y-53570745D01*
X196096800Y-53460525D01*
X196075789Y-53400478D01*
X195979816Y-53247738D01*
X195852262Y-53120184D01*
X195749422Y-53055565D01*
X195699523Y-53024211D01*
X195529254Y-52964631D01*
X195529249Y-52964630D01*
X195350004Y-52944435D01*
X195349996Y-52944435D01*
X195170750Y-52964630D01*
X195170742Y-52964632D01*
X195088336Y-52993467D01*
X195018557Y-52997028D01*
X194957930Y-52962299D01*
X194930340Y-52917380D01*
X194917196Y-52879816D01*
X194875789Y-52761481D01*
X194869996Y-52752262D01*
X194858418Y-52733834D01*
X194839418Y-52666597D01*
X194859786Y-52599762D01*
X194861320Y-52597483D01*
X194874818Y-52577930D01*
X194935140Y-52418872D01*
X194955645Y-52250000D01*
X194935140Y-52081128D01*
X194874818Y-51922070D01*
X194778183Y-51782071D01*
X194683316Y-51698026D01*
X194650849Y-51669263D01*
X194500226Y-51590210D01*
X194335056Y-51549500D01*
X194164944Y-51549500D01*
X193999773Y-51590210D01*
X193849150Y-51669263D01*
X193721816Y-51782072D01*
X193625182Y-51922068D01*
X193564860Y-52081125D01*
X193564859Y-52081130D01*
X193544355Y-52250000D01*
X193564859Y-52418870D01*
X193564860Y-52418874D01*
X193576354Y-52449181D01*
X193581720Y-52518844D01*
X193548571Y-52580350D01*
X193548094Y-52580830D01*
X193520184Y-52608739D01*
X193424211Y-52761479D01*
X193364631Y-52931748D01*
X193364630Y-52931753D01*
X193344435Y-53110999D01*
X171442167Y-53110999D01*
X171455645Y-53000000D01*
X171435140Y-52831128D01*
X171374818Y-52672070D01*
X171373516Y-52670184D01*
X171311773Y-52580734D01*
X171278183Y-52532071D01*
X171183316Y-52448026D01*
X171150849Y-52419263D01*
X171000226Y-52340210D01*
X170835056Y-52299500D01*
X170809246Y-52299500D01*
X170742207Y-52279815D01*
X170716369Y-52249996D01*
X189544435Y-52249996D01*
X189544435Y-52250000D01*
X189564630Y-52429249D01*
X189564631Y-52429254D01*
X189624211Y-52599523D01*
X189669796Y-52672070D01*
X189720184Y-52752262D01*
X189847738Y-52879816D01*
X189907521Y-52917380D01*
X189982721Y-52964632D01*
X190000478Y-52975789D01*
X190138860Y-53024211D01*
X190170745Y-53035368D01*
X190170750Y-53035369D01*
X190349996Y-53055565D01*
X190350000Y-53055565D01*
X190350004Y-53055565D01*
X190529249Y-53035369D01*
X190529252Y-53035368D01*
X190529255Y-53035368D01*
X190699522Y-52975789D01*
X190852262Y-52879816D01*
X190979816Y-52752262D01*
X191075789Y-52599522D01*
X191135368Y-52429255D01*
X191135504Y-52428054D01*
X191155565Y-52250000D01*
X191155565Y-52249996D01*
X191444435Y-52249996D01*
X191444435Y-52250000D01*
X191464630Y-52429249D01*
X191464631Y-52429254D01*
X191524211Y-52599523D01*
X191569796Y-52672070D01*
X191620184Y-52752262D01*
X191747738Y-52879816D01*
X191807521Y-52917380D01*
X191882721Y-52964632D01*
X191900478Y-52975789D01*
X192038860Y-53024211D01*
X192070745Y-53035368D01*
X192070750Y-53035369D01*
X192249996Y-53055565D01*
X192250000Y-53055565D01*
X192250004Y-53055565D01*
X192429249Y-53035369D01*
X192429252Y-53035368D01*
X192429255Y-53035368D01*
X192599522Y-52975789D01*
X192752262Y-52879816D01*
X192879816Y-52752262D01*
X192975789Y-52599522D01*
X193035368Y-52429255D01*
X193035504Y-52428054D01*
X193055565Y-52250000D01*
X193055565Y-52249996D01*
X193035369Y-52070750D01*
X193035368Y-52070745D01*
X192975789Y-51900478D01*
X192879816Y-51747738D01*
X192752262Y-51620184D01*
X192689478Y-51580734D01*
X192599523Y-51524211D01*
X192429254Y-51464631D01*
X192429249Y-51464630D01*
X192250004Y-51444435D01*
X192249996Y-51444435D01*
X192070750Y-51464630D01*
X192070745Y-51464631D01*
X191900476Y-51524211D01*
X191747737Y-51620184D01*
X191620184Y-51747737D01*
X191524211Y-51900476D01*
X191464631Y-52070745D01*
X191464630Y-52070750D01*
X191444435Y-52249996D01*
X191155565Y-52249996D01*
X191135369Y-52070750D01*
X191135368Y-52070745D01*
X191075789Y-51900478D01*
X190979816Y-51747738D01*
X190852262Y-51620184D01*
X190789478Y-51580734D01*
X190699523Y-51524211D01*
X190529254Y-51464631D01*
X190529249Y-51464630D01*
X190350004Y-51444435D01*
X190349996Y-51444435D01*
X190170750Y-51464630D01*
X190170745Y-51464631D01*
X190000476Y-51524211D01*
X189847737Y-51620184D01*
X189720184Y-51747737D01*
X189624211Y-51900476D01*
X189564631Y-52070745D01*
X189564630Y-52070750D01*
X189544435Y-52249996D01*
X170716369Y-52249996D01*
X170696452Y-52227011D01*
X170686150Y-52160553D01*
X170689073Y-52136479D01*
X170705645Y-52000000D01*
X170685140Y-51831128D01*
X170624818Y-51672070D01*
X170622880Y-51669263D01*
X170589003Y-51620184D01*
X170528183Y-51532071D01*
X170400852Y-51419266D01*
X170400849Y-51419263D01*
X170250226Y-51340210D01*
X170085056Y-51299500D01*
X169914944Y-51299500D01*
X169749773Y-51340210D01*
X169599150Y-51419263D01*
X169471816Y-51532072D01*
X169375182Y-51672068D01*
X169314860Y-51831125D01*
X169314859Y-51831130D01*
X169294355Y-52000000D01*
X165881237Y-52000000D01*
X165975789Y-51849522D01*
X166035368Y-51679255D01*
X166036178Y-51672068D01*
X166055565Y-51500003D01*
X166055565Y-51499996D01*
X166035369Y-51320750D01*
X166035368Y-51320745D01*
X165975788Y-51150476D01*
X165932270Y-51081218D01*
X165879816Y-50997738D01*
X165752262Y-50870184D01*
X165599523Y-50774211D01*
X165429254Y-50714631D01*
X165429249Y-50714630D01*
X165250004Y-50694435D01*
X165249996Y-50694435D01*
X165070750Y-50714630D01*
X165070745Y-50714631D01*
X164900476Y-50774211D01*
X164747737Y-50870184D01*
X164620184Y-50997737D01*
X164524211Y-51150476D01*
X164464631Y-51320745D01*
X164464630Y-51320750D01*
X164444435Y-51499996D01*
X162741987Y-51499996D01*
X162778183Y-51467929D01*
X162874818Y-51327930D01*
X162935140Y-51168872D01*
X162955645Y-51000000D01*
X162935140Y-50831128D01*
X162874818Y-50672070D01*
X162778183Y-50532071D01*
X162741978Y-50499996D01*
X168194435Y-50499996D01*
X168194435Y-50500003D01*
X168214630Y-50679249D01*
X168214631Y-50679254D01*
X168274211Y-50849523D01*
X168367341Y-50997737D01*
X168370184Y-51002262D01*
X168497738Y-51129816D01*
X168588080Y-51186582D01*
X168615089Y-51203553D01*
X168650478Y-51225789D01*
X168820745Y-51285368D01*
X168820750Y-51285369D01*
X168999996Y-51305565D01*
X169000000Y-51305565D01*
X169000004Y-51305565D01*
X169179249Y-51285369D01*
X169179252Y-51285368D01*
X169179255Y-51285368D01*
X169349522Y-51225789D01*
X169502262Y-51129816D01*
X169629816Y-51002262D01*
X169725789Y-50849522D01*
X169785368Y-50679255D01*
X169787561Y-50659790D01*
X169805565Y-50500003D01*
X169805565Y-50499996D01*
X169785369Y-50320750D01*
X169785368Y-50320745D01*
X169752141Y-50225787D01*
X169725789Y-50150478D01*
X169629816Y-49997738D01*
X169502262Y-49870184D01*
X169440100Y-49831125D01*
X169349523Y-49774211D01*
X169179254Y-49714631D01*
X169179249Y-49714630D01*
X169000004Y-49694435D01*
X168999996Y-49694435D01*
X168820750Y-49714630D01*
X168820745Y-49714631D01*
X168650476Y-49774211D01*
X168497737Y-49870184D01*
X168370184Y-49997737D01*
X168274211Y-50150476D01*
X168214631Y-50320745D01*
X168214630Y-50320750D01*
X168194435Y-50499996D01*
X162741978Y-50499996D01*
X162650852Y-50419266D01*
X162650849Y-50419263D01*
X162500226Y-50340210D01*
X162335056Y-50299500D01*
X162164944Y-50299500D01*
X161999773Y-50340210D01*
X161849150Y-50419263D01*
X161721816Y-50532072D01*
X161625182Y-50672068D01*
X161564860Y-50831125D01*
X161564859Y-50831130D01*
X161544355Y-51000000D01*
X154142368Y-51000000D01*
X154154798Y-50850005D01*
X154154798Y-50849994D01*
X154135638Y-50618781D01*
X154078682Y-50393864D01*
X153985484Y-50181393D01*
X153901186Y-50052365D01*
X153314612Y-50638939D01*
X153309111Y-50618409D01*
X153230119Y-50481592D01*
X153118408Y-50369881D01*
X152981591Y-50290889D01*
X152961058Y-50285387D01*
X153548797Y-49697647D01*
X153548797Y-49697645D01*
X153518360Y-49673955D01*
X153518354Y-49673951D01*
X153314302Y-49563523D01*
X153314293Y-49563520D01*
X153094860Y-49488188D01*
X152866007Y-49450000D01*
X152633993Y-49450000D01*
X152405139Y-49488188D01*
X152185706Y-49563520D01*
X152185697Y-49563523D01*
X151981650Y-49673949D01*
X151951200Y-49697647D01*
X152538941Y-50285387D01*
X152518409Y-50290889D01*
X152381592Y-50369881D01*
X152269881Y-50481592D01*
X152190889Y-50618409D01*
X152185387Y-50638941D01*
X151598811Y-50052365D01*
X151514516Y-50181390D01*
X151421317Y-50393864D01*
X151364361Y-50618781D01*
X151345202Y-50849994D01*
X146900500Y-50849994D01*
X146900500Y-48249996D01*
X154944435Y-48249996D01*
X154944435Y-48250003D01*
X154964630Y-48429249D01*
X154964631Y-48429254D01*
X155024211Y-48599523D01*
X155083848Y-48694434D01*
X155120184Y-48752262D01*
X155247738Y-48879816D01*
X155400478Y-48975789D01*
X155570745Y-49035368D01*
X155570750Y-49035369D01*
X155749996Y-49055565D01*
X155750000Y-49055565D01*
X155750004Y-49055565D01*
X155929249Y-49035369D01*
X155929252Y-49035368D01*
X155929255Y-49035368D01*
X156030331Y-49000000D01*
X170044355Y-49000000D01*
X170064859Y-49168869D01*
X170064860Y-49168874D01*
X170125182Y-49327931D01*
X170170850Y-49394091D01*
X170221817Y-49467929D01*
X170294219Y-49532071D01*
X170349150Y-49580736D01*
X170483854Y-49651434D01*
X170499775Y-49659790D01*
X170664944Y-49700500D01*
X170835056Y-49700500D01*
X171000225Y-49659790D01*
X171079692Y-49618081D01*
X171150849Y-49580736D01*
X171150850Y-49580734D01*
X171150852Y-49580734D01*
X171278183Y-49467929D01*
X171374818Y-49327930D01*
X171435140Y-49168872D01*
X171455645Y-49000000D01*
X171435140Y-48831128D01*
X171374818Y-48672070D01*
X171278183Y-48532071D01*
X171183316Y-48448026D01*
X171150849Y-48419263D01*
X171000226Y-48340210D01*
X170835056Y-48299500D01*
X170664944Y-48299500D01*
X170499773Y-48340210D01*
X170349150Y-48419263D01*
X170221816Y-48532072D01*
X170125182Y-48672068D01*
X170064860Y-48831125D01*
X170064859Y-48831130D01*
X170044355Y-49000000D01*
X156030331Y-49000000D01*
X156099522Y-48975789D01*
X156252262Y-48879816D01*
X156379816Y-48752262D01*
X156475789Y-48599522D01*
X156535368Y-48429255D01*
X156535369Y-48429249D01*
X156555565Y-48250003D01*
X156555565Y-48249996D01*
X156535369Y-48070750D01*
X156535368Y-48070745D01*
X156483344Y-47922070D01*
X156475789Y-47900478D01*
X156379816Y-47747738D01*
X156252262Y-47620184D01*
X156185017Y-47577931D01*
X156099523Y-47524211D01*
X156030321Y-47499996D01*
X158194435Y-47499996D01*
X158194435Y-47500003D01*
X158214630Y-47679249D01*
X158214631Y-47679254D01*
X158274211Y-47849523D01*
X158319796Y-47922070D01*
X158370184Y-48002262D01*
X158497738Y-48129816D01*
X158588080Y-48186582D01*
X158637965Y-48217927D01*
X158650478Y-48225789D01*
X158719678Y-48250003D01*
X158820745Y-48285368D01*
X158820750Y-48285369D01*
X158999996Y-48305565D01*
X159000000Y-48305565D01*
X159000004Y-48305565D01*
X159179249Y-48285369D01*
X159179252Y-48285368D01*
X159179255Y-48285368D01*
X159349522Y-48225789D01*
X159502262Y-48129816D01*
X159629816Y-48002262D01*
X159725789Y-47849522D01*
X159785368Y-47679255D01*
X159785369Y-47679249D01*
X159805565Y-47500003D01*
X159805565Y-47499996D01*
X159785369Y-47320750D01*
X159785368Y-47320745D01*
X159760788Y-47250499D01*
X159725789Y-47150478D01*
X159724870Y-47149016D01*
X159681967Y-47080736D01*
X159629816Y-46997738D01*
X159502262Y-46870184D01*
X159482337Y-46857664D01*
X159349523Y-46774211D01*
X159179254Y-46714631D01*
X159179249Y-46714630D01*
X159000004Y-46694435D01*
X158999996Y-46694435D01*
X158820750Y-46714630D01*
X158820745Y-46714631D01*
X158650476Y-46774211D01*
X158497737Y-46870184D01*
X158370184Y-46997737D01*
X158274211Y-47150476D01*
X158214631Y-47320745D01*
X158214630Y-47320750D01*
X158194435Y-47499996D01*
X156030321Y-47499996D01*
X155929254Y-47464631D01*
X155929249Y-47464630D01*
X155750004Y-47444435D01*
X155749996Y-47444435D01*
X155570750Y-47464630D01*
X155570745Y-47464631D01*
X155400476Y-47524211D01*
X155247737Y-47620184D01*
X155120184Y-47747737D01*
X155024211Y-47900476D01*
X154964631Y-48070745D01*
X154964630Y-48070750D01*
X154944435Y-48249996D01*
X146900500Y-48249996D01*
X146900500Y-44902135D01*
X151349500Y-44902135D01*
X151349500Y-46797870D01*
X151349501Y-46797876D01*
X151355908Y-46857483D01*
X151406202Y-46992328D01*
X151406206Y-46992335D01*
X151492452Y-47107544D01*
X151492455Y-47107547D01*
X151607664Y-47193793D01*
X151607671Y-47193797D01*
X151742517Y-47244091D01*
X151742516Y-47244091D01*
X151749444Y-47244835D01*
X151802127Y-47250500D01*
X153697872Y-47250499D01*
X153757483Y-47244091D01*
X153892331Y-47193796D01*
X154007546Y-47107546D01*
X154093796Y-46992331D01*
X154144091Y-46857483D01*
X154150500Y-46797873D01*
X154150499Y-45499996D01*
X158944435Y-45499996D01*
X158944435Y-45500003D01*
X158964630Y-45679249D01*
X158964631Y-45679254D01*
X159024211Y-45849523D01*
X159106587Y-45980623D01*
X159120184Y-46002262D01*
X159247738Y-46129816D01*
X159400478Y-46225789D01*
X159570745Y-46285368D01*
X159570750Y-46285369D01*
X159749996Y-46305565D01*
X159750000Y-46305565D01*
X159750004Y-46305565D01*
X159929249Y-46285369D01*
X159929252Y-46285368D01*
X159929255Y-46285368D01*
X160099522Y-46225789D01*
X160252262Y-46129816D01*
X160379816Y-46002262D01*
X160475789Y-45849522D01*
X160510615Y-45749996D01*
X167694435Y-45749996D01*
X167694435Y-45750003D01*
X167714630Y-45929249D01*
X167714631Y-45929254D01*
X167774211Y-46099523D01*
X167819796Y-46172070D01*
X167870184Y-46252262D01*
X167997738Y-46379816D01*
X168150478Y-46475789D01*
X168232321Y-46504427D01*
X168320745Y-46535368D01*
X168320750Y-46535369D01*
X168499996Y-46555565D01*
X168500000Y-46555565D01*
X168500004Y-46555565D01*
X168679249Y-46535369D01*
X168679252Y-46535368D01*
X168679255Y-46535368D01*
X168849522Y-46475789D01*
X169002262Y-46379816D01*
X169129816Y-46252262D01*
X169225789Y-46099522D01*
X169285368Y-45929255D01*
X169286178Y-45922068D01*
X169305565Y-45750003D01*
X169305565Y-45749998D01*
X169300477Y-45704846D01*
X169312531Y-45636024D01*
X169359879Y-45584644D01*
X169427489Y-45567019D01*
X169493896Y-45588745D01*
X169505923Y-45598144D01*
X169599148Y-45680734D01*
X169749775Y-45759790D01*
X169914944Y-45800500D01*
X170085054Y-45800500D01*
X170085056Y-45800500D01*
X170138748Y-45787266D01*
X170208547Y-45790335D01*
X170256102Y-45819982D01*
X170259310Y-45823190D01*
X170292795Y-45884513D01*
X170287811Y-45954205D01*
X170253857Y-46003686D01*
X170221816Y-46032071D01*
X170125182Y-46172068D01*
X170064860Y-46331125D01*
X170064859Y-46331130D01*
X170044355Y-46500000D01*
X170064859Y-46668869D01*
X170064860Y-46668874D01*
X170125182Y-46827931D01*
X170170416Y-46893463D01*
X170221817Y-46967929D01*
X170316860Y-47052129D01*
X170349150Y-47080736D01*
X170499773Y-47159789D01*
X170499775Y-47159790D01*
X170664944Y-47200500D01*
X170835056Y-47200500D01*
X171000225Y-47159790D01*
X171150852Y-47080734D01*
X171257552Y-46986205D01*
X171320785Y-46956484D01*
X171390048Y-46965667D01*
X171427460Y-46991340D01*
X172921635Y-48485515D01*
X172921641Y-48485518D01*
X172926985Y-48489619D01*
X172968189Y-48546046D01*
X172972346Y-48615792D01*
X172938135Y-48676713D01*
X172876418Y-48709468D01*
X172865387Y-48711217D01*
X172835100Y-48714630D01*
X172835097Y-48714630D01*
X172664828Y-48774210D01*
X172512089Y-48870183D01*
X172384536Y-48997736D01*
X172288563Y-49150475D01*
X172228983Y-49320744D01*
X172228982Y-49320749D01*
X172208787Y-49499995D01*
X172208787Y-49500002D01*
X172228982Y-49679248D01*
X172228983Y-49679253D01*
X172288563Y-49849522D01*
X172301546Y-49870184D01*
X172384536Y-50002261D01*
X172512090Y-50129815D01*
X172664830Y-50225788D01*
X172734024Y-50250000D01*
X172835097Y-50285367D01*
X172835102Y-50285368D01*
X173014348Y-50305564D01*
X173014352Y-50305564D01*
X173014356Y-50305564D01*
X173193601Y-50285368D01*
X173193604Y-50285367D01*
X173193607Y-50285367D01*
X173363874Y-50225788D01*
X173516614Y-50129815D01*
X173644168Y-50002261D01*
X173740141Y-49849521D01*
X173799720Y-49679254D01*
X173800317Y-49673955D01*
X173802855Y-49651434D01*
X173829921Y-49587020D01*
X173887516Y-49547465D01*
X173957352Y-49545327D01*
X174013756Y-49577636D01*
X174789485Y-50353365D01*
X174896635Y-50460515D01*
X175027865Y-50536281D01*
X175174234Y-50575500D01*
X189808612Y-50575500D01*
X189866238Y-50589704D01*
X189999773Y-50659789D01*
X189999775Y-50659790D01*
X190164944Y-50700500D01*
X190335056Y-50700500D01*
X190500225Y-50659790D01*
X190579692Y-50618081D01*
X190650849Y-50580736D01*
X190650850Y-50580734D01*
X190650852Y-50580734D01*
X190778183Y-50467929D01*
X190874818Y-50327930D01*
X190935140Y-50168872D01*
X190955645Y-50000000D01*
X190935140Y-49831128D01*
X190874818Y-49672070D01*
X190778183Y-49532071D01*
X190656760Y-49424500D01*
X190650849Y-49419263D01*
X190500226Y-49340210D01*
X190345971Y-49302190D01*
X190285590Y-49267034D01*
X190253802Y-49204814D01*
X190260698Y-49135286D01*
X190287961Y-49094116D01*
X190379816Y-49002262D01*
X190475789Y-48849522D01*
X190535368Y-48679255D01*
X190535369Y-48679249D01*
X190555565Y-48500003D01*
X190555565Y-48499996D01*
X190535722Y-48323882D01*
X190547777Y-48255061D01*
X190595126Y-48203681D01*
X190629262Y-48189604D01*
X190750225Y-48159790D01*
X190772710Y-48147989D01*
X190900849Y-48080736D01*
X190900850Y-48080734D01*
X190900852Y-48080734D01*
X191028183Y-47967929D01*
X191124818Y-47827930D01*
X191185140Y-47668872D01*
X191205645Y-47500000D01*
X191185140Y-47331128D01*
X191124818Y-47172070D01*
X191122881Y-47169264D01*
X191064972Y-47085369D01*
X191042032Y-47052135D01*
X204099500Y-47052135D01*
X204099500Y-48947870D01*
X204099501Y-48947876D01*
X204105908Y-49007483D01*
X204156202Y-49142328D01*
X204156206Y-49142335D01*
X204242452Y-49257544D01*
X204242455Y-49257547D01*
X204357664Y-49343793D01*
X204357671Y-49343797D01*
X204492517Y-49394091D01*
X204492516Y-49394091D01*
X204499444Y-49394835D01*
X204552127Y-49400500D01*
X206447872Y-49400499D01*
X206507483Y-49394091D01*
X206642331Y-49343796D01*
X206757546Y-49257546D01*
X206843796Y-49142331D01*
X206894091Y-49007483D01*
X206900500Y-48947873D01*
X206900499Y-47052128D01*
X206894091Y-46992517D01*
X206891737Y-46986206D01*
X206843797Y-46857671D01*
X206843793Y-46857664D01*
X206757547Y-46742455D01*
X206757544Y-46742452D01*
X206642335Y-46656206D01*
X206642328Y-46656202D01*
X206507482Y-46605908D01*
X206507483Y-46605908D01*
X206447883Y-46599501D01*
X206447881Y-46599500D01*
X206447873Y-46599500D01*
X206447864Y-46599500D01*
X204552129Y-46599500D01*
X204552123Y-46599501D01*
X204492516Y-46605908D01*
X204357671Y-46656202D01*
X204357664Y-46656206D01*
X204242455Y-46742452D01*
X204242452Y-46742455D01*
X204156206Y-46857664D01*
X204156202Y-46857671D01*
X204105908Y-46992517D01*
X204101656Y-47032071D01*
X204099501Y-47052123D01*
X204099500Y-47052135D01*
X191042032Y-47052135D01*
X191028183Y-47032071D01*
X191006502Y-47012863D01*
X190934573Y-46949139D01*
X190897446Y-46889950D01*
X190898214Y-46820084D01*
X190929117Y-46768645D01*
X194697769Y-42999994D01*
X204095202Y-42999994D01*
X204095202Y-43000005D01*
X204114361Y-43231218D01*
X204171317Y-43456135D01*
X204264515Y-43668606D01*
X204348812Y-43797633D01*
X204935387Y-43211058D01*
X204940889Y-43231591D01*
X205019881Y-43368408D01*
X205131592Y-43480119D01*
X205268409Y-43559111D01*
X205288940Y-43564612D01*
X204701201Y-44152351D01*
X204731649Y-44176050D01*
X204935697Y-44286476D01*
X204935706Y-44286479D01*
X205155139Y-44361811D01*
X205383993Y-44400000D01*
X205616007Y-44400000D01*
X205844860Y-44361811D01*
X206064293Y-44286479D01*
X206064301Y-44286476D01*
X206268355Y-44176047D01*
X206298797Y-44152351D01*
X206298798Y-44152350D01*
X205711060Y-43564612D01*
X205731591Y-43559111D01*
X205868408Y-43480119D01*
X205980119Y-43368408D01*
X206059111Y-43231591D01*
X206064612Y-43211059D01*
X206651186Y-43797633D01*
X206735482Y-43668611D01*
X206828682Y-43456135D01*
X206885638Y-43231218D01*
X206904798Y-43000005D01*
X206904798Y-42999994D01*
X206885638Y-42768781D01*
X206828682Y-42543864D01*
X206735484Y-42331393D01*
X206651186Y-42202365D01*
X206064612Y-42788939D01*
X206059111Y-42768409D01*
X205980119Y-42631592D01*
X205868408Y-42519881D01*
X205731591Y-42440889D01*
X205711058Y-42435387D01*
X206298797Y-41847647D01*
X206298797Y-41847645D01*
X206268360Y-41823955D01*
X206268354Y-41823951D01*
X206064302Y-41713523D01*
X206064293Y-41713520D01*
X205844860Y-41638188D01*
X205616007Y-41600000D01*
X205383993Y-41600000D01*
X205155139Y-41638188D01*
X204935706Y-41713520D01*
X204935697Y-41713523D01*
X204731650Y-41823949D01*
X204701200Y-41847647D01*
X205288941Y-42435387D01*
X205268409Y-42440889D01*
X205131592Y-42519881D01*
X205019881Y-42631592D01*
X204940889Y-42768409D01*
X204935387Y-42788941D01*
X204348811Y-42202365D01*
X204264516Y-42331390D01*
X204171317Y-42543864D01*
X204114361Y-42768781D01*
X204095202Y-42999994D01*
X194697769Y-42999994D01*
X203810945Y-33886819D01*
X203872268Y-33853334D01*
X203898626Y-33850500D01*
X206063331Y-33850500D01*
X206063347Y-33850501D01*
X206070943Y-33850501D01*
X206229054Y-33850501D01*
X206229057Y-33850501D01*
X206381785Y-33809577D01*
X206431904Y-33780639D01*
X206518716Y-33730520D01*
X206630520Y-33618716D01*
X206630520Y-33618714D01*
X206640728Y-33608507D01*
X206640728Y-33608505D01*
X206762460Y-33486774D01*
X206823782Y-33453291D01*
X206837992Y-33451054D01*
X206843617Y-33450500D01*
X206894654Y-33440348D01*
X207027251Y-33413973D01*
X207200231Y-33342322D01*
X207226964Y-33324459D01*
X207293638Y-33303580D01*
X207360952Y-33322021D01*
X207466303Y-33387003D01*
X207627292Y-33440349D01*
X207726655Y-33450500D01*
X208273344Y-33450499D01*
X208273352Y-33450498D01*
X208273355Y-33450498D01*
X208327760Y-33444940D01*
X208372708Y-33440349D01*
X208533697Y-33387003D01*
X208678044Y-33297968D01*
X208797968Y-33178044D01*
X208887003Y-33033697D01*
X208940349Y-32872708D01*
X208950500Y-32773345D01*
X208950499Y-31726656D01*
X208942719Y-31650498D01*
X208940349Y-31627292D01*
X208940348Y-31627289D01*
X208929250Y-31593797D01*
X208887003Y-31466303D01*
X208886999Y-31466297D01*
X208886998Y-31466294D01*
X208797970Y-31321959D01*
X208797967Y-31321955D01*
X208678044Y-31202032D01*
X208678040Y-31202029D01*
X208533705Y-31113001D01*
X208533699Y-31112998D01*
X208533697Y-31112997D01*
X208453752Y-31086506D01*
X208372709Y-31059651D01*
X208273346Y-31049500D01*
X207726662Y-31049500D01*
X207726644Y-31049501D01*
X207627292Y-31059650D01*
X207627289Y-31059651D01*
X207466305Y-31112996D01*
X207466300Y-31112998D01*
X207360953Y-31177978D01*
X207293560Y-31196418D01*
X207226965Y-31175541D01*
X207200230Y-31157677D01*
X207027251Y-31086027D01*
X207027243Y-31086025D01*
X206843620Y-31049500D01*
X206843616Y-31049500D01*
X206656384Y-31049500D01*
X206656379Y-31049500D01*
X206472756Y-31086025D01*
X206472748Y-31086027D01*
X206299771Y-31157676D01*
X206299757Y-31157684D01*
X206193440Y-31228723D01*
X206126763Y-31249601D01*
X206059383Y-31231116D01*
X206055660Y-31228723D01*
X205950005Y-31158127D01*
X205949991Y-31158119D01*
X205777103Y-31086507D01*
X205777100Y-31086506D01*
X205750000Y-31081115D01*
X205750000Y-32083011D01*
X205740060Y-32065795D01*
X205684205Y-32009940D01*
X205615796Y-31970444D01*
X205539496Y-31950000D01*
X205460504Y-31950000D01*
X205384204Y-31970444D01*
X205315795Y-32009940D01*
X205259940Y-32065795D01*
X205250000Y-32083011D01*
X205250000Y-31081116D01*
X205249999Y-31081115D01*
X205222899Y-31086506D01*
X205222896Y-31086507D01*
X205050008Y-31158119D01*
X205049994Y-31158127D01*
X204944340Y-31228723D01*
X204877663Y-31249601D01*
X204810283Y-31231116D01*
X204806560Y-31228723D01*
X204700242Y-31157684D01*
X204700228Y-31157676D01*
X204527251Y-31086027D01*
X204527243Y-31086025D01*
X204343620Y-31049500D01*
X204343616Y-31049500D01*
X204156384Y-31049500D01*
X204156379Y-31049500D01*
X203972756Y-31086025D01*
X203972748Y-31086027D01*
X203799771Y-31157676D01*
X203799764Y-31157680D01*
X203693890Y-31228423D01*
X203627213Y-31249300D01*
X203559833Y-31230815D01*
X203556110Y-31228423D01*
X203450235Y-31157680D01*
X203450228Y-31157676D01*
X203277251Y-31086027D01*
X203277243Y-31086025D01*
X203093620Y-31049500D01*
X203093616Y-31049500D01*
X202906384Y-31049500D01*
X202906379Y-31049500D01*
X202722756Y-31086025D01*
X202722748Y-31086027D01*
X202549771Y-31157676D01*
X202549764Y-31157680D01*
X202443890Y-31228423D01*
X202377213Y-31249300D01*
X202309833Y-31230815D01*
X202306110Y-31228423D01*
X202200235Y-31157680D01*
X202200228Y-31157676D01*
X202027251Y-31086027D01*
X202027243Y-31086025D01*
X201843620Y-31049500D01*
X201843616Y-31049500D01*
X201656384Y-31049500D01*
X201656379Y-31049500D01*
X201472756Y-31086025D01*
X201472748Y-31086027D01*
X201299771Y-31157676D01*
X201299764Y-31157680D01*
X201193890Y-31228423D01*
X201127213Y-31249300D01*
X201059833Y-31230815D01*
X201056110Y-31228423D01*
X200950235Y-31157680D01*
X200950228Y-31157676D01*
X200777251Y-31086027D01*
X200777243Y-31086025D01*
X200593620Y-31049500D01*
X200593616Y-31049500D01*
X200406384Y-31049500D01*
X200406379Y-31049500D01*
X200222756Y-31086025D01*
X200222748Y-31086027D01*
X200049771Y-31157676D01*
X200049764Y-31157680D01*
X199943890Y-31228423D01*
X199877213Y-31249300D01*
X199809833Y-31230815D01*
X199806110Y-31228423D01*
X199700235Y-31157680D01*
X199700228Y-31157676D01*
X199527251Y-31086027D01*
X199527243Y-31086025D01*
X199343620Y-31049500D01*
X199343616Y-31049500D01*
X199156384Y-31049500D01*
X199156379Y-31049500D01*
X198972756Y-31086025D01*
X198972748Y-31086027D01*
X198799771Y-31157676D01*
X198799762Y-31157681D01*
X198644092Y-31261697D01*
X198644088Y-31261700D01*
X198511700Y-31394088D01*
X198511697Y-31394092D01*
X198407681Y-31549762D01*
X198407676Y-31549771D01*
X198336027Y-31722748D01*
X198336025Y-31722756D01*
X198299500Y-31906379D01*
X198299500Y-32593620D01*
X198336025Y-32777243D01*
X198336027Y-32777251D01*
X198407676Y-32950228D01*
X198407681Y-32950237D01*
X198511697Y-33105907D01*
X198511700Y-33105911D01*
X198644088Y-33238299D01*
X198644092Y-33238302D01*
X198799762Y-33342318D01*
X198799768Y-33342321D01*
X198799769Y-33342322D01*
X198972749Y-33413973D01*
X199156374Y-33450498D01*
X199156379Y-33450499D01*
X199156383Y-33450500D01*
X199156384Y-33450500D01*
X199343617Y-33450500D01*
X199343618Y-33450499D01*
X199527251Y-33413973D01*
X199700231Y-33342322D01*
X199700237Y-33342318D01*
X199806109Y-33271577D01*
X199872787Y-33250699D01*
X199940167Y-33269183D01*
X199943891Y-33271577D01*
X200049762Y-33342318D01*
X200049768Y-33342321D01*
X200049769Y-33342322D01*
X200222749Y-33413973D01*
X200406374Y-33450498D01*
X200406379Y-33450499D01*
X200406383Y-33450500D01*
X200406384Y-33450500D01*
X200593617Y-33450500D01*
X200593618Y-33450499D01*
X200777251Y-33413973D01*
X200950231Y-33342322D01*
X200950237Y-33342318D01*
X201056109Y-33271577D01*
X201122787Y-33250699D01*
X201190167Y-33269183D01*
X201193891Y-33271577D01*
X201299762Y-33342318D01*
X201299768Y-33342321D01*
X201299769Y-33342322D01*
X201472749Y-33413973D01*
X201656374Y-33450498D01*
X201656379Y-33450499D01*
X201656383Y-33450500D01*
X201656384Y-33450500D01*
X201843617Y-33450500D01*
X201843618Y-33450499D01*
X202027251Y-33413973D01*
X202200231Y-33342322D01*
X202200237Y-33342318D01*
X202306109Y-33271577D01*
X202372787Y-33250699D01*
X202440167Y-33269183D01*
X202443891Y-33271577D01*
X202488401Y-33301318D01*
X202533206Y-33354931D01*
X202541913Y-33424256D01*
X202511758Y-33487283D01*
X202507191Y-33492101D01*
X198978415Y-37020877D01*
X198917092Y-37054362D01*
X198847400Y-37049378D01*
X198791467Y-37007506D01*
X198788684Y-37003636D01*
X198778182Y-36988421D01*
X198650848Y-36875613D01*
X198500225Y-36796560D01*
X198335055Y-36755850D01*
X198164943Y-36755850D01*
X197999772Y-36796560D01*
X197849149Y-36875613D01*
X197721815Y-36988422D01*
X197625181Y-37128418D01*
X197564859Y-37287475D01*
X197564858Y-37287480D01*
X197544354Y-37456350D01*
X197564858Y-37625219D01*
X197564859Y-37625224D01*
X197625181Y-37784281D01*
X197650351Y-37820745D01*
X197721816Y-37924279D01*
X197810499Y-38002845D01*
X197847624Y-38062032D01*
X197846857Y-38131898D01*
X197815952Y-38183340D01*
X196778366Y-39220926D01*
X196717043Y-39254411D01*
X196647351Y-39249427D01*
X196603004Y-39220926D01*
X196502262Y-39120184D01*
X196349523Y-39024211D01*
X196179254Y-38964631D01*
X196179249Y-38964630D01*
X196000004Y-38944435D01*
X195999996Y-38944435D01*
X195820750Y-38964630D01*
X195820745Y-38964631D01*
X195650476Y-39024211D01*
X195497737Y-39120184D01*
X195370184Y-39247737D01*
X195274211Y-39400476D01*
X195214631Y-39570745D01*
X195214630Y-39570750D01*
X195194435Y-39749996D01*
X195194435Y-39750003D01*
X195214630Y-39929249D01*
X195214631Y-39929254D01*
X195274211Y-40099523D01*
X195370184Y-40252262D01*
X195470926Y-40353004D01*
X195504411Y-40414327D01*
X195499427Y-40484019D01*
X195470926Y-40528366D01*
X192037181Y-43962112D01*
X191975858Y-43995597D01*
X191906166Y-43990613D01*
X191850233Y-43948741D01*
X191825816Y-43883277D01*
X191825500Y-43874431D01*
X191825500Y-39674236D01*
X191825500Y-39674234D01*
X191786281Y-39527865D01*
X191710515Y-39396635D01*
X191682378Y-39368498D01*
X191648893Y-39307175D01*
X191653877Y-39237483D01*
X191665062Y-39214850D01*
X191757376Y-39067935D01*
X191816955Y-38897668D01*
X191823995Y-38835190D01*
X191837152Y-38718416D01*
X191837152Y-38718409D01*
X191816956Y-38539163D01*
X191816955Y-38539158D01*
X191813686Y-38529815D01*
X191757376Y-38368891D01*
X191661403Y-38216151D01*
X191533849Y-38088597D01*
X191518972Y-38079249D01*
X191381110Y-37992624D01*
X191235125Y-37941542D01*
X191178349Y-37900820D01*
X191152602Y-37835867D01*
X191166058Y-37767306D01*
X191214445Y-37716903D01*
X191276080Y-37700500D01*
X195239263Y-37700500D01*
X195239279Y-37700501D01*
X195246875Y-37700501D01*
X195404989Y-37700501D01*
X195426659Y-37694693D01*
X195472640Y-37691247D01*
X195533403Y-37698094D01*
X195533406Y-37698094D01*
X195712652Y-37677898D01*
X195712655Y-37677897D01*
X195712658Y-37677897D01*
X195882925Y-37618318D01*
X196035665Y-37522345D01*
X196163219Y-37394791D01*
X196259192Y-37242051D01*
X196318771Y-37071784D01*
X196318772Y-37071778D01*
X196338968Y-36892532D01*
X196338968Y-36892525D01*
X196318772Y-36713279D01*
X196318771Y-36713274D01*
X196278967Y-36599522D01*
X196259192Y-36543007D01*
X196257568Y-36540423D01*
X196163218Y-36390266D01*
X196035665Y-36262713D01*
X195882926Y-36166740D01*
X195712657Y-36107160D01*
X195712652Y-36107159D01*
X195533407Y-36086964D01*
X195533399Y-36086964D01*
X195354153Y-36107159D01*
X195354148Y-36107160D01*
X195183879Y-36166740D01*
X195031140Y-36262713D01*
X194903587Y-36390266D01*
X194871413Y-36441472D01*
X194819078Y-36487763D01*
X194766419Y-36499500D01*
X184988560Y-36499500D01*
X184988544Y-36499499D01*
X184980948Y-36499499D01*
X184822834Y-36499499D01*
X184715478Y-36528265D01*
X184670101Y-36540424D01*
X184670100Y-36540425D01*
X184619987Y-36569359D01*
X184619986Y-36569360D01*
X184576580Y-36594420D01*
X184533176Y-36619479D01*
X184533173Y-36619481D01*
X182019481Y-39133173D01*
X182019479Y-39133176D01*
X181974713Y-39210715D01*
X181974712Y-39210716D01*
X181959258Y-39237483D01*
X181940423Y-39270106D01*
X181899499Y-39422834D01*
X181899499Y-39422836D01*
X181899499Y-39590937D01*
X181899500Y-39590950D01*
X181899500Y-40116936D01*
X181879815Y-40183975D01*
X181827011Y-40229730D01*
X181757853Y-40239674D01*
X181734547Y-40233978D01*
X181679260Y-40214633D01*
X181679249Y-40214630D01*
X181500004Y-40194435D01*
X181499996Y-40194435D01*
X181320750Y-40214630D01*
X181320745Y-40214631D01*
X181150476Y-40274211D01*
X180997737Y-40370184D01*
X180870184Y-40497737D01*
X180774211Y-40650476D01*
X180714631Y-40820745D01*
X180714630Y-40820750D01*
X180694435Y-40999996D01*
X180694435Y-41000003D01*
X180714630Y-41179249D01*
X180714631Y-41179254D01*
X180774211Y-41349523D01*
X180824662Y-41429815D01*
X180870184Y-41502262D01*
X180997738Y-41629816D01*
X181150478Y-41725789D01*
X181320745Y-41785368D01*
X181320750Y-41785369D01*
X181499996Y-41805565D01*
X181500000Y-41805565D01*
X181500004Y-41805565D01*
X181679249Y-41785369D01*
X181679252Y-41785368D01*
X181679255Y-41785368D01*
X181849522Y-41725789D01*
X182002262Y-41629816D01*
X182025609Y-41606468D01*
X182086931Y-41572983D01*
X182154246Y-41577108D01*
X182320737Y-41635366D01*
X182320743Y-41635367D01*
X182320745Y-41635368D01*
X182320746Y-41635368D01*
X182320750Y-41635369D01*
X182499996Y-41655565D01*
X182500000Y-41655565D01*
X182500004Y-41655565D01*
X182679249Y-41635369D01*
X182679252Y-41635368D01*
X182679255Y-41635368D01*
X182849522Y-41575789D01*
X183002262Y-41479816D01*
X183129816Y-41352262D01*
X183225789Y-41199522D01*
X183285368Y-41029255D01*
X183285369Y-41029249D01*
X183305565Y-40850003D01*
X183305565Y-40849996D01*
X186444435Y-40849996D01*
X186444435Y-40850003D01*
X186464630Y-41029249D01*
X186464631Y-41029254D01*
X186524211Y-41199523D01*
X186568034Y-41269266D01*
X186620184Y-41352262D01*
X186747738Y-41479816D01*
X186900478Y-41575789D01*
X187054878Y-41629816D01*
X187070745Y-41635368D01*
X187070750Y-41635369D01*
X187249996Y-41655565D01*
X187250000Y-41655565D01*
X187250004Y-41655565D01*
X187429249Y-41635369D01*
X187429252Y-41635368D01*
X187429255Y-41635368D01*
X187599522Y-41575789D01*
X187752262Y-41479816D01*
X187879816Y-41352262D01*
X187975789Y-41199522D01*
X188035368Y-41029255D01*
X188035369Y-41029249D01*
X188055565Y-40850003D01*
X188055565Y-40849996D01*
X188035369Y-40670750D01*
X188035368Y-40670745D01*
X187975788Y-40500476D01*
X187912955Y-40400478D01*
X187879816Y-40347738D01*
X187752262Y-40220184D01*
X187743426Y-40214632D01*
X187599523Y-40124211D01*
X187429254Y-40064631D01*
X187429249Y-40064630D01*
X187250004Y-40044435D01*
X187249996Y-40044435D01*
X187070750Y-40064630D01*
X187070745Y-40064631D01*
X186900476Y-40124211D01*
X186747737Y-40220184D01*
X186620184Y-40347737D01*
X186524211Y-40500476D01*
X186464631Y-40670745D01*
X186464630Y-40670750D01*
X186444435Y-40849996D01*
X183305565Y-40849996D01*
X183285369Y-40670750D01*
X183285368Y-40670745D01*
X183225788Y-40500476D01*
X183192645Y-40447730D01*
X183129816Y-40347738D01*
X183129814Y-40347736D01*
X183129813Y-40347734D01*
X183127550Y-40344896D01*
X183126659Y-40342715D01*
X183126111Y-40341842D01*
X183126264Y-40341745D01*
X183101144Y-40280209D01*
X183100500Y-40267587D01*
X183100500Y-39801988D01*
X183120185Y-39734949D01*
X183136819Y-39714307D01*
X185114307Y-37736819D01*
X185175630Y-37703334D01*
X185201988Y-37700500D01*
X188589424Y-37700500D01*
X188656463Y-37720185D01*
X188702218Y-37772989D01*
X188712644Y-37838383D01*
X188694435Y-37999996D01*
X188694435Y-38000003D01*
X188714630Y-38179249D01*
X188714631Y-38179254D01*
X188774211Y-38349523D01*
X188870184Y-38502262D01*
X188997738Y-38629816D01*
X189086148Y-38685368D01*
X189138732Y-38718409D01*
X189150478Y-38725789D01*
X189320745Y-38785368D01*
X189320750Y-38785369D01*
X189447512Y-38799651D01*
X189511926Y-38826717D01*
X189521310Y-38835190D01*
X190638181Y-39952061D01*
X190671666Y-40013384D01*
X190674500Y-40039742D01*
X190674500Y-41076658D01*
X190654815Y-41143697D01*
X190602011Y-41189452D01*
X190532853Y-41199396D01*
X190506533Y-41192601D01*
X190500232Y-41190211D01*
X190335056Y-41149500D01*
X190164944Y-41149500D01*
X190160576Y-41149500D01*
X190093537Y-41129815D01*
X190047782Y-41077011D01*
X190037356Y-41011617D01*
X190055565Y-40850003D01*
X190055565Y-40849996D01*
X190035369Y-40670750D01*
X190035368Y-40670745D01*
X189975788Y-40500476D01*
X189912955Y-40400478D01*
X189879816Y-40347738D01*
X189752262Y-40220184D01*
X189743426Y-40214632D01*
X189599523Y-40124211D01*
X189429254Y-40064631D01*
X189429249Y-40064630D01*
X189250004Y-40044435D01*
X189249996Y-40044435D01*
X189070750Y-40064630D01*
X189070745Y-40064631D01*
X188900476Y-40124211D01*
X188747737Y-40220184D01*
X188620184Y-40347737D01*
X188524211Y-40500476D01*
X188464631Y-40670745D01*
X188464630Y-40670750D01*
X188444435Y-40849996D01*
X188444435Y-40850003D01*
X188464630Y-41029249D01*
X188464631Y-41029254D01*
X188524211Y-41199523D01*
X188568034Y-41269266D01*
X188620184Y-41352262D01*
X188747738Y-41479816D01*
X188900478Y-41575789D01*
X189054878Y-41629816D01*
X189070745Y-41635368D01*
X189070750Y-41635369D01*
X189249996Y-41655565D01*
X189250000Y-41655565D01*
X189250003Y-41655565D01*
X189373660Y-41641632D01*
X189442482Y-41653686D01*
X189493862Y-41701035D01*
X189511486Y-41768646D01*
X189494932Y-41826851D01*
X189467885Y-41873697D01*
X189428666Y-42020068D01*
X189428666Y-43255398D01*
X189408981Y-43322437D01*
X189356177Y-43368192D01*
X189287019Y-43378136D01*
X189274981Y-43375792D01*
X189266026Y-43373584D01*
X189205648Y-43338423D01*
X189178669Y-43294145D01*
X189151806Y-43217374D01*
X189055833Y-43064634D01*
X188928279Y-42937080D01*
X188821815Y-42870184D01*
X188775540Y-42841107D01*
X188605271Y-42781527D01*
X188605266Y-42781526D01*
X188426021Y-42761331D01*
X188426013Y-42761331D01*
X188246767Y-42781526D01*
X188246762Y-42781527D01*
X188076493Y-42841107D01*
X187923754Y-42937080D01*
X187796201Y-43064633D01*
X187700228Y-43217372D01*
X187640648Y-43387641D01*
X187640647Y-43387646D01*
X187620452Y-43566892D01*
X187620452Y-43566899D01*
X187640647Y-43746145D01*
X187640648Y-43746150D01*
X187700228Y-43916419D01*
X187751324Y-43997737D01*
X187796201Y-44069158D01*
X187923755Y-44196712D01*
X187970029Y-44225788D01*
X188064851Y-44285369D01*
X188076495Y-44292685D01*
X188246762Y-44352264D01*
X188293851Y-44357569D01*
X188358262Y-44384634D01*
X188397819Y-44442228D01*
X188399958Y-44512065D01*
X188367648Y-44568470D01*
X185401798Y-47534320D01*
X185343793Y-47567036D01*
X185249772Y-47590210D01*
X185099150Y-47669263D01*
X184971816Y-47782072D01*
X184875182Y-47922068D01*
X184819281Y-48069471D01*
X184777103Y-48125174D01*
X184711506Y-48149231D01*
X184703339Y-48149500D01*
X181294808Y-48149500D01*
X181227769Y-48129815D01*
X181182014Y-48077011D01*
X181172070Y-48007853D01*
X181201095Y-47944297D01*
X181244101Y-47914261D01*
X181243584Y-47913276D01*
X181400849Y-47830736D01*
X181400850Y-47830734D01*
X181400852Y-47830734D01*
X181528183Y-47717929D01*
X181624818Y-47577930D01*
X181685140Y-47418872D01*
X181705645Y-47250000D01*
X181685140Y-47081128D01*
X181624818Y-46922070D01*
X181528183Y-46782071D01*
X181400852Y-46669266D01*
X181400849Y-46669263D01*
X181250226Y-46590210D01*
X181085056Y-46549500D01*
X180914944Y-46549500D01*
X180749773Y-46590210D01*
X180599150Y-46669263D01*
X180471816Y-46782072D01*
X180375182Y-46922068D01*
X180314860Y-47081125D01*
X180314859Y-47081130D01*
X180294355Y-47250000D01*
X180314859Y-47418869D01*
X180314860Y-47418874D01*
X180375182Y-47577931D01*
X180377389Y-47581128D01*
X180471817Y-47717929D01*
X180544219Y-47782071D01*
X180599150Y-47830736D01*
X180756416Y-47913276D01*
X180755749Y-47914544D01*
X180804866Y-47951736D01*
X180828923Y-48017334D01*
X180813696Y-48085524D01*
X180764020Y-48134657D01*
X180705192Y-48149500D01*
X177294862Y-48149500D01*
X177227823Y-48129815D01*
X177207181Y-48113181D01*
X174883487Y-45789487D01*
X174883485Y-45789485D01*
X174817870Y-45751602D01*
X174752256Y-45713719D01*
X174679070Y-45694109D01*
X174605886Y-45674500D01*
X174605885Y-45674500D01*
X174191388Y-45674500D01*
X174133762Y-45660296D01*
X174000226Y-45590210D01*
X173835056Y-45549500D01*
X173664944Y-45549500D01*
X173499773Y-45590210D01*
X173349150Y-45669263D01*
X173221816Y-45782072D01*
X173125182Y-45922068D01*
X173064860Y-46081125D01*
X173064859Y-46081130D01*
X173044355Y-46250000D01*
X173064859Y-46418869D01*
X173064860Y-46418874D01*
X173125182Y-46577931D01*
X173174599Y-46649522D01*
X173221817Y-46717929D01*
X173312059Y-46797876D01*
X173349150Y-46830736D01*
X173499773Y-46909789D01*
X173499775Y-46909790D01*
X173664944Y-46950500D01*
X173835056Y-46950500D01*
X174000225Y-46909790D01*
X174091625Y-46861819D01*
X174133762Y-46839704D01*
X174191388Y-46825500D01*
X174240378Y-46825500D01*
X174307417Y-46845185D01*
X174328059Y-46861819D01*
X174417780Y-46951540D01*
X174451265Y-47012863D01*
X174446281Y-47082555D01*
X174404409Y-47138488D01*
X174387728Y-47149016D01*
X174349149Y-47169264D01*
X174221816Y-47282072D01*
X174125182Y-47422068D01*
X174125182Y-47422069D01*
X174064649Y-47581684D01*
X174022471Y-47637387D01*
X173956874Y-47661444D01*
X173888683Y-47646217D01*
X173861026Y-47625394D01*
X173800119Y-47564487D01*
X173800117Y-47564485D01*
X173730361Y-47524211D01*
X173668888Y-47488719D01*
X173578988Y-47464631D01*
X173542128Y-47454754D01*
X173486541Y-47422661D01*
X170703367Y-44639487D01*
X170703365Y-44639485D01*
X170621907Y-44592455D01*
X170572136Y-44563719D01*
X170508038Y-44546544D01*
X170425766Y-44524500D01*
X170425765Y-44524500D01*
X170417916Y-44522397D01*
X170418100Y-44521709D01*
X170386272Y-44511614D01*
X170361170Y-44498439D01*
X170310959Y-44449855D01*
X170294984Y-44381836D01*
X170318319Y-44315978D01*
X170331116Y-44300962D01*
X170350007Y-44282071D01*
X170379816Y-44252262D01*
X170475789Y-44099522D01*
X170535368Y-43929255D01*
X170536588Y-43918430D01*
X170555565Y-43750003D01*
X170555565Y-43749996D01*
X170535369Y-43570750D01*
X170535368Y-43570745D01*
X170505008Y-43483981D01*
X170475789Y-43400478D01*
X170462503Y-43379334D01*
X170436582Y-43338080D01*
X170379816Y-43247738D01*
X170252262Y-43120184D01*
X170163855Y-43064634D01*
X170099523Y-43024211D01*
X169929254Y-42964631D01*
X169929249Y-42964630D01*
X169750004Y-42944435D01*
X169749996Y-42944435D01*
X169570750Y-42964630D01*
X169570745Y-42964631D01*
X169400476Y-43024211D01*
X169247737Y-43120184D01*
X169120184Y-43247737D01*
X169024211Y-43400476D01*
X168964631Y-43570745D01*
X168964630Y-43570750D01*
X168944435Y-43749996D01*
X168944435Y-43750003D01*
X168964630Y-43929249D01*
X168964631Y-43929254D01*
X169024211Y-44099523D01*
X169096538Y-44214630D01*
X169120184Y-44252262D01*
X169247738Y-44379816D01*
X169250953Y-44381836D01*
X169400484Y-44475793D01*
X169404404Y-44477681D01*
X169456262Y-44524505D01*
X169474573Y-44591932D01*
X169453523Y-44658556D01*
X169452649Y-44659839D01*
X169375183Y-44772068D01*
X169375182Y-44772068D01*
X169314860Y-44931125D01*
X169314859Y-44931130D01*
X169294355Y-45100000D01*
X169294355Y-45107501D01*
X169292739Y-45107501D01*
X169282737Y-45167643D01*
X169235831Y-45219428D01*
X169168375Y-45237633D01*
X169101785Y-45216478D01*
X169083422Y-45201344D01*
X169002262Y-45120184D01*
X168849523Y-45024211D01*
X168679254Y-44964631D01*
X168679249Y-44964630D01*
X168500004Y-44944435D01*
X168499996Y-44944435D01*
X168320750Y-44964630D01*
X168320745Y-44964631D01*
X168150476Y-45024211D01*
X167997737Y-45120184D01*
X167870184Y-45247737D01*
X167774211Y-45400476D01*
X167714631Y-45570745D01*
X167714630Y-45570750D01*
X167694435Y-45749996D01*
X160510615Y-45749996D01*
X160535368Y-45679255D01*
X160536390Y-45670184D01*
X160555565Y-45500003D01*
X160555565Y-45499996D01*
X160535369Y-45320750D01*
X160535368Y-45320745D01*
X160502141Y-45225787D01*
X160475789Y-45150478D01*
X160379816Y-44997738D01*
X160252262Y-44870184D01*
X160099523Y-44774211D01*
X159929254Y-44714631D01*
X159929249Y-44714630D01*
X159750004Y-44694435D01*
X159749996Y-44694435D01*
X159570750Y-44714630D01*
X159570745Y-44714631D01*
X159400476Y-44774211D01*
X159247737Y-44870184D01*
X159120184Y-44997737D01*
X159024211Y-45150476D01*
X158964631Y-45320745D01*
X158964630Y-45320750D01*
X158944435Y-45499996D01*
X154150499Y-45499996D01*
X154150499Y-44902128D01*
X154144091Y-44842517D01*
X154138422Y-44827318D01*
X154093797Y-44707671D01*
X154093793Y-44707664D01*
X154007547Y-44592455D01*
X154007544Y-44592452D01*
X153892335Y-44506206D01*
X153892328Y-44506202D01*
X153757482Y-44455908D01*
X153757483Y-44455908D01*
X153697883Y-44449501D01*
X153697881Y-44449500D01*
X153697873Y-44449500D01*
X153697864Y-44449500D01*
X151802129Y-44449500D01*
X151802123Y-44449501D01*
X151742516Y-44455908D01*
X151607671Y-44506202D01*
X151607664Y-44506206D01*
X151492455Y-44592452D01*
X151492452Y-44592455D01*
X151406206Y-44707664D01*
X151406202Y-44707671D01*
X151355908Y-44842517D01*
X151352934Y-44870184D01*
X151349501Y-44902123D01*
X151349500Y-44902135D01*
X146900500Y-44902135D01*
X146900500Y-43499996D01*
X154944435Y-43499996D01*
X154944435Y-43500003D01*
X154964630Y-43679249D01*
X154964631Y-43679254D01*
X155024211Y-43849523D01*
X155086554Y-43948741D01*
X155120184Y-44002262D01*
X155247738Y-44129816D01*
X155310522Y-44169266D01*
X155387120Y-44217396D01*
X155400478Y-44225789D01*
X155538860Y-44274211D01*
X155570745Y-44285368D01*
X155570750Y-44285369D01*
X155749996Y-44305565D01*
X155750000Y-44305565D01*
X155750004Y-44305565D01*
X155929249Y-44285369D01*
X155929252Y-44285368D01*
X155929255Y-44285368D01*
X156099522Y-44225789D01*
X156252262Y-44129816D01*
X156379816Y-44002262D01*
X156475789Y-43849522D01*
X156535368Y-43679255D01*
X156535369Y-43679249D01*
X156555565Y-43500003D01*
X156555565Y-43499996D01*
X156535369Y-43320750D01*
X156535368Y-43320745D01*
X156499196Y-43217371D01*
X156475789Y-43150478D01*
X156379816Y-42997738D01*
X156252262Y-42870184D01*
X156215650Y-42847179D01*
X156154801Y-42808945D01*
X170810409Y-42808945D01*
X170830913Y-42977814D01*
X170830914Y-42977819D01*
X170891236Y-43136876D01*
X170946799Y-43217371D01*
X170987871Y-43276874D01*
X171057346Y-43338423D01*
X171115204Y-43389681D01*
X171241822Y-43456135D01*
X171265829Y-43468735D01*
X171430998Y-43509445D01*
X171601110Y-43509445D01*
X171766279Y-43468735D01*
X171823944Y-43438469D01*
X171892450Y-43424743D01*
X171957504Y-43450234D01*
X171983618Y-43477822D01*
X171987869Y-43483981D01*
X172115204Y-43596790D01*
X172252038Y-43668606D01*
X172265829Y-43675844D01*
X172405836Y-43710352D01*
X172466216Y-43745508D01*
X172498005Y-43807727D01*
X172491109Y-43877256D01*
X172463843Y-43918430D01*
X172384535Y-43997738D01*
X172288563Y-44150475D01*
X172228983Y-44320744D01*
X172228982Y-44320749D01*
X172208787Y-44499995D01*
X172208787Y-44500002D01*
X172228982Y-44679248D01*
X172228983Y-44679253D01*
X172288563Y-44849522D01*
X172329475Y-44914632D01*
X172384536Y-45002261D01*
X172512090Y-45129815D01*
X172544972Y-45150476D01*
X172625927Y-45201344D01*
X172664830Y-45225788D01*
X172787957Y-45268872D01*
X172835097Y-45285367D01*
X172835102Y-45285368D01*
X173014348Y-45305564D01*
X173014352Y-45305564D01*
X173014356Y-45305564D01*
X173193601Y-45285368D01*
X173193604Y-45285367D01*
X173193607Y-45285367D01*
X173363874Y-45225788D01*
X173516614Y-45129815D01*
X173644168Y-45002261D01*
X173740141Y-44849521D01*
X173774965Y-44750000D01*
X175294355Y-44750000D01*
X175314859Y-44918869D01*
X175314860Y-44918874D01*
X175375182Y-45077931D01*
X175436238Y-45166385D01*
X175471817Y-45217929D01*
X175570737Y-45305564D01*
X175599150Y-45330736D01*
X175749773Y-45409789D01*
X175749775Y-45409790D01*
X175914944Y-45450500D01*
X176085056Y-45450500D01*
X176250225Y-45409790D01*
X176349344Y-45357768D01*
X180228891Y-45357768D01*
X180228891Y-45357775D01*
X180249086Y-45537021D01*
X180249087Y-45537026D01*
X180308667Y-45707295D01*
X180381489Y-45823190D01*
X180404640Y-45860034D01*
X180532194Y-45987588D01*
X180532196Y-45987589D01*
X180630756Y-46049519D01*
X180684934Y-46083561D01*
X180817123Y-46129816D01*
X180855201Y-46143140D01*
X180855206Y-46143141D01*
X181034452Y-46163337D01*
X181034456Y-46163337D01*
X181034460Y-46163337D01*
X181213705Y-46143141D01*
X181213708Y-46143140D01*
X181213711Y-46143140D01*
X181383978Y-46083561D01*
X181536718Y-45987588D01*
X181557053Y-45967252D01*
X181618372Y-45933769D01*
X181688063Y-45938752D01*
X181743998Y-45980623D01*
X181761773Y-46013980D01*
X181774208Y-46049519D01*
X181851212Y-46172068D01*
X181870184Y-46202262D01*
X181997738Y-46329816D01*
X182088080Y-46386582D01*
X182139469Y-46418872D01*
X182150478Y-46425789D01*
X182286045Y-46473226D01*
X182320745Y-46485368D01*
X182320750Y-46485369D01*
X182499996Y-46505565D01*
X182500000Y-46505565D01*
X182500003Y-46505565D01*
X182581172Y-46496419D01*
X182617082Y-46492373D01*
X182685904Y-46504427D01*
X182737284Y-46551776D01*
X182748008Y-46574638D01*
X182774211Y-46649523D01*
X182849060Y-46768643D01*
X182870184Y-46802262D01*
X182997738Y-46929816D01*
X183087482Y-46986206D01*
X183105833Y-46997737D01*
X183150478Y-47025789D01*
X183312706Y-47082555D01*
X183320745Y-47085368D01*
X183320750Y-47085369D01*
X183499996Y-47105565D01*
X183500000Y-47105565D01*
X183500004Y-47105565D01*
X183679249Y-47085369D01*
X183679252Y-47085368D01*
X183679255Y-47085368D01*
X183849522Y-47025789D01*
X184002262Y-46929816D01*
X184129816Y-46802262D01*
X184225789Y-46649522D01*
X184285368Y-46479255D01*
X184285759Y-46475788D01*
X184305565Y-46300003D01*
X184305565Y-46299996D01*
X184285369Y-46120750D01*
X184285368Y-46120745D01*
X184260445Y-46049519D01*
X184225789Y-45950478D01*
X184129816Y-45797738D01*
X184002262Y-45670184D01*
X183887613Y-45598145D01*
X183849523Y-45574211D01*
X183679254Y-45514631D01*
X183679249Y-45514630D01*
X183500004Y-45494435D01*
X183499996Y-45494435D01*
X183382916Y-45507626D01*
X183314094Y-45495571D01*
X183262715Y-45448222D01*
X183251991Y-45425360D01*
X183225789Y-45350478D01*
X183197568Y-45305564D01*
X183129816Y-45197738D01*
X183002262Y-45070184D01*
X182849521Y-44974210D01*
X182679249Y-44914630D01*
X182640994Y-44910320D01*
X182576580Y-44883253D01*
X182538068Y-44827177D01*
X182537668Y-44827318D01*
X182537151Y-44825842D01*
X182537025Y-44825658D01*
X182536789Y-44824806D01*
X182498237Y-44714630D01*
X182475789Y-44650478D01*
X182379816Y-44497738D01*
X182252262Y-44370184D01*
X182099523Y-44274211D01*
X181929254Y-44214631D01*
X181929249Y-44214630D01*
X181750004Y-44194435D01*
X181749996Y-44194435D01*
X181570750Y-44214630D01*
X181570745Y-44214631D01*
X181400476Y-44274211D01*
X181247737Y-44370184D01*
X181120186Y-44497735D01*
X181115843Y-44503182D01*
X181114273Y-44501930D01*
X181069311Y-44541694D01*
X181030544Y-44552647D01*
X180855205Y-44572402D01*
X180855201Y-44572403D01*
X180684932Y-44631983D01*
X180532193Y-44727956D01*
X180404640Y-44855509D01*
X180308667Y-45008248D01*
X180249087Y-45178517D01*
X180249086Y-45178522D01*
X180228891Y-45357768D01*
X176349344Y-45357768D01*
X176400849Y-45330736D01*
X176400850Y-45330734D01*
X176400852Y-45330734D01*
X176528183Y-45217929D01*
X176624818Y-45077930D01*
X176685140Y-44918872D01*
X176705645Y-44750000D01*
X176685140Y-44581128D01*
X176681831Y-44572404D01*
X176655579Y-44503182D01*
X176624818Y-44422070D01*
X176528183Y-44282071D01*
X176400852Y-44169266D01*
X176400849Y-44169263D01*
X176250226Y-44090210D01*
X176085056Y-44049500D01*
X175914944Y-44049500D01*
X175749773Y-44090210D01*
X175599150Y-44169263D01*
X175471816Y-44282072D01*
X175375182Y-44422068D01*
X175314860Y-44581125D01*
X175314859Y-44581130D01*
X175294355Y-44750000D01*
X173774965Y-44750000D01*
X173799720Y-44679254D01*
X173802052Y-44658556D01*
X173819917Y-44500002D01*
X173819917Y-44499995D01*
X173799721Y-44320749D01*
X173799720Y-44320744D01*
X173756319Y-44196711D01*
X173740141Y-44150477D01*
X173644168Y-43997737D01*
X173516614Y-43870183D01*
X173483732Y-43849522D01*
X173363875Y-43774210D01*
X173193606Y-43714630D01*
X173193602Y-43714629D01*
X173107089Y-43704882D01*
X173042675Y-43677815D01*
X173003120Y-43620220D01*
X173000983Y-43550383D01*
X173036941Y-43490477D01*
X173038684Y-43488901D01*
X173044237Y-43483983D01*
X173140872Y-43343984D01*
X173201194Y-43184926D01*
X173221699Y-43016054D01*
X173201194Y-42847182D01*
X173140872Y-42688124D01*
X173107702Y-42640070D01*
X173106530Y-42638372D01*
X173044237Y-42548125D01*
X172916906Y-42435320D01*
X172916903Y-42435317D01*
X172766280Y-42356264D01*
X172601110Y-42315554D01*
X172430998Y-42315554D01*
X172265828Y-42356263D01*
X172208161Y-42386530D01*
X172139653Y-42400254D01*
X172074600Y-42374762D01*
X172048487Y-42347173D01*
X172044237Y-42341016D01*
X171916906Y-42228211D01*
X171916903Y-42228208D01*
X171766280Y-42149155D01*
X171601110Y-42108445D01*
X171430998Y-42108445D01*
X171265827Y-42149155D01*
X171115204Y-42228208D01*
X170987870Y-42341017D01*
X170891236Y-42481013D01*
X170830914Y-42640070D01*
X170830913Y-42640075D01*
X170810409Y-42808945D01*
X156154801Y-42808945D01*
X156099523Y-42774211D01*
X155929254Y-42714631D01*
X155929249Y-42714630D01*
X155750004Y-42694435D01*
X155749996Y-42694435D01*
X155570750Y-42714630D01*
X155570745Y-42714631D01*
X155400476Y-42774211D01*
X155247737Y-42870184D01*
X155120184Y-42997737D01*
X155024211Y-43150476D01*
X154964631Y-43320745D01*
X154964630Y-43320750D01*
X154944435Y-43499996D01*
X146900500Y-43499996D01*
X146900500Y-40249996D01*
X171694435Y-40249996D01*
X171694435Y-40250003D01*
X171714630Y-40429249D01*
X171714631Y-40429254D01*
X171774211Y-40599523D01*
X171845776Y-40713417D01*
X171870184Y-40752262D01*
X171997738Y-40879816D01*
X172150478Y-40975789D01*
X172219678Y-41000003D01*
X172320745Y-41035368D01*
X172320750Y-41035369D01*
X172499996Y-41055565D01*
X172500000Y-41055565D01*
X172500004Y-41055565D01*
X172679249Y-41035369D01*
X172679252Y-41035368D01*
X172679255Y-41035368D01*
X172849522Y-40975789D01*
X173002262Y-40879816D01*
X173129816Y-40752262D01*
X173131240Y-40749996D01*
X173669435Y-40749996D01*
X173669435Y-40750003D01*
X173689630Y-40929249D01*
X173689631Y-40929254D01*
X173749211Y-41099523D01*
X173807696Y-41192601D01*
X173845184Y-41252262D01*
X173972738Y-41379816D01*
X174125478Y-41475789D01*
X174268367Y-41525788D01*
X174295745Y-41535368D01*
X174295750Y-41535369D01*
X174474996Y-41555565D01*
X174475000Y-41555565D01*
X174475004Y-41555565D01*
X174654249Y-41535369D01*
X174654252Y-41535368D01*
X174654255Y-41535368D01*
X174824522Y-41475789D01*
X174977262Y-41379816D01*
X175104816Y-41252262D01*
X175200789Y-41099522D01*
X175208790Y-41076658D01*
X175220917Y-41041999D01*
X175261638Y-40985222D01*
X175326590Y-40959474D01*
X175395152Y-40972930D01*
X175398379Y-40974778D01*
X175400477Y-40975788D01*
X175400478Y-40975789D01*
X175469678Y-41000003D01*
X175570745Y-41035368D01*
X175570750Y-41035369D01*
X175749996Y-41055565D01*
X175750000Y-41055565D01*
X175750004Y-41055565D01*
X175929249Y-41035369D01*
X175929252Y-41035368D01*
X175929255Y-41035368D01*
X176099522Y-40975789D01*
X176252262Y-40879816D01*
X176379816Y-40752262D01*
X176379816Y-40752261D01*
X176384740Y-40747338D01*
X176386680Y-40749278D01*
X176433661Y-40716285D01*
X176503472Y-40713417D01*
X176563751Y-40748747D01*
X176595360Y-40811058D01*
X176596670Y-40819844D01*
X176614630Y-40979250D01*
X176614631Y-40979254D01*
X176674211Y-41149523D01*
X176708700Y-41204411D01*
X176770184Y-41302262D01*
X176897738Y-41429816D01*
X177050478Y-41525789D01*
X177135573Y-41555565D01*
X177220745Y-41585368D01*
X177220750Y-41585369D01*
X177399996Y-41605565D01*
X177400000Y-41605565D01*
X177400004Y-41605565D01*
X177579249Y-41585369D01*
X177579252Y-41585368D01*
X177579255Y-41585368D01*
X177749522Y-41525789D01*
X177902262Y-41429816D01*
X178029816Y-41302262D01*
X178125789Y-41149522D01*
X178185368Y-40979255D01*
X178185759Y-40975788D01*
X178205565Y-40800003D01*
X178205565Y-40799996D01*
X178185369Y-40620750D01*
X178185368Y-40620745D01*
X178142326Y-40497738D01*
X178125789Y-40450478D01*
X178029816Y-40297738D01*
X177902262Y-40170184D01*
X177749523Y-40074211D01*
X177579254Y-40014631D01*
X177579249Y-40014630D01*
X177400004Y-39994435D01*
X177399996Y-39994435D01*
X177220750Y-40014630D01*
X177220745Y-40014631D01*
X177050476Y-40074211D01*
X176897737Y-40170184D01*
X176765260Y-40302662D01*
X176763332Y-40300734D01*
X176716238Y-40333748D01*
X176646424Y-40336556D01*
X176586176Y-40301175D01*
X176554620Y-40238837D01*
X176553329Y-40230154D01*
X176535369Y-40070750D01*
X176535368Y-40070745D01*
X176515733Y-40014631D01*
X176475789Y-39900478D01*
X176379816Y-39747738D01*
X176252262Y-39620184D01*
X176099523Y-39524211D01*
X175929254Y-39464631D01*
X175929249Y-39464630D01*
X175750004Y-39444435D01*
X175749996Y-39444435D01*
X175570750Y-39464630D01*
X175570745Y-39464631D01*
X175400476Y-39524211D01*
X175247737Y-39620184D01*
X175120184Y-39747737D01*
X175024209Y-39900479D01*
X175004081Y-39958002D01*
X174963359Y-40014778D01*
X174898406Y-40040524D01*
X174829844Y-40027067D01*
X174826618Y-40025219D01*
X174824529Y-40024213D01*
X174654254Y-39964631D01*
X174654249Y-39964630D01*
X174475004Y-39944435D01*
X174474996Y-39944435D01*
X174295750Y-39964630D01*
X174295745Y-39964631D01*
X174125476Y-40024211D01*
X173972737Y-40120184D01*
X173845184Y-40247737D01*
X173749211Y-40400476D01*
X173689631Y-40570745D01*
X173689630Y-40570750D01*
X173669435Y-40749996D01*
X173131240Y-40749996D01*
X173225789Y-40599522D01*
X173285368Y-40429255D01*
X173287050Y-40414327D01*
X173305565Y-40250003D01*
X173305565Y-40249996D01*
X173285369Y-40070750D01*
X173285368Y-40070745D01*
X173265733Y-40014631D01*
X173225789Y-39900478D01*
X173129816Y-39747738D01*
X173002262Y-39620184D01*
X172849523Y-39524211D01*
X172679254Y-39464631D01*
X172679249Y-39464630D01*
X172500004Y-39444435D01*
X172499996Y-39444435D01*
X172320750Y-39464630D01*
X172320745Y-39464631D01*
X172150476Y-39524211D01*
X171997737Y-39620184D01*
X171870184Y-39747737D01*
X171774211Y-39900476D01*
X171714631Y-40070745D01*
X171714630Y-40070750D01*
X171694435Y-40249996D01*
X146900500Y-40249996D01*
X146900500Y-37899996D01*
X165644435Y-37899996D01*
X165644435Y-37900003D01*
X165664630Y-38079249D01*
X165664631Y-38079254D01*
X165724211Y-38249523D01*
X165820184Y-38402262D01*
X165947738Y-38529816D01*
X166100478Y-38625789D01*
X166111984Y-38629815D01*
X166270745Y-38685368D01*
X166270750Y-38685369D01*
X166449996Y-38705565D01*
X166450000Y-38705565D01*
X166450004Y-38705565D01*
X166629249Y-38685369D01*
X166629252Y-38685368D01*
X166629255Y-38685368D01*
X166799522Y-38625789D01*
X166952262Y-38529816D01*
X167079816Y-38402262D01*
X167175789Y-38249522D01*
X167235368Y-38079255D01*
X167237309Y-38062032D01*
X167255565Y-37900003D01*
X167255565Y-37899996D01*
X167235369Y-37720750D01*
X167235368Y-37720745D01*
X167175788Y-37550476D01*
X167079815Y-37397737D01*
X166952262Y-37270184D01*
X166799523Y-37174211D01*
X166629254Y-37114631D01*
X166629249Y-37114630D01*
X166450004Y-37094435D01*
X166449996Y-37094435D01*
X166270750Y-37114630D01*
X166270745Y-37114631D01*
X166100476Y-37174211D01*
X165947737Y-37270184D01*
X165820184Y-37397737D01*
X165724211Y-37550476D01*
X165664631Y-37720745D01*
X165664630Y-37720750D01*
X165644435Y-37899996D01*
X146900500Y-37899996D01*
X146900500Y-36249996D01*
X176944435Y-36249996D01*
X176944435Y-36250003D01*
X176964630Y-36429249D01*
X176964631Y-36429254D01*
X177024211Y-36599523D01*
X177036751Y-36619480D01*
X177120184Y-36752262D01*
X177247738Y-36879816D01*
X177400478Y-36975789D01*
X177491120Y-37007506D01*
X177570745Y-37035368D01*
X177570750Y-37035369D01*
X177749996Y-37055565D01*
X177750000Y-37055565D01*
X177750004Y-37055565D01*
X177929249Y-37035369D01*
X177929252Y-37035368D01*
X177929255Y-37035368D01*
X178099522Y-36975789D01*
X178252262Y-36879816D01*
X178379816Y-36752262D01*
X178475789Y-36599522D01*
X178535368Y-36429255D01*
X178555565Y-36250000D01*
X178537195Y-36086964D01*
X178535369Y-36070750D01*
X178535368Y-36070745D01*
X178475788Y-35900476D01*
X178436582Y-35838080D01*
X178379816Y-35747738D01*
X178252262Y-35620184D01*
X178219379Y-35599522D01*
X178099523Y-35524211D01*
X177929254Y-35464631D01*
X177929249Y-35464630D01*
X177750004Y-35444435D01*
X177749996Y-35444435D01*
X177570750Y-35464630D01*
X177570745Y-35464631D01*
X177400476Y-35524211D01*
X177247737Y-35620184D01*
X177120184Y-35747737D01*
X177024211Y-35900476D01*
X176964631Y-36070745D01*
X176964630Y-36070750D01*
X176944435Y-36249996D01*
X146900500Y-36249996D01*
X146900500Y-33999996D01*
X174444435Y-33999996D01*
X174444435Y-34000003D01*
X174464630Y-34179249D01*
X174464631Y-34179254D01*
X174524211Y-34349523D01*
X174620184Y-34502262D01*
X174747738Y-34629816D01*
X174900478Y-34725789D01*
X174948130Y-34742463D01*
X175070745Y-34785368D01*
X175070750Y-34785369D01*
X175249996Y-34805565D01*
X175250000Y-34805565D01*
X175250004Y-34805565D01*
X175429249Y-34785369D01*
X175429252Y-34785368D01*
X175429255Y-34785368D01*
X175599522Y-34725789D01*
X175752262Y-34629816D01*
X175879816Y-34502262D01*
X175975789Y-34349522D01*
X176035368Y-34179255D01*
X176055565Y-34000000D01*
X176055565Y-33999996D01*
X188194435Y-33999996D01*
X188194435Y-34000003D01*
X188214630Y-34179249D01*
X188214631Y-34179254D01*
X188274211Y-34349523D01*
X188370184Y-34502262D01*
X188497738Y-34629816D01*
X188650476Y-34725788D01*
X188650478Y-34725789D01*
X188698129Y-34742463D01*
X188754905Y-34783185D01*
X188780653Y-34848138D01*
X188774217Y-34900459D01*
X188714632Y-35070742D01*
X188714630Y-35070750D01*
X188694435Y-35249996D01*
X188694435Y-35250003D01*
X188714630Y-35429249D01*
X188714631Y-35429254D01*
X188774211Y-35599523D01*
X188867341Y-35747737D01*
X188870184Y-35752262D01*
X188997738Y-35879816D01*
X189150478Y-35975789D01*
X189320745Y-36035368D01*
X189320750Y-36035369D01*
X189499996Y-36055565D01*
X189500000Y-36055565D01*
X189500004Y-36055565D01*
X189679249Y-36035369D01*
X189679252Y-36035368D01*
X189679255Y-36035368D01*
X189849522Y-35975789D01*
X190002262Y-35879816D01*
X190129816Y-35752262D01*
X190225789Y-35599522D01*
X190285368Y-35429255D01*
X190305565Y-35250000D01*
X190285368Y-35070745D01*
X190225789Y-34900478D01*
X190129816Y-34747738D01*
X190002262Y-34620184D01*
X189849522Y-34524211D01*
X189849519Y-34524209D01*
X189801868Y-34507535D01*
X189745092Y-34466814D01*
X189719345Y-34401861D01*
X189725782Y-34349538D01*
X189725785Y-34349527D01*
X189725789Y-34349522D01*
X189785368Y-34179255D01*
X189805565Y-34000000D01*
X189785368Y-33820745D01*
X189725789Y-33650478D01*
X189629816Y-33497738D01*
X189502262Y-33370184D01*
X189425613Y-33322022D01*
X189349523Y-33274211D01*
X189179254Y-33214631D01*
X189179249Y-33214630D01*
X189000004Y-33194435D01*
X188999996Y-33194435D01*
X188820750Y-33214630D01*
X188820745Y-33214631D01*
X188650476Y-33274211D01*
X188497737Y-33370184D01*
X188370184Y-33497737D01*
X188274211Y-33650476D01*
X188214631Y-33820745D01*
X188214630Y-33820750D01*
X188194435Y-33999996D01*
X176055565Y-33999996D01*
X176035368Y-33820745D01*
X175975789Y-33650478D01*
X175879816Y-33497738D01*
X175752262Y-33370184D01*
X175675613Y-33322022D01*
X175599523Y-33274211D01*
X175429254Y-33214631D01*
X175429249Y-33214630D01*
X175250004Y-33194435D01*
X175249996Y-33194435D01*
X175070750Y-33214630D01*
X175070745Y-33214631D01*
X174900476Y-33274211D01*
X174747737Y-33370184D01*
X174620184Y-33497737D01*
X174524211Y-33650476D01*
X174464631Y-33820745D01*
X174464630Y-33820750D01*
X174444435Y-33999996D01*
X146900500Y-33999996D01*
X146900500Y-30249994D01*
X158345202Y-30249994D01*
X158345202Y-30250005D01*
X158364361Y-30481218D01*
X158421317Y-30706135D01*
X158514515Y-30918606D01*
X158598812Y-31047633D01*
X159185387Y-30461058D01*
X159190889Y-30481591D01*
X159269881Y-30618408D01*
X159381592Y-30730119D01*
X159518409Y-30809111D01*
X159538940Y-30814612D01*
X158951201Y-31402351D01*
X158981649Y-31426050D01*
X159185697Y-31536476D01*
X159185706Y-31536479D01*
X159405139Y-31611811D01*
X159633993Y-31650000D01*
X159866007Y-31650000D01*
X160094860Y-31611811D01*
X160314293Y-31536479D01*
X160314301Y-31536476D01*
X160518355Y-31426047D01*
X160548797Y-31402351D01*
X160548798Y-31402350D01*
X159961060Y-30814612D01*
X159981591Y-30809111D01*
X160118408Y-30730119D01*
X160230119Y-30618408D01*
X160309111Y-30481591D01*
X160314612Y-30461059D01*
X160901186Y-31047633D01*
X160985482Y-30918611D01*
X161078682Y-30706135D01*
X161135638Y-30481218D01*
X161154798Y-30250005D01*
X161154798Y-30249994D01*
X161135638Y-30018781D01*
X161078682Y-29793864D01*
X160985484Y-29581393D01*
X160901186Y-29452365D01*
X160314612Y-30038939D01*
X160309111Y-30018409D01*
X160230119Y-29881592D01*
X160118408Y-29769881D01*
X159981591Y-29690889D01*
X159961058Y-29685387D01*
X160344309Y-29302135D01*
X163349500Y-29302135D01*
X163349500Y-31197870D01*
X163349501Y-31197876D01*
X163355908Y-31257483D01*
X163406202Y-31392328D01*
X163406206Y-31392335D01*
X163492452Y-31507544D01*
X163492455Y-31507547D01*
X163607664Y-31593793D01*
X163607671Y-31593797D01*
X163742517Y-31644091D01*
X163742516Y-31644091D01*
X163749444Y-31644835D01*
X163802127Y-31650500D01*
X165697872Y-31650499D01*
X165757483Y-31644091D01*
X165892331Y-31593796D01*
X166007546Y-31507546D01*
X166032483Y-31474234D01*
X186579500Y-31474234D01*
X186579500Y-31625766D01*
X186599109Y-31698950D01*
X186618719Y-31772136D01*
X186656602Y-31837750D01*
X186694485Y-31903365D01*
X186801635Y-32010515D01*
X186932865Y-32086281D01*
X187079234Y-32125500D01*
X187079236Y-32125500D01*
X187230764Y-32125500D01*
X187230766Y-32125500D01*
X187377135Y-32086281D01*
X187508365Y-32010515D01*
X187615515Y-31903365D01*
X187691281Y-31772135D01*
X187730500Y-31625766D01*
X187730500Y-31474234D01*
X192579500Y-31474234D01*
X192579500Y-31625766D01*
X192599109Y-31698950D01*
X192618719Y-31772136D01*
X192656602Y-31837750D01*
X192694485Y-31903365D01*
X192801635Y-32010515D01*
X192932865Y-32086281D01*
X193079234Y-32125500D01*
X193079236Y-32125500D01*
X193230764Y-32125500D01*
X193230766Y-32125500D01*
X193377135Y-32086281D01*
X193508365Y-32010515D01*
X193615515Y-31903365D01*
X193691281Y-31772135D01*
X193730500Y-31625766D01*
X193730500Y-31474234D01*
X193691281Y-31327865D01*
X193687869Y-31321956D01*
X193653079Y-31261698D01*
X193615515Y-31196635D01*
X193508365Y-31089485D01*
X193435876Y-31047633D01*
X193377136Y-31013719D01*
X193303950Y-30994109D01*
X193230766Y-30974500D01*
X193079234Y-30974500D01*
X192932863Y-31013719D01*
X192801635Y-31089485D01*
X192801632Y-31089487D01*
X192694487Y-31196632D01*
X192694485Y-31196635D01*
X192618719Y-31327863D01*
X192592411Y-31426050D01*
X192579500Y-31474234D01*
X187730500Y-31474234D01*
X187691281Y-31327865D01*
X187687869Y-31321956D01*
X187653079Y-31261698D01*
X187615515Y-31196635D01*
X187508365Y-31089485D01*
X187435876Y-31047633D01*
X187377136Y-31013719D01*
X187303950Y-30994109D01*
X187230766Y-30974500D01*
X187079234Y-30974500D01*
X186932863Y-31013719D01*
X186801635Y-31089485D01*
X186801632Y-31089487D01*
X186694487Y-31196632D01*
X186694485Y-31196635D01*
X186618719Y-31327863D01*
X186592411Y-31426050D01*
X186579500Y-31474234D01*
X166032483Y-31474234D01*
X166093796Y-31392331D01*
X166144091Y-31257483D01*
X166150500Y-31197873D01*
X166150499Y-29302128D01*
X166144091Y-29242517D01*
X166128419Y-29200499D01*
X166093797Y-29107671D01*
X166093793Y-29107664D01*
X166007547Y-28992455D01*
X166007544Y-28992452D01*
X165892335Y-28906206D01*
X165892328Y-28906202D01*
X165757482Y-28855908D01*
X165757483Y-28855908D01*
X165697883Y-28849501D01*
X165697881Y-28849500D01*
X165697873Y-28849500D01*
X165697864Y-28849500D01*
X163802129Y-28849500D01*
X163802123Y-28849501D01*
X163742516Y-28855908D01*
X163607671Y-28906202D01*
X163607664Y-28906206D01*
X163492455Y-28992452D01*
X163492452Y-28992455D01*
X163406206Y-29107664D01*
X163406202Y-29107671D01*
X163355908Y-29242517D01*
X163349501Y-29302116D01*
X163349501Y-29302123D01*
X163349500Y-29302135D01*
X160344309Y-29302135D01*
X160548797Y-29097647D01*
X160548797Y-29097645D01*
X160518360Y-29073955D01*
X160518354Y-29073951D01*
X160314302Y-28963523D01*
X160314293Y-28963520D01*
X160094860Y-28888188D01*
X159866007Y-28850000D01*
X159633993Y-28850000D01*
X159405139Y-28888188D01*
X159185706Y-28963520D01*
X159185697Y-28963523D01*
X158981650Y-29073949D01*
X158951200Y-29097647D01*
X159538941Y-29685387D01*
X159518409Y-29690889D01*
X159381592Y-29769881D01*
X159269881Y-29881592D01*
X159190889Y-30018409D01*
X159185387Y-30038941D01*
X158598811Y-29452365D01*
X158514516Y-29581390D01*
X158421317Y-29793864D01*
X158364361Y-30018781D01*
X158345202Y-30249994D01*
X146900500Y-30249994D01*
X146900500Y-27749992D01*
X147744671Y-27749992D01*
X147744671Y-27750007D01*
X147763964Y-28044363D01*
X147763965Y-28044373D01*
X147763966Y-28044380D01*
X147814811Y-28300000D01*
X147821518Y-28333716D01*
X147821521Y-28333730D01*
X147916349Y-28613080D01*
X148046825Y-28877660D01*
X148046829Y-28877667D01*
X148210725Y-29122955D01*
X148405241Y-29344758D01*
X148627044Y-29539274D01*
X148853952Y-29690889D01*
X148872335Y-29703172D01*
X149136923Y-29833652D01*
X149416278Y-29928481D01*
X149705620Y-29986034D01*
X149733888Y-29987886D01*
X149999993Y-30005329D01*
X150000000Y-30005329D01*
X150000007Y-30005329D01*
X150235675Y-29989881D01*
X150294380Y-29986034D01*
X150583722Y-29928481D01*
X150863077Y-29833652D01*
X151127665Y-29703172D01*
X151372957Y-29539273D01*
X151594758Y-29344758D01*
X151789273Y-29122957D01*
X151953172Y-28877665D01*
X152083652Y-28613077D01*
X152178481Y-28333722D01*
X152236034Y-28044380D01*
X152246533Y-27884204D01*
X152255329Y-27750007D01*
X152255329Y-27749992D01*
X152237412Y-27476647D01*
X170359500Y-27476647D01*
X170359500Y-28523337D01*
X170359501Y-28523355D01*
X170369650Y-28622707D01*
X170369651Y-28622710D01*
X170422996Y-28783694D01*
X170423001Y-28783705D01*
X170512029Y-28928040D01*
X170512032Y-28928044D01*
X170631955Y-29047967D01*
X170631959Y-29047970D01*
X170776294Y-29136998D01*
X170776297Y-29136999D01*
X170776303Y-29137003D01*
X170937292Y-29190349D01*
X171036655Y-29200500D01*
X171583344Y-29200499D01*
X171583352Y-29200498D01*
X171583355Y-29200498D01*
X171637760Y-29194940D01*
X171682708Y-29190349D01*
X171843697Y-29137003D01*
X171949048Y-29072021D01*
X172016437Y-29053581D01*
X172083032Y-29074457D01*
X172109769Y-29092322D01*
X172282749Y-29163973D01*
X172466374Y-29200498D01*
X172466379Y-29200499D01*
X172466383Y-29200500D01*
X172466384Y-29200500D01*
X172653617Y-29200500D01*
X172653618Y-29200499D01*
X172837251Y-29163973D01*
X173010231Y-29092322D01*
X173010901Y-29091874D01*
X173116109Y-29021577D01*
X173182787Y-29000699D01*
X173250167Y-29019183D01*
X173253891Y-29021577D01*
X173359762Y-29092318D01*
X173359771Y-29092323D01*
X173396808Y-29107664D01*
X173532749Y-29163973D01*
X173716374Y-29200498D01*
X173716379Y-29200499D01*
X173716383Y-29200500D01*
X173716384Y-29200500D01*
X173903617Y-29200500D01*
X173903618Y-29200499D01*
X174087251Y-29163973D01*
X174260231Y-29092322D01*
X174366560Y-29021274D01*
X174433234Y-29000397D01*
X174500614Y-29018881D01*
X174504340Y-29021275D01*
X174610000Y-29091875D01*
X174610012Y-29091882D01*
X174782889Y-29163489D01*
X174782896Y-29163491D01*
X174810000Y-29168882D01*
X174810000Y-28166988D01*
X174819940Y-28184205D01*
X174875795Y-28240060D01*
X174944204Y-28279556D01*
X175020504Y-28300000D01*
X175099496Y-28300000D01*
X175175796Y-28279556D01*
X175244205Y-28240060D01*
X175300060Y-28184205D01*
X175310000Y-28166988D01*
X175310000Y-29168881D01*
X175337103Y-29163491D01*
X175337110Y-29163489D01*
X175509987Y-29091882D01*
X175510001Y-29091874D01*
X175615657Y-29021276D01*
X175682334Y-29000397D01*
X175749714Y-29018881D01*
X175753440Y-29021275D01*
X175859763Y-29092318D01*
X175859771Y-29092323D01*
X175896808Y-29107664D01*
X176032749Y-29163973D01*
X176216374Y-29200498D01*
X176216379Y-29200499D01*
X176216383Y-29200500D01*
X176216384Y-29200500D01*
X176403617Y-29200500D01*
X176403618Y-29200499D01*
X176587251Y-29163973D01*
X176760231Y-29092322D01*
X176760901Y-29091874D01*
X176866109Y-29021577D01*
X176932787Y-29000699D01*
X177000167Y-29019183D01*
X177003891Y-29021577D01*
X177109762Y-29092318D01*
X177109771Y-29092323D01*
X177146808Y-29107664D01*
X177282749Y-29163973D01*
X177466374Y-29200498D01*
X177466379Y-29200499D01*
X177466383Y-29200500D01*
X177466384Y-29200500D01*
X177653617Y-29200500D01*
X177653618Y-29200499D01*
X177837251Y-29163973D01*
X178010231Y-29092322D01*
X178010901Y-29091874D01*
X178116109Y-29021577D01*
X178182787Y-29000699D01*
X178250167Y-29019183D01*
X178253891Y-29021577D01*
X178359762Y-29092318D01*
X178359771Y-29092323D01*
X178396808Y-29107664D01*
X178532749Y-29163973D01*
X178716374Y-29200498D01*
X178716379Y-29200499D01*
X178716383Y-29200500D01*
X178716384Y-29200500D01*
X178903617Y-29200500D01*
X178903618Y-29200499D01*
X179087251Y-29163973D01*
X179260231Y-29092322D01*
X179260901Y-29091874D01*
X179366109Y-29021577D01*
X179432787Y-29000699D01*
X179500167Y-29019183D01*
X179503891Y-29021577D01*
X179609762Y-29092318D01*
X179609771Y-29092323D01*
X179646808Y-29107664D01*
X179782749Y-29163973D01*
X179966374Y-29200498D01*
X179966379Y-29200499D01*
X179966383Y-29200500D01*
X179966384Y-29200500D01*
X180153617Y-29200500D01*
X180153618Y-29200499D01*
X180337251Y-29163973D01*
X180510231Y-29092322D01*
X180665908Y-28988302D01*
X180798302Y-28855908D01*
X180902322Y-28700231D01*
X180973973Y-28527251D01*
X181010500Y-28343616D01*
X181010500Y-27749992D01*
X205244671Y-27749992D01*
X205244671Y-27750007D01*
X205263964Y-28044363D01*
X205263965Y-28044373D01*
X205263966Y-28044380D01*
X205314811Y-28300000D01*
X205321518Y-28333716D01*
X205321521Y-28333730D01*
X205416349Y-28613080D01*
X205546825Y-28877660D01*
X205546829Y-28877667D01*
X205710725Y-29122955D01*
X205905241Y-29344758D01*
X206127044Y-29539274D01*
X206353952Y-29690889D01*
X206372335Y-29703172D01*
X206636923Y-29833652D01*
X206916278Y-29928481D01*
X207205620Y-29986034D01*
X207233888Y-29987886D01*
X207499993Y-30005329D01*
X207500000Y-30005329D01*
X207500007Y-30005329D01*
X207735675Y-29989881D01*
X207794380Y-29986034D01*
X208083722Y-29928481D01*
X208363077Y-29833652D01*
X208627665Y-29703172D01*
X208872957Y-29539273D01*
X209094758Y-29344758D01*
X209289273Y-29122957D01*
X209453172Y-28877665D01*
X209583652Y-28613077D01*
X209678481Y-28333722D01*
X209736034Y-28044380D01*
X209746533Y-27884204D01*
X209755329Y-27750007D01*
X209755329Y-27749992D01*
X209736035Y-27455636D01*
X209736034Y-27455620D01*
X209678481Y-27166278D01*
X209583652Y-26886923D01*
X209453172Y-26622336D01*
X209289273Y-26377043D01*
X209246655Y-26328447D01*
X209094758Y-26155241D01*
X208872955Y-25960725D01*
X208627667Y-25796829D01*
X208627660Y-25796825D01*
X208363080Y-25666349D01*
X208083730Y-25571521D01*
X208083724Y-25571519D01*
X208083722Y-25571519D01*
X207794380Y-25513966D01*
X207794373Y-25513965D01*
X207794363Y-25513964D01*
X207500007Y-25494671D01*
X207499993Y-25494671D01*
X207205636Y-25513964D01*
X207205624Y-25513965D01*
X207205620Y-25513966D01*
X207205612Y-25513967D01*
X207205609Y-25513968D01*
X206916283Y-25571518D01*
X206916269Y-25571521D01*
X206636919Y-25666349D01*
X206372334Y-25796828D01*
X206127041Y-25960728D01*
X205905241Y-26155241D01*
X205710728Y-26377041D01*
X205546828Y-26622334D01*
X205416349Y-26886919D01*
X205321521Y-27166269D01*
X205321518Y-27166283D01*
X205263968Y-27455609D01*
X205263964Y-27455636D01*
X205244671Y-27749992D01*
X181010500Y-27749992D01*
X181010500Y-27656384D01*
X180973973Y-27472749D01*
X180902322Y-27299769D01*
X180902321Y-27299768D01*
X180902318Y-27299762D01*
X180798302Y-27144092D01*
X180798299Y-27144088D01*
X180665911Y-27011700D01*
X180665907Y-27011697D01*
X180510237Y-26907681D01*
X180510228Y-26907676D01*
X180337251Y-26836027D01*
X180337243Y-26836025D01*
X180153620Y-26799500D01*
X180153616Y-26799500D01*
X179966384Y-26799500D01*
X179966379Y-26799500D01*
X179782756Y-26836025D01*
X179782748Y-26836027D01*
X179609771Y-26907676D01*
X179609764Y-26907680D01*
X179503890Y-26978423D01*
X179437213Y-26999300D01*
X179369833Y-26980815D01*
X179366110Y-26978423D01*
X179260235Y-26907680D01*
X179260228Y-26907676D01*
X179087251Y-26836027D01*
X179087243Y-26836025D01*
X178903620Y-26799500D01*
X178903616Y-26799500D01*
X178716384Y-26799500D01*
X178716379Y-26799500D01*
X178532756Y-26836025D01*
X178532748Y-26836027D01*
X178359771Y-26907676D01*
X178359764Y-26907680D01*
X178253890Y-26978423D01*
X178187213Y-26999300D01*
X178119833Y-26980815D01*
X178116110Y-26978423D01*
X178010235Y-26907680D01*
X178010228Y-26907676D01*
X177837251Y-26836027D01*
X177837243Y-26836025D01*
X177653620Y-26799500D01*
X177653616Y-26799500D01*
X177466384Y-26799500D01*
X177466379Y-26799500D01*
X177282756Y-26836025D01*
X177282748Y-26836027D01*
X177109771Y-26907676D01*
X177109764Y-26907680D01*
X177003890Y-26978423D01*
X176937213Y-26999300D01*
X176869833Y-26980815D01*
X176866110Y-26978423D01*
X176760235Y-26907680D01*
X176760228Y-26907676D01*
X176587251Y-26836027D01*
X176587243Y-26836025D01*
X176403620Y-26799500D01*
X176403616Y-26799500D01*
X176216384Y-26799500D01*
X176216379Y-26799500D01*
X176032756Y-26836025D01*
X176032748Y-26836027D01*
X175859771Y-26907676D01*
X175859757Y-26907684D01*
X175753440Y-26978723D01*
X175686763Y-26999601D01*
X175619383Y-26981116D01*
X175615660Y-26978723D01*
X175510005Y-26908127D01*
X175509991Y-26908119D01*
X175337103Y-26836507D01*
X175337100Y-26836506D01*
X175310000Y-26831115D01*
X175310000Y-27833011D01*
X175300060Y-27815795D01*
X175244205Y-27759940D01*
X175175796Y-27720444D01*
X175099496Y-27700000D01*
X175020504Y-27700000D01*
X174944204Y-27720444D01*
X174875795Y-27759940D01*
X174819940Y-27815795D01*
X174810000Y-27833011D01*
X174810000Y-26831116D01*
X174809999Y-26831115D01*
X174782899Y-26836506D01*
X174782896Y-26836507D01*
X174610008Y-26908119D01*
X174609994Y-26908127D01*
X174504340Y-26978723D01*
X174437663Y-26999601D01*
X174370283Y-26981116D01*
X174366560Y-26978723D01*
X174260242Y-26907684D01*
X174260228Y-26907676D01*
X174087251Y-26836027D01*
X174087243Y-26836025D01*
X173903620Y-26799500D01*
X173903616Y-26799500D01*
X173716384Y-26799500D01*
X173716379Y-26799500D01*
X173532756Y-26836025D01*
X173532748Y-26836027D01*
X173359771Y-26907676D01*
X173359764Y-26907680D01*
X173253890Y-26978423D01*
X173187213Y-26999300D01*
X173119833Y-26980815D01*
X173116110Y-26978423D01*
X173010235Y-26907680D01*
X173010228Y-26907676D01*
X172837251Y-26836027D01*
X172837243Y-26836025D01*
X172653620Y-26799500D01*
X172653616Y-26799500D01*
X172466384Y-26799500D01*
X172466379Y-26799500D01*
X172282756Y-26836025D01*
X172282748Y-26836027D01*
X172109767Y-26907678D01*
X172083032Y-26925542D01*
X172016354Y-26946419D01*
X171949046Y-26927977D01*
X171843705Y-26863001D01*
X171843699Y-26862998D01*
X171843697Y-26862997D01*
X171763752Y-26836506D01*
X171682709Y-26809651D01*
X171583346Y-26799500D01*
X171036662Y-26799500D01*
X171036644Y-26799501D01*
X170937292Y-26809650D01*
X170937289Y-26809651D01*
X170776305Y-26862996D01*
X170776294Y-26863001D01*
X170631959Y-26952029D01*
X170631955Y-26952032D01*
X170512032Y-27071955D01*
X170512029Y-27071959D01*
X170423001Y-27216294D01*
X170422996Y-27216305D01*
X170369651Y-27377290D01*
X170359500Y-27476647D01*
X152237412Y-27476647D01*
X152236035Y-27455636D01*
X152236034Y-27455620D01*
X152178481Y-27166278D01*
X152083652Y-26886923D01*
X151953172Y-26622336D01*
X151789273Y-26377043D01*
X151746655Y-26328447D01*
X151594758Y-26155241D01*
X151372955Y-25960725D01*
X151127667Y-25796829D01*
X151127660Y-25796825D01*
X150863080Y-25666349D01*
X150583730Y-25571521D01*
X150583724Y-25571519D01*
X150583722Y-25571519D01*
X150294380Y-25513966D01*
X150294373Y-25513965D01*
X150294363Y-25513964D01*
X150000007Y-25494671D01*
X149999993Y-25494671D01*
X149705636Y-25513964D01*
X149705624Y-25513965D01*
X149705620Y-25513966D01*
X149705612Y-25513967D01*
X149705609Y-25513968D01*
X149416283Y-25571518D01*
X149416269Y-25571521D01*
X149136919Y-25666349D01*
X148872334Y-25796828D01*
X148627041Y-25960728D01*
X148405241Y-26155241D01*
X148210728Y-26377041D01*
X148046828Y-26622334D01*
X147916349Y-26886919D01*
X147821521Y-27166269D01*
X147821518Y-27166283D01*
X147763968Y-27455609D01*
X147763964Y-27455636D01*
X147744671Y-27749992D01*
X146900500Y-27749992D01*
X146900500Y-24224500D01*
X146920185Y-24157461D01*
X146972989Y-24111706D01*
X147024500Y-24100500D01*
X211075500Y-24100500D01*
X211142539Y-24120185D01*
G37*
%TD.AperFunction*%
%TD*%
M02*
