%TF.GenerationSoftware,KiCad,Pcbnew,8.0.6*%
%TF.CreationDate,2026-03-23T17:40:54+00:00*%
%TF.ProjectId,AIS IREC 2026 FC,41495320-4952-4454-9320-323032362046,1*%
%TF.SameCoordinates,Original*%
%TF.FileFunction,Copper,L4,Bot*%
%TF.FilePolarity,Positive*%
%FSLAX46Y46*%
G04 Gerber Fmt 4.6, Leading zero omitted, Abs format (unit mm)*
G04 Created by KiCad (PCBNEW 8.0.6) date 2026-03-23 17:40:54*
%MOMM*%
%LPD*%
G01*
G04 APERTURE LIST*
G04 Aperture macros list*
%AMRoundRect*
0 Rectangle with rounded corners*
0 $1 Rounding radius*
0 $2 $3 $4 $5 $6 $7 $8 $9 X,Y pos of 4 corners*
0 Add a 4 corners polygon primitive as box body*
4,1,4,$2,$3,$4,$5,$6,$7,$8,$9,$2,$3,0*
0 Add four circle primitives for the rounded corners*
1,1,$1+$1,$2,$3*
1,1,$1+$1,$4,$5*
1,1,$1+$1,$6,$7*
1,1,$1+$1,$8,$9*
0 Add four rect primitives between the rounded corners*
20,1,$1+$1,$2,$3,$4,$5,0*
20,1,$1+$1,$4,$5,$6,$7,0*
20,1,$1+$1,$6,$7,$8,$9,0*
20,1,$1+$1,$8,$9,$2,$3,0*%
G04 Aperture macros list end*
%TA.AperFunction,ComponentPad*%
%ADD10RoundRect,0.225000X0.225000X0.475000X-0.225000X0.475000X-0.225000X-0.475000X0.225000X-0.475000X0*%
%TD*%
%TA.AperFunction,ComponentPad*%
%ADD11O,0.900000X1.400000*%
%TD*%
%TA.AperFunction,ComponentPad*%
%ADD12R,1.800000X1.800000*%
%TD*%
%TA.AperFunction,ComponentPad*%
%ADD13C,1.800000*%
%TD*%
%TA.AperFunction,ComponentPad*%
%ADD14RoundRect,0.225000X-0.225000X-0.475000X0.225000X-0.475000X0.225000X0.475000X-0.225000X0.475000X0*%
%TD*%
%TA.AperFunction,SMDPad,CuDef*%
%ADD15R,0.420000X0.460000*%
%TD*%
%TA.AperFunction,SMDPad,CuDef*%
%ADD16R,1.150000X0.600000*%
%TD*%
%TA.AperFunction,SMDPad,CuDef*%
%ADD17R,1.050000X0.950000*%
%TD*%
%TA.AperFunction,SMDPad,CuDef*%
%ADD18R,0.300000X1.300000*%
%TD*%
%TA.AperFunction,SMDPad,CuDef*%
%ADD19R,0.180000X0.230000*%
%TD*%
%TA.AperFunction,SMDPad,CuDef*%
%ADD20RoundRect,0.375000X-0.375000X0.625000X-0.375000X-0.625000X0.375000X-0.625000X0.375000X0.625000X0*%
%TD*%
%TA.AperFunction,SMDPad,CuDef*%
%ADD21RoundRect,0.500000X-1.400000X0.500000X-1.400000X-0.500000X1.400000X-0.500000X1.400000X0.500000X0*%
%TD*%
%TA.AperFunction,SMDPad,CuDef*%
%ADD22R,0.230000X0.180000*%
%TD*%
%TA.AperFunction,SMDPad,CuDef*%
%ADD23R,0.850000X0.530000*%
%TD*%
%TA.AperFunction,SMDPad,CuDef*%
%ADD24R,0.350000X0.530000*%
%TD*%
%TA.AperFunction,SMDPad,CuDef*%
%ADD25R,1.600000X1.800000*%
%TD*%
%TA.AperFunction,SMDPad,CuDef*%
%ADD26R,0.950000X0.550000*%
%TD*%
%TA.AperFunction,SMDPad,CuDef*%
%ADD27R,0.350000X0.250000*%
%TD*%
%TA.AperFunction,SMDPad,CuDef*%
%ADD28R,0.850000X0.300000*%
%TD*%
%TA.AperFunction,SMDPad,CuDef*%
%ADD29R,0.300000X0.850000*%
%TD*%
%TA.AperFunction,SMDPad,CuDef*%
%ADD30R,3.700000X3.700000*%
%TD*%
%TA.AperFunction,SMDPad,CuDef*%
%ADD31R,2.100000X1.700000*%
%TD*%
%TA.AperFunction,ViaPad*%
%ADD32C,0.600000*%
%TD*%
%TA.AperFunction,ViaPad*%
%ADD33C,3.500000*%
%TD*%
%TA.AperFunction,ViaPad*%
%ADD34C,0.400000*%
%TD*%
%TA.AperFunction,Conductor*%
%ADD35C,0.150000*%
%TD*%
%TA.AperFunction,Conductor*%
%ADD36C,0.200000*%
%TD*%
%TA.AperFunction,Conductor*%
%ADD37C,1.000000*%
%TD*%
%TA.AperFunction,Conductor*%
%ADD38C,0.100000*%
%TD*%
G04 APERTURE END LIST*
D10*
%TO.P,J6,1,Pin_1*%
%TO.N,3.3V*%
X208000000Y-32250000D03*
D11*
%TO.P,J6,2,Pin_2*%
%TO.N,USB ID*%
X206750000Y-32250000D03*
%TO.P,J6,3,Pin_3*%
%TO.N,GND*%
X205500000Y-32250000D03*
%TO.P,J6,4,Pin_4*%
%TO.N,unconnected-(J6-Pin_4-Pad4)*%
X204250000Y-32250000D03*
%TO.P,J6,5,Pin_5*%
%TO.N,unconnected-(J6-Pin_5-Pad5)*%
X203000000Y-32250000D03*
%TO.P,J6,6,Pin_6*%
%TO.N,unconnected-(J6-Pin_6-Pad6)*%
X201750000Y-32250000D03*
%TO.P,J6,7,Pin_7*%
%TO.N,3.3V*%
X200500000Y-32250000D03*
%TO.P,J6,8,Pin_8*%
%TO.N,BOOT High*%
X199250000Y-32250000D03*
%TD*%
D12*
%TO.P,J5,1,1*%
%TO.N,DROGUE OUT*%
X152750000Y-45850000D03*
D13*
%TO.P,J5,2,2*%
%TO.N,GND*%
X152750000Y-50850000D03*
%TD*%
D12*
%TO.P,J4,1,1*%
%TO.N,MAIN OUT*%
X205500000Y-48000000D03*
D13*
%TO.P,J4,2,2*%
%TO.N,GND*%
X205500000Y-43000000D03*
%TD*%
D14*
%TO.P,J3,1,Pin_1*%
%TO.N,unconnected-(J3-Pin_1-Pad1)*%
X171310000Y-28000000D03*
D11*
%TO.P,J3,2,Pin_2*%
%TO.N,unconnected-(J3-Pin_2-Pad2)*%
X172560000Y-28000000D03*
%TO.P,J3,3,Pin_3*%
%TO.N,3.3V*%
X173810000Y-28000000D03*
%TO.P,J3,4,Pin_4*%
%TO.N,GND*%
X175060000Y-28000000D03*
%TO.P,J3,5,Pin_5*%
%TO.N,RADIO CS*%
X176310000Y-28000000D03*
%TO.P,J3,6,Pin_6*%
%TO.N,MOSI1*%
X177560000Y-28000000D03*
%TO.P,J3,7,Pin_7*%
%TO.N,MISO1*%
X178810000Y-28000000D03*
%TO.P,J3,8,Pin_8*%
%TO.N,CLK1*%
X180060000Y-28000000D03*
%TD*%
D12*
%TO.P,J2,1,1*%
%TO.N,Vsrc*%
X164750000Y-30250000D03*
D13*
%TO.P,J2,2,2*%
%TO.N,GND*%
X159750000Y-30250000D03*
%TD*%
D15*
%TO.P,C21,1,1*%
%TO.N,3.3V*%
X159750000Y-47500000D03*
%TO.P,C21,2,2*%
%TO.N,GND*%
X159750000Y-48160000D03*
%TD*%
D16*
%TO.P,Q1,1,B*%
%TO.N,Buzzer control*%
X173625000Y-44575000D03*
%TO.P,Q1,2,E*%
%TO.N,3.3V*%
X173625000Y-42675000D03*
%TO.P,Q1,3,C*%
%TO.N,Net-(LS1-+)*%
X175825000Y-43625000D03*
%TD*%
D17*
%TO.P,U2,1,INH*%
%TO.N,unconnected-(U2-INH-Pad1)*%
X175825000Y-51075000D03*
%TO.P,U2,2,GND*%
%TO.N,GND*%
X173975000Y-51075000D03*
%TO.P,U2,3,CLK*%
%TO.N,OSC_CLK*%
X173975000Y-49625000D03*
%TO.P,U2,4,VCC*%
%TO.N,3.3V*%
X175825000Y-49625000D03*
%TD*%
D18*
%TO.P,IC2,1,NC_1*%
%TO.N,unconnected-(IC2-NC_1-Pad1)*%
X192750000Y-38300000D03*
%TO.P,IC2,2,NC_2*%
%TO.N,unconnected-(IC2-NC_2-Pad2)*%
X193250000Y-38300000D03*
%TO.P,IC2,3,NC_3*%
%TO.N,unconnected-(IC2-NC_3-Pad3)*%
X193750000Y-38300000D03*
%TO.P,IC2,4,NC_4*%
%TO.N,unconnected-(IC2-NC_4-Pad4)*%
X194250000Y-38300000D03*
%TO.P,IC2,5,NC_5*%
%TO.N,unconnected-(IC2-NC_5-Pad5)*%
X194750000Y-38300000D03*
%TO.P,IC2,6,NC_6*%
%TO.N,unconnected-(IC2-NC_6-Pad6)*%
X195250000Y-38300000D03*
%TO.P,IC2,7,R/B#*%
%TO.N,unconnected-(IC2-R{slash}B#-Pad7)*%
X195750000Y-38300000D03*
%TO.P,IC2,8,RE#*%
%TO.N,RE*%
X196250000Y-38300000D03*
%TO.P,IC2,9,CE#*%
%TO.N,NAND EN*%
X196750000Y-38300000D03*
%TO.P,IC2,10,NC_7*%
%TO.N,unconnected-(IC2-NC_7-Pad10)*%
X197250000Y-38300000D03*
%TO.P,IC2,11,NC_8*%
%TO.N,unconnected-(IC2-NC_8-Pad11)*%
X197750000Y-38300000D03*
%TO.P,IC2,12,VCC_1*%
%TO.N,3.3V*%
X198250000Y-38300000D03*
%TO.P,IC2,13,VSS_1*%
%TO.N,GND*%
X198750000Y-38300000D03*
%TO.P,IC2,14,NC_9*%
%TO.N,unconnected-(IC2-NC_9-Pad14)*%
X199250000Y-38300000D03*
%TO.P,IC2,15,NC_10*%
%TO.N,unconnected-(IC2-NC_10-Pad15)*%
X199750000Y-38300000D03*
%TO.P,IC2,16,CLE*%
%TO.N,CLE*%
X200250000Y-38300000D03*
%TO.P,IC2,17,ALE*%
%TO.N,ALE*%
X200750000Y-38300000D03*
%TO.P,IC2,18,WE#*%
%TO.N,WE*%
X201250000Y-38300000D03*
%TO.P,IC2,19,WP#*%
%TO.N,WP*%
X201750000Y-38300000D03*
%TO.P,IC2,20,NC_11*%
%TO.N,unconnected-(IC2-NC_11-Pad20)*%
X202250000Y-38300000D03*
%TO.P,IC2,21,NC_12*%
%TO.N,unconnected-(IC2-NC_12-Pad21)*%
X202750000Y-38300000D03*
%TO.P,IC2,22,NC_13*%
%TO.N,unconnected-(IC2-NC_13-Pad22)*%
X203250000Y-38300000D03*
%TO.P,IC2,23,NC_14*%
%TO.N,unconnected-(IC2-NC_14-Pad23)*%
X203750000Y-38300000D03*
%TO.P,IC2,24,NC_15*%
%TO.N,unconnected-(IC2-NC_15-Pad24)*%
X204250000Y-38300000D03*
%TO.P,IC2,25,VSS1_1*%
%TO.N,GND*%
X204250000Y-58000000D03*
%TO.P,IC2,26,NC_16*%
%TO.N,unconnected-(IC2-NC_16-Pad26)*%
X203750000Y-58000000D03*
%TO.P,IC2,27,NC_17*%
%TO.N,unconnected-(IC2-NC_17-Pad27)*%
X203250000Y-58000000D03*
%TO.P,IC2,28,NC_18*%
%TO.N,unconnected-(IC2-NC_18-Pad28)*%
X202750000Y-58000000D03*
%TO.P,IC2,29,I/O0*%
%TO.N,NAND0*%
X202250000Y-58000000D03*
%TO.P,IC2,30,I/O1*%
%TO.N,NAND1*%
X201750000Y-58000000D03*
%TO.P,IC2,31,I/O2*%
%TO.N,NAND2*%
X201250000Y-58000000D03*
%TO.P,IC2,32,I/O3*%
%TO.N,NAND3*%
X200750000Y-58000000D03*
%TO.P,IC2,33,NC_19*%
%TO.N,unconnected-(IC2-NC_19-Pad33)*%
X200250000Y-58000000D03*
%TO.P,IC2,34,VCC1_1*%
%TO.N,3.3V*%
X199750000Y-58000000D03*
%TO.P,IC2,35,NC_20*%
%TO.N,unconnected-(IC2-NC_20-Pad35)*%
X199250000Y-58000000D03*
%TO.P,IC2,36,VSS_2*%
%TO.N,GND*%
X198750000Y-58000000D03*
%TO.P,IC2,37,VCC_2*%
%TO.N,3.3V*%
X198250000Y-58000000D03*
%TO.P,IC2,38,DNU_1*%
%TO.N,unconnected-(IC2-DNU_1-Pad38)*%
X197750000Y-58000000D03*
%TO.P,IC2,39,VCC1_2*%
%TO.N,3.3V*%
X197250000Y-58000000D03*
%TO.P,IC2,40,NC_21*%
%TO.N,unconnected-(IC2-NC_21-Pad40)*%
X196750000Y-58000000D03*
%TO.P,IC2,41,I/O4*%
%TO.N,NAND4*%
X196250000Y-58000000D03*
%TO.P,IC2,42,I/O5*%
%TO.N,NAND5*%
X195750000Y-58000000D03*
%TO.P,IC2,43,I/O6*%
%TO.N,NAND6*%
X195250000Y-58000000D03*
%TO.P,IC2,44,I/O7*%
%TO.N,NAND7*%
X194750000Y-58000000D03*
%TO.P,IC2,45,NC_22*%
%TO.N,unconnected-(IC2-NC_22-Pad45)*%
X194250000Y-58000000D03*
%TO.P,IC2,46,NC_23*%
%TO.N,unconnected-(IC2-NC_23-Pad46)*%
X193750000Y-58000000D03*
%TO.P,IC2,47,DNU_2*%
%TO.N,unconnected-(IC2-DNU_2-Pad47)*%
X193250000Y-58000000D03*
%TO.P,IC2,48,VSS1_2*%
%TO.N,GND*%
X192750000Y-58000000D03*
%TD*%
D19*
%TO.P,C7,1,1*%
%TO.N,3.3V*%
X189370000Y-44075000D03*
%TO.P,C7,2,2*%
%TO.N,GND*%
X189750000Y-44075000D03*
%TD*%
D20*
%TO.P,U4,1,GND*%
%TO.N,GND*%
X164150000Y-34750000D03*
%TO.P,U4,2,VO*%
%TO.N,3.3V*%
X166450000Y-34750000D03*
D21*
X166450000Y-41050000D03*
D20*
%TO.P,U4,3,VI*%
%TO.N,Vsrc*%
X168750000Y-34750000D03*
%TD*%
D19*
%TO.P,C1,1,1*%
%TO.N,3.3V*%
X170205000Y-53075000D03*
%TO.P,C1,2,2*%
%TO.N,GND*%
X169825000Y-53075000D03*
%TD*%
%TO.P,C16,1,1*%
%TO.N,3.3V*%
X170325000Y-46575000D03*
%TO.P,C16,2,2*%
%TO.N,GND*%
X169945000Y-46575000D03*
%TD*%
D22*
%TO.P,C23,1,1*%
%TO.N,3.3V*%
X171500000Y-42500000D03*
%TO.P,C23,2,2*%
%TO.N,GND*%
X171500000Y-42120000D03*
%TD*%
D23*
%TO.P,Q2,1,S1*%
%TO.N,3.3V*%
X155650000Y-44565000D03*
D24*
%TO.P,Q2,2,G1*%
%TO.N,DROGUE*%
X156400000Y-44565000D03*
%TO.P,Q2,3,G2*%
X156400000Y-47335000D03*
D23*
%TO.P,Q2,4,S2*%
%TO.N,3.3V*%
X155650000Y-47335000D03*
D25*
%TO.P,Q2,5,D1/D2*%
%TO.N,DROGUE OUT*%
X155900000Y-45950000D03*
%TD*%
D26*
%TO.P,U5,1,VDD*%
%TO.N,3.3V*%
X163425000Y-56850000D03*
%TO.P,U5,2,PS*%
%TO.N,GND*%
X163425000Y-55600000D03*
%TO.P,U5,3,GND*%
X163425000Y-54350000D03*
%TO.P,U5,4,CSB*%
%TO.N,BAROMETER CS*%
X163425000Y-53100000D03*
%TO.P,U5,5,CSB*%
X165575000Y-53100000D03*
%TO.P,U5,6,SDO*%
%TO.N,MISO*%
X165575000Y-54350000D03*
%TO.P,U5,7,SDI/SDA*%
%TO.N,MOSI*%
X165575000Y-55600000D03*
%TO.P,U5,8,SCLK*%
%TO.N,CLK*%
X165575000Y-56850000D03*
%TD*%
D27*
%TO.P,C19,1,1*%
%TO.N,VCAP*%
X185075000Y-55750000D03*
%TO.P,C19,2,2*%
%TO.N,GND*%
X185075000Y-55276000D03*
%TD*%
D19*
%TO.P,C14,1,1*%
%TO.N,3.3V*%
X170325000Y-49075000D03*
%TO.P,C14,2,2*%
%TO.N,GND*%
X169945000Y-49075000D03*
%TD*%
D28*
%TO.P,IC1,1,GND_1*%
%TO.N,GND*%
X161050000Y-49525000D03*
%TO.P,IC1,2,RESERVED_1*%
%TO.N,unconnected-(IC1-RESERVED_1-Pad2)*%
X161050000Y-49025000D03*
%TO.P,IC1,3,GND_2*%
%TO.N,GND*%
X161050000Y-48525000D03*
%TO.P,IC1,4,GND_3*%
X161050000Y-48025000D03*
%TO.P,IC1,5,VS*%
%TO.N,3.3V*%
X161050000Y-47525000D03*
%TO.P,IC1,6,~{CS}*%
%TO.N,ACCELEROMETER CS*%
X161050000Y-47025000D03*
%TO.P,IC1,7,RESERVED_2*%
%TO.N,unconnected-(IC1-RESERVED_2-Pad7)*%
X161050000Y-46525000D03*
%TO.P,IC1,8,NC_1*%
%TO.N,unconnected-(IC1-NC_1-Pad8)*%
X161050000Y-46025000D03*
D29*
%TO.P,IC1,9,NC_2*%
%TO.N,unconnected-(IC1-NC_2-Pad9)*%
X161750000Y-45325000D03*
%TO.P,IC1,10,NC_3*%
%TO.N,unconnected-(IC1-NC_3-Pad10)*%
X162250000Y-45325000D03*
%TO.P,IC1,11,NC_4*%
%TO.N,unconnected-(IC1-NC_4-Pad11)*%
X162750000Y-45325000D03*
%TO.P,IC1,12,NC_5*%
%TO.N,unconnected-(IC1-NC_5-Pad12)*%
X163250000Y-45325000D03*
%TO.P,IC1,13,NC_6*%
%TO.N,unconnected-(IC1-NC_6-Pad13)*%
X163750000Y-45325000D03*
%TO.P,IC1,14,NC_7*%
%TO.N,unconnected-(IC1-NC_7-Pad14)*%
X164250000Y-45325000D03*
%TO.P,IC1,15,NC_8*%
%TO.N,unconnected-(IC1-NC_8-Pad15)*%
X164750000Y-45325000D03*
%TO.P,IC1,16,NC_9*%
%TO.N,unconnected-(IC1-NC_9-Pad16)*%
X165250000Y-45325000D03*
D28*
%TO.P,IC1,17,NC_10*%
%TO.N,unconnected-(IC1-NC_10-Pad17)*%
X165950000Y-46025000D03*
%TO.P,IC1,18,NC_11*%
%TO.N,unconnected-(IC1-NC_11-Pad18)*%
X165950000Y-46525000D03*
%TO.P,IC1,19,NC_12*%
%TO.N,unconnected-(IC1-NC_12-Pad19)*%
X165950000Y-47025000D03*
%TO.P,IC1,20,INT1*%
%TO.N,unconnected-(IC1-INT1-Pad20)*%
X165950000Y-47525000D03*
%TO.P,IC1,21,INT2*%
%TO.N,unconnected-(IC1-INT2-Pad21)*%
X165950000Y-48025000D03*
%TO.P,IC1,22,RESERVED_3*%
%TO.N,unconnected-(IC1-RESERVED_3-Pad22)*%
X165950000Y-48525000D03*
%TO.P,IC1,23,SDO/ALT_ADDRESS*%
%TO.N,MISO*%
X165950000Y-49025000D03*
%TO.P,IC1,24,SDA/SDI/SDIO*%
%TO.N,MOSI*%
X165950000Y-49525000D03*
D29*
%TO.P,IC1,25,NC_13*%
%TO.N,unconnected-(IC1-NC_13-Pad25)*%
X165250000Y-50225000D03*
%TO.P,IC1,26,SCL/SCLK*%
%TO.N,CLK*%
X164750000Y-50225000D03*
%TO.P,IC1,27,NC_14*%
%TO.N,unconnected-(IC1-NC_14-Pad27)*%
X164250000Y-50225000D03*
%TO.P,IC1,28,NC_15*%
%TO.N,unconnected-(IC1-NC_15-Pad28)*%
X163750000Y-50225000D03*
%TO.P,IC1,29,NC_16*%
%TO.N,unconnected-(IC1-NC_16-Pad29)*%
X163250000Y-50225000D03*
%TO.P,IC1,30,NC_17*%
%TO.N,unconnected-(IC1-NC_17-Pad30)*%
X162750000Y-50225000D03*
%TO.P,IC1,31,VDDI/O*%
%TO.N,3.3V*%
X162250000Y-50225000D03*
%TO.P,IC1,32,NC_18*%
%TO.N,unconnected-(IC1-NC_18-Pad32)*%
X161750000Y-50225000D03*
D30*
%TO.P,IC1,33,THERMAL_PAD*%
%TO.N,GND*%
X163500000Y-47775000D03*
%TD*%
D19*
%TO.P,C15,1,1*%
%TO.N,3.3V*%
X186445000Y-57825000D03*
%TO.P,C15,2,2*%
%TO.N,GND*%
X186825000Y-57825000D03*
%TD*%
D22*
%TO.P,C17,1,1*%
%TO.N,3.3V*%
X175325000Y-47575000D03*
%TO.P,C17,2,2*%
%TO.N,GND*%
X175325000Y-47195000D03*
%TD*%
D19*
%TO.P,C6,1,1*%
%TO.N,3.3V*%
X174575000Y-59325000D03*
%TO.P,C6,2,2*%
%TO.N,GND*%
X174195000Y-59325000D03*
%TD*%
D31*
%TO.P,LS1,1,+*%
%TO.N,Net-(LS1-+)*%
X178425000Y-43575000D03*
%TO.P,LS1,2,-*%
%TO.N,GND*%
X182225000Y-43575000D03*
%TO.P,LS1,3,NC*%
%TO.N,unconnected-(LS1-NC-Pad3)*%
X178425000Y-47075000D03*
%TD*%
D32*
%TO.N,CLK*%
X177400000Y-40800000D03*
%TO.N,MISO*%
X166650000Y-54600000D03*
%TO.N,MOSI*%
X176000000Y-60000000D03*
D33*
%TO.N,*%
X207500000Y-57250000D03*
X150000000Y-57250000D03*
X150000000Y-27750000D03*
X207500000Y-27750000D03*
D32*
%TO.N,GND*%
X204250000Y-56500000D03*
D34*
X174744145Y-47135777D03*
D32*
X195250000Y-30250000D03*
D34*
X197750000Y-56110000D03*
D32*
X160000000Y-49000000D03*
D34*
X169500000Y-49000000D03*
X197250000Y-37000000D03*
D32*
X196750000Y-49500000D03*
X185060000Y-30250000D03*
X194980000Y-39750000D03*
X185000000Y-44500000D03*
D34*
X162250000Y-52000000D03*
D32*
X196500000Y-43000000D03*
X198750000Y-56750000D03*
X190750000Y-45250000D03*
D34*
X169250000Y-53250000D03*
X164500000Y-38000000D03*
D32*
X173750000Y-59000000D03*
X173500000Y-38500000D03*
X173500000Y-52750000D03*
X190750000Y-35500000D03*
X162250000Y-55000000D03*
D34*
X187750000Y-57750000D03*
X173250000Y-48500000D03*
D32*
X169000000Y-54500000D03*
X185000000Y-52000000D03*
X185000000Y-54000000D03*
X192750000Y-56750000D03*
D34*
X161750000Y-56750000D03*
X198804626Y-37227456D03*
D32*
X168250000Y-58250000D03*
X196500000Y-46250000D03*
D34*
X172250000Y-41750000D03*
X169500000Y-46500000D03*
%TO.N,3.3V*%
X162250000Y-51000000D03*
D32*
X155750000Y-48250000D03*
X155750000Y-43500000D03*
D34*
X199712250Y-58900000D03*
X170750000Y-46500000D03*
X186000000Y-57750000D03*
D32*
X169000000Y-50500000D03*
D34*
X170750000Y-53000000D03*
X170750000Y-49000000D03*
D32*
X168750000Y-55500000D03*
X201500000Y-54250000D03*
X189250000Y-40850000D03*
D34*
X197250000Y-57000000D03*
D32*
X206000000Y-54250000D03*
D34*
X199234998Y-56110000D03*
X174750000Y-47750000D03*
X171516054Y-42808945D03*
X189039124Y-44039124D03*
X198249999Y-37456350D03*
X162750000Y-57250000D03*
X174567393Y-58761893D03*
X172516054Y-43016054D03*
D32*
X159000000Y-47500000D03*
X166450000Y-37900000D03*
X191031587Y-38718413D03*
X172500000Y-40250000D03*
%TO.N,ACCELEROMETER CS*%
X169750000Y-43750000D03*
X159750000Y-45500000D03*
X175750000Y-40250000D03*
%TO.N,MOSI*%
X168237851Y-56114579D03*
X167250000Y-53300000D03*
%TO.N,CLK*%
X164500000Y-53750000D03*
X168500000Y-45750000D03*
X165250000Y-51500000D03*
%TO.N,NAND4*%
X197807108Y-54400000D03*
X190350000Y-52250000D03*
X192250000Y-52250000D03*
%TO.N,NAND5*%
X195350000Y-56750000D03*
%TO.N,NAND3*%
X200269369Y-56764087D03*
%TO.N,NAND7*%
X188426017Y-43566896D03*
%TO.N,RE*%
X195533403Y-36892529D03*
X182500000Y-40850000D03*
%TO.N,NAND2*%
X189150000Y-55500000D03*
%TO.N,NAND EN*%
X196000000Y-39750000D03*
X181500000Y-41000000D03*
%TO.N,WP*%
X181034456Y-45357772D03*
%TO.N,WE*%
X183500000Y-46300000D03*
%TO.N,NAND1*%
X195350000Y-53750000D03*
X194150000Y-53111003D03*
X189000000Y-54000000D03*
X182500000Y-55750000D03*
X190350000Y-54250000D03*
%TO.N,ALE*%
X182500000Y-45700000D03*
%TO.N,CLE*%
X181750000Y-45000000D03*
%TO.N,NAND6*%
X189750000Y-48500000D03*
%TO.N,NAND0*%
X201769615Y-59200000D03*
%TO.N,DP*%
X189500000Y-35250000D03*
X188867463Y-46367463D03*
X189000000Y-34000000D03*
X189500000Y-38000000D03*
D34*
%TO.N,DN*%
X188835876Y-45585876D03*
D32*
X187250000Y-40850000D03*
%TO.N,BOOT High*%
X177750000Y-36250000D03*
%TO.N,RADIO CS*%
X175250000Y-34000000D03*
%TO.N,Buzzer control*%
X173014352Y-44499999D03*
%TO.N,DROGUE*%
X174475000Y-40750000D03*
D34*
%TO.N,MAIN*%
X194250000Y-52250000D03*
X181000000Y-47250000D03*
%TO.N,BAROMETER CS*%
X176000000Y-44750000D03*
X166371446Y-53128554D03*
D32*
%TO.N,OSC_CLK*%
X173014352Y-49499999D03*
D34*
%TO.N,unconnected-(U1-PC3-Pad18)*%
X170000000Y-52000000D03*
%TO.N,VCAP*%
X182750000Y-49500000D03*
D32*
X185003569Y-56495550D03*
D34*
%TO.N,INDICATOR 1*%
X190250000Y-50000000D03*
X170000000Y-45100000D03*
%TO.N,INDICATOR 2*%
X180250000Y-49250000D03*
X189000000Y-49000000D03*
%TO.N,INDICATOR 3*%
X173750000Y-46250000D03*
X190500000Y-47500000D03*
%TO.N,INDICATOR 4*%
X185500000Y-48250000D03*
X190250000Y-41850000D03*
D32*
%TO.N,USB ID*%
X189950735Y-46799265D03*
%TD*%
D35*
%TO.N,3.3V*%
X174801674Y-47750000D02*
X174750000Y-47750000D01*
X175310000Y-47560000D02*
X174991674Y-47560000D01*
X175325000Y-47575000D02*
X175310000Y-47560000D01*
X174991674Y-47560000D02*
X174801674Y-47750000D01*
D36*
%TO.N,MISO*%
X166400000Y-54350000D02*
X166650000Y-54600000D01*
X165575000Y-54350000D02*
X166400000Y-54350000D01*
X166798528Y-54600000D02*
X167599264Y-53799264D01*
X166650000Y-54600000D02*
X166798528Y-54600000D01*
X167599264Y-53799264D02*
X167850000Y-53548529D01*
X167498529Y-53900000D02*
X167599264Y-53799264D01*
%TO.N,MOSI*%
X170848529Y-60000000D02*
X176000000Y-60000000D01*
X166948529Y-56100000D02*
X170848529Y-60000000D01*
X166075000Y-56100000D02*
X166948529Y-56100000D01*
%TO.N,MISO*%
X166625000Y-49025000D02*
X165950000Y-49025000D01*
X167850000Y-50250000D02*
X166625000Y-49025000D01*
X167850000Y-53548529D02*
X167850000Y-50250000D01*
D35*
%TO.N,GND*%
X159750000Y-48160000D02*
X159750000Y-48750000D01*
D36*
X182225000Y-43575000D02*
X184075000Y-43575000D01*
X161050000Y-48025000D02*
X163250000Y-48025000D01*
X160525000Y-49525000D02*
X160000000Y-49000000D01*
X161775000Y-49500000D02*
X163500000Y-47775000D01*
D35*
X186825000Y-57825000D02*
X187675000Y-57825000D01*
D36*
X173975000Y-52275000D02*
X173500000Y-52750000D01*
D35*
X169575000Y-46575000D02*
X169500000Y-46500000D01*
D36*
X184075000Y-43575000D02*
X185000000Y-44500000D01*
X185075000Y-54075000D02*
X185000000Y-54000000D01*
X161050000Y-49525000D02*
X160525000Y-49525000D01*
D37*
X164150000Y-34750000D02*
X164150000Y-34650000D01*
D36*
X161075000Y-49500000D02*
X161775000Y-49500000D01*
X186162397Y-55276000D02*
X186835000Y-55948603D01*
X160475000Y-48525000D02*
X160000000Y-49000000D01*
D35*
X169575000Y-49075000D02*
X169500000Y-49000000D01*
D38*
X189750000Y-44075000D02*
X190750000Y-45075000D01*
D35*
X198750000Y-37282082D02*
X198804626Y-37227456D01*
D36*
X161050000Y-49525000D02*
X161075000Y-49500000D01*
X192750000Y-58000000D02*
X192750000Y-56750000D01*
X163425000Y-55600000D02*
X162850000Y-55600000D01*
X173975000Y-51075000D02*
X173975000Y-52275000D01*
X161050000Y-48525000D02*
X160475000Y-48525000D01*
D35*
X169945000Y-49075000D02*
X169575000Y-49075000D01*
X159750000Y-48750000D02*
X160000000Y-49000000D01*
X175325000Y-47195000D02*
X174803368Y-47195000D01*
X169945000Y-46575000D02*
X169575000Y-46575000D01*
D36*
X186835000Y-55948603D02*
X186835000Y-57825000D01*
X185075000Y-55276000D02*
X186162397Y-55276000D01*
D35*
X198750000Y-38300000D02*
X198750000Y-37282082D01*
X169825000Y-53075000D02*
X169425000Y-53075000D01*
X171880000Y-42120000D02*
X172250000Y-41750000D01*
X187675000Y-57825000D02*
X187750000Y-57750000D01*
X171500000Y-42120000D02*
X171880000Y-42120000D01*
D36*
X161050000Y-48025000D02*
X160975000Y-48025000D01*
X162750000Y-48525000D02*
X163500000Y-47775000D01*
D35*
X174195000Y-59325000D02*
X174075000Y-59325000D01*
D36*
X163425000Y-54350000D02*
X162900000Y-54350000D01*
D35*
X174075000Y-59325000D02*
X173750000Y-59000000D01*
X169425000Y-53075000D02*
X169250000Y-53250000D01*
D36*
X163425000Y-55600000D02*
X163425000Y-54350000D01*
X162900000Y-54350000D02*
X162250000Y-55000000D01*
X163250000Y-48025000D02*
X163500000Y-47775000D01*
X160975000Y-48025000D02*
X160000000Y-49000000D01*
D37*
X164150000Y-34650000D02*
X159750000Y-30250000D01*
D36*
X185075000Y-55276000D02*
X185075000Y-54075000D01*
X198750000Y-56750000D02*
X198750000Y-58000000D01*
X162850000Y-55600000D02*
X162250000Y-55000000D01*
D38*
X190750000Y-45075000D02*
X190750000Y-45250000D01*
D36*
X161050000Y-48525000D02*
X162750000Y-48525000D01*
X204250000Y-58000000D02*
X204250000Y-56500000D01*
D35*
X174803368Y-47195000D02*
X174744145Y-47135777D01*
%TO.N,3.3V*%
X170675000Y-53075000D02*
X170750000Y-53000000D01*
D36*
X155650000Y-43600000D02*
X155750000Y-43500000D01*
X155650000Y-44565000D02*
X155650000Y-43600000D01*
D35*
X163025000Y-57250000D02*
X163425000Y-56850000D01*
X170675000Y-46575000D02*
X170750000Y-46500000D01*
X171516054Y-42808945D02*
X171500000Y-42792891D01*
X189370000Y-44075000D02*
X189075000Y-44075000D01*
X198175000Y-57925000D02*
X198175000Y-56511827D01*
X199825000Y-58075000D02*
X199750000Y-58000000D01*
X162250000Y-51000000D02*
X162250000Y-50225000D01*
D36*
X161050000Y-47525000D02*
X159775000Y-47525000D01*
D35*
X174575000Y-59325000D02*
X174575000Y-58769500D01*
X170325000Y-46575000D02*
X170675000Y-46575000D01*
X198250000Y-37456351D02*
X198249999Y-37456350D01*
X199712250Y-58900000D02*
X199825000Y-58787250D01*
X174575000Y-58769500D02*
X174567393Y-58761893D01*
D36*
X159775000Y-47525000D02*
X159750000Y-47500000D01*
X155650000Y-47335000D02*
X155650000Y-48150000D01*
X166450000Y-34750000D02*
X166450000Y-37900000D01*
D35*
X198250000Y-58000000D02*
X198175000Y-57925000D01*
X198175000Y-56511827D02*
X198576827Y-56110000D01*
X189075000Y-44075000D02*
X189039124Y-44039124D01*
X175325000Y-49125000D02*
X175825000Y-49625000D01*
X197250000Y-58000000D02*
X197250000Y-57000000D01*
X175325000Y-47575000D02*
X175325000Y-49125000D01*
X198576827Y-56110000D02*
X199234998Y-56110000D01*
X199825000Y-58787250D02*
X199825000Y-58075000D01*
D36*
X166450000Y-37900000D02*
X166450000Y-41050000D01*
X159750000Y-47500000D02*
X159000000Y-47500000D01*
D35*
X186445000Y-57825000D02*
X186075000Y-57825000D01*
X170675000Y-49075000D02*
X170750000Y-49000000D01*
X162750000Y-57250000D02*
X163025000Y-57250000D01*
X171500000Y-42792891D02*
X171500000Y-42500000D01*
X173283946Y-43016054D02*
X173625000Y-42675000D01*
X170205000Y-53075000D02*
X170675000Y-53075000D01*
X170325000Y-49075000D02*
X170675000Y-49075000D01*
X186075000Y-57825000D02*
X186000000Y-57750000D01*
X172516054Y-43016054D02*
X173283946Y-43016054D01*
D36*
X155650000Y-48150000D02*
X155750000Y-48250000D01*
D35*
X198250000Y-38300000D02*
X198250000Y-37456351D01*
D36*
%TO.N,ACCELEROMETER CS*%
X171965000Y-40850000D02*
X169750000Y-43065000D01*
X160375000Y-47025000D02*
X159750000Y-46400000D01*
X175750000Y-40120343D02*
X175129657Y-39500000D01*
X175129657Y-39500000D02*
X174759314Y-39500000D01*
X173409314Y-40850000D02*
X171965000Y-40850000D01*
X174759314Y-39500000D02*
X173409314Y-40850000D01*
X175750000Y-40250000D02*
X175750000Y-40120343D01*
X159750000Y-46400000D02*
X159750000Y-45500000D01*
X169750000Y-43065000D02*
X169750000Y-43750000D01*
X161050000Y-47025000D02*
X160375000Y-47025000D01*
%TO.N,MOSI*%
X166075000Y-56100000D02*
X165575000Y-55600000D01*
X165950000Y-52000000D02*
X167250000Y-53300000D01*
X165950000Y-49525000D02*
X165950000Y-52000000D01*
%TO.N,CLK*%
X164200000Y-54050000D02*
X164500000Y-53750000D01*
X164200000Y-55475000D02*
X164200000Y-54050000D01*
X165575000Y-56850000D02*
X164200000Y-55475000D01*
X164750000Y-50225000D02*
X164750000Y-51000000D01*
X164750000Y-51000000D02*
X165250000Y-51500000D01*
%TO.N,NAND4*%
X196250000Y-58000000D02*
X196250000Y-56059530D01*
X192250000Y-52250000D02*
X190350000Y-52250000D01*
X197807108Y-54400000D02*
X197807108Y-54502422D01*
X197807108Y-54502422D02*
X196250000Y-56059530D01*
%TO.N,NAND5*%
X195750000Y-57150000D02*
X195350000Y-56750000D01*
X195750000Y-58000000D02*
X195750000Y-57150000D01*
%TO.N,NAND3*%
X200750000Y-57244718D02*
X200269369Y-56764087D01*
X200750000Y-58000000D02*
X200750000Y-57244718D01*
%TO.N,NAND7*%
X194750000Y-50750000D02*
X194750000Y-58000000D01*
X188426017Y-44426017D02*
X194750000Y-50750000D01*
X188426017Y-43566896D02*
X188426017Y-44426017D01*
%TO.N,RE*%
X196250000Y-37400000D02*
X195742529Y-36892529D01*
X196250000Y-38300000D02*
X196250000Y-37400000D01*
X195742529Y-36892529D02*
X195533403Y-36892529D01*
%TO.N,NAND2*%
X200750000Y-59400000D02*
X201250000Y-58900000D01*
X189150000Y-57400000D02*
X191150000Y-59400000D01*
X191150000Y-59400000D02*
X200750000Y-59400000D01*
X189150000Y-55500000D02*
X189150000Y-57400000D01*
X201250000Y-58900000D02*
X201250000Y-58000000D01*
%TO.N,NAND EN*%
X196200000Y-39750000D02*
X196000000Y-39750000D01*
X196750000Y-39200000D02*
X196200000Y-39750000D01*
X196750000Y-38300000D02*
X196750000Y-39200000D01*
%TO.N,WP*%
X197079901Y-44400000D02*
X195684314Y-44400000D01*
X185350000Y-46900000D02*
X182576684Y-46900000D01*
X194834314Y-43550000D02*
X189300000Y-43550000D01*
X187826017Y-44423983D02*
X185350000Y-46900000D01*
X195684314Y-44400000D02*
X194834314Y-43550000D01*
X182576684Y-46900000D02*
X181034456Y-45357772D01*
X201750000Y-39729901D02*
X197079901Y-44400000D01*
X188177488Y-42966896D02*
X187826017Y-43318367D01*
X201750000Y-38300000D02*
X201750000Y-39729901D01*
X189300000Y-43550000D02*
X188716896Y-42966896D01*
X187826017Y-43318367D02*
X187826017Y-44423983D01*
X188716896Y-42966896D02*
X188177488Y-42966896D01*
%TO.N,WE*%
X201250000Y-38300000D02*
X201250000Y-39664215D01*
X187891362Y-42566896D02*
X187426017Y-43032241D01*
X196914215Y-44000000D02*
X195850000Y-44000000D01*
X189465686Y-43150000D02*
X188882582Y-42566896D01*
X186704413Y-44979901D02*
X186500000Y-44979901D01*
X188882582Y-42566896D02*
X187891362Y-42566896D01*
X187426017Y-44258297D02*
X186704413Y-44979901D01*
X201250000Y-39664215D02*
X196914215Y-44000000D01*
X187426017Y-43032241D02*
X187426017Y-44258297D01*
X195850000Y-44000000D02*
X195000000Y-43150000D01*
X195000000Y-43150000D02*
X189465686Y-43150000D01*
X186500000Y-44979901D02*
X185179901Y-46300000D01*
X185179901Y-46300000D02*
X183500000Y-46300000D01*
%TO.N,NAND1*%
X188000000Y-53400000D02*
X184751471Y-53400000D01*
X189000000Y-54000000D02*
X188600000Y-53600000D01*
X201750000Y-57100000D02*
X198400000Y-53750000D01*
X194150000Y-53111003D02*
X193011003Y-54250000D01*
X201750000Y-58000000D02*
X201750000Y-57100000D01*
X188200000Y-53600000D02*
X188000000Y-53400000D01*
X193011003Y-54250000D02*
X190350000Y-54250000D01*
X188600000Y-53600000D02*
X188200000Y-53600000D01*
X182500000Y-55651471D02*
X182500000Y-55750000D01*
X198400000Y-53750000D02*
X195350000Y-53750000D01*
X184751471Y-53400000D02*
X182500000Y-55651471D01*
%TO.N,ALE*%
X200750000Y-38300000D02*
X200750000Y-39598529D01*
X186914215Y-42978357D02*
X186914215Y-44000000D01*
X189631372Y-42750000D02*
X189048268Y-42166896D01*
X189048268Y-42166896D02*
X187725676Y-42166896D01*
X195401471Y-42750000D02*
X189631372Y-42750000D01*
X200750000Y-39598529D02*
X196748529Y-43600000D01*
X187725676Y-42166896D02*
X186914215Y-42978357D01*
X186914215Y-44000000D02*
X185214215Y-45700000D01*
X185214215Y-45700000D02*
X182500000Y-45700000D01*
X196748529Y-43600000D02*
X196251471Y-43600000D01*
X196251471Y-43600000D02*
X195401471Y-42750000D01*
%TO.N,CLE*%
X181850000Y-45100000D02*
X181750000Y-45000000D01*
X197150000Y-42350000D02*
X189797058Y-42350000D01*
X200250000Y-39200000D02*
X197250000Y-42200000D01*
X186500000Y-43848529D02*
X185248529Y-45100000D01*
X197250000Y-42250000D02*
X197150000Y-42350000D01*
X197250000Y-42200000D02*
X197250000Y-42250000D01*
X185248529Y-45100000D02*
X181850000Y-45100000D01*
X189213954Y-41766896D02*
X187559990Y-41766896D01*
X187559990Y-41766896D02*
X186500000Y-42826886D01*
X189797058Y-42350000D02*
X189213954Y-41766896D01*
X186500000Y-42826886D02*
X186500000Y-43848529D01*
X200250000Y-38300000D02*
X200250000Y-39200000D01*
%TO.N,NAND6*%
X195000000Y-59000000D02*
X192350000Y-59000000D01*
X189750000Y-56400000D02*
X189750000Y-48500000D01*
X192350000Y-59000000D02*
X189750000Y-56400000D01*
X195250000Y-58750000D02*
X195000000Y-59000000D01*
X195250000Y-58000000D02*
X195250000Y-58750000D01*
%TO.N,NAND0*%
X201950000Y-59200000D02*
X201769615Y-59200000D01*
X202250000Y-58000000D02*
X202250000Y-58900000D01*
X202250000Y-58900000D02*
X201950000Y-59200000D01*
%TO.N,DP*%
X189000000Y-34000000D02*
X189000000Y-34750000D01*
X189000000Y-34750000D02*
X189500000Y-35250000D01*
D37*
%TO.N,Vsrc*%
X168750000Y-34250000D02*
X164750000Y-30250000D01*
D36*
X164750000Y-30750000D02*
X164750000Y-30250000D01*
D37*
X168750000Y-34750000D02*
X168750000Y-34250000D01*
D36*
%TO.N,RADIO CS*%
X176310000Y-32940000D02*
X176310000Y-28000000D01*
X175250000Y-34000000D02*
X176310000Y-32940000D01*
%TO.N,DROGUE OUT*%
X155900000Y-45950000D02*
X152850000Y-45950000D01*
X152850000Y-45950000D02*
X152750000Y-45850000D01*
%TO.N,Net-(LS1-+)*%
X178375000Y-43625000D02*
X178425000Y-43575000D01*
X175825000Y-43625000D02*
X178375000Y-43625000D01*
%TO.N,Buzzer control*%
X173089353Y-44575000D02*
X173014352Y-44499999D01*
X173625000Y-44575000D02*
X173089353Y-44575000D01*
%TO.N,DROGUE*%
X172016054Y-43223161D02*
X172016054Y-42808947D01*
X172500000Y-42325000D02*
X174075000Y-40750000D01*
X157000000Y-44750000D02*
X156815000Y-44565000D01*
X174075000Y-40750000D02*
X174475000Y-40750000D01*
X157000000Y-44750000D02*
X157150000Y-44600000D01*
X171750000Y-43500000D02*
X172021447Y-43228553D01*
X171325000Y-43500000D02*
X171750000Y-43500000D01*
X156400000Y-47335000D02*
X156815000Y-47335000D01*
X170225000Y-44600000D02*
X171325000Y-43500000D01*
X172021447Y-43228553D02*
X172016054Y-43223161D01*
X156815000Y-44565000D02*
X156400000Y-44565000D01*
X172308947Y-42516054D02*
X172500000Y-42516054D01*
X172500000Y-42516054D02*
X172500000Y-42325000D01*
X156815000Y-47335000D02*
X157000000Y-47150000D01*
X157150000Y-44600000D02*
X170225000Y-44600000D01*
X157000000Y-47150000D02*
X157000000Y-44750000D01*
X172016054Y-42808947D02*
X172308947Y-42516054D01*
%TO.N,MAIN*%
X194250000Y-52151471D02*
X189398529Y-47300000D01*
X181050000Y-47300000D02*
X181000000Y-47250000D01*
X194250000Y-52250000D02*
X194250000Y-52151471D01*
X189398529Y-47300000D02*
X181050000Y-47300000D01*
D35*
%TO.N,BAROMETER CS*%
X166371446Y-53128554D02*
X165603554Y-53128554D01*
D36*
X163425000Y-53100000D02*
X165575000Y-53100000D01*
D35*
X165603554Y-53128554D02*
X165575000Y-53100000D01*
D36*
%TO.N,OSC_CLK*%
X173975000Y-49625000D02*
X173139353Y-49625000D01*
X173139353Y-49625000D02*
X173014352Y-49499999D01*
%TO.N,VCAP*%
X182748529Y-56350000D02*
X182251471Y-56350000D01*
X184756222Y-55750000D02*
X184623379Y-55617157D01*
X184623379Y-55617157D02*
X183481372Y-55617157D01*
X185003569Y-56495550D02*
X185003569Y-55821431D01*
X185075000Y-55750000D02*
X184756222Y-55750000D01*
X181900000Y-50350000D02*
X182750000Y-49500000D01*
X183481372Y-55617157D02*
X182748529Y-56350000D01*
X185003569Y-55821431D02*
X185075000Y-55750000D01*
X181900000Y-55998529D02*
X181900000Y-50350000D01*
X182251471Y-56350000D02*
X181900000Y-55998529D01*
D35*
%TO.N,INDICATOR 2*%
X180500000Y-49000000D02*
X180250000Y-49250000D01*
X189000000Y-49000000D02*
X180500000Y-49000000D01*
%TD*%
%TA.AperFunction,Conductor*%
%TO.N,GND*%
G36*
X194068834Y-54143917D02*
G01*
X194124767Y-54185789D01*
X194149184Y-54251253D01*
X194149500Y-54260099D01*
X194149500Y-56727648D01*
X194129815Y-56794687D01*
X194077011Y-56840442D01*
X194038753Y-56850938D01*
X194013255Y-56853679D01*
X193986748Y-56853679D01*
X193947874Y-56849500D01*
X193552130Y-56849500D01*
X193552119Y-56849501D01*
X193513253Y-56853679D01*
X193486748Y-56853679D01*
X193447874Y-56849500D01*
X193052132Y-56849500D01*
X193052117Y-56849501D01*
X193010904Y-56853931D01*
X192984402Y-56853931D01*
X192947834Y-56850000D01*
X192900000Y-56850000D01*
X192884388Y-56865611D01*
X192880315Y-56879485D01*
X192850313Y-56911710D01*
X192798309Y-56950640D01*
X192732846Y-56975057D01*
X192664574Y-56960205D01*
X192615168Y-56910800D01*
X192600000Y-56851373D01*
X192600000Y-56850000D01*
X192552155Y-56850000D01*
X192492627Y-56856401D01*
X192492620Y-56856403D01*
X192357913Y-56906645D01*
X192357906Y-56906649D01*
X192242812Y-56992809D01*
X192242809Y-56992812D01*
X192156649Y-57107906D01*
X192156645Y-57107913D01*
X192106403Y-57242620D01*
X192106401Y-57242627D01*
X192100000Y-57302155D01*
X192100000Y-57601403D01*
X192080315Y-57668442D01*
X192027511Y-57714197D01*
X191958353Y-57724141D01*
X191894797Y-57695116D01*
X191888319Y-57689084D01*
X190386819Y-56187584D01*
X190353334Y-56126261D01*
X190350500Y-56099903D01*
X190350500Y-55166321D01*
X190370185Y-55099282D01*
X190422989Y-55053527D01*
X190460612Y-55043101D01*
X190529255Y-55035368D01*
X190699522Y-54975789D01*
X190852262Y-54879816D01*
X190852267Y-54879810D01*
X190855097Y-54877555D01*
X190857275Y-54876665D01*
X190858158Y-54876111D01*
X190858255Y-54876265D01*
X190919783Y-54851145D01*
X190932412Y-54850500D01*
X192924334Y-54850500D01*
X192924350Y-54850501D01*
X192931946Y-54850501D01*
X193090057Y-54850501D01*
X193090060Y-54850501D01*
X193242788Y-54809577D01*
X193304043Y-54774211D01*
X193379719Y-54730520D01*
X193491523Y-54618716D01*
X193491523Y-54618714D01*
X193501727Y-54608511D01*
X193501730Y-54608506D01*
X193937820Y-54172417D01*
X193999142Y-54138933D01*
X194068834Y-54143917D01*
G37*
%TD.AperFunction*%
%TA.AperFunction,Conductor*%
G36*
X198642117Y-54841936D02*
G01*
X198649556Y-54848791D01*
X199042873Y-55242108D01*
X199076358Y-55303431D01*
X199071374Y-55373123D01*
X199029502Y-55429056D01*
X198991583Y-55447008D01*
X198991788Y-55447549D01*
X198985018Y-55450116D01*
X198984878Y-55450183D01*
X198984778Y-55450207D01*
X198984772Y-55450209D01*
X198851236Y-55520296D01*
X198793610Y-55534500D01*
X198501060Y-55534500D01*
X198428072Y-55554056D01*
X198428072Y-55554057D01*
X198354692Y-55573719D01*
X198354690Y-55573719D01*
X198354690Y-55573720D01*
X198223462Y-55649485D01*
X198123381Y-55749566D01*
X198123380Y-55749565D01*
X197804193Y-56068752D01*
X197804194Y-56068753D01*
X197714484Y-56158462D01*
X197642522Y-56283104D01*
X197591954Y-56331319D01*
X197523347Y-56344541D01*
X197505460Y-56341500D01*
X197335056Y-56299500D01*
X197164944Y-56299500D01*
X197158627Y-56299500D01*
X197091588Y-56279815D01*
X197045833Y-56227011D01*
X197035889Y-56157853D01*
X197064914Y-56094297D01*
X197070946Y-56087819D01*
X197286530Y-55872235D01*
X197946404Y-55212359D01*
X197993127Y-55183001D01*
X198156630Y-55125789D01*
X198309370Y-55029816D01*
X198436924Y-54902262D01*
X198456881Y-54870499D01*
X198509216Y-54824209D01*
X198578269Y-54813561D01*
X198642117Y-54841936D01*
G37*
%TD.AperFunction*%
%TA.AperFunction,Conductor*%
G36*
X188616238Y-49589704D02*
G01*
X188699398Y-49633350D01*
X188749775Y-49659790D01*
X188914944Y-49700500D01*
X189025500Y-49700500D01*
X189092539Y-49720185D01*
X189138294Y-49772989D01*
X189149500Y-49824500D01*
X189149500Y-53009081D01*
X189129815Y-53076120D01*
X189077011Y-53121875D01*
X189007853Y-53131819D01*
X188963501Y-53116469D01*
X188905677Y-53083085D01*
X188858012Y-53055565D01*
X188858010Y-53055564D01*
X188831785Y-53040423D01*
X188831784Y-53040422D01*
X188831783Y-53040422D01*
X188771278Y-53024210D01*
X188679057Y-52999499D01*
X188520943Y-52999499D01*
X188513347Y-52999499D01*
X188513331Y-52999500D01*
X188500098Y-52999500D01*
X188433059Y-52979815D01*
X188412417Y-52963181D01*
X188368717Y-52919481D01*
X188368716Y-52919480D01*
X188275167Y-52865470D01*
X188231785Y-52840423D01*
X188079057Y-52799499D01*
X187920943Y-52799499D01*
X187913347Y-52799499D01*
X187913331Y-52799500D01*
X184838140Y-52799500D01*
X184838124Y-52799499D01*
X184830528Y-52799499D01*
X184672414Y-52799499D01*
X184557868Y-52830192D01*
X184519685Y-52840423D01*
X184476304Y-52865470D01*
X184476303Y-52865470D01*
X184382758Y-52919477D01*
X184382753Y-52919481D01*
X182712181Y-54590054D01*
X182650858Y-54623539D01*
X182581166Y-54618555D01*
X182525233Y-54576683D01*
X182500816Y-54511219D01*
X182500500Y-54502373D01*
X182500500Y-50650097D01*
X182520185Y-50583058D01*
X182536819Y-50562416D01*
X182705901Y-50393334D01*
X182895123Y-50204111D01*
X182953125Y-50171398D01*
X183000225Y-50159790D01*
X183150852Y-50080734D01*
X183278183Y-49967929D01*
X183374818Y-49827930D01*
X183426938Y-49690499D01*
X183437800Y-49661859D01*
X183439228Y-49662400D01*
X183470059Y-49609447D01*
X183532277Y-49577656D01*
X183555302Y-49575500D01*
X188558612Y-49575500D01*
X188616238Y-49589704D01*
G37*
%TD.AperFunction*%
%TA.AperFunction,Conductor*%
G36*
X211142539Y-24120185D02*
G01*
X211188294Y-24172989D01*
X211199500Y-24224500D01*
X211199500Y-60975500D01*
X211179815Y-61042539D01*
X211127011Y-61088294D01*
X211075500Y-61099500D01*
X147024500Y-61099500D01*
X146957461Y-61079815D01*
X146911706Y-61027011D01*
X146900500Y-60975500D01*
X146900500Y-57249992D01*
X147744671Y-57249992D01*
X147744671Y-57250007D01*
X147763964Y-57544363D01*
X147763965Y-57544373D01*
X147763966Y-57544380D01*
X147820924Y-57830733D01*
X147821518Y-57833716D01*
X147821521Y-57833730D01*
X147916349Y-58113080D01*
X148046825Y-58377660D01*
X148046829Y-58377667D01*
X148210725Y-58622955D01*
X148405241Y-58844758D01*
X148627044Y-59039274D01*
X148793501Y-59150497D01*
X148872335Y-59203172D01*
X149136923Y-59333652D01*
X149416278Y-59428481D01*
X149705620Y-59486034D01*
X149733888Y-59487886D01*
X149999993Y-59505329D01*
X150000000Y-59505329D01*
X150000007Y-59505329D01*
X150235675Y-59489881D01*
X150294380Y-59486034D01*
X150583722Y-59428481D01*
X150863077Y-59333652D01*
X151127665Y-59203172D01*
X151372957Y-59039273D01*
X151594758Y-58844758D01*
X151789273Y-58622957D01*
X151953172Y-58377665D01*
X152083652Y-58113077D01*
X152178481Y-57833722D01*
X152236034Y-57544380D01*
X152244261Y-57418869D01*
X152255329Y-57250007D01*
X152255329Y-57249992D01*
X152236594Y-56964167D01*
X152236034Y-56955620D01*
X152178481Y-56666278D01*
X152083652Y-56386923D01*
X151953172Y-56122336D01*
X151949665Y-56117088D01*
X151872941Y-56002262D01*
X151789273Y-55877043D01*
X151689923Y-55763756D01*
X151594758Y-55655241D01*
X151372955Y-55460725D01*
X151127667Y-55296829D01*
X151127660Y-55296825D01*
X150863080Y-55166349D01*
X150583730Y-55071521D01*
X150583724Y-55071519D01*
X150583722Y-55071519D01*
X150294380Y-55013966D01*
X150294373Y-55013965D01*
X150294363Y-55013964D01*
X150000007Y-54994671D01*
X149999993Y-54994671D01*
X149705636Y-55013964D01*
X149705624Y-55013965D01*
X149705620Y-55013966D01*
X149705612Y-55013967D01*
X149705609Y-55013968D01*
X149416283Y-55071518D01*
X149416269Y-55071521D01*
X149136919Y-55166349D01*
X148872334Y-55296828D01*
X148627041Y-55460728D01*
X148405241Y-55655241D01*
X148210728Y-55877041D01*
X148046828Y-56122334D01*
X147916349Y-56386919D01*
X147821521Y-56666269D01*
X147821518Y-56666283D01*
X147763968Y-56955609D01*
X147763964Y-56955636D01*
X147744671Y-57249992D01*
X146900500Y-57249992D01*
X146900500Y-54672844D01*
X162450000Y-54672844D01*
X162456401Y-54732372D01*
X162456403Y-54732379D01*
X162506645Y-54867086D01*
X162506648Y-54867092D01*
X162531800Y-54900691D01*
X162556216Y-54966155D01*
X162541364Y-55034428D01*
X162531800Y-55049309D01*
X162506648Y-55082907D01*
X162506645Y-55082913D01*
X162456403Y-55217620D01*
X162456401Y-55217627D01*
X162450000Y-55277155D01*
X162450000Y-55350000D01*
X163175000Y-55350000D01*
X163175000Y-54600000D01*
X162450000Y-54600000D01*
X162450000Y-54672844D01*
X146900500Y-54672844D01*
X146900500Y-50849994D01*
X151345202Y-50849994D01*
X151345202Y-50850005D01*
X151364361Y-51081218D01*
X151421317Y-51306135D01*
X151514515Y-51518606D01*
X151598812Y-51647633D01*
X152185387Y-51061058D01*
X152190889Y-51081591D01*
X152269881Y-51218408D01*
X152381592Y-51330119D01*
X152518409Y-51409111D01*
X152538940Y-51414612D01*
X151951201Y-52002351D01*
X151981649Y-52026050D01*
X152185697Y-52136476D01*
X152185706Y-52136479D01*
X152405139Y-52211811D01*
X152633993Y-52250000D01*
X152866007Y-52250000D01*
X153094860Y-52211811D01*
X153314293Y-52136479D01*
X153314301Y-52136476D01*
X153518355Y-52026047D01*
X153548797Y-52002351D01*
X153548798Y-52002350D01*
X152961060Y-51414612D01*
X152981591Y-51409111D01*
X153118408Y-51330119D01*
X153230119Y-51218408D01*
X153309111Y-51081591D01*
X153314612Y-51061059D01*
X153901186Y-51647633D01*
X153985482Y-51518611D01*
X154078682Y-51306135D01*
X154135638Y-51081218D01*
X154154798Y-50850005D01*
X154154798Y-50849994D01*
X154135638Y-50618781D01*
X154078682Y-50393864D01*
X153985484Y-50181393D01*
X153901186Y-50052365D01*
X153314612Y-50638939D01*
X153309111Y-50618409D01*
X153230119Y-50481592D01*
X153118408Y-50369881D01*
X152981591Y-50290889D01*
X152961058Y-50285387D01*
X153548797Y-49697647D01*
X153548797Y-49697645D01*
X153518360Y-49673955D01*
X153518354Y-49673951D01*
X153314302Y-49563523D01*
X153314293Y-49563520D01*
X153094860Y-49488188D01*
X152866007Y-49450000D01*
X152633993Y-49450000D01*
X152405139Y-49488188D01*
X152185706Y-49563520D01*
X152185697Y-49563523D01*
X151981650Y-49673949D01*
X151951200Y-49697647D01*
X152538941Y-50285387D01*
X152518409Y-50290889D01*
X152381592Y-50369881D01*
X152269881Y-50481592D01*
X152190889Y-50618409D01*
X152185387Y-50638941D01*
X151598811Y-50052365D01*
X151514516Y-50181390D01*
X151421317Y-50393864D01*
X151364361Y-50618781D01*
X151345202Y-50849994D01*
X146900500Y-50849994D01*
X146900500Y-44902135D01*
X151349500Y-44902135D01*
X151349500Y-46797870D01*
X151349501Y-46797876D01*
X151355908Y-46857483D01*
X151406202Y-46992328D01*
X151406206Y-46992335D01*
X151492452Y-47107544D01*
X151492455Y-47107547D01*
X151607664Y-47193793D01*
X151607671Y-47193797D01*
X151742517Y-47244091D01*
X151742516Y-47244091D01*
X151749444Y-47244835D01*
X151802127Y-47250500D01*
X153697872Y-47250499D01*
X153757483Y-47244091D01*
X153892331Y-47193796D01*
X154007546Y-47107546D01*
X154093796Y-46992331D01*
X154144091Y-46857483D01*
X154150500Y-46797873D01*
X154150500Y-46674500D01*
X154170185Y-46607461D01*
X154222989Y-46561706D01*
X154274500Y-46550500D01*
X154475501Y-46550500D01*
X154542540Y-46570185D01*
X154588295Y-46622989D01*
X154599501Y-46674500D01*
X154599501Y-46897876D01*
X154605908Y-46957483D01*
X154656202Y-47092328D01*
X154656204Y-47092331D01*
X154699766Y-47150522D01*
X154724184Y-47215985D01*
X154724500Y-47224833D01*
X154724500Y-47647870D01*
X154724501Y-47647876D01*
X154730908Y-47707483D01*
X154781202Y-47842328D01*
X154781206Y-47842335D01*
X154862179Y-47950500D01*
X154867454Y-47957546D01*
X154911972Y-47990872D01*
X154953843Y-48046806D01*
X154960881Y-48104022D01*
X154944435Y-48249995D01*
X154944435Y-48250003D01*
X154964630Y-48429249D01*
X154964631Y-48429254D01*
X155024211Y-48599523D01*
X155098448Y-48717669D01*
X155120184Y-48752262D01*
X155247738Y-48879816D01*
X155400478Y-48975789D01*
X155509676Y-49013999D01*
X155570745Y-49035368D01*
X155570750Y-49035369D01*
X155749996Y-49055565D01*
X155750000Y-49055565D01*
X155750004Y-49055565D01*
X155929249Y-49035369D01*
X155929252Y-49035368D01*
X155929255Y-49035368D01*
X156099522Y-48975789D01*
X156252262Y-48879816D01*
X156379816Y-48752262D01*
X156475789Y-48599522D01*
X156535368Y-48429255D01*
X156535791Y-48425500D01*
X156555565Y-48250003D01*
X156555565Y-48250000D01*
X156553682Y-48233291D01*
X156565735Y-48164469D01*
X156613084Y-48113088D01*
X156663650Y-48096115D01*
X156682483Y-48094091D01*
X156817331Y-48043796D01*
X156932546Y-47957546D01*
X156937126Y-47951428D01*
X156993058Y-47909554D01*
X157004290Y-47905963D01*
X157046785Y-47894577D01*
X157107406Y-47859577D01*
X157183716Y-47815520D01*
X157295520Y-47703716D01*
X157295520Y-47703715D01*
X157312953Y-47686282D01*
X157312962Y-47686272D01*
X157351359Y-47647876D01*
X157480520Y-47518716D01*
X157559577Y-47381784D01*
X157600501Y-47229057D01*
X157600501Y-47070942D01*
X157600501Y-47063347D01*
X157600500Y-47063329D01*
X157600500Y-45324500D01*
X157620185Y-45257461D01*
X157672989Y-45211706D01*
X157724500Y-45200500D01*
X158839424Y-45200500D01*
X158906463Y-45220185D01*
X158952218Y-45272989D01*
X158962644Y-45338383D01*
X158944435Y-45499996D01*
X158944435Y-45500003D01*
X158964630Y-45679249D01*
X158964631Y-45679254D01*
X159024211Y-45849523D01*
X159062139Y-45909884D01*
X159093315Y-45959501D01*
X159120185Y-46002263D01*
X159122445Y-46005097D01*
X159123334Y-46007275D01*
X159123889Y-46008158D01*
X159123734Y-46008255D01*
X159148855Y-46069783D01*
X159149500Y-46082412D01*
X159149500Y-46313330D01*
X159149499Y-46313348D01*
X159149499Y-46479054D01*
X159149498Y-46479054D01*
X159149499Y-46479057D01*
X159166587Y-46542832D01*
X159164925Y-46612680D01*
X159125763Y-46670542D01*
X159061535Y-46698047D01*
X159032932Y-46698145D01*
X159010080Y-46695570D01*
X159000000Y-46694435D01*
X158999999Y-46694435D01*
X158999998Y-46694435D01*
X158999996Y-46694435D01*
X158820750Y-46714630D01*
X158820745Y-46714631D01*
X158650476Y-46774211D01*
X158497737Y-46870184D01*
X158370184Y-46997737D01*
X158274211Y-47150476D01*
X158214631Y-47320745D01*
X158214630Y-47320750D01*
X158194435Y-47499996D01*
X158194435Y-47500003D01*
X158214630Y-47679249D01*
X158214631Y-47679254D01*
X158274211Y-47849523D01*
X158363027Y-47990872D01*
X158370184Y-48002262D01*
X158497738Y-48129816D01*
X158530623Y-48150479D01*
X158647775Y-48224091D01*
X158650478Y-48225789D01*
X158812680Y-48282546D01*
X158820745Y-48285368D01*
X158820750Y-48285369D01*
X158929883Y-48297665D01*
X158994297Y-48324731D01*
X159033852Y-48382326D01*
X159040000Y-48420885D01*
X159040000Y-48437844D01*
X159046401Y-48497372D01*
X159046403Y-48497379D01*
X159096645Y-48632086D01*
X159096649Y-48632093D01*
X159182809Y-48747187D01*
X159182812Y-48747190D01*
X159297906Y-48833350D01*
X159297913Y-48833354D01*
X159432620Y-48883596D01*
X159432627Y-48883598D01*
X159492155Y-48889999D01*
X159492172Y-48890000D01*
X159540000Y-48890000D01*
X159540000Y-48354499D01*
X159559685Y-48287460D01*
X159612489Y-48241705D01*
X159663996Y-48230499D01*
X159836001Y-48230499D01*
X159903039Y-48250184D01*
X159948794Y-48302988D01*
X159960000Y-48354499D01*
X159960000Y-48890000D01*
X160000500Y-48890000D01*
X160067539Y-48909685D01*
X160113294Y-48962489D01*
X160124500Y-49013999D01*
X160124500Y-49222868D01*
X160124501Y-49222880D01*
X160128931Y-49264093D01*
X160128931Y-49290596D01*
X160125000Y-49327165D01*
X160125000Y-49375000D01*
X160140611Y-49390611D01*
X160154484Y-49394685D01*
X160186711Y-49424688D01*
X160225639Y-49476688D01*
X160250057Y-49542152D01*
X160235206Y-49610425D01*
X160185802Y-49659831D01*
X160126373Y-49675000D01*
X160125000Y-49675000D01*
X160125000Y-49722844D01*
X160131401Y-49782372D01*
X160131403Y-49782379D01*
X160181645Y-49917086D01*
X160181649Y-49917093D01*
X160267809Y-50032187D01*
X160267812Y-50032190D01*
X160382906Y-50118350D01*
X160382913Y-50118354D01*
X160517620Y-50168596D01*
X160517627Y-50168598D01*
X160577155Y-50174999D01*
X160577172Y-50175000D01*
X160910125Y-50175000D01*
X160949139Y-50153695D01*
X161018831Y-50158678D01*
X161074766Y-50200549D01*
X161099184Y-50266012D01*
X161099500Y-50274861D01*
X161099500Y-50697870D01*
X161099501Y-50697876D01*
X161105908Y-50757483D01*
X161156202Y-50892328D01*
X161156206Y-50892335D01*
X161242452Y-51007544D01*
X161242455Y-51007547D01*
X161357664Y-51093793D01*
X161357671Y-51093797D01*
X161410927Y-51113660D01*
X161492517Y-51144091D01*
X161492527Y-51144092D01*
X161497570Y-51145284D01*
X161558288Y-51179854D01*
X161585005Y-51221992D01*
X161625182Y-51327930D01*
X161625182Y-51327931D01*
X161661963Y-51381216D01*
X161721817Y-51467929D01*
X161794219Y-51532071D01*
X161849150Y-51580736D01*
X161995379Y-51657483D01*
X161999775Y-51659790D01*
X162164944Y-51700500D01*
X162335056Y-51700500D01*
X162500225Y-51659790D01*
X162618252Y-51597844D01*
X162650849Y-51580736D01*
X162650850Y-51580734D01*
X162650852Y-51580734D01*
X162778183Y-51467929D01*
X162874818Y-51327930D01*
X162912454Y-51228690D01*
X162954630Y-51172989D01*
X163020227Y-51148931D01*
X163041643Y-51149372D01*
X163052127Y-51150500D01*
X163447872Y-51150499D01*
X163447873Y-51150498D01*
X163447885Y-51150498D01*
X163486744Y-51146320D01*
X163513252Y-51146320D01*
X163552127Y-51150500D01*
X163947872Y-51150499D01*
X163947873Y-51150498D01*
X163947885Y-51150498D01*
X163986744Y-51146320D01*
X164013252Y-51146320D01*
X164052127Y-51150500D01*
X164073896Y-51150499D01*
X164140934Y-51170181D01*
X164186691Y-51222983D01*
X164188459Y-51227044D01*
X164190422Y-51231783D01*
X164190423Y-51231785D01*
X164211457Y-51268216D01*
X164245933Y-51327931D01*
X164269479Y-51368715D01*
X164381284Y-51480520D01*
X164381285Y-51480522D01*
X164419298Y-51518535D01*
X164452783Y-51579858D01*
X164454837Y-51592332D01*
X164464630Y-51679249D01*
X164524210Y-51849521D01*
X164596295Y-51964243D01*
X164620184Y-52002262D01*
X164747738Y-52129816D01*
X164837196Y-52186026D01*
X164883487Y-52238361D01*
X164894135Y-52307414D01*
X164865760Y-52371263D01*
X164845536Y-52390286D01*
X164735356Y-52472768D01*
X164733560Y-52470370D01*
X164685404Y-52496666D01*
X164659046Y-52499500D01*
X164340954Y-52499500D01*
X164273915Y-52479815D01*
X164264842Y-52472504D01*
X164264645Y-52472768D01*
X164142335Y-52381206D01*
X164142328Y-52381202D01*
X164007482Y-52330908D01*
X164007483Y-52330908D01*
X163947883Y-52324501D01*
X163947881Y-52324500D01*
X163947873Y-52324500D01*
X163947864Y-52324500D01*
X162902129Y-52324500D01*
X162902123Y-52324501D01*
X162842516Y-52330908D01*
X162707671Y-52381202D01*
X162707664Y-52381206D01*
X162592455Y-52467452D01*
X162592452Y-52467455D01*
X162506206Y-52582664D01*
X162506202Y-52582671D01*
X162455910Y-52717513D01*
X162455909Y-52717517D01*
X162449500Y-52777127D01*
X162449500Y-52777134D01*
X162449500Y-52777135D01*
X162449500Y-53422870D01*
X162449501Y-53422876D01*
X162455908Y-53482483D01*
X162506202Y-53617328D01*
X162506204Y-53617331D01*
X162531487Y-53651105D01*
X162555905Y-53716568D01*
X162541054Y-53784841D01*
X162531488Y-53799726D01*
X162506649Y-53832906D01*
X162506645Y-53832913D01*
X162456403Y-53967620D01*
X162456401Y-53967627D01*
X162450000Y-54027155D01*
X162450000Y-54100000D01*
X163475500Y-54100000D01*
X163542539Y-54119685D01*
X163588294Y-54172489D01*
X163599500Y-54224000D01*
X163599500Y-55388330D01*
X163599499Y-55388348D01*
X163599499Y-55554054D01*
X163599498Y-55554054D01*
X163604768Y-55573720D01*
X163636972Y-55693909D01*
X163635310Y-55763756D01*
X163596148Y-55821618D01*
X163531920Y-55849123D01*
X163517198Y-55850000D01*
X162450000Y-55850000D01*
X162450000Y-55922844D01*
X162456401Y-55982372D01*
X162456403Y-55982379D01*
X162506645Y-56117086D01*
X162506646Y-56117088D01*
X162531488Y-56150273D01*
X162555904Y-56215738D01*
X162541052Y-56284011D01*
X162531488Y-56298892D01*
X162506205Y-56332665D01*
X162506202Y-56332671D01*
X162455908Y-56467517D01*
X162449501Y-56527116D01*
X162449500Y-56527135D01*
X162449500Y-56541636D01*
X162429815Y-56608675D01*
X162383128Y-56651431D01*
X162349151Y-56669264D01*
X162349148Y-56669266D01*
X162235680Y-56769790D01*
X162221816Y-56782072D01*
X162125182Y-56922068D01*
X162064860Y-57081125D01*
X162064859Y-57081130D01*
X162044355Y-57250000D01*
X162064859Y-57418869D01*
X162064860Y-57418874D01*
X162125182Y-57577931D01*
X162162356Y-57631786D01*
X162221817Y-57717929D01*
X162318961Y-57803991D01*
X162349150Y-57830736D01*
X162494389Y-57906963D01*
X162499775Y-57909790D01*
X162664944Y-57950500D01*
X162835056Y-57950500D01*
X163000225Y-57909790D01*
X163150852Y-57830734D01*
X163159147Y-57823384D01*
X163209285Y-57796422D01*
X163247135Y-57786281D01*
X163378365Y-57710515D01*
X163420438Y-57668442D01*
X163427061Y-57661819D01*
X163488384Y-57628333D01*
X163514743Y-57625499D01*
X163947871Y-57625499D01*
X163947872Y-57625499D01*
X164007483Y-57619091D01*
X164142331Y-57568796D01*
X164257546Y-57482546D01*
X164343796Y-57367331D01*
X164368115Y-57302128D01*
X164383818Y-57260027D01*
X164425689Y-57204093D01*
X164491153Y-57179676D01*
X164559426Y-57194527D01*
X164608832Y-57243932D01*
X164616182Y-57260027D01*
X164656202Y-57367328D01*
X164656206Y-57367335D01*
X164742452Y-57482544D01*
X164742455Y-57482547D01*
X164857664Y-57568793D01*
X164857671Y-57568797D01*
X164992517Y-57619091D01*
X164992516Y-57619091D01*
X164999444Y-57619835D01*
X165052127Y-57625500D01*
X166097872Y-57625499D01*
X166157483Y-57619091D01*
X166292331Y-57568796D01*
X166407546Y-57482546D01*
X166493796Y-57367331D01*
X166544091Y-57232483D01*
X166550500Y-57172873D01*
X166550499Y-56850565D01*
X166570183Y-56783528D01*
X166622987Y-56737773D01*
X166692146Y-56727829D01*
X166755701Y-56756854D01*
X166762180Y-56762886D01*
X170363668Y-60364374D01*
X170363678Y-60364385D01*
X170368008Y-60368715D01*
X170368009Y-60368716D01*
X170479813Y-60480520D01*
X170566624Y-60530639D01*
X170566626Y-60530641D01*
X170604680Y-60552611D01*
X170616744Y-60559577D01*
X170769472Y-60600501D01*
X170769475Y-60600501D01*
X170935182Y-60600501D01*
X170935198Y-60600500D01*
X175417588Y-60600500D01*
X175484627Y-60620185D01*
X175494903Y-60627555D01*
X175497736Y-60629814D01*
X175497738Y-60629816D01*
X175650478Y-60725789D01*
X175820745Y-60785368D01*
X175820750Y-60785369D01*
X175999996Y-60805565D01*
X176000000Y-60805565D01*
X176000004Y-60805565D01*
X176179249Y-60785369D01*
X176179252Y-60785368D01*
X176179255Y-60785368D01*
X176349522Y-60725789D01*
X176502262Y-60629816D01*
X176629816Y-60502262D01*
X176725789Y-60349522D01*
X176785368Y-60179255D01*
X176805565Y-60000000D01*
X176803916Y-59985369D01*
X176785369Y-59820750D01*
X176785368Y-59820745D01*
X176725788Y-59650476D01*
X176662353Y-59549521D01*
X176629816Y-59497738D01*
X176502262Y-59370184D01*
X176491117Y-59363181D01*
X176349523Y-59274211D01*
X176179254Y-59214631D01*
X176179249Y-59214630D01*
X176000004Y-59194435D01*
X175999996Y-59194435D01*
X175820750Y-59214630D01*
X175820745Y-59214631D01*
X175650476Y-59274211D01*
X175497736Y-59370185D01*
X175494903Y-59372445D01*
X175492724Y-59373334D01*
X175491842Y-59373889D01*
X175491744Y-59373734D01*
X175430217Y-59398855D01*
X175417588Y-59399500D01*
X175289499Y-59399500D01*
X175222460Y-59379815D01*
X175176705Y-59327011D01*
X175165499Y-59275500D01*
X175165499Y-59167162D01*
X175185184Y-59100123D01*
X175187452Y-59096718D01*
X175192209Y-59089826D01*
X175192209Y-59089825D01*
X175192211Y-59089823D01*
X175252533Y-58930765D01*
X175273038Y-58761893D01*
X175252533Y-58593021D01*
X175192211Y-58433963D01*
X175191708Y-58433235D01*
X175120958Y-58330736D01*
X175095576Y-58293964D01*
X174969568Y-58182331D01*
X174968242Y-58181156D01*
X174817619Y-58102103D01*
X174652449Y-58061393D01*
X174482337Y-58061393D01*
X174317166Y-58102103D01*
X174166543Y-58181156D01*
X174039209Y-58293965D01*
X173942575Y-58433961D01*
X173882253Y-58593018D01*
X173882252Y-58593024D01*
X173867381Y-58715500D01*
X173839759Y-58779678D01*
X173818597Y-58799819D01*
X173747814Y-58852807D01*
X173747808Y-58852814D01*
X173661649Y-58967906D01*
X173661645Y-58967913D01*
X173611403Y-59102620D01*
X173611401Y-59102627D01*
X173605000Y-59162155D01*
X173605000Y-59275500D01*
X173585315Y-59342539D01*
X173532511Y-59388294D01*
X173481000Y-59399500D01*
X171148626Y-59399500D01*
X171081587Y-59379815D01*
X171060945Y-59363181D01*
X168667081Y-56969317D01*
X168633596Y-56907994D01*
X168638580Y-56838302D01*
X168680452Y-56782369D01*
X168688760Y-56776661D01*
X168740113Y-56744395D01*
X168867667Y-56616841D01*
X168963640Y-56464101D01*
X169019982Y-56303083D01*
X169060704Y-56246308D01*
X169096075Y-56226994D01*
X169099522Y-56225789D01*
X169252262Y-56129816D01*
X169379816Y-56002262D01*
X169475789Y-55849522D01*
X169535368Y-55679255D01*
X169535369Y-55679249D01*
X169555565Y-55500003D01*
X169555565Y-55499996D01*
X169535369Y-55320750D01*
X169535368Y-55320745D01*
X169507852Y-55242108D01*
X169475789Y-55150478D01*
X169379816Y-54997738D01*
X169252262Y-54870184D01*
X169247332Y-54867086D01*
X169099523Y-54774211D01*
X168929254Y-54714631D01*
X168929249Y-54714630D01*
X168750004Y-54694435D01*
X168749996Y-54694435D01*
X168570750Y-54714630D01*
X168570745Y-54714631D01*
X168400476Y-54774211D01*
X168247737Y-54870184D01*
X168120184Y-54997737D01*
X168024210Y-55150478D01*
X167967869Y-55311494D01*
X167927147Y-55368271D01*
X167891789Y-55387579D01*
X167888330Y-55388789D01*
X167888326Y-55388791D01*
X167735588Y-55484763D01*
X167608036Y-55612315D01*
X167575786Y-55663640D01*
X167523451Y-55709930D01*
X167454397Y-55720577D01*
X167390549Y-55692201D01*
X167383112Y-55685347D01*
X167317246Y-55619481D01*
X167317245Y-55619480D01*
X167230433Y-55569360D01*
X167230433Y-55569359D01*
X167230429Y-55569358D01*
X167180314Y-55540423D01*
X167180313Y-55540422D01*
X167180312Y-55540422D01*
X167180311Y-55540421D01*
X167088627Y-55515854D01*
X167028967Y-55479489D01*
X166998439Y-55416642D01*
X167006734Y-55347266D01*
X167051220Y-55293389D01*
X167054712Y-55291110D01*
X167152262Y-55229816D01*
X167279816Y-55102262D01*
X167375789Y-54949522D01*
X167408182Y-54856944D01*
X167437540Y-54810221D01*
X167857036Y-54390726D01*
X167857042Y-54390722D01*
X167867245Y-54380518D01*
X167867247Y-54380518D01*
X168017244Y-54230520D01*
X168079784Y-54167980D01*
X168079784Y-54167979D01*
X168201274Y-54046489D01*
X168201277Y-54046487D01*
X168218715Y-54029049D01*
X168218716Y-54029049D01*
X168330520Y-53917245D01*
X168379860Y-53831785D01*
X168409577Y-53780314D01*
X168450501Y-53627587D01*
X168450501Y-53469473D01*
X168450501Y-53461878D01*
X168450500Y-53461860D01*
X168450500Y-52912155D01*
X169235000Y-52912155D01*
X169235000Y-53237844D01*
X169241401Y-53297372D01*
X169241403Y-53297379D01*
X169291645Y-53432086D01*
X169291649Y-53432093D01*
X169377809Y-53547187D01*
X169377812Y-53547190D01*
X169492906Y-53633350D01*
X169492913Y-53633354D01*
X169627620Y-53683596D01*
X169627627Y-53683598D01*
X169687155Y-53689999D01*
X169687172Y-53690000D01*
X169962819Y-53690000D01*
X169962833Y-53689999D01*
X169999395Y-53686068D01*
X170025905Y-53686068D01*
X170067127Y-53690500D01*
X170342872Y-53690499D01*
X170402483Y-53684091D01*
X170444568Y-53668393D01*
X170514257Y-53663407D01*
X170517510Y-53664161D01*
X170664944Y-53700500D01*
X170835056Y-53700500D01*
X171000225Y-53659790D01*
X171089030Y-53613181D01*
X171150849Y-53580736D01*
X171150850Y-53580734D01*
X171150852Y-53580734D01*
X171278183Y-53467929D01*
X171374818Y-53327930D01*
X171435140Y-53168872D01*
X171455645Y-53000000D01*
X171435140Y-52831128D01*
X171374818Y-52672070D01*
X171278183Y-52532071D01*
X171183316Y-52448026D01*
X171150849Y-52419263D01*
X171000226Y-52340210D01*
X170835056Y-52299500D01*
X170809246Y-52299500D01*
X170742207Y-52279815D01*
X170696452Y-52227011D01*
X170686150Y-52160553D01*
X170689073Y-52136479D01*
X170705645Y-52000000D01*
X170685140Y-51831128D01*
X170624818Y-51672070D01*
X170614749Y-51657483D01*
X170573583Y-51597844D01*
X172950000Y-51597844D01*
X172956401Y-51657372D01*
X172956403Y-51657379D01*
X173006645Y-51792086D01*
X173006649Y-51792093D01*
X173092809Y-51907187D01*
X173092812Y-51907190D01*
X173207906Y-51993350D01*
X173207913Y-51993354D01*
X173342620Y-52043596D01*
X173342627Y-52043598D01*
X173402155Y-52049999D01*
X173402172Y-52050000D01*
X173725000Y-52050000D01*
X173725000Y-51325000D01*
X172950000Y-51325000D01*
X172950000Y-51597844D01*
X170573583Y-51597844D01*
X170561168Y-51579858D01*
X170528183Y-51532071D01*
X170421038Y-51437149D01*
X170400849Y-51419263D01*
X170250226Y-51340210D01*
X170085056Y-51299500D01*
X169914944Y-51299500D01*
X169749773Y-51340210D01*
X169599150Y-51419263D01*
X169471816Y-51532072D01*
X169375182Y-51672068D01*
X169314860Y-51831125D01*
X169314859Y-51831130D01*
X169294355Y-52000000D01*
X169314859Y-52168869D01*
X169314860Y-52168874D01*
X169375182Y-52327931D01*
X169433392Y-52412261D01*
X169455275Y-52478615D01*
X169437810Y-52546267D01*
X169405655Y-52581966D01*
X169377811Y-52602810D01*
X169377809Y-52602812D01*
X169291649Y-52717906D01*
X169291645Y-52717913D01*
X169241403Y-52852620D01*
X169241401Y-52852627D01*
X169235000Y-52912155D01*
X168450500Y-52912155D01*
X168450500Y-51324496D01*
X168470185Y-51257457D01*
X168522989Y-51211702D01*
X168592147Y-51201758D01*
X168640473Y-51219503D01*
X168650475Y-51225788D01*
X168820745Y-51285368D01*
X168820750Y-51285369D01*
X168999996Y-51305565D01*
X169000000Y-51305565D01*
X169000004Y-51305565D01*
X169179249Y-51285369D01*
X169179252Y-51285368D01*
X169179255Y-51285368D01*
X169349522Y-51225789D01*
X169502262Y-51129816D01*
X169629816Y-51002262D01*
X169725789Y-50849522D01*
X169785368Y-50679255D01*
X169786023Y-50673444D01*
X169805565Y-50500003D01*
X169805565Y-50499996D01*
X169785369Y-50320750D01*
X169785368Y-50320745D01*
X169767942Y-50270945D01*
X169725789Y-50150478D01*
X169724158Y-50147883D01*
X169685771Y-50086789D01*
X169629816Y-49997738D01*
X169502262Y-49870184D01*
X169435017Y-49827931D01*
X169349523Y-49774211D01*
X169179254Y-49714631D01*
X169179249Y-49714630D01*
X169000004Y-49694435D01*
X168999996Y-49694435D01*
X168820750Y-49714630D01*
X168820745Y-49714631D01*
X168650476Y-49774211D01*
X168497734Y-49870186D01*
X168497730Y-49870189D01*
X168496252Y-49871668D01*
X168495061Y-49872317D01*
X168492290Y-49874528D01*
X168491902Y-49874042D01*
X168434927Y-49905148D01*
X168365235Y-49900158D01*
X168320897Y-49871661D01*
X167361390Y-48912155D01*
X169355000Y-48912155D01*
X169355000Y-49237844D01*
X169361401Y-49297372D01*
X169361403Y-49297379D01*
X169411645Y-49432086D01*
X169411649Y-49432093D01*
X169497809Y-49547187D01*
X169497812Y-49547190D01*
X169612906Y-49633350D01*
X169612913Y-49633354D01*
X169747620Y-49683596D01*
X169747627Y-49683598D01*
X169807155Y-49689999D01*
X169807172Y-49690000D01*
X170082819Y-49690000D01*
X170082833Y-49689999D01*
X170119395Y-49686068D01*
X170145905Y-49686068D01*
X170187127Y-49690500D01*
X170462872Y-49690499D01*
X170522483Y-49684091D01*
X170530034Y-49682307D01*
X170530722Y-49685221D01*
X170586433Y-49681199D01*
X170589764Y-49681970D01*
X170664944Y-49700500D01*
X170664946Y-49700500D01*
X170835056Y-49700500D01*
X171000225Y-49659790D01*
X171096145Y-49609447D01*
X171150849Y-49580736D01*
X171150850Y-49580734D01*
X171150852Y-49580734D01*
X171241988Y-49499995D01*
X172208787Y-49499995D01*
X172208787Y-49500002D01*
X172228982Y-49679248D01*
X172228983Y-49679253D01*
X172288563Y-49849522D01*
X172352012Y-49950500D01*
X172384536Y-50002261D01*
X172512090Y-50129815D01*
X172591434Y-50179670D01*
X172635694Y-50207481D01*
X172664830Y-50225788D01*
X172835097Y-50285367D01*
X172867905Y-50289063D01*
X172932317Y-50316127D01*
X172971873Y-50373721D01*
X172974013Y-50443558D01*
X172970205Y-50455614D01*
X172956403Y-50492620D01*
X172956401Y-50492627D01*
X172950000Y-50552155D01*
X172950000Y-50825000D01*
X174101000Y-50825000D01*
X174168039Y-50844685D01*
X174213794Y-50897489D01*
X174225000Y-50949000D01*
X174225000Y-52050000D01*
X174547828Y-52050000D01*
X174547844Y-52049999D01*
X174607372Y-52043598D01*
X174607379Y-52043596D01*
X174742086Y-51993354D01*
X174742089Y-51993352D01*
X174825271Y-51931082D01*
X174890735Y-51906664D01*
X174959008Y-51921515D01*
X174973887Y-51931077D01*
X175057076Y-51993352D01*
X175057668Y-51993795D01*
X175057671Y-51993797D01*
X175192517Y-52044091D01*
X175192516Y-52044091D01*
X175199444Y-52044835D01*
X175252127Y-52050500D01*
X176397872Y-52050499D01*
X176457483Y-52044091D01*
X176592331Y-51993796D01*
X176707546Y-51907546D01*
X176793796Y-51792331D01*
X176844091Y-51657483D01*
X176850500Y-51597873D01*
X176850499Y-50552128D01*
X176844091Y-50492517D01*
X176807096Y-50393330D01*
X176802113Y-50323642D01*
X176807092Y-50306680D01*
X176844091Y-50207483D01*
X176850500Y-50147873D01*
X176850499Y-49250000D01*
X179544355Y-49250000D01*
X179564859Y-49418869D01*
X179564860Y-49418874D01*
X179625182Y-49577931D01*
X179681686Y-49659789D01*
X179721817Y-49717929D01*
X179799987Y-49787181D01*
X179849150Y-49830736D01*
X179999773Y-49909789D01*
X179999775Y-49909790D01*
X180164944Y-49950500D01*
X180335056Y-49950500D01*
X180500225Y-49909790D01*
X180615057Y-49849521D01*
X180650849Y-49830736D01*
X180650850Y-49830734D01*
X180650852Y-49830734D01*
X180778183Y-49717929D01*
X180839525Y-49629059D01*
X180893808Y-49585070D01*
X180941575Y-49575500D01*
X181525902Y-49575500D01*
X181592941Y-49595185D01*
X181638696Y-49647989D01*
X181648640Y-49717147D01*
X181619615Y-49780703D01*
X181613583Y-49787181D01*
X181419481Y-49981282D01*
X181419479Y-49981285D01*
X181402737Y-50010283D01*
X181385995Y-50039282D01*
X181340423Y-50118215D01*
X181299499Y-50270943D01*
X181299499Y-50270945D01*
X181299499Y-50439046D01*
X181299500Y-50439059D01*
X181299500Y-55911859D01*
X181299499Y-55911877D01*
X181299499Y-56077583D01*
X181299498Y-56077583D01*
X181337791Y-56220491D01*
X181340423Y-56230314D01*
X181349657Y-56246308D01*
X181364141Y-56271393D01*
X181364142Y-56271397D01*
X181364143Y-56271397D01*
X181398738Y-56331319D01*
X181419479Y-56367243D01*
X181419481Y-56367246D01*
X181538349Y-56486114D01*
X181538355Y-56486119D01*
X181766610Y-56714374D01*
X181766620Y-56714385D01*
X181770950Y-56718715D01*
X181770951Y-56718716D01*
X181882755Y-56830520D01*
X181948047Y-56868216D01*
X182019686Y-56909577D01*
X182172414Y-56950500D01*
X182330528Y-56950500D01*
X182661860Y-56950500D01*
X182661876Y-56950501D01*
X182669472Y-56950501D01*
X182827583Y-56950501D01*
X182827586Y-56950501D01*
X182980314Y-56909577D01*
X183051953Y-56868216D01*
X183117245Y-56830520D01*
X183229049Y-56718716D01*
X183229049Y-56718714D01*
X183239250Y-56708514D01*
X183239253Y-56708509D01*
X183693790Y-56253973D01*
X183755112Y-56220491D01*
X183781470Y-56217657D01*
X184090559Y-56217657D01*
X184157598Y-56237342D01*
X184203353Y-56290146D01*
X184213779Y-56355541D01*
X184198004Y-56495547D01*
X184198004Y-56495553D01*
X184218199Y-56674799D01*
X184218200Y-56674804D01*
X184277780Y-56845073D01*
X184326160Y-56922068D01*
X184373753Y-56997812D01*
X184501307Y-57125366D01*
X184654047Y-57221339D01*
X184782264Y-57266204D01*
X184824314Y-57280918D01*
X184824319Y-57280919D01*
X185003565Y-57301115D01*
X185003569Y-57301115D01*
X185003573Y-57301115D01*
X185182818Y-57280919D01*
X185182819Y-57280918D01*
X185182824Y-57280918D01*
X185215026Y-57269649D01*
X185284802Y-57266087D01*
X185345431Y-57300814D01*
X185377659Y-57362807D01*
X185371923Y-57430661D01*
X185314861Y-57581122D01*
X185314859Y-57581130D01*
X185294355Y-57750000D01*
X185314859Y-57918869D01*
X185314860Y-57918874D01*
X185375182Y-58077931D01*
X185399442Y-58113077D01*
X185471817Y-58217929D01*
X185577505Y-58311560D01*
X185599150Y-58330736D01*
X185730169Y-58399500D01*
X185749775Y-58409790D01*
X185914944Y-58450500D01*
X186085054Y-58450500D01*
X186085056Y-58450500D01*
X186172211Y-58429018D01*
X186242010Y-58432087D01*
X186245221Y-58433235D01*
X186246195Y-58433598D01*
X186247517Y-58434091D01*
X186307127Y-58440500D01*
X186582872Y-58440499D01*
X186591711Y-58439548D01*
X186624094Y-58436068D01*
X186650606Y-58436068D01*
X186687166Y-58439999D01*
X186687182Y-58440000D01*
X186962828Y-58440000D01*
X186962844Y-58439999D01*
X187022372Y-58433598D01*
X187022379Y-58433596D01*
X187157086Y-58383354D01*
X187157093Y-58383350D01*
X187272187Y-58297190D01*
X187272190Y-58297187D01*
X187358350Y-58182093D01*
X187358354Y-58182086D01*
X187408596Y-58047379D01*
X187408598Y-58047372D01*
X187414999Y-57987844D01*
X187415000Y-57987827D01*
X187415000Y-57662172D01*
X187414999Y-57662155D01*
X187408598Y-57602627D01*
X187408596Y-57602620D01*
X187358354Y-57467913D01*
X187358350Y-57467906D01*
X187272190Y-57352812D01*
X187272187Y-57352809D01*
X187157093Y-57266649D01*
X187157086Y-57266645D01*
X187022379Y-57216403D01*
X187022372Y-57216401D01*
X186962844Y-57210000D01*
X186687165Y-57210000D01*
X186650598Y-57213931D01*
X186624092Y-57213931D01*
X186582875Y-57209500D01*
X186582873Y-57209500D01*
X186493294Y-57209500D01*
X186426255Y-57189815D01*
X186411068Y-57178316D01*
X186400852Y-57169266D01*
X186400850Y-57169264D01*
X186250226Y-57090210D01*
X186085056Y-57049500D01*
X185914944Y-57049500D01*
X185914940Y-57049500D01*
X185841267Y-57067658D01*
X185771465Y-57064588D01*
X185714404Y-57024268D01*
X185688199Y-56959498D01*
X185701172Y-56890843D01*
X185706590Y-56881306D01*
X185729358Y-56845072D01*
X185788937Y-56674805D01*
X185789561Y-56669266D01*
X185809134Y-56495553D01*
X185809134Y-56495546D01*
X185788938Y-56316300D01*
X185788935Y-56316287D01*
X185729358Y-56146028D01*
X185726337Y-56139755D01*
X185729175Y-56138388D01*
X185713928Y-56084542D01*
X185721738Y-56042410D01*
X185744091Y-55982483D01*
X185750500Y-55922873D01*
X185750499Y-55577128D01*
X185750498Y-55577125D01*
X185750498Y-55577112D01*
X185746553Y-55540421D01*
X185744778Y-55523907D01*
X185744778Y-55497399D01*
X185749999Y-55448841D01*
X185750000Y-55448827D01*
X185750000Y-55401000D01*
X185741857Y-55392857D01*
X185702549Y-55381315D01*
X185670317Y-55351305D01*
X185668820Y-55349305D01*
X185644406Y-55283839D01*
X185659262Y-55215567D01*
X185708670Y-55166164D01*
X185743801Y-55157198D01*
X185750000Y-55151000D01*
X185750000Y-55103172D01*
X185749999Y-55103155D01*
X185743598Y-55043627D01*
X185743596Y-55043620D01*
X185693354Y-54908913D01*
X185693350Y-54908906D01*
X185607190Y-54793812D01*
X185607187Y-54793809D01*
X185492093Y-54707649D01*
X185492086Y-54707645D01*
X185357379Y-54657403D01*
X185357372Y-54657401D01*
X185297844Y-54651000D01*
X185200000Y-54651000D01*
X185200000Y-55000500D01*
X185180315Y-55067539D01*
X185127511Y-55113294D01*
X185076000Y-55124500D01*
X185074000Y-55124500D01*
X185006961Y-55104815D01*
X184961206Y-55052011D01*
X184950000Y-55000500D01*
X184950000Y-54651000D01*
X184852155Y-54651000D01*
X184792627Y-54657401D01*
X184792620Y-54657403D01*
X184657913Y-54707645D01*
X184657910Y-54707647D01*
X184594615Y-54755030D01*
X184529150Y-54779447D01*
X184460877Y-54764595D01*
X184411472Y-54715190D01*
X184396620Y-54646917D01*
X184421037Y-54581453D01*
X184432616Y-54568089D01*
X184963887Y-54036819D01*
X185025210Y-54003334D01*
X185051568Y-54000500D01*
X187699902Y-54000500D01*
X187766941Y-54020185D01*
X187787583Y-54036819D01*
X187831284Y-54080520D01*
X187831286Y-54080521D01*
X187831290Y-54080524D01*
X187932459Y-54138933D01*
X187968216Y-54159577D01*
X188120943Y-54200501D01*
X188134083Y-54200501D01*
X188201122Y-54220186D01*
X188246877Y-54272990D01*
X188251125Y-54283546D01*
X188274211Y-54349523D01*
X188339106Y-54452802D01*
X188370184Y-54502262D01*
X188497738Y-54629816D01*
X188605813Y-54697724D01*
X188652104Y-54750059D01*
X188662752Y-54819112D01*
X188634377Y-54882961D01*
X188627523Y-54890399D01*
X188520183Y-54997739D01*
X188424211Y-55150476D01*
X188364631Y-55320745D01*
X188364630Y-55320750D01*
X188344435Y-55499996D01*
X188344435Y-55500003D01*
X188364630Y-55679249D01*
X188364631Y-55679254D01*
X188424211Y-55849523D01*
X188474672Y-55929830D01*
X188507755Y-55982482D01*
X188520185Y-56002263D01*
X188522445Y-56005097D01*
X188523334Y-56007275D01*
X188523889Y-56008158D01*
X188523734Y-56008255D01*
X188548855Y-56069783D01*
X188549500Y-56082412D01*
X188549500Y-57313330D01*
X188549499Y-57313348D01*
X188549499Y-57479054D01*
X188549498Y-57479054D01*
X188549499Y-57479057D01*
X188590423Y-57631785D01*
X188590424Y-57631786D01*
X188606591Y-57659790D01*
X188606592Y-57659791D01*
X188669475Y-57768709D01*
X188669481Y-57768717D01*
X188788349Y-57887585D01*
X188788355Y-57887590D01*
X190665139Y-59764374D01*
X190665149Y-59764385D01*
X190669479Y-59768715D01*
X190669480Y-59768716D01*
X190781284Y-59880520D01*
X190859693Y-59925789D01*
X190918215Y-59959577D01*
X191070943Y-60000500D01*
X200663331Y-60000500D01*
X200663347Y-60000501D01*
X200670943Y-60000501D01*
X200829054Y-60000501D01*
X200829057Y-60000501D01*
X200981785Y-59959577D01*
X201040307Y-59925789D01*
X201118716Y-59880520D01*
X201137285Y-59861951D01*
X201198607Y-59828464D01*
X201268299Y-59833447D01*
X201290938Y-59844635D01*
X201318496Y-59861951D01*
X201420090Y-59925788D01*
X201590360Y-59985368D01*
X201590365Y-59985369D01*
X201769611Y-60005565D01*
X201769615Y-60005565D01*
X201769619Y-60005565D01*
X201948864Y-59985369D01*
X201948867Y-59985368D01*
X201948870Y-59985368D01*
X202119137Y-59925789D01*
X202271877Y-59829816D01*
X202399431Y-59702262D01*
X202495404Y-59549522D01*
X202510650Y-59505949D01*
X202540008Y-59459225D01*
X202608506Y-59390728D01*
X202608511Y-59390724D01*
X202618714Y-59380520D01*
X202618716Y-59380520D01*
X202730520Y-59268716D01*
X202761746Y-59214631D01*
X202762977Y-59212499D01*
X202813544Y-59164284D01*
X202870364Y-59150499D01*
X202947872Y-59150499D01*
X202947885Y-59150498D01*
X202986744Y-59146320D01*
X203013252Y-59146320D01*
X203052127Y-59150500D01*
X203447872Y-59150499D01*
X203447873Y-59150498D01*
X203447885Y-59150498D01*
X203486744Y-59146320D01*
X203513252Y-59146320D01*
X203552127Y-59150500D01*
X203947872Y-59150499D01*
X203956711Y-59149548D01*
X203989094Y-59146068D01*
X204015606Y-59146068D01*
X204052166Y-59149999D01*
X204052182Y-59150000D01*
X204100000Y-59150000D01*
X204115611Y-59134388D01*
X204119685Y-59120515D01*
X204149686Y-59088289D01*
X204201690Y-59049359D01*
X204267154Y-59024943D01*
X204335426Y-59039795D01*
X204384832Y-59089200D01*
X204400000Y-59148627D01*
X204400000Y-59150000D01*
X204447828Y-59150000D01*
X204447844Y-59149999D01*
X204507372Y-59143598D01*
X204507379Y-59143596D01*
X204642086Y-59093354D01*
X204642093Y-59093350D01*
X204757187Y-59007190D01*
X204757190Y-59007187D01*
X204843350Y-58892093D01*
X204843354Y-58892086D01*
X204893596Y-58757379D01*
X204893598Y-58757372D01*
X204899999Y-58697844D01*
X204900000Y-58697827D01*
X204900000Y-58150000D01*
X204524500Y-58150000D01*
X204457461Y-58130315D01*
X204411706Y-58077511D01*
X204400500Y-58026002D01*
X204400499Y-57974002D01*
X204420182Y-57906963D01*
X204472985Y-57861207D01*
X204524499Y-57850000D01*
X204900000Y-57850000D01*
X204900000Y-57302172D01*
X204899999Y-57302155D01*
X204894390Y-57249992D01*
X205244671Y-57249992D01*
X205244671Y-57250007D01*
X205263964Y-57544363D01*
X205263965Y-57544373D01*
X205263966Y-57544380D01*
X205320924Y-57830733D01*
X205321518Y-57833716D01*
X205321521Y-57833730D01*
X205416349Y-58113080D01*
X205546825Y-58377660D01*
X205546829Y-58377667D01*
X205710725Y-58622955D01*
X205905241Y-58844758D01*
X206127044Y-59039274D01*
X206293501Y-59150497D01*
X206372335Y-59203172D01*
X206636923Y-59333652D01*
X206916278Y-59428481D01*
X207205620Y-59486034D01*
X207233888Y-59487886D01*
X207499993Y-59505329D01*
X207500000Y-59505329D01*
X207500007Y-59505329D01*
X207735675Y-59489881D01*
X207794380Y-59486034D01*
X208083722Y-59428481D01*
X208363077Y-59333652D01*
X208627665Y-59203172D01*
X208872957Y-59039273D01*
X209094758Y-58844758D01*
X209289273Y-58622957D01*
X209453172Y-58377665D01*
X209583652Y-58113077D01*
X209678481Y-57833722D01*
X209736034Y-57544380D01*
X209744261Y-57418869D01*
X209755329Y-57250007D01*
X209755329Y-57249992D01*
X209736594Y-56964167D01*
X209736034Y-56955620D01*
X209678481Y-56666278D01*
X209583652Y-56386923D01*
X209453172Y-56122336D01*
X209449665Y-56117088D01*
X209372941Y-56002262D01*
X209289273Y-55877043D01*
X209189923Y-55763756D01*
X209094758Y-55655241D01*
X208872955Y-55460725D01*
X208627667Y-55296829D01*
X208627660Y-55296825D01*
X208363080Y-55166349D01*
X208083730Y-55071521D01*
X208083724Y-55071519D01*
X208083722Y-55071519D01*
X207794380Y-55013966D01*
X207794373Y-55013965D01*
X207794363Y-55013964D01*
X207500007Y-54994671D01*
X207499993Y-54994671D01*
X207205636Y-55013964D01*
X207205624Y-55013965D01*
X207205620Y-55013966D01*
X207205612Y-55013967D01*
X207205609Y-55013968D01*
X206916283Y-55071518D01*
X206916269Y-55071521D01*
X206636919Y-55166349D01*
X206372334Y-55296828D01*
X206127041Y-55460728D01*
X205905241Y-55655241D01*
X205710728Y-55877041D01*
X205546828Y-56122334D01*
X205416349Y-56386919D01*
X205321521Y-56666269D01*
X205321518Y-56666283D01*
X205263968Y-56955609D01*
X205263964Y-56955636D01*
X205244671Y-57249992D01*
X204894390Y-57249992D01*
X204893598Y-57242627D01*
X204893596Y-57242620D01*
X204843354Y-57107913D01*
X204843350Y-57107906D01*
X204757190Y-56992812D01*
X204757187Y-56992809D01*
X204642093Y-56906649D01*
X204642086Y-56906645D01*
X204507379Y-56856403D01*
X204507372Y-56856401D01*
X204447844Y-56850000D01*
X204400000Y-56850000D01*
X204400000Y-56851373D01*
X204380315Y-56918412D01*
X204327511Y-56964167D01*
X204258353Y-56974111D01*
X204201690Y-56950640D01*
X204149687Y-56911711D01*
X204113888Y-56863888D01*
X204100000Y-56850000D01*
X204052165Y-56850000D01*
X204015598Y-56853931D01*
X203989092Y-56853931D01*
X203947873Y-56849500D01*
X203552130Y-56849500D01*
X203552119Y-56849501D01*
X203513253Y-56853679D01*
X203486748Y-56853679D01*
X203447874Y-56849500D01*
X203052130Y-56849500D01*
X203052119Y-56849501D01*
X203013253Y-56853679D01*
X202986748Y-56853679D01*
X202947874Y-56849500D01*
X202552130Y-56849500D01*
X202552119Y-56849501D01*
X202513253Y-56853679D01*
X202486748Y-56853679D01*
X202447875Y-56849500D01*
X202447873Y-56849500D01*
X202370363Y-56849500D01*
X202303324Y-56829815D01*
X202262975Y-56787499D01*
X202260682Y-56783528D01*
X202245283Y-56756854D01*
X202230521Y-56731285D01*
X202114385Y-56615149D01*
X202114374Y-56615139D01*
X199749231Y-54249996D01*
X200694435Y-54249996D01*
X200694435Y-54250003D01*
X200714630Y-54429249D01*
X200714631Y-54429254D01*
X200774211Y-54599523D01*
X200856524Y-54730522D01*
X200870184Y-54752262D01*
X200997738Y-54879816D01*
X201044046Y-54908913D01*
X201135145Y-54966155D01*
X201150478Y-54975789D01*
X201304878Y-55029816D01*
X201320745Y-55035368D01*
X201320750Y-55035369D01*
X201499996Y-55055565D01*
X201500000Y-55055565D01*
X201500004Y-55055565D01*
X201679249Y-55035369D01*
X201679252Y-55035368D01*
X201679255Y-55035368D01*
X201849522Y-54975789D01*
X202002262Y-54879816D01*
X202129816Y-54752262D01*
X202225789Y-54599522D01*
X202285368Y-54429255D01*
X202286074Y-54422989D01*
X202305565Y-54250003D01*
X202305565Y-54249996D01*
X205194435Y-54249996D01*
X205194435Y-54250003D01*
X205214630Y-54429249D01*
X205214631Y-54429254D01*
X205274211Y-54599523D01*
X205356524Y-54730522D01*
X205370184Y-54752262D01*
X205497738Y-54879816D01*
X205544046Y-54908913D01*
X205635145Y-54966155D01*
X205650478Y-54975789D01*
X205804878Y-55029816D01*
X205820745Y-55035368D01*
X205820750Y-55035369D01*
X205999996Y-55055565D01*
X206000000Y-55055565D01*
X206000004Y-55055565D01*
X206179249Y-55035369D01*
X206179252Y-55035368D01*
X206179255Y-55035368D01*
X206349522Y-54975789D01*
X206502262Y-54879816D01*
X206629816Y-54752262D01*
X206725789Y-54599522D01*
X206785368Y-54429255D01*
X206786074Y-54422989D01*
X206805565Y-54250003D01*
X206805565Y-54249996D01*
X206785369Y-54070750D01*
X206785368Y-54070745D01*
X206725788Y-53900476D01*
X206629815Y-53747737D01*
X206502262Y-53620184D01*
X206349523Y-53524211D01*
X206179254Y-53464631D01*
X206179249Y-53464630D01*
X206000004Y-53444435D01*
X205999996Y-53444435D01*
X205820750Y-53464630D01*
X205820745Y-53464631D01*
X205650476Y-53524211D01*
X205497737Y-53620184D01*
X205370184Y-53747737D01*
X205274211Y-53900476D01*
X205214631Y-54070745D01*
X205214630Y-54070750D01*
X205194435Y-54249996D01*
X202305565Y-54249996D01*
X202285369Y-54070750D01*
X202285368Y-54070745D01*
X202225788Y-53900476D01*
X202129815Y-53747737D01*
X202002262Y-53620184D01*
X201849523Y-53524211D01*
X201679254Y-53464631D01*
X201679249Y-53464630D01*
X201500004Y-53444435D01*
X201499996Y-53444435D01*
X201320750Y-53464630D01*
X201320745Y-53464631D01*
X201150476Y-53524211D01*
X200997737Y-53620184D01*
X200870184Y-53747737D01*
X200774211Y-53900476D01*
X200714631Y-54070745D01*
X200714630Y-54070750D01*
X200694435Y-54249996D01*
X199749231Y-54249996D01*
X198887590Y-53388355D01*
X198887588Y-53388352D01*
X198768717Y-53269481D01*
X198768712Y-53269477D01*
X198655855Y-53204320D01*
X198631785Y-53190423D01*
X198479057Y-53149499D01*
X198320943Y-53149499D01*
X198313347Y-53149499D01*
X198313331Y-53149500D01*
X195932412Y-53149500D01*
X195865373Y-53129815D01*
X195855097Y-53122445D01*
X195852263Y-53120185D01*
X195852262Y-53120184D01*
X195729584Y-53043100D01*
X195699521Y-53024210D01*
X195529249Y-52964630D01*
X195460616Y-52956897D01*
X195396202Y-52929830D01*
X195356647Y-52872235D01*
X195350500Y-52833677D01*
X195350500Y-50839060D01*
X195350501Y-50839047D01*
X195350501Y-50670944D01*
X195329908Y-50594091D01*
X195309577Y-50518216D01*
X195294799Y-50492620D01*
X195230524Y-50381290D01*
X195230518Y-50381282D01*
X192497106Y-47647870D01*
X191901371Y-47052135D01*
X204099500Y-47052135D01*
X204099500Y-48947870D01*
X204099501Y-48947876D01*
X204105908Y-49007483D01*
X204156202Y-49142328D01*
X204156206Y-49142335D01*
X204242452Y-49257544D01*
X204242455Y-49257547D01*
X204357664Y-49343793D01*
X204357671Y-49343797D01*
X204492517Y-49394091D01*
X204492516Y-49394091D01*
X204498042Y-49394685D01*
X204552127Y-49400500D01*
X206447872Y-49400499D01*
X206507483Y-49394091D01*
X206642331Y-49343796D01*
X206757546Y-49257546D01*
X206843796Y-49142331D01*
X206894091Y-49007483D01*
X206900500Y-48947873D01*
X206900499Y-47052128D01*
X206894091Y-46992517D01*
X206893491Y-46990909D01*
X206843797Y-46857671D01*
X206843793Y-46857664D01*
X206757547Y-46742455D01*
X206757544Y-46742452D01*
X206642335Y-46656206D01*
X206642328Y-46656202D01*
X206507482Y-46605908D01*
X206507483Y-46605908D01*
X206447883Y-46599501D01*
X206447881Y-46599500D01*
X206447873Y-46599500D01*
X206447864Y-46599500D01*
X204552129Y-46599500D01*
X204552123Y-46599501D01*
X204492516Y-46605908D01*
X204357671Y-46656202D01*
X204357664Y-46656206D01*
X204242455Y-46742452D01*
X204242452Y-46742455D01*
X204156206Y-46857664D01*
X204156202Y-46857671D01*
X204105908Y-46992517D01*
X204099782Y-47049500D01*
X204099501Y-47052123D01*
X204099500Y-47052135D01*
X191901371Y-47052135D01*
X189750915Y-44901680D01*
X189717431Y-44840358D01*
X189722415Y-44770666D01*
X189764287Y-44714733D01*
X189829751Y-44690316D01*
X189838597Y-44690000D01*
X189887828Y-44690000D01*
X189887844Y-44689999D01*
X189947372Y-44683598D01*
X189947379Y-44683596D01*
X190082086Y-44633354D01*
X190082093Y-44633350D01*
X190197187Y-44547190D01*
X190197190Y-44547187D01*
X190283350Y-44432093D01*
X190283354Y-44432086D01*
X190333596Y-44297379D01*
X190333598Y-44297372D01*
X190337483Y-44261244D01*
X190364221Y-44196693D01*
X190421614Y-44156845D01*
X190460772Y-44150500D01*
X194534217Y-44150500D01*
X194601256Y-44170185D01*
X194621897Y-44186818D01*
X195315598Y-44880520D01*
X195315600Y-44880521D01*
X195315604Y-44880524D01*
X195418838Y-44940125D01*
X195452530Y-44959577D01*
X195605257Y-45000501D01*
X195605259Y-45000501D01*
X195770968Y-45000501D01*
X195770984Y-45000500D01*
X196993232Y-45000500D01*
X196993248Y-45000501D01*
X197000844Y-45000501D01*
X197158955Y-45000501D01*
X197158958Y-45000501D01*
X197311686Y-44959577D01*
X197361805Y-44930639D01*
X197448617Y-44880520D01*
X197560421Y-44768716D01*
X197560421Y-44768714D01*
X197570629Y-44758507D01*
X197570631Y-44758504D01*
X199329141Y-42999994D01*
X204095202Y-42999994D01*
X204095202Y-43000005D01*
X204114361Y-43231218D01*
X204171317Y-43456135D01*
X204264515Y-43668606D01*
X204348812Y-43797633D01*
X204935387Y-43211058D01*
X204940889Y-43231591D01*
X205019881Y-43368408D01*
X205131592Y-43480119D01*
X205268409Y-43559111D01*
X205288940Y-43564612D01*
X204701201Y-44152351D01*
X204731649Y-44176050D01*
X204935697Y-44286476D01*
X204935706Y-44286479D01*
X205155139Y-44361811D01*
X205383993Y-44400000D01*
X205616007Y-44400000D01*
X205844860Y-44361811D01*
X206064293Y-44286479D01*
X206064301Y-44286476D01*
X206268355Y-44176047D01*
X206298797Y-44152351D01*
X206298798Y-44152350D01*
X205711060Y-43564612D01*
X205731591Y-43559111D01*
X205868408Y-43480119D01*
X205980119Y-43368408D01*
X206059111Y-43231591D01*
X206064612Y-43211059D01*
X206651186Y-43797633D01*
X206735482Y-43668611D01*
X206828682Y-43456135D01*
X206885638Y-43231218D01*
X206904798Y-43000005D01*
X206904798Y-42999994D01*
X206885638Y-42768781D01*
X206828682Y-42543864D01*
X206735484Y-42331393D01*
X206651186Y-42202365D01*
X206064612Y-42788939D01*
X206059111Y-42768409D01*
X205980119Y-42631592D01*
X205868408Y-42519881D01*
X205731591Y-42440889D01*
X205711058Y-42435387D01*
X206298797Y-41847647D01*
X206298797Y-41847645D01*
X206268360Y-41823955D01*
X206268354Y-41823951D01*
X206064302Y-41713523D01*
X206064293Y-41713520D01*
X205844860Y-41638188D01*
X205616007Y-41600000D01*
X205383993Y-41600000D01*
X205155139Y-41638188D01*
X204935706Y-41713520D01*
X204935697Y-41713523D01*
X204731650Y-41823949D01*
X204701200Y-41847647D01*
X205288941Y-42435387D01*
X205268409Y-42440889D01*
X205131592Y-42519881D01*
X205019881Y-42631592D01*
X204940889Y-42768409D01*
X204935387Y-42788941D01*
X204348811Y-42202365D01*
X204264516Y-42331390D01*
X204171317Y-42543864D01*
X204114361Y-42768781D01*
X204095202Y-42999994D01*
X199329141Y-42999994D01*
X202108506Y-40220629D01*
X202108511Y-40220625D01*
X202118714Y-40210421D01*
X202118716Y-40210421D01*
X202230520Y-40098617D01*
X202309577Y-39961685D01*
X202339534Y-39849882D01*
X202350500Y-39808959D01*
X202350500Y-39650844D01*
X202350500Y-39572351D01*
X202370185Y-39505312D01*
X202422989Y-39459557D01*
X202461243Y-39449062D01*
X202486744Y-39446320D01*
X202513252Y-39446320D01*
X202552127Y-39450500D01*
X202947872Y-39450499D01*
X202947873Y-39450498D01*
X202947885Y-39450498D01*
X202986744Y-39446320D01*
X203013252Y-39446320D01*
X203052127Y-39450500D01*
X203447872Y-39450499D01*
X203447873Y-39450498D01*
X203447885Y-39450498D01*
X203486744Y-39446320D01*
X203513252Y-39446320D01*
X203552127Y-39450500D01*
X203947872Y-39450499D01*
X203947873Y-39450498D01*
X203947885Y-39450498D01*
X203986744Y-39446320D01*
X204013252Y-39446320D01*
X204052127Y-39450500D01*
X204447872Y-39450499D01*
X204507483Y-39444091D01*
X204642331Y-39393796D01*
X204757546Y-39307546D01*
X204843796Y-39192331D01*
X204894091Y-39057483D01*
X204900500Y-38997873D01*
X204900499Y-37602128D01*
X204894091Y-37542517D01*
X204843796Y-37407669D01*
X204843795Y-37407668D01*
X204843793Y-37407664D01*
X204757547Y-37292455D01*
X204757544Y-37292452D01*
X204642335Y-37206206D01*
X204642328Y-37206202D01*
X204507486Y-37155910D01*
X204507485Y-37155909D01*
X204507483Y-37155909D01*
X204447873Y-37149500D01*
X204447863Y-37149500D01*
X204052130Y-37149500D01*
X204052119Y-37149501D01*
X204013253Y-37153679D01*
X203986748Y-37153679D01*
X203947874Y-37149500D01*
X203552130Y-37149500D01*
X203552119Y-37149501D01*
X203513253Y-37153679D01*
X203486748Y-37153679D01*
X203447874Y-37149500D01*
X203052130Y-37149500D01*
X203052119Y-37149501D01*
X203013253Y-37153679D01*
X202986748Y-37153679D01*
X202947874Y-37149500D01*
X202552130Y-37149500D01*
X202552119Y-37149501D01*
X202513253Y-37153679D01*
X202486748Y-37153679D01*
X202447874Y-37149500D01*
X202052130Y-37149500D01*
X202052119Y-37149501D01*
X202013253Y-37153679D01*
X201986748Y-37153679D01*
X201947874Y-37149500D01*
X201552130Y-37149500D01*
X201552119Y-37149501D01*
X201513253Y-37153679D01*
X201486748Y-37153679D01*
X201447874Y-37149500D01*
X201052130Y-37149500D01*
X201052119Y-37149501D01*
X201013253Y-37153679D01*
X200986748Y-37153679D01*
X200947874Y-37149500D01*
X200552130Y-37149500D01*
X200552119Y-37149501D01*
X200513253Y-37153679D01*
X200486748Y-37153679D01*
X200447874Y-37149500D01*
X200052130Y-37149500D01*
X200052119Y-37149501D01*
X200013253Y-37153679D01*
X199986748Y-37153679D01*
X199947874Y-37149500D01*
X199552130Y-37149500D01*
X199552119Y-37149501D01*
X199513253Y-37153679D01*
X199486748Y-37153679D01*
X199447874Y-37149500D01*
X199052132Y-37149500D01*
X199052117Y-37149501D01*
X199010904Y-37153931D01*
X198984402Y-37153931D01*
X198944528Y-37149645D01*
X198944625Y-37148733D01*
X198882393Y-37126771D01*
X198852882Y-37096642D01*
X198794193Y-37011617D01*
X198778182Y-36988421D01*
X198669942Y-36892529D01*
X198650848Y-36875613D01*
X198500225Y-36796560D01*
X198335055Y-36755850D01*
X198164943Y-36755850D01*
X197999772Y-36796560D01*
X197849149Y-36875613D01*
X197721815Y-36988422D01*
X197647475Y-37096122D01*
X197593192Y-37140112D01*
X197555384Y-37148744D01*
X197555428Y-37149146D01*
X197513253Y-37153679D01*
X197486748Y-37153679D01*
X197447874Y-37149500D01*
X197052130Y-37149500D01*
X197052119Y-37149501D01*
X197013253Y-37153679D01*
X196986748Y-37153679D01*
X196947875Y-37149500D01*
X196947873Y-37149500D01*
X196870363Y-37149500D01*
X196803324Y-37129815D01*
X196762975Y-37087499D01*
X196730521Y-37031285D01*
X196614385Y-36915149D01*
X196614374Y-36915139D01*
X196288328Y-36589093D01*
X196263060Y-36548875D01*
X196262215Y-36549283D01*
X196259195Y-36543012D01*
X196259191Y-36543005D01*
X196163219Y-36390267D01*
X196035665Y-36262713D01*
X196016225Y-36250498D01*
X195882926Y-36166740D01*
X195712657Y-36107160D01*
X195712652Y-36107159D01*
X195533407Y-36086964D01*
X195533399Y-36086964D01*
X195354153Y-36107159D01*
X195354148Y-36107160D01*
X195183879Y-36166740D01*
X195031140Y-36262713D01*
X194903587Y-36390266D01*
X194807614Y-36543005D01*
X194748034Y-36713274D01*
X194748033Y-36713279D01*
X194727838Y-36892525D01*
X194727838Y-36892532D01*
X194741255Y-37011617D01*
X194729200Y-37080439D01*
X194681851Y-37131818D01*
X194618037Y-37149500D01*
X194552132Y-37149500D01*
X194552118Y-37149501D01*
X194513253Y-37153679D01*
X194486748Y-37153679D01*
X194447874Y-37149500D01*
X194052130Y-37149500D01*
X194052119Y-37149501D01*
X194013253Y-37153679D01*
X193986748Y-37153679D01*
X193947874Y-37149500D01*
X193552130Y-37149500D01*
X193552119Y-37149501D01*
X193513253Y-37153679D01*
X193486748Y-37153679D01*
X193447874Y-37149500D01*
X193052130Y-37149500D01*
X193052119Y-37149501D01*
X193013253Y-37153679D01*
X192986748Y-37153679D01*
X192947874Y-37149500D01*
X192552129Y-37149500D01*
X192552123Y-37149501D01*
X192492516Y-37155908D01*
X192357671Y-37206202D01*
X192357664Y-37206206D01*
X192242455Y-37292452D01*
X192242452Y-37292455D01*
X192156206Y-37407664D01*
X192156202Y-37407671D01*
X192105908Y-37542517D01*
X192099501Y-37602116D01*
X192099501Y-37602123D01*
X192099500Y-37602135D01*
X192099500Y-38997870D01*
X192099501Y-38997876D01*
X192105908Y-39057483D01*
X192156202Y-39192328D01*
X192156206Y-39192335D01*
X192242452Y-39307544D01*
X192242455Y-39307547D01*
X192357664Y-39393793D01*
X192357671Y-39393797D01*
X192402618Y-39410561D01*
X192492517Y-39444091D01*
X192552127Y-39450500D01*
X192947872Y-39450499D01*
X192947873Y-39450498D01*
X192947885Y-39450498D01*
X192986744Y-39446320D01*
X193013252Y-39446320D01*
X193052127Y-39450500D01*
X193447872Y-39450499D01*
X193447873Y-39450498D01*
X193447885Y-39450498D01*
X193486744Y-39446320D01*
X193513252Y-39446320D01*
X193552127Y-39450500D01*
X193947872Y-39450499D01*
X193947873Y-39450498D01*
X193947885Y-39450498D01*
X193986744Y-39446320D01*
X194013252Y-39446320D01*
X194052127Y-39450500D01*
X194447872Y-39450499D01*
X194447873Y-39450498D01*
X194447885Y-39450498D01*
X194486744Y-39446320D01*
X194513252Y-39446320D01*
X194552127Y-39450500D01*
X194947872Y-39450499D01*
X194947873Y-39450498D01*
X194947885Y-39450498D01*
X194986744Y-39446320D01*
X195013252Y-39446320D01*
X195052127Y-39450500D01*
X195089423Y-39450499D01*
X195156461Y-39470182D01*
X195202217Y-39522985D01*
X195212644Y-39588382D01*
X195194435Y-39749996D01*
X195194435Y-39750003D01*
X195214630Y-39929249D01*
X195214631Y-39929254D01*
X195274211Y-40099523D01*
X195364699Y-40243533D01*
X195370184Y-40252262D01*
X195497738Y-40379816D01*
X195576420Y-40429255D01*
X195610192Y-40450476D01*
X195650478Y-40475789D01*
X195820745Y-40535368D01*
X195820750Y-40535369D01*
X195999996Y-40555565D01*
X196000000Y-40555565D01*
X196000004Y-40555565D01*
X196179249Y-40535369D01*
X196179252Y-40535368D01*
X196179255Y-40535368D01*
X196349522Y-40475789D01*
X196502262Y-40379816D01*
X196629816Y-40252262D01*
X196725789Y-40099522D01*
X196730477Y-40086122D01*
X196759835Y-40039398D01*
X197108506Y-39690728D01*
X197108511Y-39690724D01*
X197118714Y-39680520D01*
X197118716Y-39680520D01*
X197230520Y-39568716D01*
X197262975Y-39512501D01*
X197313541Y-39464284D01*
X197370363Y-39450499D01*
X197447872Y-39450499D01*
X197447885Y-39450498D01*
X197486744Y-39446320D01*
X197513252Y-39446320D01*
X197552127Y-39450500D01*
X197947872Y-39450499D01*
X197947873Y-39450498D01*
X197947885Y-39450498D01*
X197986744Y-39446320D01*
X198013252Y-39446320D01*
X198052127Y-39450500D01*
X198447872Y-39450499D01*
X198461240Y-39449062D01*
X198489094Y-39446068D01*
X198515606Y-39446068D01*
X198552166Y-39449999D01*
X198552182Y-39450000D01*
X198600000Y-39450000D01*
X198615611Y-39434388D01*
X198619685Y-39420515D01*
X198649686Y-39388289D01*
X198675689Y-39368823D01*
X198741152Y-39344406D01*
X198809425Y-39359257D01*
X198824305Y-39368820D01*
X198850312Y-39388289D01*
X198886108Y-39436108D01*
X198936319Y-39486319D01*
X198934462Y-39488175D01*
X198964195Y-39522489D01*
X198974139Y-39591647D01*
X198945114Y-39655203D01*
X198939082Y-39661681D01*
X196887583Y-41713181D01*
X196826260Y-41746666D01*
X196799902Y-41749500D01*
X191046661Y-41749500D01*
X190979622Y-41729815D01*
X190933867Y-41677011D01*
X190930719Y-41669471D01*
X190915680Y-41629815D01*
X190874818Y-41522070D01*
X190861145Y-41502262D01*
X190811139Y-41429816D01*
X190778183Y-41382071D01*
X190650852Y-41269266D01*
X190650849Y-41269263D01*
X190500226Y-41190210D01*
X190335056Y-41149500D01*
X190164944Y-41149500D01*
X190160576Y-41149500D01*
X190093537Y-41129815D01*
X190047782Y-41077011D01*
X190037356Y-41011617D01*
X190055565Y-40850003D01*
X190055565Y-40849996D01*
X190035369Y-40670750D01*
X190035368Y-40670745D01*
X189987998Y-40535369D01*
X189975789Y-40500478D01*
X189974067Y-40497738D01*
X189895427Y-40372583D01*
X189879816Y-40347738D01*
X189752262Y-40220184D01*
X189743426Y-40214632D01*
X189599523Y-40124211D01*
X189429254Y-40064631D01*
X189429249Y-40064630D01*
X189250004Y-40044435D01*
X189249996Y-40044435D01*
X189070750Y-40064630D01*
X189070745Y-40064631D01*
X188900476Y-40124211D01*
X188747737Y-40220184D01*
X188620184Y-40347737D01*
X188524211Y-40500476D01*
X188464631Y-40670745D01*
X188464630Y-40670750D01*
X188444435Y-40849996D01*
X188444435Y-40850003D01*
X188464548Y-41028513D01*
X188452494Y-41097334D01*
X188405144Y-41148714D01*
X188341328Y-41166396D01*
X188158672Y-41166396D01*
X188091633Y-41146711D01*
X188045878Y-41093907D01*
X188035452Y-41028513D01*
X188055565Y-40850003D01*
X188055565Y-40849996D01*
X188035369Y-40670750D01*
X188035368Y-40670745D01*
X187987998Y-40535369D01*
X187975789Y-40500478D01*
X187974067Y-40497738D01*
X187895427Y-40372583D01*
X187879816Y-40347738D01*
X187752262Y-40220184D01*
X187743426Y-40214632D01*
X187599523Y-40124211D01*
X187429254Y-40064631D01*
X187429249Y-40064630D01*
X187250004Y-40044435D01*
X187249996Y-40044435D01*
X187070750Y-40064630D01*
X187070745Y-40064631D01*
X186900476Y-40124211D01*
X186747737Y-40220184D01*
X186620184Y-40347737D01*
X186524211Y-40500476D01*
X186464631Y-40670745D01*
X186464630Y-40670750D01*
X186444435Y-40849996D01*
X186444435Y-40850003D01*
X186464630Y-41029249D01*
X186464631Y-41029254D01*
X186524211Y-41199523D01*
X186568032Y-41269263D01*
X186620184Y-41352262D01*
X186747738Y-41479816D01*
X186769669Y-41493596D01*
X186815960Y-41545931D01*
X186826608Y-41614985D01*
X186798233Y-41678833D01*
X186791378Y-41686271D01*
X186131286Y-42346364D01*
X186019481Y-42458168D01*
X186019479Y-42458170D01*
X186004619Y-42483910D01*
X185984813Y-42518216D01*
X185940423Y-42595101D01*
X185899499Y-42747829D01*
X185899499Y-42747831D01*
X185899499Y-42915932D01*
X185899500Y-42915945D01*
X185899500Y-43548432D01*
X185879815Y-43615471D01*
X185863181Y-43636113D01*
X185036113Y-44463181D01*
X184974790Y-44496666D01*
X184948432Y-44499500D01*
X183899000Y-44499500D01*
X183831961Y-44479815D01*
X183786206Y-44427011D01*
X183775000Y-44375500D01*
X183775000Y-43825000D01*
X180675000Y-43825000D01*
X180675000Y-44472844D01*
X180681402Y-44532381D01*
X180681957Y-44534729D01*
X180681856Y-44536602D01*
X180682231Y-44540087D01*
X180681665Y-44540147D01*
X180678210Y-44604498D01*
X180637338Y-44661166D01*
X180627251Y-44668226D01*
X180532196Y-44727954D01*
X180532193Y-44727956D01*
X180404640Y-44855509D01*
X180308667Y-45008248D01*
X180249087Y-45178517D01*
X180249086Y-45178522D01*
X180228891Y-45357768D01*
X180228891Y-45357775D01*
X180249086Y-45537021D01*
X180249087Y-45537026D01*
X180308667Y-45707295D01*
X180383964Y-45827128D01*
X180404640Y-45860034D01*
X180532194Y-45987588D01*
X180684934Y-46083561D01*
X180855201Y-46143140D01*
X180942125Y-46152933D01*
X181006536Y-46179998D01*
X181015921Y-46188472D01*
X181165268Y-46337819D01*
X181198753Y-46399142D01*
X181193769Y-46468834D01*
X181151897Y-46524767D01*
X181086433Y-46549184D01*
X181077587Y-46549500D01*
X180914944Y-46549500D01*
X180749773Y-46590210D01*
X180599150Y-46669263D01*
X180471816Y-46782072D01*
X180375182Y-46922068D01*
X180314860Y-47081125D01*
X180314859Y-47081130D01*
X180294355Y-47250000D01*
X180314859Y-47418869D01*
X180314860Y-47418874D01*
X180375182Y-47577931D01*
X180437475Y-47668177D01*
X180471817Y-47717929D01*
X180544684Y-47782483D01*
X180599150Y-47830736D01*
X180737752Y-47903480D01*
X180749775Y-47909790D01*
X180914944Y-47950500D01*
X181085056Y-47950500D01*
X181250225Y-47909790D01*
X181250230Y-47909787D01*
X181253473Y-47908558D01*
X181297445Y-47900500D01*
X184703718Y-47900500D01*
X184770757Y-47920185D01*
X184816512Y-47972989D01*
X184826456Y-48042147D01*
X184819660Y-48068470D01*
X184814861Y-48081122D01*
X184814859Y-48081130D01*
X184794355Y-48250000D01*
X184798672Y-48285554D01*
X184787212Y-48354477D01*
X184740308Y-48406263D01*
X184675576Y-48424500D01*
X180424233Y-48424500D01*
X180293610Y-48459500D01*
X180293609Y-48459500D01*
X180277867Y-48463717D01*
X180277866Y-48463718D01*
X180146638Y-48539483D01*
X180140189Y-48544432D01*
X180138293Y-48541962D01*
X180093794Y-48567036D01*
X179999772Y-48590210D01*
X179849150Y-48669263D01*
X179721816Y-48782072D01*
X179625182Y-48922068D01*
X179564860Y-49081125D01*
X179564859Y-49081130D01*
X179544355Y-49250000D01*
X176850499Y-49250000D01*
X176850499Y-49102128D01*
X176844091Y-49042517D01*
X176833454Y-49013999D01*
X176793797Y-48907671D01*
X176793793Y-48907664D01*
X176707547Y-48792455D01*
X176707544Y-48792452D01*
X176592335Y-48706206D01*
X176592328Y-48706202D01*
X176457482Y-48655908D01*
X176457483Y-48655908D01*
X176397883Y-48649501D01*
X176397881Y-48649500D01*
X176397873Y-48649500D01*
X176397865Y-48649500D01*
X176024500Y-48649500D01*
X175957461Y-48629815D01*
X175911706Y-48577011D01*
X175900500Y-48525500D01*
X175900500Y-47884917D01*
X175908318Y-47841584D01*
X175918040Y-47815518D01*
X175934091Y-47772483D01*
X175940500Y-47712873D01*
X175940499Y-47437128D01*
X175936067Y-47395898D01*
X175936068Y-47369393D01*
X175939999Y-47332833D01*
X175940000Y-47332819D01*
X175940000Y-47057172D01*
X175939999Y-47057155D01*
X175933598Y-46997627D01*
X175933596Y-46997620D01*
X175883354Y-46862913D01*
X175883350Y-46862906D01*
X175797190Y-46747812D01*
X175797187Y-46747809D01*
X175682093Y-46661649D01*
X175682086Y-46661645D01*
X175547379Y-46611403D01*
X175547372Y-46611401D01*
X175487844Y-46605000D01*
X175162155Y-46605000D01*
X175102627Y-46611401D01*
X175102620Y-46611403D01*
X174967913Y-46661645D01*
X174967906Y-46661649D01*
X174852812Y-46747809D01*
X174852809Y-46747812D01*
X174766649Y-46862906D01*
X174766645Y-46862913D01*
X174723199Y-46979399D01*
X174681328Y-47035333D01*
X174636692Y-47056463D01*
X174499773Y-47090210D01*
X174349150Y-47169263D01*
X174221816Y-47282072D01*
X174125182Y-47422068D01*
X174064860Y-47581125D01*
X174064859Y-47581130D01*
X174044355Y-47750000D01*
X174064859Y-47918869D01*
X174064860Y-47918874D01*
X174125182Y-48077931D01*
X174175259Y-48150479D01*
X174221817Y-48217929D01*
X174298150Y-48285554D01*
X174349150Y-48330736D01*
X174506416Y-48413276D01*
X174505749Y-48414544D01*
X174554866Y-48451736D01*
X174578923Y-48517334D01*
X174563696Y-48585524D01*
X174514020Y-48634657D01*
X174455192Y-48649500D01*
X173402129Y-48649500D01*
X173402123Y-48649501D01*
X173342516Y-48655908D01*
X173214822Y-48703536D01*
X173157606Y-48710574D01*
X173014356Y-48694434D01*
X173014348Y-48694434D01*
X172835102Y-48714629D01*
X172835097Y-48714630D01*
X172664828Y-48774210D01*
X172512089Y-48870183D01*
X172384536Y-48997736D01*
X172288563Y-49150475D01*
X172228983Y-49320744D01*
X172228982Y-49320749D01*
X172208787Y-49499995D01*
X171241988Y-49499995D01*
X171278183Y-49467929D01*
X171374818Y-49327930D01*
X171435140Y-49168872D01*
X171455645Y-49000000D01*
X171435140Y-48831128D01*
X171374818Y-48672070D01*
X171372880Y-48669263D01*
X171324741Y-48599522D01*
X171278183Y-48532071D01*
X171164327Y-48431204D01*
X171150849Y-48419263D01*
X171000226Y-48340210D01*
X170835056Y-48299500D01*
X170664944Y-48299500D01*
X170499773Y-48340210D01*
X170349151Y-48419263D01*
X170349144Y-48419268D01*
X170338929Y-48428318D01*
X170275695Y-48458037D01*
X170256707Y-48459500D01*
X170187132Y-48459500D01*
X170187116Y-48459501D01*
X170145904Y-48463931D01*
X170119402Y-48463931D01*
X170082834Y-48460000D01*
X169807155Y-48460000D01*
X169747627Y-48466401D01*
X169747620Y-48466403D01*
X169612913Y-48516645D01*
X169612906Y-48516649D01*
X169497812Y-48602809D01*
X169497809Y-48602812D01*
X169411649Y-48717906D01*
X169411645Y-48717913D01*
X169361403Y-48852620D01*
X169361401Y-48852627D01*
X169355000Y-48912155D01*
X167361390Y-48912155D01*
X167112590Y-48663355D01*
X167112588Y-48663352D01*
X166993717Y-48544481D01*
X166993712Y-48544477D01*
X166937499Y-48512023D01*
X166889284Y-48461456D01*
X166875499Y-48404636D01*
X166875499Y-48327128D01*
X166875498Y-48327111D01*
X166871320Y-48288253D01*
X166871320Y-48261747D01*
X166875500Y-48222873D01*
X166875499Y-47827128D01*
X166875499Y-47827127D01*
X166875498Y-47827111D01*
X166871320Y-47788253D01*
X166871320Y-47761747D01*
X166875500Y-47722873D01*
X166875499Y-47327128D01*
X166875499Y-47327127D01*
X166875498Y-47327111D01*
X166871320Y-47288253D01*
X166871320Y-47261747D01*
X166875500Y-47222873D01*
X166875499Y-46827128D01*
X166875499Y-46827127D01*
X166875498Y-46827111D01*
X166871320Y-46788253D01*
X166871320Y-46761747D01*
X166875500Y-46722873D01*
X166875499Y-46327128D01*
X166875499Y-46327127D01*
X166875498Y-46327111D01*
X166871320Y-46288253D01*
X166871320Y-46261747D01*
X166875500Y-46222873D01*
X166875499Y-45827128D01*
X166869091Y-45767517D01*
X166864330Y-45754753D01*
X166818797Y-45632671D01*
X166818793Y-45632664D01*
X166732547Y-45517455D01*
X166732544Y-45517452D01*
X166610231Y-45425888D01*
X166611752Y-45423855D01*
X166571823Y-45383925D01*
X166556972Y-45315652D01*
X166581390Y-45250188D01*
X166637324Y-45208318D01*
X166680656Y-45200500D01*
X167675504Y-45200500D01*
X167742543Y-45220185D01*
X167788298Y-45272989D01*
X167798242Y-45342147D01*
X167780497Y-45390473D01*
X167774211Y-45400475D01*
X167714631Y-45570745D01*
X167714630Y-45570750D01*
X167694435Y-45749996D01*
X167694435Y-45750003D01*
X167714630Y-45929249D01*
X167714631Y-45929254D01*
X167774211Y-46099523D01*
X167848448Y-46217669D01*
X167870184Y-46252262D01*
X167997738Y-46379816D01*
X168150478Y-46475789D01*
X168290449Y-46524767D01*
X168320745Y-46535368D01*
X168320750Y-46535369D01*
X168499996Y-46555565D01*
X168500000Y-46555565D01*
X168500004Y-46555565D01*
X168679249Y-46535369D01*
X168679252Y-46535368D01*
X168679255Y-46535368D01*
X168849522Y-46475789D01*
X169002262Y-46379816D01*
X169129816Y-46252262D01*
X169147223Y-46224557D01*
X169199554Y-46178268D01*
X169268607Y-46167618D01*
X169332456Y-46195991D01*
X169370830Y-46254380D01*
X169371544Y-46324246D01*
X169368400Y-46333858D01*
X169361403Y-46352618D01*
X169361401Y-46352627D01*
X169355000Y-46412155D01*
X169355000Y-46737844D01*
X169361401Y-46797372D01*
X169361403Y-46797379D01*
X169411645Y-46932086D01*
X169411649Y-46932093D01*
X169497809Y-47047187D01*
X169497812Y-47047190D01*
X169612906Y-47133350D01*
X169612913Y-47133354D01*
X169747620Y-47183596D01*
X169747627Y-47183598D01*
X169807155Y-47189999D01*
X169807172Y-47190000D01*
X170082819Y-47190000D01*
X170082833Y-47189999D01*
X170119395Y-47186068D01*
X170145905Y-47186068D01*
X170187127Y-47190500D01*
X170462872Y-47190499D01*
X170522483Y-47184091D01*
X170530034Y-47182307D01*
X170530722Y-47185221D01*
X170586433Y-47181199D01*
X170589764Y-47181970D01*
X170664944Y-47200500D01*
X170664946Y-47200500D01*
X170835056Y-47200500D01*
X171000225Y-47159790D01*
X171099767Y-47107546D01*
X171150849Y-47080736D01*
X171150850Y-47080734D01*
X171150852Y-47080734D01*
X171278183Y-46967929D01*
X171374818Y-46827930D01*
X171435140Y-46668872D01*
X171455645Y-46500000D01*
X171435140Y-46331128D01*
X171431277Y-46320943D01*
X171403545Y-46247817D01*
X171374818Y-46172070D01*
X171278183Y-46032071D01*
X171162132Y-45929259D01*
X171150849Y-45919263D01*
X171000226Y-45840210D01*
X170835056Y-45799500D01*
X170664944Y-45799500D01*
X170664942Y-45799500D01*
X170601791Y-45815065D01*
X170531989Y-45811995D01*
X170474927Y-45771675D01*
X170448722Y-45706906D01*
X170461695Y-45638251D01*
X170489886Y-45601856D01*
X170528183Y-45567929D01*
X170624818Y-45427930D01*
X170685140Y-45268872D01*
X170705645Y-45100000D01*
X170698693Y-45042751D01*
X170710153Y-44973831D01*
X170734105Y-44940128D01*
X171537416Y-44136819D01*
X171598739Y-44103334D01*
X171625097Y-44100500D01*
X171663331Y-44100500D01*
X171663347Y-44100501D01*
X171670943Y-44100501D01*
X171829054Y-44100501D01*
X171829057Y-44100501D01*
X171981785Y-44059577D01*
X172039055Y-44026512D01*
X172118716Y-43980520D01*
X172118717Y-43980518D01*
X172119837Y-43979872D01*
X172187737Y-43963399D01*
X172253764Y-43986251D01*
X172296954Y-44041172D01*
X172303596Y-44110726D01*
X172290586Y-44143724D01*
X172291583Y-44144204D01*
X172288565Y-44150469D01*
X172228983Y-44320744D01*
X172228982Y-44320749D01*
X172208787Y-44499995D01*
X172208787Y-44500002D01*
X172228982Y-44679248D01*
X172228983Y-44679253D01*
X172288563Y-44849522D01*
X172372320Y-44982819D01*
X172384536Y-45002261D01*
X172512090Y-45129815D01*
X172664830Y-45225788D01*
X172678818Y-45230682D01*
X172681697Y-45231690D01*
X172715055Y-45249465D01*
X172807669Y-45318796D01*
X172807671Y-45318797D01*
X172942517Y-45369091D01*
X172942516Y-45369091D01*
X172949444Y-45369835D01*
X173002127Y-45375500D01*
X173405785Y-45375499D01*
X173472822Y-45395183D01*
X173518577Y-45447987D01*
X173528521Y-45517146D01*
X173499496Y-45580702D01*
X173463410Y-45609295D01*
X173349149Y-45669265D01*
X173349148Y-45669266D01*
X173222794Y-45781206D01*
X173221816Y-45782072D01*
X173125182Y-45922068D01*
X173064860Y-46081125D01*
X173064859Y-46081130D01*
X173044355Y-46250000D01*
X173064859Y-46418869D01*
X173064860Y-46418874D01*
X173125182Y-46577931D01*
X173179210Y-46656202D01*
X173221817Y-46717929D01*
X173312059Y-46797876D01*
X173349150Y-46830736D01*
X173477067Y-46897872D01*
X173499775Y-46909790D01*
X173664944Y-46950500D01*
X173835056Y-46950500D01*
X174000225Y-46909790D01*
X174089554Y-46862906D01*
X174150849Y-46830736D01*
X174150850Y-46830734D01*
X174150852Y-46830734D01*
X174278183Y-46717929D01*
X174374818Y-46577930D01*
X174435140Y-46418872D01*
X174455645Y-46250000D01*
X174446797Y-46177135D01*
X176874500Y-46177135D01*
X176874500Y-47972870D01*
X176874501Y-47972876D01*
X176880908Y-48032483D01*
X176931202Y-48167328D01*
X176931206Y-48167335D01*
X177017452Y-48282544D01*
X177017455Y-48282547D01*
X177132664Y-48368793D01*
X177132671Y-48368797D01*
X177267517Y-48419091D01*
X177267516Y-48419091D01*
X177269163Y-48419268D01*
X177327127Y-48425500D01*
X179522872Y-48425499D01*
X179582483Y-48419091D01*
X179717331Y-48368796D01*
X179832546Y-48282546D01*
X179918796Y-48167331D01*
X179969091Y-48032483D01*
X179975500Y-47972873D01*
X179975499Y-46177128D01*
X179969091Y-46117517D01*
X179963605Y-46102809D01*
X179918797Y-45982671D01*
X179918793Y-45982664D01*
X179832547Y-45867455D01*
X179832544Y-45867452D01*
X179717335Y-45781206D01*
X179717328Y-45781202D01*
X179582482Y-45730908D01*
X179582483Y-45730908D01*
X179522883Y-45724501D01*
X179522881Y-45724500D01*
X179522873Y-45724500D01*
X179522864Y-45724500D01*
X177327129Y-45724500D01*
X177327123Y-45724501D01*
X177267516Y-45730908D01*
X177132671Y-45781202D01*
X177132664Y-45781206D01*
X177017455Y-45867452D01*
X177017452Y-45867455D01*
X176931206Y-45982664D01*
X176931202Y-45982671D01*
X176880908Y-46117517D01*
X176874501Y-46177116D01*
X176874501Y-46177123D01*
X176874500Y-46177135D01*
X174446797Y-46177135D01*
X174435140Y-46081128D01*
X174430837Y-46069783D01*
X174410687Y-46016649D01*
X174374818Y-45922070D01*
X174372880Y-45919263D01*
X174324741Y-45849522D01*
X174278183Y-45782071D01*
X174163797Y-45680734D01*
X174150849Y-45669263D01*
X174036589Y-45609295D01*
X173986376Y-45560710D01*
X173970402Y-45492691D01*
X173993737Y-45426834D01*
X174048974Y-45384047D01*
X174094214Y-45375499D01*
X174247872Y-45375499D01*
X174307483Y-45369091D01*
X174442331Y-45318796D01*
X174557546Y-45232546D01*
X174643796Y-45117331D01*
X174694091Y-44982483D01*
X174700500Y-44922873D01*
X174700499Y-44386569D01*
X174720183Y-44319531D01*
X174772987Y-44273776D01*
X174842146Y-44263832D01*
X174898808Y-44287302D01*
X175007668Y-44368795D01*
X175007671Y-44368797D01*
X175011390Y-44370184D01*
X175142517Y-44419091D01*
X175202127Y-44425500D01*
X175202136Y-44425499D01*
X175205429Y-44425854D01*
X175205329Y-44426779D01*
X175267515Y-44448713D01*
X175310381Y-44503888D01*
X175316613Y-44573480D01*
X175315394Y-44578958D01*
X175314860Y-44581122D01*
X175294355Y-44750000D01*
X175314859Y-44918869D01*
X175314860Y-44918874D01*
X175375182Y-45077931D01*
X175437475Y-45168177D01*
X175471817Y-45217929D01*
X175556035Y-45292539D01*
X175599150Y-45330736D01*
X175749773Y-45409789D01*
X175749775Y-45409790D01*
X175914944Y-45450500D01*
X176085056Y-45450500D01*
X176250225Y-45409790D01*
X176379107Y-45342147D01*
X176400849Y-45330736D01*
X176400850Y-45330734D01*
X176400852Y-45330734D01*
X176528183Y-45217929D01*
X176624818Y-45077930D01*
X176685140Y-44918872D01*
X176705645Y-44750000D01*
X176705645Y-44749999D01*
X176705645Y-44742499D01*
X176707688Y-44742499D01*
X176717442Y-44683844D01*
X176764346Y-44632058D01*
X176831801Y-44613851D01*
X176898392Y-44635004D01*
X176928344Y-44663510D01*
X176931203Y-44667329D01*
X176931204Y-44667331D01*
X177017454Y-44782546D01*
X177051013Y-44807668D01*
X177132664Y-44868793D01*
X177132671Y-44868797D01*
X177267517Y-44919091D01*
X177267516Y-44919091D01*
X177274444Y-44919835D01*
X177327127Y-44925500D01*
X179522872Y-44925499D01*
X179582483Y-44919091D01*
X179717331Y-44868796D01*
X179832546Y-44782546D01*
X179918796Y-44667331D01*
X179969091Y-44532483D01*
X179975500Y-44472873D01*
X179975499Y-42677155D01*
X180675000Y-42677155D01*
X180675000Y-43325000D01*
X181975000Y-43325000D01*
X182475000Y-43325000D01*
X183775000Y-43325000D01*
X183775000Y-42677172D01*
X183774999Y-42677155D01*
X183768598Y-42617627D01*
X183768596Y-42617620D01*
X183718354Y-42482913D01*
X183718350Y-42482906D01*
X183632190Y-42367812D01*
X183632187Y-42367809D01*
X183517093Y-42281649D01*
X183517086Y-42281645D01*
X183382379Y-42231403D01*
X183382372Y-42231401D01*
X183322844Y-42225000D01*
X182475000Y-42225000D01*
X182475000Y-43325000D01*
X181975000Y-43325000D01*
X181975000Y-42225000D01*
X181127155Y-42225000D01*
X181067627Y-42231401D01*
X181067620Y-42231403D01*
X180932913Y-42281645D01*
X180932906Y-42281649D01*
X180817812Y-42367809D01*
X180817809Y-42367812D01*
X180731649Y-42482906D01*
X180731645Y-42482913D01*
X180681403Y-42617620D01*
X180681401Y-42617627D01*
X180675000Y-42677155D01*
X179975499Y-42677155D01*
X179975499Y-42677128D01*
X179969091Y-42617517D01*
X179960730Y-42595101D01*
X179918797Y-42482671D01*
X179918793Y-42482664D01*
X179832547Y-42367455D01*
X179832544Y-42367452D01*
X179717335Y-42281206D01*
X179717328Y-42281202D01*
X179582482Y-42230908D01*
X179582483Y-42230908D01*
X179522883Y-42224501D01*
X179522881Y-42224500D01*
X179522873Y-42224500D01*
X179522864Y-42224500D01*
X177327129Y-42224500D01*
X177327123Y-42224501D01*
X177267516Y-42230908D01*
X177132671Y-42281202D01*
X177132664Y-42281206D01*
X177017455Y-42367452D01*
X177017452Y-42367455D01*
X176931206Y-42482664D01*
X176931202Y-42482671D01*
X176880908Y-42617517D01*
X176874501Y-42677116D01*
X176874501Y-42677123D01*
X176874500Y-42677135D01*
X176874500Y-42807283D01*
X176854815Y-42874322D01*
X176802011Y-42920077D01*
X176732853Y-42930021D01*
X176676189Y-42906550D01*
X176642331Y-42881204D01*
X176642328Y-42881202D01*
X176507482Y-42830908D01*
X176507483Y-42830908D01*
X176447883Y-42824501D01*
X176447881Y-42824500D01*
X176447873Y-42824500D01*
X176447864Y-42824500D01*
X175202129Y-42824500D01*
X175202123Y-42824501D01*
X175142516Y-42830908D01*
X175007671Y-42881202D01*
X175007668Y-42881204D01*
X174898810Y-42962695D01*
X174833345Y-42987112D01*
X174765072Y-42972260D01*
X174715667Y-42922855D01*
X174700499Y-42863431D01*
X174700499Y-42327128D01*
X174694091Y-42267517D01*
X174680621Y-42231403D01*
X174643797Y-42132671D01*
X174643793Y-42132664D01*
X174557547Y-42017455D01*
X174557544Y-42017452D01*
X174442335Y-41931206D01*
X174442328Y-41931202D01*
X174307482Y-41880908D01*
X174307483Y-41880908D01*
X174247883Y-41874501D01*
X174247881Y-41874500D01*
X174247873Y-41874500D01*
X174247865Y-41874500D01*
X174099096Y-41874500D01*
X174032057Y-41854815D01*
X173986302Y-41802011D01*
X173976358Y-41732853D01*
X174005383Y-41669297D01*
X174011400Y-41662833D01*
X174124439Y-41549794D01*
X174185758Y-41516312D01*
X174253072Y-41520437D01*
X174295737Y-41535366D01*
X174295743Y-41535367D01*
X174295745Y-41535368D01*
X174295746Y-41535368D01*
X174295750Y-41535369D01*
X174474996Y-41555565D01*
X174475000Y-41555565D01*
X174475004Y-41555565D01*
X174654249Y-41535369D01*
X174654252Y-41535368D01*
X174654255Y-41535368D01*
X174824522Y-41475789D01*
X174977262Y-41379816D01*
X175104816Y-41252262D01*
X175200789Y-41099522D01*
X175220917Y-41041998D01*
X175261638Y-40985222D01*
X175326590Y-40959474D01*
X175395152Y-40972930D01*
X175398379Y-40974778D01*
X175400477Y-40975788D01*
X175400478Y-40975789D01*
X175469678Y-41000003D01*
X175570745Y-41035368D01*
X175570750Y-41035369D01*
X175749996Y-41055565D01*
X175750000Y-41055565D01*
X175750004Y-41055565D01*
X175929249Y-41035369D01*
X175929252Y-41035368D01*
X175929255Y-41035368D01*
X176099522Y-40975789D01*
X176252262Y-40879816D01*
X176379816Y-40752262D01*
X176379816Y-40752261D01*
X176384740Y-40747338D01*
X176386680Y-40749278D01*
X176433661Y-40716285D01*
X176503472Y-40713417D01*
X176563751Y-40748747D01*
X176595360Y-40811058D01*
X176596670Y-40819844D01*
X176614630Y-40979250D01*
X176614631Y-40979254D01*
X176674211Y-41149523D01*
X176708700Y-41204411D01*
X176770184Y-41302262D01*
X176897738Y-41429816D01*
X177050478Y-41525789D01*
X177108041Y-41545931D01*
X177220745Y-41585368D01*
X177220750Y-41585369D01*
X177399996Y-41605565D01*
X177400000Y-41605565D01*
X177400004Y-41605565D01*
X177579249Y-41585369D01*
X177579252Y-41585368D01*
X177579255Y-41585368D01*
X177749522Y-41525789D01*
X177902262Y-41429816D01*
X178029816Y-41302262D01*
X178125789Y-41149522D01*
X178178110Y-40999996D01*
X180694435Y-40999996D01*
X180694435Y-41000003D01*
X180714630Y-41179249D01*
X180714631Y-41179254D01*
X180774211Y-41349523D01*
X180824662Y-41429815D01*
X180870184Y-41502262D01*
X180997738Y-41629816D01*
X181087586Y-41686271D01*
X181130412Y-41713181D01*
X181150478Y-41725789D01*
X181320745Y-41785368D01*
X181320750Y-41785369D01*
X181499996Y-41805565D01*
X181500000Y-41805565D01*
X181500004Y-41805565D01*
X181679249Y-41785369D01*
X181679252Y-41785368D01*
X181679255Y-41785368D01*
X181849522Y-41725789D01*
X182002262Y-41629816D01*
X182025609Y-41606468D01*
X182086931Y-41572983D01*
X182154246Y-41577108D01*
X182320737Y-41635366D01*
X182320743Y-41635367D01*
X182320745Y-41635368D01*
X182320746Y-41635368D01*
X182320750Y-41635369D01*
X182499996Y-41655565D01*
X182500000Y-41655565D01*
X182500004Y-41655565D01*
X182679249Y-41635369D01*
X182679252Y-41635368D01*
X182679255Y-41635368D01*
X182849522Y-41575789D01*
X183002262Y-41479816D01*
X183129816Y-41352262D01*
X183225789Y-41199522D01*
X183285368Y-41029255D01*
X183285452Y-41028513D01*
X183305565Y-40850003D01*
X183305565Y-40849996D01*
X183285369Y-40670750D01*
X183285368Y-40670745D01*
X183237998Y-40535369D01*
X183225789Y-40500478D01*
X183224067Y-40497738D01*
X183145427Y-40372583D01*
X183129816Y-40347738D01*
X183002262Y-40220184D01*
X182993426Y-40214632D01*
X182849523Y-40124211D01*
X182679254Y-40064631D01*
X182679249Y-40064630D01*
X182500004Y-40044435D01*
X182499996Y-40044435D01*
X182320750Y-40064630D01*
X182320745Y-40064631D01*
X182150476Y-40124211D01*
X181997736Y-40220185D01*
X181974388Y-40243533D01*
X181913064Y-40277017D01*
X181845753Y-40272892D01*
X181679254Y-40214631D01*
X181679249Y-40214630D01*
X181500004Y-40194435D01*
X181499996Y-40194435D01*
X181320750Y-40214630D01*
X181320745Y-40214631D01*
X181150476Y-40274211D01*
X180997737Y-40370184D01*
X180870184Y-40497737D01*
X180774211Y-40650476D01*
X180714631Y-40820745D01*
X180714630Y-40820750D01*
X180694435Y-40999996D01*
X178178110Y-40999996D01*
X178185368Y-40979255D01*
X178185759Y-40975788D01*
X178205565Y-40800003D01*
X178205565Y-40799996D01*
X178185369Y-40620750D01*
X178185368Y-40620745D01*
X178177942Y-40599522D01*
X178125789Y-40450478D01*
X178029816Y-40297738D01*
X177902262Y-40170184D01*
X177749523Y-40074211D01*
X177579254Y-40014631D01*
X177579249Y-40014630D01*
X177400004Y-39994435D01*
X177399996Y-39994435D01*
X177220750Y-40014630D01*
X177220745Y-40014631D01*
X177050476Y-40074211D01*
X176897737Y-40170184D01*
X176765260Y-40302662D01*
X176763332Y-40300734D01*
X176716238Y-40333748D01*
X176646424Y-40336556D01*
X176586176Y-40301175D01*
X176554620Y-40238837D01*
X176553329Y-40230154D01*
X176535369Y-40070750D01*
X176535368Y-40070745D01*
X176526162Y-40044435D01*
X176475789Y-39900478D01*
X176379816Y-39747738D01*
X176252262Y-39620184D01*
X176206846Y-39591647D01*
X176099521Y-39524210D01*
X176009009Y-39492539D01*
X175977916Y-39481659D01*
X175931191Y-39452299D01*
X175617247Y-39138355D01*
X175617245Y-39138352D01*
X175498374Y-39019481D01*
X175498366Y-39019475D01*
X175403374Y-38964632D01*
X175403372Y-38964631D01*
X175361447Y-38940425D01*
X175361446Y-38940424D01*
X175348920Y-38937067D01*
X175208714Y-38899499D01*
X175050600Y-38899499D01*
X175043004Y-38899499D01*
X175042988Y-38899500D01*
X174838371Y-38899500D01*
X174680256Y-38899500D01*
X174527529Y-38940423D01*
X174527528Y-38940423D01*
X174527526Y-38940424D01*
X174527523Y-38940425D01*
X174485599Y-38964631D01*
X174485597Y-38964632D01*
X174390604Y-39019475D01*
X174390596Y-39019481D01*
X174278792Y-39131286D01*
X173438900Y-39971177D01*
X173377577Y-40004662D01*
X173307885Y-39999678D01*
X173251952Y-39957806D01*
X173234177Y-39924449D01*
X173225789Y-39900479D01*
X173225789Y-39900478D01*
X173129816Y-39747738D01*
X173002262Y-39620184D01*
X172956846Y-39591647D01*
X172849523Y-39524211D01*
X172679254Y-39464631D01*
X172679249Y-39464630D01*
X172500004Y-39444435D01*
X172499996Y-39444435D01*
X172320750Y-39464630D01*
X172320745Y-39464631D01*
X172150476Y-39524211D01*
X171997737Y-39620184D01*
X171870184Y-39747737D01*
X171774211Y-39900476D01*
X171714631Y-40070745D01*
X171714630Y-40070749D01*
X171693873Y-40254978D01*
X171666806Y-40319392D01*
X171632655Y-40348480D01*
X171596287Y-40369477D01*
X171596282Y-40369481D01*
X169269479Y-42696284D01*
X169240621Y-42746268D01*
X169228424Y-42767396D01*
X169190423Y-42833215D01*
X169149499Y-42985943D01*
X169149499Y-42985945D01*
X169149499Y-43154046D01*
X169149500Y-43154059D01*
X169149500Y-43167587D01*
X169129815Y-43234626D01*
X169122450Y-43244896D01*
X169120186Y-43247734D01*
X169024211Y-43400476D01*
X168964631Y-43570745D01*
X168964630Y-43570750D01*
X168944435Y-43749996D01*
X168944435Y-43750002D01*
X168957011Y-43861616D01*
X168944957Y-43930438D01*
X168897608Y-43981818D01*
X168833791Y-43999500D01*
X157236669Y-43999500D01*
X157236653Y-43999499D01*
X157229057Y-43999499D01*
X157070943Y-43999499D01*
X157070940Y-43999499D01*
X157064377Y-44000364D01*
X157016090Y-43997198D01*
X157004294Y-43994037D01*
X156944636Y-43957668D01*
X156937130Y-43948577D01*
X156932546Y-43942454D01*
X156932544Y-43942452D01*
X156817335Y-43856206D01*
X156817328Y-43856202D01*
X156682482Y-43805908D01*
X156682483Y-43805908D01*
X156646948Y-43802088D01*
X156582397Y-43775350D01*
X156542549Y-43717957D01*
X156536984Y-43664916D01*
X156555565Y-43500003D01*
X156555565Y-43499996D01*
X156535369Y-43320750D01*
X156535368Y-43320745D01*
X156504041Y-43231218D01*
X156475789Y-43150478D01*
X156471756Y-43144060D01*
X156430871Y-43078991D01*
X156379816Y-42997738D01*
X156252262Y-42870184D01*
X156218494Y-42848966D01*
X156099523Y-42774211D01*
X155929254Y-42714631D01*
X155929249Y-42714630D01*
X155750004Y-42694435D01*
X155749996Y-42694435D01*
X155570750Y-42714630D01*
X155570745Y-42714631D01*
X155400476Y-42774211D01*
X155247737Y-42870184D01*
X155120184Y-42997737D01*
X155024211Y-43150476D01*
X154964631Y-43320745D01*
X154964630Y-43320750D01*
X154944435Y-43499996D01*
X154944435Y-43500003D01*
X154964631Y-43679252D01*
X154987429Y-43744407D01*
X154990990Y-43814186D01*
X154956261Y-43874813D01*
X154944699Y-43884627D01*
X154867452Y-43942455D01*
X154781206Y-44057664D01*
X154781202Y-44057671D01*
X154730908Y-44192517D01*
X154724501Y-44252116D01*
X154724500Y-44252135D01*
X154724500Y-44675165D01*
X154704815Y-44742204D01*
X154699767Y-44749475D01*
X154656203Y-44807668D01*
X154656202Y-44807671D01*
X154605908Y-44942517D01*
X154599501Y-45002116D01*
X154599500Y-45002135D01*
X154599500Y-45225500D01*
X154579815Y-45292539D01*
X154527011Y-45338294D01*
X154475500Y-45349500D01*
X154274499Y-45349500D01*
X154207460Y-45329815D01*
X154161705Y-45277011D01*
X154150499Y-45225500D01*
X154150499Y-44902129D01*
X154150498Y-44902123D01*
X154150497Y-44902116D01*
X154144091Y-44842517D01*
X154131094Y-44807671D01*
X154093797Y-44707671D01*
X154093793Y-44707664D01*
X154007547Y-44592455D01*
X154007544Y-44592452D01*
X153892335Y-44506206D01*
X153892328Y-44506202D01*
X153757482Y-44455908D01*
X153757483Y-44455908D01*
X153697883Y-44449501D01*
X153697881Y-44449500D01*
X153697873Y-44449500D01*
X153697864Y-44449500D01*
X151802129Y-44449500D01*
X151802123Y-44449501D01*
X151742516Y-44455908D01*
X151607671Y-44506202D01*
X151607664Y-44506206D01*
X151492455Y-44592452D01*
X151492452Y-44592455D01*
X151406206Y-44707664D01*
X151406202Y-44707671D01*
X151355908Y-44842517D01*
X151349548Y-44901681D01*
X151349501Y-44902123D01*
X151349500Y-44902135D01*
X146900500Y-44902135D01*
X146900500Y-35451096D01*
X162900000Y-35451096D01*
X162902897Y-35493824D01*
X162948831Y-35678523D01*
X163033390Y-35849022D01*
X163033392Y-35849025D01*
X163152632Y-35997366D01*
X163152633Y-35997367D01*
X163300974Y-36116607D01*
X163300977Y-36116609D01*
X163471476Y-36201168D01*
X163656175Y-36247102D01*
X163698903Y-36250000D01*
X163900000Y-36250000D01*
X163900000Y-35000000D01*
X162900000Y-35000000D01*
X162900000Y-35451096D01*
X146900500Y-35451096D01*
X146900500Y-34048903D01*
X162900000Y-34048903D01*
X162900000Y-34500000D01*
X163900000Y-34500000D01*
X163900000Y-33250000D01*
X163698903Y-33250000D01*
X163656175Y-33252897D01*
X163471476Y-33298831D01*
X163300977Y-33383390D01*
X163300974Y-33383392D01*
X163152633Y-33502632D01*
X163152632Y-33502633D01*
X163033392Y-33650974D01*
X163033390Y-33650977D01*
X162948831Y-33821476D01*
X162902897Y-34006175D01*
X162900000Y-34048903D01*
X146900500Y-34048903D01*
X146900500Y-30249994D01*
X158345202Y-30249994D01*
X158345202Y-30250005D01*
X158364361Y-30481218D01*
X158421317Y-30706135D01*
X158514515Y-30918606D01*
X158598812Y-31047633D01*
X159185387Y-30461058D01*
X159190889Y-30481591D01*
X159269881Y-30618408D01*
X159381592Y-30730119D01*
X159518409Y-30809111D01*
X159538940Y-30814612D01*
X158951201Y-31402351D01*
X158981649Y-31426050D01*
X159185697Y-31536476D01*
X159185706Y-31536479D01*
X159405139Y-31611811D01*
X159633993Y-31650000D01*
X159866007Y-31650000D01*
X160094860Y-31611811D01*
X160314293Y-31536479D01*
X160314301Y-31536476D01*
X160518355Y-31426047D01*
X160548797Y-31402351D01*
X160548798Y-31402350D01*
X159961060Y-30814612D01*
X159981591Y-30809111D01*
X160118408Y-30730119D01*
X160230119Y-30618408D01*
X160309111Y-30481591D01*
X160314612Y-30461059D01*
X160901186Y-31047633D01*
X160985482Y-30918611D01*
X161078682Y-30706135D01*
X161135638Y-30481218D01*
X161154798Y-30250005D01*
X161154798Y-30249994D01*
X161135638Y-30018781D01*
X161078682Y-29793864D01*
X160985484Y-29581393D01*
X160901186Y-29452365D01*
X160314612Y-30038939D01*
X160309111Y-30018409D01*
X160230119Y-29881592D01*
X160118408Y-29769881D01*
X159981591Y-29690889D01*
X159961058Y-29685387D01*
X160344309Y-29302135D01*
X163349500Y-29302135D01*
X163349500Y-31197870D01*
X163349501Y-31197876D01*
X163355908Y-31257483D01*
X163406202Y-31392328D01*
X163406206Y-31392335D01*
X163492452Y-31507544D01*
X163492455Y-31507547D01*
X163607664Y-31593793D01*
X163607671Y-31593797D01*
X163742517Y-31644091D01*
X163742516Y-31644091D01*
X163749444Y-31644835D01*
X163802127Y-31650500D01*
X164684217Y-31650499D01*
X164751256Y-31670183D01*
X164771898Y-31686818D01*
X166122899Y-33037819D01*
X166156384Y-33099142D01*
X166151400Y-33168834D01*
X166109528Y-33224767D01*
X166044064Y-33249184D01*
X166035221Y-33249500D01*
X165998879Y-33249500D01*
X165998874Y-33249501D01*
X165956113Y-33252399D01*
X165956112Y-33252399D01*
X165771303Y-33298360D01*
X165600707Y-33382967D01*
X165600704Y-33382969D01*
X165457927Y-33497737D01*
X165452278Y-33502278D01*
X165451993Y-33502633D01*
X165396326Y-33571885D01*
X165338982Y-33611803D01*
X165269160Y-33614383D01*
X165209027Y-33578804D01*
X165203031Y-33571884D01*
X165147364Y-33502630D01*
X164999025Y-33383392D01*
X164999022Y-33383390D01*
X164828523Y-33298831D01*
X164643824Y-33252897D01*
X164601097Y-33250000D01*
X164400000Y-33250000D01*
X164400000Y-36250000D01*
X164601097Y-36250000D01*
X164643824Y-36247102D01*
X164828523Y-36201168D01*
X164999022Y-36116609D01*
X164999025Y-36116607D01*
X165147366Y-35997367D01*
X165147367Y-35997366D01*
X165203033Y-35928115D01*
X165260376Y-35888196D01*
X165330198Y-35885616D01*
X165390331Y-35921194D01*
X165396305Y-35928089D01*
X165452278Y-35997722D01*
X165452280Y-35997724D01*
X165600704Y-36117030D01*
X165600707Y-36117032D01*
X165777330Y-36204628D01*
X165776381Y-36206539D01*
X165824397Y-36242113D01*
X165849139Y-36307456D01*
X165849500Y-36316915D01*
X165849500Y-37317587D01*
X165829815Y-37384626D01*
X165822450Y-37394896D01*
X165820186Y-37397734D01*
X165724211Y-37550476D01*
X165664631Y-37720745D01*
X165664630Y-37720750D01*
X165644435Y-37899996D01*
X165644435Y-37900003D01*
X165664630Y-38079249D01*
X165664631Y-38079254D01*
X165724211Y-38249523D01*
X165820185Y-38402263D01*
X165822445Y-38405097D01*
X165823334Y-38407275D01*
X165823889Y-38408158D01*
X165823734Y-38408255D01*
X165848855Y-38469783D01*
X165849500Y-38482412D01*
X165849500Y-39425500D01*
X165829815Y-39492539D01*
X165777011Y-39538294D01*
X165725500Y-39549500D01*
X164991971Y-39549500D01*
X164991965Y-39549500D01*
X164991964Y-39549501D01*
X164980316Y-39550536D01*
X164872584Y-39560113D01*
X164676954Y-39616089D01*
X164602075Y-39655203D01*
X164496593Y-39710302D01*
X164496591Y-39710303D01*
X164496590Y-39710304D01*
X164338890Y-39838890D01*
X164210304Y-39996590D01*
X164210302Y-39996593D01*
X164171568Y-40070745D01*
X164116089Y-40176954D01*
X164071332Y-40333376D01*
X164061002Y-40369481D01*
X164060114Y-40372583D01*
X164060113Y-40372586D01*
X164055075Y-40429255D01*
X164050450Y-40481284D01*
X164049500Y-40491966D01*
X164049500Y-41608028D01*
X164049501Y-41608034D01*
X164060113Y-41727415D01*
X164116089Y-41923045D01*
X164116090Y-41923048D01*
X164116091Y-41923049D01*
X164210302Y-42103407D01*
X164210304Y-42103409D01*
X164338890Y-42261109D01*
X164432803Y-42337684D01*
X164496593Y-42389698D01*
X164676951Y-42483909D01*
X164872582Y-42539886D01*
X164991963Y-42550500D01*
X167908036Y-42550499D01*
X168027418Y-42539886D01*
X168223049Y-42483909D01*
X168403407Y-42389698D01*
X168561109Y-42261109D01*
X168689698Y-42103407D01*
X168783909Y-41923049D01*
X168839886Y-41727418D01*
X168850500Y-41608037D01*
X168850499Y-40491964D01*
X168839886Y-40372582D01*
X168783909Y-40176951D01*
X168689698Y-39996593D01*
X168630872Y-39924449D01*
X168561109Y-39838890D01*
X168403409Y-39710304D01*
X168403410Y-39710304D01*
X168403407Y-39710302D01*
X168223049Y-39616091D01*
X168223048Y-39616090D01*
X168223045Y-39616089D01*
X168070184Y-39572351D01*
X168027418Y-39560114D01*
X168027415Y-39560113D01*
X168027413Y-39560113D01*
X167954631Y-39553642D01*
X167908037Y-39549500D01*
X167908033Y-39549500D01*
X167174500Y-39549500D01*
X167107461Y-39529815D01*
X167061706Y-39477011D01*
X167050500Y-39425500D01*
X167050500Y-38482412D01*
X167070185Y-38415373D01*
X167077555Y-38405097D01*
X167079810Y-38402267D01*
X167079816Y-38402262D01*
X167175789Y-38249522D01*
X167235368Y-38079255D01*
X167244235Y-38000556D01*
X167244298Y-37999996D01*
X188694435Y-37999996D01*
X188694435Y-38000003D01*
X188714630Y-38179249D01*
X188714631Y-38179254D01*
X188774211Y-38349523D01*
X188811054Y-38408158D01*
X188870184Y-38502262D01*
X188997738Y-38629816D01*
X189088080Y-38686582D01*
X189138732Y-38718409D01*
X189150478Y-38725789D01*
X189320745Y-38785368D01*
X189320750Y-38785369D01*
X189499996Y-38805565D01*
X189500000Y-38805565D01*
X189500004Y-38805565D01*
X189679249Y-38785369D01*
X189679252Y-38785368D01*
X189679255Y-38785368D01*
X189849522Y-38725789D01*
X190002262Y-38629816D01*
X190015107Y-38616970D01*
X190076425Y-38583487D01*
X190146117Y-38588469D01*
X190202052Y-38630339D01*
X190226471Y-38695802D01*
X190226022Y-38717881D01*
X190226022Y-38718416D01*
X190246217Y-38897662D01*
X190246218Y-38897667D01*
X190305798Y-39067936D01*
X190345604Y-39131286D01*
X190401771Y-39220675D01*
X190529325Y-39348229D01*
X190682065Y-39444202D01*
X190807733Y-39488175D01*
X190852332Y-39503781D01*
X190852337Y-39503782D01*
X191031583Y-39523978D01*
X191031587Y-39523978D01*
X191031591Y-39523978D01*
X191210836Y-39503782D01*
X191210839Y-39503781D01*
X191210842Y-39503781D01*
X191381109Y-39444202D01*
X191533849Y-39348229D01*
X191661403Y-39220675D01*
X191757376Y-39067935D01*
X191816955Y-38897668D01*
X191816956Y-38897662D01*
X191837152Y-38718416D01*
X191837152Y-38718409D01*
X191816956Y-38539163D01*
X191816955Y-38539158D01*
X191757376Y-38368891D01*
X191661403Y-38216151D01*
X191533849Y-38088597D01*
X191518972Y-38079249D01*
X191381110Y-37992624D01*
X191210841Y-37933044D01*
X191210836Y-37933043D01*
X191031591Y-37912848D01*
X191031583Y-37912848D01*
X190852337Y-37933043D01*
X190852332Y-37933044D01*
X190682063Y-37992624D01*
X190529326Y-38088596D01*
X190516478Y-38101444D01*
X190455154Y-38134927D01*
X190385462Y-38129941D01*
X190329530Y-38088068D01*
X190305115Y-38022603D01*
X190305565Y-38000556D01*
X190305565Y-37999996D01*
X190285369Y-37820750D01*
X190285368Y-37820745D01*
X190225788Y-37650476D01*
X190162955Y-37550478D01*
X190129816Y-37497738D01*
X190002262Y-37370184D01*
X189999458Y-37368422D01*
X189849523Y-37274211D01*
X189679254Y-37214631D01*
X189679249Y-37214630D01*
X189500004Y-37194435D01*
X189499996Y-37194435D01*
X189320750Y-37214630D01*
X189320745Y-37214631D01*
X189150476Y-37274211D01*
X188997737Y-37370184D01*
X188870184Y-37497737D01*
X188774211Y-37650476D01*
X188714631Y-37820745D01*
X188714630Y-37820750D01*
X188694435Y-37999996D01*
X167244298Y-37999996D01*
X167255565Y-37900003D01*
X167255565Y-37899996D01*
X167235369Y-37720750D01*
X167235368Y-37720745D01*
X167175789Y-37550478D01*
X167079816Y-37397738D01*
X167079814Y-37397736D01*
X167079813Y-37397734D01*
X167077550Y-37394896D01*
X167076659Y-37392715D01*
X167076111Y-37391842D01*
X167076264Y-37391745D01*
X167051144Y-37330209D01*
X167050500Y-37317587D01*
X167050500Y-36316915D01*
X167070185Y-36249876D01*
X167122989Y-36204121D01*
X167127112Y-36202424D01*
X167128688Y-36201642D01*
X167128693Y-36201641D01*
X167299296Y-36117030D01*
X167447722Y-35997722D01*
X167503353Y-35928514D01*
X167560696Y-35888595D01*
X167630518Y-35886015D01*
X167690651Y-35921594D01*
X167696647Y-35928514D01*
X167752277Y-35997721D01*
X167752278Y-35997722D01*
X167900704Y-36117030D01*
X167900707Y-36117032D01*
X168071302Y-36201639D01*
X168071303Y-36201639D01*
X168071307Y-36201641D01*
X168256111Y-36247600D01*
X168298877Y-36250500D01*
X169201122Y-36250499D01*
X169208542Y-36249996D01*
X176944435Y-36249996D01*
X176944435Y-36250000D01*
X176964630Y-36429249D01*
X176964631Y-36429254D01*
X177024211Y-36599523D01*
X177095686Y-36713274D01*
X177120184Y-36752262D01*
X177247738Y-36879816D01*
X177400478Y-36975789D01*
X177570745Y-37035368D01*
X177570750Y-37035369D01*
X177749996Y-37055565D01*
X177750000Y-37055565D01*
X177750004Y-37055565D01*
X177929249Y-37035369D01*
X177929252Y-37035368D01*
X177929255Y-37035368D01*
X178099522Y-36975789D01*
X178252262Y-36879816D01*
X178379816Y-36752262D01*
X178475789Y-36599522D01*
X178535368Y-36429255D01*
X178555565Y-36250000D01*
X178555294Y-36247599D01*
X178535369Y-36070750D01*
X178535368Y-36070745D01*
X178509692Y-35997367D01*
X178475789Y-35900478D01*
X178468322Y-35888595D01*
X178436582Y-35838080D01*
X178379816Y-35747738D01*
X178252262Y-35620184D01*
X178219377Y-35599521D01*
X178099523Y-35524211D01*
X177929254Y-35464631D01*
X177929249Y-35464630D01*
X177750004Y-35444435D01*
X177749996Y-35444435D01*
X177570750Y-35464630D01*
X177570745Y-35464631D01*
X177400476Y-35524211D01*
X177247737Y-35620184D01*
X177120184Y-35747737D01*
X177024211Y-35900476D01*
X176964631Y-36070745D01*
X176964630Y-36070750D01*
X176944435Y-36249996D01*
X169208542Y-36249996D01*
X169243889Y-36247600D01*
X169428693Y-36201641D01*
X169599296Y-36117030D01*
X169747722Y-35997722D01*
X169867030Y-35849296D01*
X169951641Y-35678693D01*
X169997600Y-35493889D01*
X170000500Y-35451123D01*
X170000499Y-34048878D01*
X169997600Y-34006111D01*
X169951641Y-33821307D01*
X169949046Y-33816075D01*
X169867032Y-33650707D01*
X169867030Y-33650704D01*
X169747722Y-33502278D01*
X169747721Y-33502277D01*
X169599295Y-33382969D01*
X169599292Y-33382967D01*
X169428697Y-33298360D01*
X169243892Y-33252400D01*
X169208149Y-33249976D01*
X169142596Y-33225799D01*
X169128861Y-33213941D01*
X166186818Y-30271898D01*
X166153333Y-30210575D01*
X166150499Y-30184217D01*
X166150499Y-29302129D01*
X166150498Y-29302123D01*
X166150497Y-29302116D01*
X166144091Y-29242517D01*
X166128419Y-29200499D01*
X166093797Y-29107671D01*
X166093793Y-29107664D01*
X166007547Y-28992455D01*
X166007544Y-28992452D01*
X165892335Y-28906206D01*
X165892328Y-28906202D01*
X165757482Y-28855908D01*
X165757483Y-28855908D01*
X165697883Y-28849501D01*
X165697881Y-28849500D01*
X165697873Y-28849500D01*
X165697864Y-28849500D01*
X163802129Y-28849500D01*
X163802123Y-28849501D01*
X163742516Y-28855908D01*
X163607671Y-28906202D01*
X163607664Y-28906206D01*
X163492455Y-28992452D01*
X163492452Y-28992455D01*
X163406206Y-29107664D01*
X163406202Y-29107671D01*
X163355908Y-29242517D01*
X163349501Y-29302116D01*
X163349501Y-29302123D01*
X163349500Y-29302135D01*
X160344309Y-29302135D01*
X160548797Y-29097647D01*
X160548797Y-29097645D01*
X160518360Y-29073955D01*
X160518354Y-29073951D01*
X160314302Y-28963523D01*
X160314293Y-28963520D01*
X160094860Y-28888188D01*
X159866007Y-28850000D01*
X159633993Y-28850000D01*
X159405139Y-28888188D01*
X159185706Y-28963520D01*
X159185697Y-28963523D01*
X158981650Y-29073949D01*
X158951200Y-29097647D01*
X159538941Y-29685387D01*
X159518409Y-29690889D01*
X159381592Y-29769881D01*
X159269881Y-29881592D01*
X159190889Y-30018409D01*
X159185387Y-30038941D01*
X158598811Y-29452365D01*
X158514516Y-29581390D01*
X158421317Y-29793864D01*
X158364361Y-30018781D01*
X158345202Y-30249994D01*
X146900500Y-30249994D01*
X146900500Y-27749992D01*
X147744671Y-27749992D01*
X147744671Y-27750007D01*
X147763964Y-28044363D01*
X147763965Y-28044373D01*
X147763966Y-28044380D01*
X147814811Y-28300000D01*
X147821518Y-28333716D01*
X147821521Y-28333730D01*
X147916349Y-28613080D01*
X148046825Y-28877660D01*
X148046829Y-28877667D01*
X148210725Y-29122955D01*
X148405241Y-29344758D01*
X148627044Y-29539274D01*
X148853952Y-29690889D01*
X148872335Y-29703172D01*
X149136923Y-29833652D01*
X149416278Y-29928481D01*
X149705620Y-29986034D01*
X149733888Y-29987886D01*
X149999993Y-30005329D01*
X150000000Y-30005329D01*
X150000007Y-30005329D01*
X150235675Y-29989881D01*
X150294380Y-29986034D01*
X150583722Y-29928481D01*
X150863077Y-29833652D01*
X151127665Y-29703172D01*
X151372957Y-29539273D01*
X151594758Y-29344758D01*
X151789273Y-29122957D01*
X151953172Y-28877665D01*
X152083652Y-28613077D01*
X152178481Y-28333722D01*
X152236034Y-28044380D01*
X152246533Y-27884204D01*
X152255329Y-27750007D01*
X152255329Y-27749992D01*
X152237412Y-27476647D01*
X170359500Y-27476647D01*
X170359500Y-28523337D01*
X170359501Y-28523355D01*
X170369650Y-28622707D01*
X170369651Y-28622710D01*
X170422996Y-28783694D01*
X170423001Y-28783705D01*
X170512029Y-28928040D01*
X170512032Y-28928044D01*
X170631955Y-29047967D01*
X170631959Y-29047970D01*
X170776294Y-29136998D01*
X170776297Y-29136999D01*
X170776303Y-29137003D01*
X170937292Y-29190349D01*
X171036655Y-29200500D01*
X171583344Y-29200499D01*
X171583352Y-29200498D01*
X171583355Y-29200498D01*
X171637760Y-29194940D01*
X171682708Y-29190349D01*
X171843697Y-29137003D01*
X171949048Y-29072021D01*
X172016437Y-29053581D01*
X172083032Y-29074457D01*
X172109769Y-29092322D01*
X172282749Y-29163973D01*
X172466374Y-29200498D01*
X172466379Y-29200499D01*
X172466383Y-29200500D01*
X172466384Y-29200500D01*
X172653617Y-29200500D01*
X172653618Y-29200499D01*
X172837251Y-29163973D01*
X173010231Y-29092322D01*
X173031113Y-29078369D01*
X173116109Y-29021577D01*
X173182787Y-29000699D01*
X173250167Y-29019183D01*
X173253891Y-29021577D01*
X173359762Y-29092318D01*
X173359771Y-29092323D01*
X173396808Y-29107664D01*
X173532749Y-29163973D01*
X173716374Y-29200498D01*
X173716379Y-29200499D01*
X173716383Y-29200500D01*
X173716384Y-29200500D01*
X173903617Y-29200500D01*
X173903618Y-29200499D01*
X174087251Y-29163973D01*
X174260231Y-29092322D01*
X174366560Y-29021274D01*
X174433234Y-29000397D01*
X174500614Y-29018881D01*
X174504340Y-29021275D01*
X174610000Y-29091875D01*
X174610012Y-29091882D01*
X174782889Y-29163489D01*
X174782896Y-29163491D01*
X174810000Y-29168882D01*
X174810000Y-28166988D01*
X174819940Y-28184205D01*
X174875795Y-28240060D01*
X174944204Y-28279556D01*
X175020504Y-28300000D01*
X175099496Y-28300000D01*
X175175796Y-28279556D01*
X175244205Y-28240060D01*
X175300060Y-28184205D01*
X175310000Y-28166988D01*
X175310000Y-29168881D01*
X175337103Y-29163491D01*
X175337110Y-29163489D01*
X175509987Y-29091882D01*
X175510000Y-29091875D01*
X175516605Y-29087462D01*
X175583282Y-29066581D01*
X175650663Y-29085063D01*
X175697355Y-29137040D01*
X175709500Y-29190561D01*
X175709500Y-32639902D01*
X175689815Y-32706941D01*
X175673181Y-32727583D01*
X175231465Y-33169298D01*
X175170142Y-33202783D01*
X175157668Y-33204837D01*
X175070750Y-33214630D01*
X174900478Y-33274210D01*
X174747737Y-33370184D01*
X174620184Y-33497737D01*
X174524211Y-33650476D01*
X174464631Y-33820745D01*
X174464630Y-33820750D01*
X174444435Y-33999996D01*
X174444435Y-34000003D01*
X174464630Y-34179249D01*
X174464631Y-34179254D01*
X174524211Y-34349523D01*
X174618763Y-34500000D01*
X174620184Y-34502262D01*
X174747738Y-34629816D01*
X174900478Y-34725789D01*
X174963202Y-34747737D01*
X175070745Y-34785368D01*
X175070750Y-34785369D01*
X175249996Y-34805565D01*
X175250000Y-34805565D01*
X175250004Y-34805565D01*
X175429249Y-34785369D01*
X175429252Y-34785368D01*
X175429255Y-34785368D01*
X175599522Y-34725789D01*
X175752262Y-34629816D01*
X175879816Y-34502262D01*
X175975789Y-34349522D01*
X176035368Y-34179255D01*
X176045161Y-34092329D01*
X176072226Y-34027918D01*
X176080690Y-34018543D01*
X176099237Y-33999996D01*
X188194435Y-33999996D01*
X188194435Y-34000003D01*
X188214630Y-34179249D01*
X188214631Y-34179254D01*
X188274211Y-34349523D01*
X188307098Y-34401861D01*
X188346539Y-34464632D01*
X188370185Y-34502263D01*
X188372445Y-34505097D01*
X188373334Y-34507275D01*
X188373889Y-34508158D01*
X188373734Y-34508255D01*
X188398855Y-34569783D01*
X188399500Y-34582412D01*
X188399500Y-34663330D01*
X188399499Y-34663348D01*
X188399499Y-34829054D01*
X188399498Y-34829054D01*
X188440423Y-34981785D01*
X188461457Y-35018216D01*
X188491784Y-35070745D01*
X188519479Y-35118715D01*
X188631284Y-35230520D01*
X188631285Y-35230522D01*
X188669298Y-35268535D01*
X188702783Y-35329858D01*
X188704837Y-35342332D01*
X188714630Y-35429249D01*
X188774210Y-35599521D01*
X188823957Y-35678693D01*
X188870184Y-35752262D01*
X188997738Y-35879816D01*
X189150478Y-35975789D01*
X189213159Y-35997722D01*
X189320745Y-36035368D01*
X189320750Y-36035369D01*
X189499996Y-36055565D01*
X189500000Y-36055565D01*
X189500004Y-36055565D01*
X189679249Y-36035369D01*
X189679252Y-36035368D01*
X189679255Y-36035368D01*
X189849522Y-35975789D01*
X190002262Y-35879816D01*
X190129816Y-35752262D01*
X190225789Y-35599522D01*
X190285368Y-35429255D01*
X190295162Y-35342332D01*
X190305565Y-35250003D01*
X190305565Y-35249996D01*
X190285369Y-35070750D01*
X190285368Y-35070745D01*
X190260613Y-35000000D01*
X190225789Y-34900478D01*
X190129816Y-34747738D01*
X190002262Y-34620184D01*
X189849522Y-34524211D01*
X189849519Y-34524209D01*
X189801868Y-34507535D01*
X189745092Y-34466814D01*
X189719345Y-34401861D01*
X189725782Y-34349538D01*
X189725785Y-34349527D01*
X189725789Y-34349522D01*
X189785368Y-34179255D01*
X189800058Y-34048877D01*
X189805565Y-34000003D01*
X189805565Y-33999996D01*
X189785369Y-33820750D01*
X189785368Y-33820745D01*
X189725789Y-33650478D01*
X189629816Y-33497738D01*
X189502262Y-33370184D01*
X189425613Y-33322022D01*
X189349523Y-33274211D01*
X189179254Y-33214631D01*
X189179249Y-33214630D01*
X189000004Y-33194435D01*
X188999996Y-33194435D01*
X188820750Y-33214630D01*
X188820745Y-33214631D01*
X188650476Y-33274211D01*
X188497737Y-33370184D01*
X188370184Y-33497737D01*
X188274211Y-33650476D01*
X188214631Y-33820745D01*
X188214630Y-33820750D01*
X188194435Y-33999996D01*
X176099237Y-33999996D01*
X176668506Y-33430728D01*
X176668511Y-33430724D01*
X176678714Y-33420520D01*
X176678716Y-33420520D01*
X176790520Y-33308716D01*
X176869577Y-33171784D01*
X176910500Y-33019057D01*
X176910500Y-31474234D01*
X186579500Y-31474234D01*
X186579500Y-31625766D01*
X186591401Y-31670183D01*
X186618719Y-31772136D01*
X186656602Y-31837750D01*
X186694485Y-31903365D01*
X186801635Y-32010515D01*
X186932865Y-32086281D01*
X187079234Y-32125500D01*
X187079236Y-32125500D01*
X187230764Y-32125500D01*
X187230766Y-32125500D01*
X187377135Y-32086281D01*
X187508365Y-32010515D01*
X187615515Y-31903365D01*
X187691281Y-31772135D01*
X187730500Y-31625766D01*
X187730500Y-31474234D01*
X192579500Y-31474234D01*
X192579500Y-31625766D01*
X192591401Y-31670183D01*
X192618719Y-31772136D01*
X192656602Y-31837750D01*
X192694485Y-31903365D01*
X192801635Y-32010515D01*
X192932865Y-32086281D01*
X193079234Y-32125500D01*
X193079236Y-32125500D01*
X193230764Y-32125500D01*
X193230766Y-32125500D01*
X193377135Y-32086281D01*
X193508365Y-32010515D01*
X193612501Y-31906379D01*
X198299500Y-31906379D01*
X198299500Y-32593620D01*
X198336025Y-32777243D01*
X198336027Y-32777251D01*
X198407676Y-32950228D01*
X198407681Y-32950237D01*
X198511697Y-33105907D01*
X198511700Y-33105911D01*
X198644088Y-33238299D01*
X198644092Y-33238302D01*
X198799762Y-33342318D01*
X198799768Y-33342321D01*
X198799769Y-33342322D01*
X198972749Y-33413973D01*
X199156374Y-33450498D01*
X199156379Y-33450499D01*
X199156383Y-33450500D01*
X199156384Y-33450500D01*
X199343617Y-33450500D01*
X199343618Y-33450499D01*
X199527251Y-33413973D01*
X199700231Y-33342322D01*
X199700901Y-33341874D01*
X199806109Y-33271577D01*
X199872787Y-33250699D01*
X199940167Y-33269183D01*
X199943891Y-33271577D01*
X200049762Y-33342318D01*
X200049768Y-33342321D01*
X200049769Y-33342322D01*
X200222749Y-33413973D01*
X200406374Y-33450498D01*
X200406379Y-33450499D01*
X200406383Y-33450500D01*
X200406384Y-33450500D01*
X200593617Y-33450500D01*
X200593618Y-33450499D01*
X200777251Y-33413973D01*
X200950231Y-33342322D01*
X200950901Y-33341874D01*
X201056109Y-33271577D01*
X201122787Y-33250699D01*
X201190167Y-33269183D01*
X201193891Y-33271577D01*
X201299762Y-33342318D01*
X201299768Y-33342321D01*
X201299769Y-33342322D01*
X201472749Y-33413973D01*
X201656374Y-33450498D01*
X201656379Y-33450499D01*
X201656383Y-33450500D01*
X201656384Y-33450500D01*
X201843617Y-33450500D01*
X201843618Y-33450499D01*
X202027251Y-33413973D01*
X202200231Y-33342322D01*
X202200901Y-33341874D01*
X202306109Y-33271577D01*
X202372787Y-33250699D01*
X202440167Y-33269183D01*
X202443891Y-33271577D01*
X202549762Y-33342318D01*
X202549768Y-33342321D01*
X202549769Y-33342322D01*
X202722749Y-33413973D01*
X202906374Y-33450498D01*
X202906379Y-33450499D01*
X202906383Y-33450500D01*
X202906384Y-33450500D01*
X203093617Y-33450500D01*
X203093618Y-33450499D01*
X203277251Y-33413973D01*
X203450231Y-33342322D01*
X203450901Y-33341874D01*
X203556109Y-33271577D01*
X203622787Y-33250699D01*
X203690167Y-33269183D01*
X203693891Y-33271577D01*
X203799762Y-33342318D01*
X203799768Y-33342321D01*
X203799769Y-33342322D01*
X203972749Y-33413973D01*
X204156374Y-33450498D01*
X204156379Y-33450499D01*
X204156383Y-33450500D01*
X204156384Y-33450500D01*
X204343617Y-33450500D01*
X204343618Y-33450499D01*
X204527251Y-33413973D01*
X204700231Y-33342322D01*
X204806560Y-33271274D01*
X204873234Y-33250397D01*
X204940614Y-33268881D01*
X204944340Y-33271275D01*
X205050000Y-33341875D01*
X205050012Y-33341882D01*
X205222889Y-33413489D01*
X205222896Y-33413491D01*
X205250000Y-33418882D01*
X205250000Y-32416988D01*
X205259940Y-32434205D01*
X205315795Y-32490060D01*
X205384204Y-32529556D01*
X205460504Y-32550000D01*
X205539496Y-32550000D01*
X205615796Y-32529556D01*
X205684205Y-32490060D01*
X205740060Y-32434205D01*
X205750000Y-32416988D01*
X205750000Y-33418881D01*
X205777103Y-33413491D01*
X205777110Y-33413489D01*
X205949987Y-33341882D01*
X205950001Y-33341874D01*
X206055657Y-33271276D01*
X206122334Y-33250397D01*
X206189714Y-33268881D01*
X206193429Y-33271268D01*
X206299769Y-33342322D01*
X206472749Y-33413973D01*
X206656374Y-33450498D01*
X206656379Y-33450499D01*
X206656383Y-33450500D01*
X206656384Y-33450500D01*
X206843617Y-33450500D01*
X206843618Y-33450499D01*
X207027251Y-33413973D01*
X207200231Y-33342322D01*
X207226964Y-33324459D01*
X207293638Y-33303580D01*
X207360952Y-33322021D01*
X207439035Y-33370184D01*
X207459764Y-33382970D01*
X207466303Y-33387003D01*
X207627292Y-33440349D01*
X207726655Y-33450500D01*
X208273344Y-33450499D01*
X208273352Y-33450498D01*
X208273355Y-33450498D01*
X208327760Y-33444940D01*
X208372708Y-33440349D01*
X208533697Y-33387003D01*
X208678044Y-33297968D01*
X208797968Y-33178044D01*
X208887003Y-33033697D01*
X208940349Y-32872708D01*
X208950500Y-32773345D01*
X208950499Y-31726656D01*
X208942719Y-31650498D01*
X208940349Y-31627292D01*
X208940348Y-31627289D01*
X208929250Y-31593797D01*
X208887003Y-31466303D01*
X208886999Y-31466297D01*
X208886998Y-31466294D01*
X208797970Y-31321959D01*
X208797967Y-31321955D01*
X208678044Y-31202032D01*
X208678040Y-31202029D01*
X208533705Y-31113001D01*
X208533699Y-31112998D01*
X208533697Y-31112997D01*
X208453752Y-31086506D01*
X208372709Y-31059651D01*
X208273346Y-31049500D01*
X207726662Y-31049500D01*
X207726644Y-31049501D01*
X207627292Y-31059650D01*
X207627289Y-31059651D01*
X207466305Y-31112996D01*
X207466300Y-31112998D01*
X207360953Y-31177978D01*
X207293560Y-31196418D01*
X207226965Y-31175541D01*
X207200230Y-31157677D01*
X207027251Y-31086027D01*
X207027243Y-31086025D01*
X206843620Y-31049500D01*
X206843616Y-31049500D01*
X206656384Y-31049500D01*
X206656379Y-31049500D01*
X206472756Y-31086025D01*
X206472748Y-31086027D01*
X206299771Y-31157676D01*
X206299757Y-31157684D01*
X206193440Y-31228723D01*
X206126763Y-31249601D01*
X206059383Y-31231116D01*
X206055660Y-31228723D01*
X205950005Y-31158127D01*
X205949991Y-31158119D01*
X205777103Y-31086507D01*
X205777100Y-31086506D01*
X205750000Y-31081115D01*
X205750000Y-32083011D01*
X205740060Y-32065795D01*
X205684205Y-32009940D01*
X205615796Y-31970444D01*
X205539496Y-31950000D01*
X205460504Y-31950000D01*
X205384204Y-31970444D01*
X205315795Y-32009940D01*
X205259940Y-32065795D01*
X205250000Y-32083011D01*
X205250000Y-31081116D01*
X205249999Y-31081115D01*
X205222899Y-31086506D01*
X205222896Y-31086507D01*
X205050008Y-31158119D01*
X205049994Y-31158127D01*
X204944340Y-31228723D01*
X204877663Y-31249601D01*
X204810283Y-31231116D01*
X204806560Y-31228723D01*
X204700242Y-31157684D01*
X204700228Y-31157676D01*
X204527251Y-31086027D01*
X204527243Y-31086025D01*
X204343620Y-31049500D01*
X204343616Y-31049500D01*
X204156384Y-31049500D01*
X204156379Y-31049500D01*
X203972756Y-31086025D01*
X203972748Y-31086027D01*
X203799771Y-31157676D01*
X203799764Y-31157680D01*
X203693890Y-31228423D01*
X203627213Y-31249300D01*
X203559833Y-31230815D01*
X203556110Y-31228423D01*
X203450235Y-31157680D01*
X203450228Y-31157676D01*
X203277251Y-31086027D01*
X203277243Y-31086025D01*
X203093620Y-31049500D01*
X203093616Y-31049500D01*
X202906384Y-31049500D01*
X202906379Y-31049500D01*
X202722756Y-31086025D01*
X202722748Y-31086027D01*
X202549771Y-31157676D01*
X202549764Y-31157680D01*
X202443890Y-31228423D01*
X202377213Y-31249300D01*
X202309833Y-31230815D01*
X202306110Y-31228423D01*
X202200235Y-31157680D01*
X202200228Y-31157676D01*
X202027251Y-31086027D01*
X202027243Y-31086025D01*
X201843620Y-31049500D01*
X201843616Y-31049500D01*
X201656384Y-31049500D01*
X201656379Y-31049500D01*
X201472756Y-31086025D01*
X201472748Y-31086027D01*
X201299771Y-31157676D01*
X201299764Y-31157680D01*
X201193890Y-31228423D01*
X201127213Y-31249300D01*
X201059833Y-31230815D01*
X201056110Y-31228423D01*
X200950235Y-31157680D01*
X200950228Y-31157676D01*
X200777251Y-31086027D01*
X200777243Y-31086025D01*
X200593620Y-31049500D01*
X200593616Y-31049500D01*
X200406384Y-31049500D01*
X200406379Y-31049500D01*
X200222756Y-31086025D01*
X200222748Y-31086027D01*
X200049771Y-31157676D01*
X200049764Y-31157680D01*
X199943890Y-31228423D01*
X199877213Y-31249300D01*
X199809833Y-31230815D01*
X199806110Y-31228423D01*
X199700235Y-31157680D01*
X199700228Y-31157676D01*
X199527251Y-31086027D01*
X199527243Y-31086025D01*
X199343620Y-31049500D01*
X199343616Y-31049500D01*
X199156384Y-31049500D01*
X199156379Y-31049500D01*
X198972756Y-31086025D01*
X198972748Y-31086027D01*
X198799771Y-31157676D01*
X198799762Y-31157681D01*
X198644092Y-31261697D01*
X198644088Y-31261700D01*
X198511700Y-31394088D01*
X198511697Y-31394092D01*
X198407681Y-31549762D01*
X198407676Y-31549771D01*
X198336027Y-31722748D01*
X198336025Y-31722756D01*
X198299500Y-31906379D01*
X193612501Y-31906379D01*
X193615515Y-31903365D01*
X193691281Y-31772135D01*
X193730500Y-31625766D01*
X193730500Y-31474234D01*
X193691281Y-31327865D01*
X193687869Y-31321956D01*
X193653079Y-31261698D01*
X193615515Y-31196635D01*
X193508365Y-31089485D01*
X193435876Y-31047633D01*
X193377136Y-31013719D01*
X193303950Y-30994109D01*
X193230766Y-30974500D01*
X193079234Y-30974500D01*
X192932863Y-31013719D01*
X192801635Y-31089485D01*
X192801632Y-31089487D01*
X192694487Y-31196632D01*
X192694485Y-31196635D01*
X192618719Y-31327863D01*
X192592411Y-31426050D01*
X192579500Y-31474234D01*
X187730500Y-31474234D01*
X187691281Y-31327865D01*
X187687869Y-31321956D01*
X187653079Y-31261698D01*
X187615515Y-31196635D01*
X187508365Y-31089485D01*
X187435876Y-31047633D01*
X187377136Y-31013719D01*
X187303950Y-30994109D01*
X187230766Y-30974500D01*
X187079234Y-30974500D01*
X186932863Y-31013719D01*
X186801635Y-31089485D01*
X186801632Y-31089487D01*
X186694487Y-31196632D01*
X186694485Y-31196635D01*
X186618719Y-31327863D01*
X186592411Y-31426050D01*
X186579500Y-31474234D01*
X176910500Y-31474234D01*
X176910500Y-29191163D01*
X176930185Y-29124124D01*
X176982989Y-29078369D01*
X177052147Y-29068425D01*
X177103391Y-29088061D01*
X177109762Y-29092318D01*
X177109771Y-29092323D01*
X177146808Y-29107664D01*
X177282749Y-29163973D01*
X177466374Y-29200498D01*
X177466379Y-29200499D01*
X177466383Y-29200500D01*
X177466384Y-29200500D01*
X177653617Y-29200500D01*
X177653618Y-29200499D01*
X177837251Y-29163973D01*
X178010231Y-29092322D01*
X178031113Y-29078369D01*
X178116109Y-29021577D01*
X178182787Y-29000699D01*
X178250167Y-29019183D01*
X178253891Y-29021577D01*
X178359762Y-29092318D01*
X178359771Y-29092323D01*
X178396808Y-29107664D01*
X178532749Y-29163973D01*
X178716374Y-29200498D01*
X178716379Y-29200499D01*
X178716383Y-29200500D01*
X178716384Y-29200500D01*
X178903617Y-29200500D01*
X178903618Y-29200499D01*
X179087251Y-29163973D01*
X179260231Y-29092322D01*
X179281113Y-29078369D01*
X179366109Y-29021577D01*
X179432787Y-29000699D01*
X179500167Y-29019183D01*
X179503891Y-29021577D01*
X179609762Y-29092318D01*
X179609771Y-29092323D01*
X179646808Y-29107664D01*
X179782749Y-29163973D01*
X179966374Y-29200498D01*
X179966379Y-29200499D01*
X179966383Y-29200500D01*
X179966384Y-29200500D01*
X180153617Y-29200500D01*
X180153618Y-29200499D01*
X180337251Y-29163973D01*
X180510231Y-29092322D01*
X180665908Y-28988302D01*
X180798302Y-28855908D01*
X180902322Y-28700231D01*
X180973973Y-28527251D01*
X181010500Y-28343616D01*
X181010500Y-27749992D01*
X205244671Y-27749992D01*
X205244671Y-27750007D01*
X205263964Y-28044363D01*
X205263965Y-28044373D01*
X205263966Y-28044380D01*
X205314811Y-28300000D01*
X205321518Y-28333716D01*
X205321521Y-28333730D01*
X205416349Y-28613080D01*
X205546825Y-28877660D01*
X205546829Y-28877667D01*
X205710725Y-29122955D01*
X205905241Y-29344758D01*
X206127044Y-29539274D01*
X206353952Y-29690889D01*
X206372335Y-29703172D01*
X206636923Y-29833652D01*
X206916278Y-29928481D01*
X207205620Y-29986034D01*
X207233888Y-29987886D01*
X207499993Y-30005329D01*
X207500000Y-30005329D01*
X207500007Y-30005329D01*
X207735675Y-29989881D01*
X207794380Y-29986034D01*
X208083722Y-29928481D01*
X208363077Y-29833652D01*
X208627665Y-29703172D01*
X208872957Y-29539273D01*
X209094758Y-29344758D01*
X209289273Y-29122957D01*
X209453172Y-28877665D01*
X209583652Y-28613077D01*
X209678481Y-28333722D01*
X209736034Y-28044380D01*
X209746533Y-27884204D01*
X209755329Y-27750007D01*
X209755329Y-27749992D01*
X209736035Y-27455636D01*
X209736034Y-27455620D01*
X209678481Y-27166278D01*
X209583652Y-26886923D01*
X209453172Y-26622336D01*
X209289273Y-26377043D01*
X209246655Y-26328447D01*
X209094758Y-26155241D01*
X208872955Y-25960725D01*
X208627667Y-25796829D01*
X208627660Y-25796825D01*
X208363080Y-25666349D01*
X208083730Y-25571521D01*
X208083724Y-25571519D01*
X208083722Y-25571519D01*
X207794380Y-25513966D01*
X207794373Y-25513965D01*
X207794363Y-25513964D01*
X207500007Y-25494671D01*
X207499993Y-25494671D01*
X207205636Y-25513964D01*
X207205624Y-25513965D01*
X207205620Y-25513966D01*
X207205612Y-25513967D01*
X207205609Y-25513968D01*
X206916283Y-25571518D01*
X206916269Y-25571521D01*
X206636919Y-25666349D01*
X206372334Y-25796828D01*
X206127041Y-25960728D01*
X205905241Y-26155241D01*
X205710728Y-26377041D01*
X205546828Y-26622334D01*
X205416349Y-26886919D01*
X205321521Y-27166269D01*
X205321518Y-27166283D01*
X205263968Y-27455609D01*
X205263964Y-27455636D01*
X205244671Y-27749992D01*
X181010500Y-27749992D01*
X181010500Y-27656384D01*
X180973973Y-27472749D01*
X180902322Y-27299769D01*
X180902321Y-27299768D01*
X180902318Y-27299762D01*
X180798302Y-27144092D01*
X180798299Y-27144088D01*
X180665911Y-27011700D01*
X180665907Y-27011697D01*
X180510237Y-26907681D01*
X180510228Y-26907676D01*
X180337251Y-26836027D01*
X180337243Y-26836025D01*
X180153620Y-26799500D01*
X180153616Y-26799500D01*
X179966384Y-26799500D01*
X179966379Y-26799500D01*
X179782756Y-26836025D01*
X179782748Y-26836027D01*
X179609771Y-26907676D01*
X179609764Y-26907680D01*
X179503890Y-26978423D01*
X179437213Y-26999300D01*
X179369833Y-26980815D01*
X179366110Y-26978423D01*
X179260235Y-26907680D01*
X179260228Y-26907676D01*
X179087251Y-26836027D01*
X179087243Y-26836025D01*
X178903620Y-26799500D01*
X178903616Y-26799500D01*
X178716384Y-26799500D01*
X178716379Y-26799500D01*
X178532756Y-26836025D01*
X178532748Y-26836027D01*
X178359771Y-26907676D01*
X178359764Y-26907680D01*
X178253890Y-26978423D01*
X178187213Y-26999300D01*
X178119833Y-26980815D01*
X178116110Y-26978423D01*
X178010235Y-26907680D01*
X178010228Y-26907676D01*
X177837251Y-26836027D01*
X177837243Y-26836025D01*
X177653620Y-26799500D01*
X177653616Y-26799500D01*
X177466384Y-26799500D01*
X177466379Y-26799500D01*
X177282756Y-26836025D01*
X177282748Y-26836027D01*
X177109771Y-26907676D01*
X177109764Y-26907680D01*
X177003890Y-26978423D01*
X176937213Y-26999300D01*
X176869833Y-26980815D01*
X176866110Y-26978423D01*
X176760235Y-26907680D01*
X176760228Y-26907676D01*
X176587251Y-26836027D01*
X176587243Y-26836025D01*
X176403620Y-26799500D01*
X176403616Y-26799500D01*
X176216384Y-26799500D01*
X176216379Y-26799500D01*
X176032756Y-26836025D01*
X176032748Y-26836027D01*
X175859771Y-26907676D01*
X175859757Y-26907684D01*
X175753440Y-26978723D01*
X175686763Y-26999601D01*
X175619383Y-26981116D01*
X175615660Y-26978723D01*
X175510005Y-26908127D01*
X175509991Y-26908119D01*
X175337103Y-26836507D01*
X175337100Y-26836506D01*
X175310000Y-26831115D01*
X175310000Y-27833011D01*
X175300060Y-27815795D01*
X175244205Y-27759940D01*
X175175796Y-27720444D01*
X175099496Y-27700000D01*
X175020504Y-27700000D01*
X174944204Y-27720444D01*
X174875795Y-27759940D01*
X174819940Y-27815795D01*
X174810000Y-27833011D01*
X174810000Y-26831116D01*
X174809999Y-26831115D01*
X174782899Y-26836506D01*
X174782896Y-26836507D01*
X174610008Y-26908119D01*
X174609994Y-26908127D01*
X174504340Y-26978723D01*
X174437663Y-26999601D01*
X174370283Y-26981116D01*
X174366560Y-26978723D01*
X174260242Y-26907684D01*
X174260228Y-26907676D01*
X174087251Y-26836027D01*
X174087243Y-26836025D01*
X173903620Y-26799500D01*
X173903616Y-26799500D01*
X173716384Y-26799500D01*
X173716379Y-26799500D01*
X173532756Y-26836025D01*
X173532748Y-26836027D01*
X173359771Y-26907676D01*
X173359764Y-26907680D01*
X173253890Y-26978423D01*
X173187213Y-26999300D01*
X173119833Y-26980815D01*
X173116110Y-26978423D01*
X173010235Y-26907680D01*
X173010228Y-26907676D01*
X172837251Y-26836027D01*
X172837243Y-26836025D01*
X172653620Y-26799500D01*
X172653616Y-26799500D01*
X172466384Y-26799500D01*
X172466379Y-26799500D01*
X172282756Y-26836025D01*
X172282748Y-26836027D01*
X172109767Y-26907678D01*
X172083032Y-26925542D01*
X172016354Y-26946419D01*
X171949046Y-26927977D01*
X171843705Y-26863001D01*
X171843699Y-26862998D01*
X171843697Y-26862997D01*
X171763752Y-26836506D01*
X171682709Y-26809651D01*
X171583346Y-26799500D01*
X171036662Y-26799500D01*
X171036644Y-26799501D01*
X170937292Y-26809650D01*
X170937289Y-26809651D01*
X170776305Y-26862996D01*
X170776294Y-26863001D01*
X170631959Y-26952029D01*
X170631955Y-26952032D01*
X170512032Y-27071955D01*
X170512029Y-27071959D01*
X170423001Y-27216294D01*
X170422996Y-27216305D01*
X170369651Y-27377290D01*
X170359500Y-27476647D01*
X152237412Y-27476647D01*
X152236035Y-27455636D01*
X152236034Y-27455620D01*
X152178481Y-27166278D01*
X152083652Y-26886923D01*
X151953172Y-26622336D01*
X151789273Y-26377043D01*
X151746655Y-26328447D01*
X151594758Y-26155241D01*
X151372955Y-25960725D01*
X151127667Y-25796829D01*
X151127660Y-25796825D01*
X150863080Y-25666349D01*
X150583730Y-25571521D01*
X150583724Y-25571519D01*
X150583722Y-25571519D01*
X150294380Y-25513966D01*
X150294373Y-25513965D01*
X150294363Y-25513964D01*
X150000007Y-25494671D01*
X149999993Y-25494671D01*
X149705636Y-25513964D01*
X149705624Y-25513965D01*
X149705620Y-25513966D01*
X149705612Y-25513967D01*
X149705609Y-25513968D01*
X149416283Y-25571518D01*
X149416269Y-25571521D01*
X149136919Y-25666349D01*
X148872334Y-25796828D01*
X148627041Y-25960728D01*
X148405241Y-26155241D01*
X148210728Y-26377041D01*
X148046828Y-26622334D01*
X147916349Y-26886919D01*
X147821521Y-27166269D01*
X147821518Y-27166283D01*
X147763968Y-27455609D01*
X147763964Y-27455636D01*
X147744671Y-27749992D01*
X146900500Y-27749992D01*
X146900500Y-24224500D01*
X146920185Y-24157461D01*
X146972989Y-24111706D01*
X147024500Y-24100500D01*
X211075500Y-24100500D01*
X211142539Y-24120185D01*
G37*
%TD.AperFunction*%
%TD*%
M02*
