%TF.GenerationSoftware,KiCad,Pcbnew,8.0.6*%
%TF.CreationDate,2026-03-23T17:40:54+00:00*%
%TF.ProjectId,AIS IREC 2026 FC,41495320-4952-4454-9320-323032362046,1*%
%TF.SameCoordinates,Original*%
%TF.FileFunction,Paste,Bot*%
%TF.FilePolarity,Positive*%
%FSLAX46Y46*%
G04 Gerber Fmt 4.6, Leading zero omitted, Abs format (unit mm)*
G04 Created by KiCad (PCBNEW 8.0.6) date 2026-03-23 17:40:54*
%MOMM*%
%LPD*%
G01*
G04 APERTURE LIST*
G04 Aperture macros list*
%AMRoundRect*
0 Rectangle with rounded corners*
0 $1 Rounding radius*
0 $2 $3 $4 $5 $6 $7 $8 $9 X,Y pos of 4 corners*
0 Add a 4 corners polygon primitive as box body*
4,1,4,$2,$3,$4,$5,$6,$7,$8,$9,$2,$3,0*
0 Add four circle primitives for the rounded corners*
1,1,$1+$1,$2,$3*
1,1,$1+$1,$4,$5*
1,1,$1+$1,$6,$7*
1,1,$1+$1,$8,$9*
0 Add four rect primitives between the rounded corners*
20,1,$1+$1,$2,$3,$4,$5,0*
20,1,$1+$1,$4,$5,$6,$7,0*
20,1,$1+$1,$6,$7,$8,$9,0*
20,1,$1+$1,$8,$9,$2,$3,0*%
G04 Aperture macros list end*
%ADD10R,0.420000X0.460000*%
%ADD11R,1.150000X0.600000*%
%ADD12R,1.050000X0.950000*%
%ADD13R,0.300000X1.300000*%
%ADD14R,0.180000X0.230000*%
%ADD15RoundRect,0.375000X-0.375000X0.625000X-0.375000X-0.625000X0.375000X-0.625000X0.375000X0.625000X0*%
%ADD16RoundRect,0.500000X-1.400000X0.500000X-1.400000X-0.500000X1.400000X-0.500000X1.400000X0.500000X0*%
%ADD17R,0.230000X0.180000*%
%ADD18R,0.850000X0.530000*%
%ADD19R,0.350000X0.530000*%
%ADD20R,1.600000X1.800000*%
%ADD21R,0.950000X0.550000*%
%ADD22R,0.350000X0.250000*%
%ADD23R,0.850000X0.300000*%
%ADD24R,0.300000X0.850000*%
%ADD25R,3.700000X3.700000*%
%ADD26R,2.100000X1.700000*%
G04 APERTURE END LIST*
D10*
%TO.C,C21*%
X159750000Y-47500000D03*
X159750000Y-48160000D03*
%TD*%
D11*
%TO.C,Q1*%
X173625000Y-44575000D03*
X173625000Y-42675000D03*
X175825000Y-43625000D03*
%TD*%
D12*
%TO.C,U2*%
X175825000Y-51075000D03*
X173975000Y-51075000D03*
X173975000Y-49625000D03*
X175825000Y-49625000D03*
%TD*%
D13*
%TO.C,IC2*%
X192750000Y-38300000D03*
X193250000Y-38300000D03*
X193750000Y-38300000D03*
X194250000Y-38300000D03*
X194750000Y-38300000D03*
X195250000Y-38300000D03*
X195750000Y-38300000D03*
X196250000Y-38300000D03*
X196750000Y-38300000D03*
X197250000Y-38300000D03*
X197750000Y-38300000D03*
X198250000Y-38300000D03*
X198750000Y-38300000D03*
X199250000Y-38300000D03*
X199750000Y-38300000D03*
X200250000Y-38300000D03*
X200750000Y-38300000D03*
X201250000Y-38300000D03*
X201750000Y-38300000D03*
X202250000Y-38300000D03*
X202750000Y-38300000D03*
X203250000Y-38300000D03*
X203750000Y-38300000D03*
X204250000Y-38300000D03*
X204250000Y-58000000D03*
X203750000Y-58000000D03*
X203250000Y-58000000D03*
X202750000Y-58000000D03*
X202250000Y-58000000D03*
X201750000Y-58000000D03*
X201250000Y-58000000D03*
X200750000Y-58000000D03*
X200250000Y-58000000D03*
X199750000Y-58000000D03*
X199250000Y-58000000D03*
X198750000Y-58000000D03*
X198250000Y-58000000D03*
X197750000Y-58000000D03*
X197250000Y-58000000D03*
X196750000Y-58000000D03*
X196250000Y-58000000D03*
X195750000Y-58000000D03*
X195250000Y-58000000D03*
X194750000Y-58000000D03*
X194250000Y-58000000D03*
X193750000Y-58000000D03*
X193250000Y-58000000D03*
X192750000Y-58000000D03*
%TD*%
D14*
%TO.C,C7*%
X189370000Y-44075000D03*
X189750000Y-44075000D03*
%TD*%
D15*
%TO.C,U4*%
X164150000Y-34750000D03*
X166450000Y-34750000D03*
D16*
X166450000Y-41050000D03*
D15*
X168750000Y-34750000D03*
%TD*%
D14*
%TO.C,C1*%
X170205000Y-53075000D03*
X169825000Y-53075000D03*
%TD*%
%TO.C,C16*%
X170325000Y-46575000D03*
X169945000Y-46575000D03*
%TD*%
D17*
%TO.C,C23*%
X171500000Y-42500000D03*
X171500000Y-42120000D03*
%TD*%
D18*
%TO.C,Q2*%
X155650000Y-44565000D03*
D19*
X156400000Y-44565000D03*
X156400000Y-47335000D03*
D18*
X155650000Y-47335000D03*
D20*
X155900000Y-45950000D03*
%TD*%
D21*
%TO.C,U5*%
X163425000Y-56850000D03*
X163425000Y-55600000D03*
X163425000Y-54350000D03*
X163425000Y-53100000D03*
X165575000Y-53100000D03*
X165575000Y-54350000D03*
X165575000Y-55600000D03*
X165575000Y-56850000D03*
%TD*%
D22*
%TO.C,C19*%
X185075000Y-55750000D03*
X185075000Y-55276000D03*
%TD*%
D14*
%TO.C,C14*%
X170325000Y-49075000D03*
X169945000Y-49075000D03*
%TD*%
D23*
%TO.C,IC1*%
X161050000Y-49525000D03*
X161050000Y-49025000D03*
X161050000Y-48525000D03*
X161050000Y-48025000D03*
X161050000Y-47525000D03*
X161050000Y-47025000D03*
X161050000Y-46525000D03*
X161050000Y-46025000D03*
D24*
X161750000Y-45325000D03*
X162250000Y-45325000D03*
X162750000Y-45325000D03*
X163250000Y-45325000D03*
X163750000Y-45325000D03*
X164250000Y-45325000D03*
X164750000Y-45325000D03*
X165250000Y-45325000D03*
D23*
X165950000Y-46025000D03*
X165950000Y-46525000D03*
X165950000Y-47025000D03*
X165950000Y-47525000D03*
X165950000Y-48025000D03*
X165950000Y-48525000D03*
X165950000Y-49025000D03*
X165950000Y-49525000D03*
D24*
X165250000Y-50225000D03*
X164750000Y-50225000D03*
X164250000Y-50225000D03*
X163750000Y-50225000D03*
X163250000Y-50225000D03*
X162750000Y-50225000D03*
X162250000Y-50225000D03*
X161750000Y-50225000D03*
D25*
X163500000Y-47775000D03*
%TD*%
D14*
%TO.C,C15*%
X186445000Y-57825000D03*
X186825000Y-57825000D03*
%TD*%
D17*
%TO.C,C17*%
X175325000Y-47575000D03*
X175325000Y-47195000D03*
%TD*%
D14*
%TO.C,C6*%
X174575000Y-59325000D03*
X174195000Y-59325000D03*
%TD*%
D26*
%TO.C,LS1*%
X178425000Y-43575000D03*
X182225000Y-43575000D03*
X178425000Y-47075000D03*
%TD*%
M02*
