%TF.GenerationSoftware,KiCad,Pcbnew,8.0.6*%
%TF.CreationDate,2026-03-23T17:40:54+00:00*%
%TF.ProjectId,AIS IREC 2026 FC,41495320-4952-4454-9320-323032362046,1*%
%TF.SameCoordinates,Original*%
%TF.FileFunction,Copper,L3,Inr*%
%TF.FilePolarity,Positive*%
%FSLAX46Y46*%
G04 Gerber Fmt 4.6, Leading zero omitted, Abs format (unit mm)*
G04 Created by KiCad (PCBNEW 8.0.6) date 2026-03-23 17:40:54*
%MOMM*%
%LPD*%
G01*
G04 APERTURE LIST*
G04 Aperture macros list*
%AMRoundRect*
0 Rectangle with rounded corners*
0 $1 Rounding radius*
0 $2 $3 $4 $5 $6 $7 $8 $9 X,Y pos of 4 corners*
0 Add a 4 corners polygon primitive as box body*
4,1,4,$2,$3,$4,$5,$6,$7,$8,$9,$2,$3,0*
0 Add four circle primitives for the rounded corners*
1,1,$1+$1,$2,$3*
1,1,$1+$1,$4,$5*
1,1,$1+$1,$6,$7*
1,1,$1+$1,$8,$9*
0 Add four rect primitives between the rounded corners*
20,1,$1+$1,$2,$3,$4,$5,0*
20,1,$1+$1,$4,$5,$6,$7,0*
20,1,$1+$1,$6,$7,$8,$9,0*
20,1,$1+$1,$8,$9,$2,$3,0*%
G04 Aperture macros list end*
%TA.AperFunction,ComponentPad*%
%ADD10RoundRect,0.225000X0.225000X0.475000X-0.225000X0.475000X-0.225000X-0.475000X0.225000X-0.475000X0*%
%TD*%
%TA.AperFunction,ComponentPad*%
%ADD11O,0.900000X1.400000*%
%TD*%
%TA.AperFunction,ComponentPad*%
%ADD12R,1.800000X1.800000*%
%TD*%
%TA.AperFunction,ComponentPad*%
%ADD13C,1.800000*%
%TD*%
%TA.AperFunction,ComponentPad*%
%ADD14RoundRect,0.225000X-0.225000X-0.475000X0.225000X-0.475000X0.225000X0.475000X-0.225000X0.475000X0*%
%TD*%
%TA.AperFunction,ViaPad*%
%ADD15C,0.600000*%
%TD*%
%TA.AperFunction,ViaPad*%
%ADD16C,3.500000*%
%TD*%
%TA.AperFunction,ViaPad*%
%ADD17C,0.400000*%
%TD*%
%TA.AperFunction,Conductor*%
%ADD18C,0.200000*%
%TD*%
%TA.AperFunction,Conductor*%
%ADD19C,0.150000*%
%TD*%
G04 APERTURE END LIST*
D10*
%TO.N,3.3V*%
%TO.C,J6*%
X208000000Y-32250000D03*
D11*
%TO.N,USB ID*%
X206750000Y-32250000D03*
%TO.N,GND*%
X205500000Y-32250000D03*
%TO.N,unconnected-(J6-Pin_4-Pad4)*%
X204250000Y-32250000D03*
%TO.N,unconnected-(J6-Pin_5-Pad5)*%
X203000000Y-32250000D03*
%TO.N,unconnected-(J6-Pin_6-Pad6)*%
X201750000Y-32250000D03*
%TO.N,3.3V*%
X200500000Y-32250000D03*
%TO.N,BOOT High*%
X199250000Y-32250000D03*
%TD*%
D12*
%TO.N,DROGUE OUT*%
%TO.C,J5*%
X152750000Y-45850000D03*
D13*
%TO.N,GND*%
X152750000Y-50850000D03*
%TD*%
D12*
%TO.N,MAIN OUT*%
%TO.C,J4*%
X205500000Y-48000000D03*
D13*
%TO.N,GND*%
X205500000Y-43000000D03*
%TD*%
D14*
%TO.N,unconnected-(J3-Pin_1-Pad1)*%
%TO.C,J3*%
X171310000Y-28000000D03*
D11*
%TO.N,unconnected-(J3-Pin_2-Pad2)*%
X172560000Y-28000000D03*
%TO.N,3.3V*%
X173810000Y-28000000D03*
%TO.N,GND*%
X175060000Y-28000000D03*
%TO.N,RADIO CS*%
X176310000Y-28000000D03*
%TO.N,MOSI1*%
X177560000Y-28000000D03*
%TO.N,MISO1*%
X178810000Y-28000000D03*
%TO.N,CLK1*%
X180060000Y-28000000D03*
%TD*%
D12*
%TO.N,Vsrc*%
%TO.C,J2*%
X164750000Y-30250000D03*
D13*
%TO.N,GND*%
X159750000Y-30250000D03*
%TD*%
D15*
%TO.N,CLK*%
X177400000Y-40800000D03*
%TO.N,MISO*%
X166650000Y-54600000D03*
%TO.N,MOSI*%
X176000000Y-60000000D03*
D16*
%TO.N,*%
X207500000Y-57250000D03*
X150000000Y-57250000D03*
X150000000Y-27750000D03*
X207500000Y-27750000D03*
D15*
%TO.N,GND*%
X204250000Y-56500000D03*
D17*
X174744145Y-47135777D03*
D15*
X195250000Y-30250000D03*
D17*
X197750000Y-56110000D03*
D15*
X160000000Y-49000000D03*
D17*
X169500000Y-49000000D03*
X197250000Y-37000000D03*
D15*
X196750000Y-49500000D03*
X185060000Y-30250000D03*
X194980000Y-39750000D03*
X185000000Y-44500000D03*
D17*
X162250000Y-52000000D03*
D15*
X196500000Y-43000000D03*
X198750000Y-56750000D03*
X190750000Y-45250000D03*
D17*
X169250000Y-53250000D03*
X164500000Y-38000000D03*
D15*
X173750000Y-59000000D03*
X173500000Y-38500000D03*
X173500000Y-52750000D03*
X190750000Y-35500000D03*
X162250000Y-55000000D03*
D17*
X187750000Y-57750000D03*
X173250000Y-48500000D03*
D15*
X169000000Y-54500000D03*
X185000000Y-52000000D03*
X185000000Y-54000000D03*
X192750000Y-56750000D03*
D17*
X161750000Y-56750000D03*
X198804626Y-37227456D03*
D15*
X168250000Y-58250000D03*
X196500000Y-46250000D03*
D17*
X172250000Y-41750000D03*
X169500000Y-46500000D03*
%TO.N,3.3V*%
X162250000Y-51000000D03*
D15*
X155750000Y-48250000D03*
X155750000Y-43500000D03*
D17*
X199712250Y-58900000D03*
X170750000Y-46500000D03*
X186000000Y-57750000D03*
D15*
X169000000Y-50500000D03*
D17*
X170750000Y-53000000D03*
X170750000Y-49000000D03*
D15*
X168750000Y-55500000D03*
X201500000Y-54250000D03*
X189250000Y-40850000D03*
D17*
X197250000Y-57000000D03*
D15*
X206000000Y-54250000D03*
D17*
X199234998Y-56110000D03*
X174750000Y-47750000D03*
X171516054Y-42808945D03*
X189039124Y-44039124D03*
X198249999Y-37456350D03*
X162750000Y-57250000D03*
X174567393Y-58761893D03*
X172516054Y-43016054D03*
D15*
X159000000Y-47500000D03*
X166450000Y-37900000D03*
X191031587Y-38718413D03*
X172500000Y-40250000D03*
%TO.N,ACCELEROMETER CS*%
X169750000Y-43750000D03*
X159750000Y-45500000D03*
X175750000Y-40250000D03*
%TO.N,MOSI*%
X168237851Y-56114579D03*
X167250000Y-53300000D03*
%TO.N,CLK*%
X164500000Y-53750000D03*
X168500000Y-45750000D03*
X165250000Y-51500000D03*
%TO.N,NAND4*%
X197807108Y-54400000D03*
X190350000Y-52250000D03*
X192250000Y-52250000D03*
%TO.N,NAND5*%
X195350000Y-56750000D03*
%TO.N,NAND3*%
X200269369Y-56764087D03*
%TO.N,NAND7*%
X188426017Y-43566896D03*
%TO.N,RE*%
X195533403Y-36892529D03*
X182500000Y-40850000D03*
%TO.N,NAND2*%
X189150000Y-55500000D03*
%TO.N,NAND EN*%
X196000000Y-39750000D03*
X181500000Y-41000000D03*
%TO.N,WP*%
X181034456Y-45357772D03*
%TO.N,WE*%
X183500000Y-46300000D03*
%TO.N,NAND1*%
X195350000Y-53750000D03*
X194150000Y-53111003D03*
X189000000Y-54000000D03*
X182500000Y-55750000D03*
X190350000Y-54250000D03*
%TO.N,ALE*%
X182500000Y-45700000D03*
%TO.N,CLE*%
X181750000Y-45000000D03*
%TO.N,NAND6*%
X189750000Y-48500000D03*
%TO.N,NAND0*%
X201769615Y-59200000D03*
%TO.N,DP*%
X189500000Y-35250000D03*
X188867463Y-46367463D03*
X189000000Y-34000000D03*
X189500000Y-38000000D03*
D17*
%TO.N,DN*%
X188835876Y-45585876D03*
D15*
X187250000Y-40850000D03*
%TO.N,BOOT High*%
X177750000Y-36250000D03*
%TO.N,RADIO CS*%
X175250000Y-34000000D03*
%TO.N,Buzzer control*%
X173014352Y-44499999D03*
%TO.N,DROGUE*%
X174475000Y-40750000D03*
D17*
%TO.N,MAIN*%
X194250000Y-52250000D03*
X181000000Y-47250000D03*
%TO.N,BAROMETER CS*%
X176000000Y-44750000D03*
X166371446Y-53128554D03*
D15*
%TO.N,OSC_CLK*%
X173014352Y-49499999D03*
D17*
%TO.N,unconnected-(U1-PC3-Pad18)*%
X170000000Y-52000000D03*
%TO.N,VCAP*%
X182750000Y-49500000D03*
D15*
X185003569Y-56495550D03*
D17*
%TO.N,INDICATOR 1*%
X190250000Y-50000000D03*
X170000000Y-45100000D03*
%TO.N,INDICATOR 2*%
X180250000Y-49250000D03*
X189000000Y-49000000D03*
%TO.N,INDICATOR 3*%
X173750000Y-46250000D03*
X190500000Y-47500000D03*
%TO.N,INDICATOR 4*%
X185500000Y-48250000D03*
X190250000Y-41850000D03*
D15*
%TO.N,USB ID*%
X189950735Y-46799265D03*
%TD*%
D18*
%TO.N,CLK*%
X168642893Y-45750000D02*
X168500000Y-45750000D01*
X170350000Y-44042893D02*
X168642893Y-45750000D01*
X171750000Y-41850000D02*
X170350000Y-43250000D01*
X172457107Y-41250000D02*
X172042893Y-41250000D01*
X172607107Y-41400000D02*
X172457107Y-41250000D01*
X176800000Y-41400000D02*
X172607107Y-41400000D01*
X170350000Y-43250000D02*
X170350000Y-44042893D01*
X171750000Y-41542893D02*
X171750000Y-41850000D01*
X177400000Y-40800000D02*
X176800000Y-41400000D01*
X172042893Y-41250000D02*
X171750000Y-41542893D01*
%TO.N,NAND EN*%
X181500000Y-40500000D02*
X181750000Y-40250000D01*
X194631471Y-40250000D02*
X194731471Y-40350000D01*
X194731471Y-40350000D02*
X195400000Y-40350000D01*
X181500000Y-41000000D02*
X181500000Y-40500000D01*
X195400000Y-40350000D02*
X196000000Y-39750000D01*
X181750000Y-40250000D02*
X194631471Y-40250000D01*
%TO.N,DN*%
X187250000Y-40850000D02*
X187250000Y-44000000D01*
X187250000Y-44000000D02*
X188835876Y-45585876D01*
%TO.N,BOOT High*%
X181750000Y-32250000D02*
X199250000Y-32250000D01*
X177750000Y-36250000D02*
X181750000Y-32250000D01*
D19*
%TO.N,BAROMETER CS*%
X168121446Y-52628554D02*
X166871446Y-52628554D01*
X176000000Y-44750000D02*
X168121446Y-52628554D01*
X166871446Y-52628554D02*
X166371446Y-53128554D01*
%TD*%
%TA.AperFunction,Conductor*%
%TO.N,3.3V*%
G36*
X211142539Y-24120185D02*
G01*
X211188294Y-24172989D01*
X211199500Y-24224500D01*
X211199500Y-60975500D01*
X211179815Y-61042539D01*
X211127011Y-61088294D01*
X211075500Y-61099500D01*
X147024500Y-61099500D01*
X146957461Y-61079815D01*
X146911706Y-61027011D01*
X146900500Y-60975500D01*
X146900500Y-59999996D01*
X175194435Y-59999996D01*
X175194435Y-60000003D01*
X175214630Y-60179249D01*
X175214631Y-60179254D01*
X175274211Y-60349523D01*
X175370184Y-60502262D01*
X175497738Y-60629816D01*
X175650478Y-60725789D01*
X175820745Y-60785368D01*
X175820750Y-60785369D01*
X175999996Y-60805565D01*
X176000000Y-60805565D01*
X176000004Y-60805565D01*
X176179249Y-60785369D01*
X176179252Y-60785368D01*
X176179255Y-60785368D01*
X176349522Y-60725789D01*
X176502262Y-60629816D01*
X176629816Y-60502262D01*
X176725789Y-60349522D01*
X176785368Y-60179255D01*
X176805565Y-60000000D01*
X176803916Y-59985369D01*
X176785369Y-59820750D01*
X176785368Y-59820745D01*
X176725788Y-59650476D01*
X176662354Y-59549522D01*
X176629816Y-59497738D01*
X176502262Y-59370184D01*
X176444119Y-59333650D01*
X176349523Y-59274211D01*
X176179254Y-59214631D01*
X176179249Y-59214630D01*
X176049362Y-59199996D01*
X200964050Y-59199996D01*
X200964050Y-59200003D01*
X200984245Y-59379249D01*
X200984246Y-59379254D01*
X201043826Y-59549523D01*
X201107261Y-59650478D01*
X201139799Y-59702262D01*
X201267353Y-59829816D01*
X201420093Y-59925789D01*
X201590360Y-59985368D01*
X201590365Y-59985369D01*
X201769611Y-60005565D01*
X201769615Y-60005565D01*
X201769619Y-60005565D01*
X201948864Y-59985369D01*
X201948867Y-59985368D01*
X201948870Y-59985368D01*
X202119137Y-59925789D01*
X202271877Y-59829816D01*
X202399431Y-59702262D01*
X202495404Y-59549522D01*
X202554983Y-59379255D01*
X202558333Y-59349522D01*
X202575180Y-59200003D01*
X202575180Y-59199996D01*
X202554984Y-59020750D01*
X202554983Y-59020745D01*
X202495403Y-58850476D01*
X202399430Y-58697737D01*
X202271877Y-58570184D01*
X202119138Y-58474211D01*
X201948869Y-58414631D01*
X201948864Y-58414630D01*
X201769619Y-58394435D01*
X201769611Y-58394435D01*
X201590365Y-58414630D01*
X201590360Y-58414631D01*
X201420091Y-58474211D01*
X201267352Y-58570184D01*
X201139799Y-58697737D01*
X201043826Y-58850476D01*
X200984246Y-59020745D01*
X200984245Y-59020750D01*
X200964050Y-59199996D01*
X176049362Y-59199996D01*
X176000004Y-59194435D01*
X175999996Y-59194435D01*
X175820750Y-59214630D01*
X175820745Y-59214631D01*
X175650476Y-59274211D01*
X175497737Y-59370184D01*
X175370184Y-59497737D01*
X175274211Y-59650476D01*
X175214631Y-59820745D01*
X175214630Y-59820750D01*
X175194435Y-59999996D01*
X146900500Y-59999996D01*
X146900500Y-57249992D01*
X147744671Y-57249992D01*
X147744671Y-57250007D01*
X147763964Y-57544363D01*
X147763965Y-57544373D01*
X147763966Y-57544380D01*
X147763968Y-57544390D01*
X147821518Y-57833716D01*
X147821521Y-57833730D01*
X147916349Y-58113080D01*
X148046825Y-58377660D01*
X148046829Y-58377667D01*
X148210725Y-58622955D01*
X148405241Y-58844758D01*
X148627044Y-59039274D01*
X148836532Y-59179249D01*
X148872335Y-59203172D01*
X149136923Y-59333652D01*
X149416278Y-59428481D01*
X149705620Y-59486034D01*
X149733888Y-59487886D01*
X149999993Y-59505329D01*
X150000000Y-59505329D01*
X150000007Y-59505329D01*
X150235675Y-59489881D01*
X150294380Y-59486034D01*
X150583722Y-59428481D01*
X150863077Y-59333652D01*
X151127665Y-59203172D01*
X151372957Y-59039273D01*
X151594758Y-58844758D01*
X151789273Y-58622957D01*
X151953172Y-58377665D01*
X152016131Y-58249996D01*
X167444435Y-58249996D01*
X167444435Y-58250003D01*
X167464630Y-58429249D01*
X167464631Y-58429254D01*
X167524211Y-58599523D01*
X167585924Y-58697738D01*
X167620184Y-58752262D01*
X167747738Y-58879816D01*
X167900478Y-58975789D01*
X167969678Y-59000003D01*
X168070745Y-59035368D01*
X168070750Y-59035369D01*
X168249996Y-59055565D01*
X168250000Y-59055565D01*
X168250004Y-59055565D01*
X168429249Y-59035369D01*
X168429252Y-59035368D01*
X168429255Y-59035368D01*
X168530342Y-58999996D01*
X172944435Y-58999996D01*
X172944435Y-59000003D01*
X172964630Y-59179249D01*
X172964631Y-59179254D01*
X173024211Y-59349523D01*
X173073822Y-59428478D01*
X173120184Y-59502262D01*
X173247738Y-59629816D01*
X173400478Y-59725789D01*
X173570745Y-59785368D01*
X173570750Y-59785369D01*
X173749996Y-59805565D01*
X173750000Y-59805565D01*
X173750004Y-59805565D01*
X173929249Y-59785369D01*
X173929252Y-59785368D01*
X173929255Y-59785368D01*
X174099522Y-59725789D01*
X174252262Y-59629816D01*
X174379816Y-59502262D01*
X174475789Y-59349522D01*
X174535368Y-59179255D01*
X174535369Y-59179249D01*
X174555565Y-59000003D01*
X174555565Y-58999996D01*
X174535369Y-58820750D01*
X174535368Y-58820745D01*
X174492326Y-58697738D01*
X174475789Y-58650478D01*
X174458496Y-58622957D01*
X174379815Y-58497737D01*
X174252262Y-58370184D01*
X174099523Y-58274211D01*
X173929254Y-58214631D01*
X173929249Y-58214630D01*
X173750004Y-58194435D01*
X173749996Y-58194435D01*
X173570750Y-58214630D01*
X173570745Y-58214631D01*
X173400476Y-58274211D01*
X173247737Y-58370184D01*
X173120184Y-58497737D01*
X173024211Y-58650476D01*
X172964631Y-58820745D01*
X172964630Y-58820750D01*
X172944435Y-58999996D01*
X168530342Y-58999996D01*
X168599522Y-58975789D01*
X168752262Y-58879816D01*
X168879816Y-58752262D01*
X168975789Y-58599522D01*
X169035368Y-58429255D01*
X169037561Y-58409790D01*
X169055565Y-58250003D01*
X169055565Y-58249996D01*
X169035369Y-58070750D01*
X169035368Y-58070745D01*
X168975788Y-57900476D01*
X168881237Y-57750000D01*
X187044355Y-57750000D01*
X187064859Y-57918869D01*
X187064860Y-57918874D01*
X187125182Y-58077931D01*
X187149442Y-58113077D01*
X187221817Y-58217929D01*
X187327505Y-58311560D01*
X187349150Y-58330736D01*
X187499773Y-58409789D01*
X187499775Y-58409790D01*
X187664944Y-58450500D01*
X187835056Y-58450500D01*
X188000225Y-58409790D01*
X188079692Y-58368081D01*
X188150849Y-58330736D01*
X188150850Y-58330734D01*
X188150852Y-58330734D01*
X188278183Y-58217929D01*
X188374818Y-58077930D01*
X188435140Y-57918872D01*
X188455645Y-57750000D01*
X188435140Y-57581128D01*
X188421203Y-57544380D01*
X188374817Y-57422068D01*
X188311773Y-57330734D01*
X188278183Y-57282071D01*
X188150852Y-57169266D01*
X188150849Y-57169263D01*
X188000226Y-57090210D01*
X187835056Y-57049500D01*
X187664944Y-57049500D01*
X187499773Y-57090210D01*
X187349150Y-57169263D01*
X187232638Y-57272484D01*
X187223119Y-57280918D01*
X187221816Y-57282072D01*
X187125182Y-57422068D01*
X187064860Y-57581125D01*
X187064859Y-57581130D01*
X187044355Y-57750000D01*
X168881237Y-57750000D01*
X168879815Y-57747737D01*
X168752262Y-57620184D01*
X168599523Y-57524211D01*
X168429254Y-57464631D01*
X168429249Y-57464630D01*
X168250004Y-57444435D01*
X168249996Y-57444435D01*
X168070750Y-57464630D01*
X168070745Y-57464631D01*
X167900476Y-57524211D01*
X167747737Y-57620184D01*
X167620184Y-57747737D01*
X167524211Y-57900476D01*
X167464631Y-58070745D01*
X167464630Y-58070750D01*
X167444435Y-58249996D01*
X152016131Y-58249996D01*
X152083652Y-58113077D01*
X152178481Y-57833722D01*
X152236034Y-57544380D01*
X152246820Y-57379816D01*
X152255329Y-57250007D01*
X152255329Y-57249992D01*
X152236035Y-56955636D01*
X152236034Y-56955620D01*
X152195134Y-56750000D01*
X161044355Y-56750000D01*
X161064859Y-56918869D01*
X161064860Y-56918874D01*
X161125182Y-57077931D01*
X161183748Y-57162777D01*
X161221817Y-57217929D01*
X161315715Y-57301115D01*
X161349150Y-57330736D01*
X161469503Y-57393902D01*
X161499775Y-57409790D01*
X161664944Y-57450500D01*
X161835056Y-57450500D01*
X162000225Y-57409790D01*
X162079692Y-57368081D01*
X162150849Y-57330736D01*
X162150850Y-57330734D01*
X162150852Y-57330734D01*
X162278183Y-57217929D01*
X162374818Y-57077930D01*
X162435140Y-56918872D01*
X162455645Y-56750000D01*
X162435140Y-56581128D01*
X162374818Y-56422070D01*
X162369636Y-56414563D01*
X162304878Y-56320745D01*
X162278183Y-56282071D01*
X162150852Y-56169266D01*
X162150849Y-56169263D01*
X162000226Y-56090210D01*
X161835056Y-56049500D01*
X161664944Y-56049500D01*
X161499773Y-56090210D01*
X161349150Y-56169263D01*
X161221816Y-56282072D01*
X161125182Y-56422068D01*
X161064860Y-56581125D01*
X161064859Y-56581130D01*
X161044355Y-56750000D01*
X152195134Y-56750000D01*
X152178481Y-56666278D01*
X152083652Y-56386923D01*
X151953172Y-56122336D01*
X151947986Y-56114575D01*
X151887607Y-56024211D01*
X151789273Y-55877043D01*
X151708876Y-55785368D01*
X151594758Y-55655241D01*
X151372955Y-55460725D01*
X151127667Y-55296829D01*
X151127660Y-55296825D01*
X150863080Y-55166349D01*
X150583730Y-55071521D01*
X150583724Y-55071519D01*
X150583722Y-55071519D01*
X150294380Y-55013966D01*
X150294373Y-55013965D01*
X150294363Y-55013964D01*
X150081251Y-54999996D01*
X161444435Y-54999996D01*
X161444435Y-55000003D01*
X161464630Y-55179249D01*
X161464631Y-55179254D01*
X161524211Y-55349523D01*
X161594086Y-55460727D01*
X161620184Y-55502262D01*
X161747738Y-55629816D01*
X161826410Y-55679249D01*
X161882721Y-55714632D01*
X161900478Y-55725789D01*
X162026143Y-55769761D01*
X162070745Y-55785368D01*
X162070750Y-55785369D01*
X162249996Y-55805565D01*
X162250000Y-55805565D01*
X162250004Y-55805565D01*
X162429249Y-55785369D01*
X162429252Y-55785368D01*
X162429255Y-55785368D01*
X162599522Y-55725789D01*
X162752262Y-55629816D01*
X162879816Y-55502262D01*
X162975789Y-55349522D01*
X163035368Y-55179255D01*
X163036822Y-55166349D01*
X163055565Y-55000003D01*
X163055565Y-54999996D01*
X163035369Y-54820750D01*
X163035368Y-54820745D01*
X162992321Y-54697724D01*
X162975789Y-54650478D01*
X162879816Y-54497738D01*
X162752262Y-54370184D01*
X162719379Y-54349522D01*
X162599523Y-54274211D01*
X162429254Y-54214631D01*
X162429249Y-54214630D01*
X162250004Y-54194435D01*
X162249996Y-54194435D01*
X162070750Y-54214630D01*
X162070745Y-54214631D01*
X161900476Y-54274211D01*
X161747737Y-54370184D01*
X161620184Y-54497737D01*
X161524211Y-54650476D01*
X161464631Y-54820745D01*
X161464630Y-54820750D01*
X161444435Y-54999996D01*
X150081251Y-54999996D01*
X150000007Y-54994671D01*
X149999993Y-54994671D01*
X149705636Y-55013964D01*
X149705624Y-55013965D01*
X149705620Y-55013966D01*
X149705612Y-55013967D01*
X149705609Y-55013968D01*
X149416283Y-55071518D01*
X149416269Y-55071521D01*
X149136919Y-55166349D01*
X148872334Y-55296828D01*
X148627041Y-55460728D01*
X148405241Y-55655241D01*
X148210728Y-55877041D01*
X148046828Y-56122334D01*
X147916349Y-56386919D01*
X147821521Y-56666269D01*
X147821518Y-56666283D01*
X147763968Y-56955609D01*
X147763964Y-56955636D01*
X147744671Y-57249992D01*
X146900500Y-57249992D01*
X146900500Y-53749996D01*
X163694435Y-53749996D01*
X163694435Y-53750003D01*
X163714630Y-53929249D01*
X163714631Y-53929254D01*
X163774211Y-54099523D01*
X163850384Y-54220750D01*
X163870184Y-54252262D01*
X163997738Y-54379816D01*
X164150478Y-54475789D01*
X164310048Y-54531625D01*
X164320745Y-54535368D01*
X164320750Y-54535369D01*
X164499996Y-54555565D01*
X164500000Y-54555565D01*
X164500004Y-54555565D01*
X164679249Y-54535369D01*
X164679252Y-54535368D01*
X164679255Y-54535368D01*
X164849522Y-54475789D01*
X165002262Y-54379816D01*
X165129816Y-54252262D01*
X165225789Y-54099522D01*
X165285368Y-53929255D01*
X165285369Y-53929249D01*
X165305565Y-53750003D01*
X165305565Y-53749996D01*
X165285369Y-53570750D01*
X165285368Y-53570745D01*
X165246800Y-53460525D01*
X165225789Y-53400478D01*
X165129816Y-53247738D01*
X165010632Y-53128554D01*
X165665801Y-53128554D01*
X165686305Y-53297423D01*
X165686306Y-53297428D01*
X165746628Y-53456485D01*
X165793377Y-53524211D01*
X165843263Y-53596483D01*
X165931000Y-53674211D01*
X165970596Y-53709290D01*
X166108645Y-53781744D01*
X166158858Y-53830329D01*
X166174832Y-53898348D01*
X166151497Y-53964205D01*
X166138701Y-53979221D01*
X166020183Y-54097739D01*
X165924211Y-54250476D01*
X165864631Y-54420745D01*
X165864630Y-54420750D01*
X165844435Y-54599996D01*
X165844435Y-54600003D01*
X165864630Y-54779249D01*
X165864631Y-54779254D01*
X165924211Y-54949523D01*
X165978152Y-55035369D01*
X166020184Y-55102262D01*
X166147738Y-55229816D01*
X166176259Y-55247737D01*
X166300105Y-55325555D01*
X166300478Y-55325789D01*
X166425034Y-55369373D01*
X166470745Y-55385368D01*
X166470750Y-55385369D01*
X166649996Y-55405565D01*
X166650000Y-55405565D01*
X166650004Y-55405565D01*
X166829249Y-55385369D01*
X166829252Y-55385368D01*
X166829255Y-55385368D01*
X166999522Y-55325789D01*
X167152262Y-55229816D01*
X167279816Y-55102262D01*
X167375789Y-54949522D01*
X167435368Y-54779255D01*
X167435642Y-54776822D01*
X167455565Y-54600003D01*
X167455565Y-54599996D01*
X167435369Y-54420750D01*
X167435368Y-54420745D01*
X167400376Y-54320745D01*
X167375789Y-54250478D01*
X167375784Y-54250471D01*
X167375661Y-54250213D01*
X167375629Y-54250022D01*
X167373489Y-54243905D01*
X167374560Y-54243530D01*
X167364303Y-54181272D01*
X167392021Y-54117135D01*
X167446421Y-54079361D01*
X167599522Y-54025789D01*
X167752262Y-53929816D01*
X167879816Y-53802262D01*
X167975789Y-53649522D01*
X168035368Y-53479255D01*
X168037016Y-53464630D01*
X168053969Y-53314171D01*
X168081035Y-53249757D01*
X168138630Y-53210201D01*
X168177189Y-53204054D01*
X168197210Y-53204054D01*
X168197212Y-53204054D01*
X168343581Y-53164835D01*
X168359055Y-53155900D01*
X168426955Y-53139427D01*
X168492982Y-53162278D01*
X168536174Y-53217199D01*
X168544153Y-53248340D01*
X168564859Y-53418868D01*
X168564860Y-53418874D01*
X168625182Y-53577930D01*
X168653785Y-53619369D01*
X168675667Y-53685723D01*
X168658201Y-53753375D01*
X168617707Y-53794801D01*
X168497739Y-53870182D01*
X168370184Y-53997737D01*
X168274211Y-54150476D01*
X168214631Y-54320745D01*
X168214630Y-54320750D01*
X168194435Y-54499996D01*
X168194435Y-54500003D01*
X168214630Y-54679249D01*
X168214631Y-54679254D01*
X168274211Y-54849523D01*
X168370184Y-55002262D01*
X168482112Y-55114190D01*
X168515597Y-55175513D01*
X168510613Y-55245205D01*
X168468741Y-55301138D01*
X168403277Y-55325555D01*
X168380548Y-55325091D01*
X168237855Y-55309014D01*
X168237847Y-55309014D01*
X168058601Y-55329209D01*
X168058596Y-55329210D01*
X167888327Y-55388790D01*
X167735588Y-55484763D01*
X167608035Y-55612316D01*
X167512062Y-55765055D01*
X167452482Y-55935324D01*
X167452481Y-55935329D01*
X167432286Y-56114575D01*
X167432286Y-56114582D01*
X167452481Y-56293828D01*
X167452482Y-56293833D01*
X167512062Y-56464102D01*
X167608035Y-56616841D01*
X167735589Y-56744395D01*
X167888329Y-56840368D01*
X168010133Y-56882989D01*
X168058596Y-56899947D01*
X168058601Y-56899948D01*
X168237847Y-56920144D01*
X168237851Y-56920144D01*
X168237855Y-56920144D01*
X168417100Y-56899948D01*
X168417103Y-56899947D01*
X168417106Y-56899947D01*
X168587373Y-56840368D01*
X168740113Y-56744395D01*
X168867667Y-56616841D01*
X168963640Y-56464101D01*
X169023219Y-56293834D01*
X169024173Y-56285368D01*
X169043416Y-56114582D01*
X169043416Y-56114575D01*
X169023220Y-55935329D01*
X169023219Y-55935324D01*
X169021093Y-55929249D01*
X168963640Y-55765057D01*
X168954177Y-55749996D01*
X181694435Y-55749996D01*
X181694435Y-55750003D01*
X181714630Y-55929249D01*
X181714631Y-55929254D01*
X181774211Y-56099523D01*
X181818032Y-56169263D01*
X181870184Y-56252262D01*
X181997738Y-56379816D01*
X182053041Y-56414565D01*
X182131876Y-56464101D01*
X182150478Y-56475789D01*
X182320745Y-56535368D01*
X182320750Y-56535369D01*
X182499996Y-56555565D01*
X182500000Y-56555565D01*
X182500004Y-56555565D01*
X182679249Y-56535369D01*
X182679252Y-56535368D01*
X182679255Y-56535368D01*
X182793060Y-56495546D01*
X184198004Y-56495546D01*
X184198004Y-56495553D01*
X184218199Y-56674799D01*
X184218200Y-56674804D01*
X184277780Y-56845073D01*
X184339527Y-56943342D01*
X184373753Y-56997812D01*
X184501307Y-57125366D01*
X184577796Y-57173427D01*
X184651468Y-57219719D01*
X184654047Y-57221339D01*
X184782678Y-57266349D01*
X184824314Y-57280918D01*
X184824319Y-57280919D01*
X185003565Y-57301115D01*
X185003569Y-57301115D01*
X185003573Y-57301115D01*
X185182818Y-57280919D01*
X185182821Y-57280918D01*
X185182824Y-57280918D01*
X185353091Y-57221339D01*
X185505831Y-57125366D01*
X185633385Y-56997812D01*
X185729358Y-56845072D01*
X185762627Y-56749996D01*
X191944435Y-56749996D01*
X191944435Y-56750003D01*
X191964630Y-56929249D01*
X191964631Y-56929254D01*
X192024211Y-57099523D01*
X192081785Y-57191151D01*
X192120184Y-57252262D01*
X192247738Y-57379816D01*
X192314982Y-57422068D01*
X192382721Y-57464632D01*
X192400478Y-57475789D01*
X192538860Y-57524211D01*
X192570745Y-57535368D01*
X192570750Y-57535369D01*
X192749996Y-57555565D01*
X192750000Y-57555565D01*
X192750004Y-57555565D01*
X192929249Y-57535369D01*
X192929252Y-57535368D01*
X192929255Y-57535368D01*
X193099522Y-57475789D01*
X193252262Y-57379816D01*
X193379816Y-57252262D01*
X193475789Y-57099522D01*
X193535368Y-56929255D01*
X193535369Y-56929249D01*
X193555565Y-56750003D01*
X193555565Y-56749996D01*
X194544435Y-56749996D01*
X194544435Y-56750003D01*
X194564630Y-56929249D01*
X194564631Y-56929254D01*
X194624211Y-57099523D01*
X194681785Y-57191151D01*
X194720184Y-57252262D01*
X194847738Y-57379816D01*
X194914982Y-57422068D01*
X194982721Y-57464632D01*
X195000478Y-57475789D01*
X195138860Y-57524211D01*
X195170745Y-57535368D01*
X195170750Y-57535369D01*
X195349996Y-57555565D01*
X195350000Y-57555565D01*
X195350004Y-57555565D01*
X195529249Y-57535369D01*
X195529252Y-57535368D01*
X195529255Y-57535368D01*
X195699522Y-57475789D01*
X195852262Y-57379816D01*
X195979816Y-57252262D01*
X196075789Y-57099522D01*
X196135368Y-56929255D01*
X196135369Y-56929249D01*
X196155565Y-56750003D01*
X196155565Y-56749996D01*
X196135369Y-56570750D01*
X196135368Y-56570745D01*
X196098052Y-56464102D01*
X196075789Y-56400478D01*
X196067269Y-56386919D01*
X196027064Y-56322933D01*
X195979816Y-56247738D01*
X195852262Y-56120184D01*
X195699523Y-56024211D01*
X195529254Y-55964631D01*
X195529249Y-55964630D01*
X195350004Y-55944435D01*
X195349996Y-55944435D01*
X195170750Y-55964630D01*
X195170745Y-55964631D01*
X195000476Y-56024211D01*
X194847737Y-56120184D01*
X194720184Y-56247737D01*
X194624211Y-56400476D01*
X194564631Y-56570745D01*
X194564630Y-56570750D01*
X194544435Y-56749996D01*
X193555565Y-56749996D01*
X193535369Y-56570750D01*
X193535368Y-56570745D01*
X193498052Y-56464102D01*
X193475789Y-56400478D01*
X193467269Y-56386919D01*
X193427064Y-56322933D01*
X193379816Y-56247738D01*
X193252262Y-56120184D01*
X193099523Y-56024211D01*
X192929254Y-55964631D01*
X192929249Y-55964630D01*
X192750004Y-55944435D01*
X192749996Y-55944435D01*
X192570750Y-55964630D01*
X192570745Y-55964631D01*
X192400476Y-56024211D01*
X192247737Y-56120184D01*
X192120184Y-56247737D01*
X192024211Y-56400476D01*
X191964631Y-56570745D01*
X191964630Y-56570750D01*
X191944435Y-56749996D01*
X185762627Y-56749996D01*
X185788937Y-56674805D01*
X185788938Y-56674799D01*
X185809134Y-56495553D01*
X185809134Y-56495546D01*
X185788938Y-56316300D01*
X185788937Y-56316295D01*
X185781075Y-56293828D01*
X185729358Y-56146028D01*
X185719171Y-56129816D01*
X185668705Y-56049500D01*
X185633385Y-55993288D01*
X185505831Y-55865734D01*
X185353092Y-55769761D01*
X185182823Y-55710181D01*
X185182818Y-55710180D01*
X185003573Y-55689985D01*
X185003565Y-55689985D01*
X184824319Y-55710180D01*
X184824314Y-55710181D01*
X184654045Y-55769761D01*
X184501306Y-55865734D01*
X184373753Y-55993287D01*
X184277780Y-56146026D01*
X184218200Y-56316295D01*
X184218199Y-56316300D01*
X184198004Y-56495546D01*
X182793060Y-56495546D01*
X182849522Y-56475789D01*
X183002262Y-56379816D01*
X183129816Y-56252262D01*
X183225789Y-56099522D01*
X183285368Y-55929255D01*
X183294352Y-55849522D01*
X183305565Y-55750003D01*
X183305565Y-55749996D01*
X183285369Y-55570750D01*
X183285368Y-55570745D01*
X183260612Y-55499996D01*
X183225789Y-55400478D01*
X183224354Y-55398195D01*
X183178420Y-55325091D01*
X183129816Y-55247738D01*
X183002262Y-55120184D01*
X182992723Y-55114190D01*
X182849523Y-55024211D01*
X182679254Y-54964631D01*
X182679249Y-54964630D01*
X182500004Y-54944435D01*
X182499996Y-54944435D01*
X182320750Y-54964630D01*
X182320745Y-54964631D01*
X182150476Y-55024211D01*
X181997737Y-55120184D01*
X181870184Y-55247737D01*
X181774211Y-55400476D01*
X181714631Y-55570745D01*
X181714630Y-55570750D01*
X181694435Y-55749996D01*
X168954177Y-55749996D01*
X168867667Y-55612317D01*
X168755738Y-55500388D01*
X168722253Y-55439065D01*
X168727237Y-55369373D01*
X168769109Y-55313440D01*
X168834573Y-55289023D01*
X168857302Y-55289486D01*
X168863888Y-55290229D01*
X168999997Y-55305565D01*
X169000000Y-55305565D01*
X169000004Y-55305565D01*
X169179249Y-55285369D01*
X169179252Y-55285368D01*
X169179255Y-55285368D01*
X169349522Y-55225789D01*
X169502262Y-55129816D01*
X169629816Y-55002262D01*
X169725789Y-54849522D01*
X169785368Y-54679255D01*
X169785369Y-54679249D01*
X169805565Y-54500003D01*
X169805565Y-54499996D01*
X169785369Y-54320750D01*
X169785368Y-54320745D01*
X169760781Y-54250480D01*
X169725789Y-54150478D01*
X169631235Y-53999996D01*
X184194435Y-53999996D01*
X184194435Y-54000003D01*
X184214630Y-54179249D01*
X184214631Y-54179254D01*
X184274211Y-54349523D01*
X184353549Y-54475788D01*
X184370184Y-54502262D01*
X184497738Y-54629816D01*
X184650478Y-54725789D01*
X184788860Y-54774211D01*
X184820745Y-54785368D01*
X184820750Y-54785369D01*
X184999996Y-54805565D01*
X185000000Y-54805565D01*
X185000004Y-54805565D01*
X185179249Y-54785369D01*
X185179252Y-54785368D01*
X185179255Y-54785368D01*
X185349522Y-54725789D01*
X185502262Y-54629816D01*
X185629816Y-54502262D01*
X185725789Y-54349522D01*
X185785368Y-54179255D01*
X185785369Y-54179249D01*
X185805565Y-54000003D01*
X185805565Y-53999996D01*
X188194435Y-53999996D01*
X188194435Y-54000003D01*
X188214630Y-54179249D01*
X188214631Y-54179254D01*
X188274211Y-54349523D01*
X188353549Y-54475788D01*
X188370184Y-54502262D01*
X188497738Y-54629816D01*
X188576410Y-54679249D01*
X188605813Y-54697724D01*
X188652104Y-54750059D01*
X188662752Y-54819112D01*
X188634377Y-54882961D01*
X188627523Y-54890399D01*
X188520183Y-54997739D01*
X188424211Y-55150476D01*
X188364631Y-55320745D01*
X188364630Y-55320750D01*
X188344435Y-55499996D01*
X188344435Y-55500003D01*
X188364630Y-55679249D01*
X188364631Y-55679254D01*
X188424211Y-55849523D01*
X188478124Y-55935324D01*
X188520184Y-56002262D01*
X188647738Y-56129816D01*
X188800478Y-56225789D01*
X188952186Y-56278874D01*
X188970745Y-56285368D01*
X188970750Y-56285369D01*
X189149996Y-56305565D01*
X189150000Y-56305565D01*
X189150004Y-56305565D01*
X189329249Y-56285369D01*
X189329252Y-56285368D01*
X189329255Y-56285368D01*
X189499522Y-56225789D01*
X189652262Y-56129816D01*
X189779816Y-56002262D01*
X189875789Y-55849522D01*
X189935368Y-55679255D01*
X189938074Y-55655241D01*
X189955565Y-55500003D01*
X189955565Y-55499996D01*
X189935369Y-55320750D01*
X189935366Y-55320737D01*
X189873781Y-55144738D01*
X189870219Y-55074959D01*
X189904947Y-55014332D01*
X189966941Y-54982104D01*
X190031777Y-54986741D01*
X190170745Y-55035368D01*
X190170750Y-55035369D01*
X190349996Y-55055565D01*
X190350000Y-55055565D01*
X190350004Y-55055565D01*
X190529249Y-55035369D01*
X190529252Y-55035368D01*
X190529255Y-55035368D01*
X190699522Y-54975789D01*
X190852262Y-54879816D01*
X190979816Y-54752262D01*
X191075789Y-54599522D01*
X191135368Y-54429255D01*
X191135369Y-54429249D01*
X191155565Y-54250003D01*
X191155565Y-54249996D01*
X191135369Y-54070750D01*
X191135368Y-54070745D01*
X191086054Y-53929815D01*
X191075789Y-53900478D01*
X191074067Y-53897738D01*
X191030910Y-53829054D01*
X190979816Y-53747738D01*
X190852262Y-53620184D01*
X190843426Y-53614632D01*
X190699523Y-53524211D01*
X190529254Y-53464631D01*
X190529249Y-53464630D01*
X190350004Y-53444435D01*
X190349996Y-53444435D01*
X190170750Y-53464630D01*
X190170745Y-53464631D01*
X190000476Y-53524211D01*
X189851654Y-53617723D01*
X189784417Y-53636723D01*
X189717582Y-53616355D01*
X189680688Y-53578701D01*
X189680204Y-53577931D01*
X189629816Y-53497738D01*
X189502262Y-53370184D01*
X189413118Y-53314171D01*
X189349523Y-53274211D01*
X189179254Y-53214631D01*
X189179249Y-53214630D01*
X189000004Y-53194435D01*
X188999996Y-53194435D01*
X188820750Y-53214630D01*
X188820745Y-53214631D01*
X188650476Y-53274211D01*
X188497737Y-53370184D01*
X188370184Y-53497737D01*
X188274211Y-53650476D01*
X188214631Y-53820745D01*
X188214630Y-53820750D01*
X188194435Y-53999996D01*
X185805565Y-53999996D01*
X185785369Y-53820750D01*
X185785368Y-53820745D01*
X185779753Y-53804698D01*
X185725789Y-53650478D01*
X185725188Y-53649522D01*
X185680204Y-53577930D01*
X185629816Y-53497738D01*
X185502262Y-53370184D01*
X185413118Y-53314171D01*
X185349523Y-53274211D01*
X185179254Y-53214631D01*
X185179249Y-53214630D01*
X185000004Y-53194435D01*
X184999996Y-53194435D01*
X184820750Y-53214630D01*
X184820745Y-53214631D01*
X184650476Y-53274211D01*
X184497737Y-53370184D01*
X184370184Y-53497737D01*
X184274211Y-53650476D01*
X184214631Y-53820745D01*
X184214630Y-53820750D01*
X184194435Y-53999996D01*
X169631235Y-53999996D01*
X169629816Y-53997738D01*
X169629815Y-53997737D01*
X169626111Y-53991842D01*
X169628728Y-53990197D01*
X169607483Y-53938171D01*
X169620233Y-53869475D01*
X169648611Y-53832718D01*
X169650848Y-53830735D01*
X169650852Y-53830734D01*
X169778183Y-53717929D01*
X169874818Y-53577930D01*
X169935140Y-53418872D01*
X169955645Y-53250000D01*
X169935140Y-53081128D01*
X169874818Y-52922070D01*
X169856091Y-52894940D01*
X169834208Y-52828587D01*
X169851673Y-52760935D01*
X169863487Y-52749996D01*
X172694435Y-52749996D01*
X172694435Y-52750003D01*
X172714630Y-52929249D01*
X172714631Y-52929254D01*
X172774211Y-53099523D01*
X172792453Y-53128554D01*
X172870184Y-53252262D01*
X172997738Y-53379816D01*
X173088080Y-53436582D01*
X173132721Y-53464632D01*
X173150478Y-53475789D01*
X173213202Y-53497737D01*
X173320745Y-53535368D01*
X173320750Y-53535369D01*
X173499996Y-53555565D01*
X173500000Y-53555565D01*
X173500004Y-53555565D01*
X173679249Y-53535369D01*
X173679252Y-53535368D01*
X173679255Y-53535368D01*
X173849522Y-53475789D01*
X174002262Y-53379816D01*
X174129816Y-53252262D01*
X174218578Y-53110999D01*
X193344435Y-53110999D01*
X193344435Y-53111006D01*
X193364630Y-53290252D01*
X193364631Y-53290257D01*
X193424211Y-53460526D01*
X193497982Y-53577931D01*
X193520184Y-53613265D01*
X193647738Y-53740819D01*
X193667721Y-53753375D01*
X193790836Y-53830734D01*
X193800478Y-53836792D01*
X193968130Y-53895456D01*
X193970745Y-53896371D01*
X193970750Y-53896372D01*
X194149996Y-53916568D01*
X194150000Y-53916568D01*
X194150004Y-53916568D01*
X194329249Y-53896372D01*
X194329251Y-53896371D01*
X194329255Y-53896371D01*
X194411663Y-53867534D01*
X194481439Y-53863972D01*
X194542067Y-53898700D01*
X194569659Y-53943621D01*
X194624211Y-54099523D01*
X194700384Y-54220750D01*
X194720184Y-54252262D01*
X194847738Y-54379816D01*
X195000478Y-54475789D01*
X195160048Y-54531625D01*
X195170745Y-54535368D01*
X195170750Y-54535369D01*
X195349996Y-54555565D01*
X195350000Y-54555565D01*
X195350004Y-54555565D01*
X195529249Y-54535369D01*
X195529252Y-54535368D01*
X195529255Y-54535368D01*
X195699522Y-54475789D01*
X195820146Y-54399996D01*
X197001543Y-54399996D01*
X197001543Y-54400003D01*
X197021738Y-54579249D01*
X197021739Y-54579254D01*
X197081319Y-54749523D01*
X197144153Y-54849522D01*
X197177292Y-54902262D01*
X197304846Y-55029816D01*
X197457586Y-55125789D01*
X197610380Y-55179254D01*
X197625530Y-55184555D01*
X197682306Y-55225277D01*
X197708054Y-55290229D01*
X197694598Y-55358791D01*
X197646211Y-55409194D01*
X197614251Y-55421994D01*
X197499773Y-55450210D01*
X197349150Y-55529263D01*
X197221816Y-55642072D01*
X197125182Y-55782068D01*
X197064860Y-55941125D01*
X197064859Y-55941130D01*
X197044355Y-56110000D01*
X197064859Y-56278869D01*
X197064860Y-56278874D01*
X197125182Y-56437931D01*
X197187475Y-56528177D01*
X197221817Y-56577929D01*
X197265740Y-56616841D01*
X197349150Y-56690736D01*
X197499773Y-56769789D01*
X197499775Y-56769790D01*
X197664944Y-56810500D01*
X197840438Y-56810500D01*
X197907477Y-56830185D01*
X197953232Y-56882989D01*
X197963658Y-56920617D01*
X197964630Y-56929249D01*
X198024210Y-57099521D01*
X198081785Y-57191151D01*
X198120184Y-57252262D01*
X198247738Y-57379816D01*
X198314982Y-57422068D01*
X198382721Y-57464632D01*
X198400478Y-57475789D01*
X198538860Y-57524211D01*
X198570745Y-57535368D01*
X198570750Y-57535369D01*
X198749996Y-57555565D01*
X198750000Y-57555565D01*
X198750004Y-57555565D01*
X198929249Y-57535369D01*
X198929252Y-57535368D01*
X198929255Y-57535368D01*
X199099522Y-57475789D01*
X199252262Y-57379816D01*
X199379816Y-57252262D01*
X199400265Y-57219716D01*
X199452596Y-57173427D01*
X199521650Y-57162777D01*
X199585499Y-57191151D01*
X199610251Y-57219716D01*
X199639551Y-57266347D01*
X199639553Y-57266349D01*
X199767107Y-57393903D01*
X199847528Y-57444435D01*
X199897427Y-57475789D01*
X199919847Y-57489876D01*
X200075639Y-57544390D01*
X200090114Y-57549455D01*
X200090119Y-57549456D01*
X200269365Y-57569652D01*
X200269369Y-57569652D01*
X200269373Y-57569652D01*
X200448618Y-57549456D01*
X200448621Y-57549455D01*
X200448624Y-57549455D01*
X200618891Y-57489876D01*
X200771631Y-57393903D01*
X200899185Y-57266349D01*
X200995158Y-57113609D01*
X201054737Y-56943342D01*
X201054738Y-56943336D01*
X201074934Y-56764090D01*
X201074934Y-56764083D01*
X201054738Y-56584837D01*
X201054737Y-56584832D01*
X201025053Y-56500000D01*
X201025052Y-56499996D01*
X203444435Y-56499996D01*
X203444435Y-56500003D01*
X203464630Y-56679249D01*
X203464631Y-56679254D01*
X203524211Y-56849523D01*
X203583158Y-56943336D01*
X203620184Y-57002262D01*
X203747738Y-57129816D01*
X203838080Y-57186582D01*
X203890817Y-57219719D01*
X203900478Y-57225789D01*
X204061323Y-57282071D01*
X204070745Y-57285368D01*
X204070750Y-57285369D01*
X204249996Y-57305565D01*
X204250000Y-57305565D01*
X204250004Y-57305565D01*
X204429249Y-57285369D01*
X204429252Y-57285368D01*
X204429255Y-57285368D01*
X204530354Y-57249992D01*
X205244671Y-57249992D01*
X205244671Y-57250007D01*
X205263964Y-57544363D01*
X205263965Y-57544373D01*
X205263966Y-57544380D01*
X205263968Y-57544390D01*
X205321518Y-57833716D01*
X205321521Y-57833730D01*
X205416349Y-58113080D01*
X205546825Y-58377660D01*
X205546829Y-58377667D01*
X205710725Y-58622955D01*
X205905241Y-58844758D01*
X206127044Y-59039274D01*
X206336532Y-59179249D01*
X206372335Y-59203172D01*
X206636923Y-59333652D01*
X206916278Y-59428481D01*
X207205620Y-59486034D01*
X207233888Y-59487886D01*
X207499993Y-59505329D01*
X207500000Y-59505329D01*
X207500007Y-59505329D01*
X207735675Y-59489881D01*
X207794380Y-59486034D01*
X208083722Y-59428481D01*
X208363077Y-59333652D01*
X208627665Y-59203172D01*
X208872957Y-59039273D01*
X209094758Y-58844758D01*
X209289273Y-58622957D01*
X209453172Y-58377665D01*
X209583652Y-58113077D01*
X209678481Y-57833722D01*
X209736034Y-57544380D01*
X209746820Y-57379816D01*
X209755329Y-57250007D01*
X209755329Y-57249992D01*
X209736035Y-56955636D01*
X209736034Y-56955620D01*
X209678481Y-56666278D01*
X209583652Y-56386923D01*
X209453172Y-56122336D01*
X209447986Y-56114575D01*
X209387607Y-56024211D01*
X209289273Y-55877043D01*
X209208876Y-55785368D01*
X209094758Y-55655241D01*
X208872955Y-55460725D01*
X208627667Y-55296829D01*
X208627660Y-55296825D01*
X208363080Y-55166349D01*
X208083730Y-55071521D01*
X208083724Y-55071519D01*
X208083722Y-55071519D01*
X207794380Y-55013966D01*
X207794373Y-55013965D01*
X207794363Y-55013964D01*
X207500007Y-54994671D01*
X207499993Y-54994671D01*
X207205636Y-55013964D01*
X207205624Y-55013965D01*
X207205620Y-55013966D01*
X207205612Y-55013967D01*
X207205609Y-55013968D01*
X206916283Y-55071518D01*
X206916269Y-55071521D01*
X206636919Y-55166349D01*
X206372334Y-55296828D01*
X206127041Y-55460728D01*
X205905241Y-55655241D01*
X205710728Y-55877041D01*
X205546828Y-56122334D01*
X205416349Y-56386919D01*
X205321521Y-56666269D01*
X205321518Y-56666283D01*
X205263968Y-56955609D01*
X205263964Y-56955636D01*
X205244671Y-57249992D01*
X204530354Y-57249992D01*
X204599522Y-57225789D01*
X204752262Y-57129816D01*
X204879816Y-57002262D01*
X204975789Y-56849522D01*
X205035368Y-56679255D01*
X205035369Y-56679249D01*
X205055565Y-56500003D01*
X205055565Y-56499996D01*
X205035369Y-56320750D01*
X205035368Y-56320745D01*
X204975788Y-56150476D01*
X204912340Y-56049500D01*
X204879816Y-55997738D01*
X204752262Y-55870184D01*
X204649422Y-55805565D01*
X204599523Y-55774211D01*
X204429254Y-55714631D01*
X204429249Y-55714630D01*
X204250004Y-55694435D01*
X204249996Y-55694435D01*
X204070750Y-55714630D01*
X204070745Y-55714631D01*
X203900476Y-55774211D01*
X203747737Y-55870184D01*
X203620184Y-55997737D01*
X203524211Y-56150476D01*
X203464631Y-56320745D01*
X203464630Y-56320750D01*
X203444435Y-56499996D01*
X201025052Y-56499996D01*
X200995158Y-56414565D01*
X200977789Y-56386923D01*
X200933411Y-56316295D01*
X200899185Y-56261825D01*
X200771631Y-56134271D01*
X200752637Y-56122336D01*
X200618892Y-56038298D01*
X200448623Y-55978718D01*
X200448618Y-55978717D01*
X200269373Y-55958522D01*
X200269365Y-55958522D01*
X200090119Y-55978717D01*
X200090114Y-55978718D01*
X199919845Y-56038298D01*
X199767106Y-56134271D01*
X199639553Y-56261824D01*
X199639551Y-56261827D01*
X199619103Y-56294370D01*
X199566768Y-56340661D01*
X199497715Y-56351308D01*
X199433866Y-56322933D01*
X199409116Y-56294369D01*
X199403461Y-56285369D01*
X199379816Y-56247738D01*
X199252262Y-56120184D01*
X199099523Y-56024211D01*
X198929254Y-55964631D01*
X198929249Y-55964630D01*
X198750004Y-55944435D01*
X198749996Y-55944435D01*
X198570746Y-55964631D01*
X198563956Y-55966181D01*
X198563537Y-55964346D01*
X198503138Y-55967415D01*
X198442519Y-55932672D01*
X198416049Y-55890789D01*
X198376069Y-55785369D01*
X198374818Y-55782070D01*
X198369393Y-55774211D01*
X198335969Y-55725788D01*
X198278183Y-55642071D01*
X198150852Y-55529266D01*
X198150849Y-55529263D01*
X198000226Y-55450210D01*
X197931825Y-55433351D01*
X197871444Y-55398195D01*
X197839656Y-55335975D01*
X197846552Y-55266447D01*
X197889943Y-55211684D01*
X197947617Y-55189734D01*
X197986358Y-55185369D01*
X197986361Y-55185368D01*
X197986363Y-55185368D01*
X198156630Y-55125789D01*
X198309370Y-55029816D01*
X198436924Y-54902262D01*
X198532897Y-54749522D01*
X198592476Y-54579255D01*
X198592477Y-54579249D01*
X198612673Y-54400003D01*
X198612673Y-54399996D01*
X198592477Y-54220750D01*
X198592476Y-54220745D01*
X198577956Y-54179249D01*
X198532897Y-54050478D01*
X198436924Y-53897738D01*
X198309370Y-53770184D01*
X198277252Y-53750003D01*
X198156631Y-53674211D01*
X197986362Y-53614631D01*
X197986357Y-53614630D01*
X197807112Y-53594435D01*
X197807104Y-53594435D01*
X197627858Y-53614630D01*
X197627853Y-53614631D01*
X197457584Y-53674211D01*
X197304845Y-53770184D01*
X197177292Y-53897737D01*
X197081319Y-54050476D01*
X197021739Y-54220745D01*
X197021738Y-54220750D01*
X197001543Y-54399996D01*
X195820146Y-54399996D01*
X195852262Y-54379816D01*
X195979816Y-54252262D01*
X196075789Y-54099522D01*
X196135368Y-53929255D01*
X196135369Y-53929249D01*
X196155565Y-53750003D01*
X196155565Y-53749996D01*
X196135369Y-53570750D01*
X196135368Y-53570745D01*
X196096800Y-53460525D01*
X196075789Y-53400478D01*
X195979816Y-53247738D01*
X195852262Y-53120184D01*
X195749422Y-53055565D01*
X195699523Y-53024211D01*
X195529254Y-52964631D01*
X195529249Y-52964630D01*
X195350004Y-52944435D01*
X195349996Y-52944435D01*
X195170750Y-52964630D01*
X195170742Y-52964632D01*
X195088336Y-52993467D01*
X195018557Y-52997028D01*
X194957930Y-52962299D01*
X194930340Y-52917380D01*
X194875789Y-52761481D01*
X194868573Y-52749996D01*
X194858418Y-52733834D01*
X194839418Y-52666597D01*
X194859786Y-52599762D01*
X194861320Y-52597483D01*
X194874818Y-52577930D01*
X194935140Y-52418872D01*
X194955645Y-52250000D01*
X194935140Y-52081128D01*
X194874818Y-51922070D01*
X194778183Y-51782071D01*
X194683316Y-51698026D01*
X194650849Y-51669263D01*
X194500226Y-51590210D01*
X194335056Y-51549500D01*
X194164944Y-51549500D01*
X193999773Y-51590210D01*
X193849150Y-51669263D01*
X193721816Y-51782072D01*
X193625182Y-51922068D01*
X193564860Y-52081125D01*
X193564859Y-52081130D01*
X193544355Y-52250000D01*
X193564859Y-52418870D01*
X193564860Y-52418874D01*
X193576354Y-52449181D01*
X193581720Y-52518844D01*
X193548571Y-52580350D01*
X193548094Y-52580830D01*
X193520184Y-52608739D01*
X193424211Y-52761479D01*
X193364631Y-52931748D01*
X193364630Y-52931753D01*
X193344435Y-53110999D01*
X174218578Y-53110999D01*
X174225789Y-53099522D01*
X174285368Y-52929255D01*
X174286706Y-52917380D01*
X174305565Y-52750003D01*
X174305565Y-52749996D01*
X174285369Y-52570750D01*
X174285368Y-52570745D01*
X174277345Y-52547817D01*
X174225789Y-52400478D01*
X174129816Y-52247738D01*
X174002262Y-52120184D01*
X173940100Y-52081125D01*
X173849523Y-52024211D01*
X173780321Y-51999996D01*
X184194435Y-51999996D01*
X184194435Y-52000003D01*
X184214630Y-52179249D01*
X184214631Y-52179254D01*
X184274211Y-52349523D01*
X184336831Y-52449181D01*
X184370184Y-52502262D01*
X184497738Y-52629816D01*
X184650478Y-52725789D01*
X184752480Y-52761481D01*
X184820745Y-52785368D01*
X184820750Y-52785369D01*
X184999996Y-52805565D01*
X185000000Y-52805565D01*
X185000004Y-52805565D01*
X185179249Y-52785369D01*
X185179252Y-52785368D01*
X185179255Y-52785368D01*
X185349522Y-52725789D01*
X185502262Y-52629816D01*
X185629816Y-52502262D01*
X185725789Y-52349522D01*
X185760615Y-52249996D01*
X189544435Y-52249996D01*
X189544435Y-52250003D01*
X189564630Y-52429249D01*
X189564631Y-52429254D01*
X189624211Y-52599523D01*
X189662605Y-52660626D01*
X189720184Y-52752262D01*
X189847738Y-52879816D01*
X189907521Y-52917380D01*
X189982721Y-52964632D01*
X190000478Y-52975789D01*
X190050999Y-52993467D01*
X190170745Y-53035368D01*
X190170750Y-53035369D01*
X190349996Y-53055565D01*
X190350000Y-53055565D01*
X190350004Y-53055565D01*
X190529249Y-53035369D01*
X190529252Y-53035368D01*
X190529255Y-53035368D01*
X190699522Y-52975789D01*
X190852262Y-52879816D01*
X190979816Y-52752262D01*
X191075789Y-52599522D01*
X191135368Y-52429255D01*
X191136538Y-52418870D01*
X191155565Y-52250003D01*
X191155565Y-52249996D01*
X191444435Y-52249996D01*
X191444435Y-52250003D01*
X191464630Y-52429249D01*
X191464631Y-52429254D01*
X191524211Y-52599523D01*
X191562605Y-52660626D01*
X191620184Y-52752262D01*
X191747738Y-52879816D01*
X191807521Y-52917380D01*
X191882721Y-52964632D01*
X191900478Y-52975789D01*
X191950999Y-52993467D01*
X192070745Y-53035368D01*
X192070750Y-53035369D01*
X192249996Y-53055565D01*
X192250000Y-53055565D01*
X192250004Y-53055565D01*
X192429249Y-53035369D01*
X192429252Y-53035368D01*
X192429255Y-53035368D01*
X192599522Y-52975789D01*
X192752262Y-52879816D01*
X192879816Y-52752262D01*
X192975789Y-52599522D01*
X193035368Y-52429255D01*
X193036538Y-52418870D01*
X193055565Y-52250003D01*
X193055565Y-52249996D01*
X193035369Y-52070750D01*
X193035368Y-52070745D01*
X193028186Y-52050220D01*
X192975789Y-51900478D01*
X192879816Y-51747738D01*
X192752262Y-51620184D01*
X192704559Y-51590210D01*
X192599523Y-51524211D01*
X192429254Y-51464631D01*
X192429249Y-51464630D01*
X192250004Y-51444435D01*
X192249996Y-51444435D01*
X192070750Y-51464630D01*
X192070745Y-51464631D01*
X191900476Y-51524211D01*
X191747737Y-51620184D01*
X191620184Y-51747737D01*
X191524211Y-51900476D01*
X191464631Y-52070745D01*
X191464630Y-52070750D01*
X191444435Y-52249996D01*
X191155565Y-52249996D01*
X191135369Y-52070750D01*
X191135368Y-52070745D01*
X191128186Y-52050220D01*
X191075789Y-51900478D01*
X190979816Y-51747738D01*
X190852262Y-51620184D01*
X190804559Y-51590210D01*
X190699523Y-51524211D01*
X190529254Y-51464631D01*
X190529249Y-51464630D01*
X190350004Y-51444435D01*
X190349996Y-51444435D01*
X190170750Y-51464630D01*
X190170745Y-51464631D01*
X190000476Y-51524211D01*
X189847737Y-51620184D01*
X189720184Y-51747737D01*
X189624211Y-51900476D01*
X189564631Y-52070745D01*
X189564630Y-52070750D01*
X189544435Y-52249996D01*
X185760615Y-52249996D01*
X185785368Y-52179255D01*
X185786538Y-52168872D01*
X185805565Y-52000003D01*
X185805565Y-51999996D01*
X185785369Y-51820750D01*
X185785368Y-51820745D01*
X185747718Y-51713147D01*
X185725789Y-51650478D01*
X185629816Y-51497738D01*
X185502262Y-51370184D01*
X185446202Y-51334959D01*
X185349523Y-51274211D01*
X185179254Y-51214631D01*
X185179249Y-51214630D01*
X185000004Y-51194435D01*
X184999996Y-51194435D01*
X184820750Y-51214630D01*
X184820745Y-51214631D01*
X184650476Y-51274211D01*
X184497737Y-51370184D01*
X184370184Y-51497737D01*
X184274211Y-51650476D01*
X184214631Y-51820745D01*
X184214630Y-51820750D01*
X184194435Y-51999996D01*
X173780321Y-51999996D01*
X173679254Y-51964631D01*
X173679249Y-51964630D01*
X173500004Y-51944435D01*
X173499996Y-51944435D01*
X173320750Y-51964630D01*
X173320745Y-51964631D01*
X173150476Y-52024211D01*
X172997737Y-52120184D01*
X172870184Y-52247737D01*
X172774211Y-52400476D01*
X172714631Y-52570745D01*
X172714630Y-52570750D01*
X172694435Y-52749996D01*
X169863487Y-52749996D01*
X169902940Y-52713465D01*
X169958141Y-52700500D01*
X170085056Y-52700500D01*
X170250225Y-52659790D01*
X170369058Y-52597421D01*
X170400849Y-52580736D01*
X170400850Y-52580734D01*
X170400852Y-52580734D01*
X170528183Y-52467929D01*
X170624818Y-52327930D01*
X170685140Y-52168872D01*
X170705645Y-52000000D01*
X170685140Y-51831128D01*
X170624818Y-51672070D01*
X170622880Y-51669263D01*
X170589003Y-51620184D01*
X170528183Y-51532071D01*
X170400852Y-51419266D01*
X170400850Y-51419264D01*
X170382023Y-51409383D01*
X170331812Y-51360797D01*
X170315839Y-51292778D01*
X170339176Y-51226920D01*
X170351965Y-51211913D01*
X172012043Y-49551835D01*
X172073364Y-49518352D01*
X172143056Y-49523336D01*
X172198989Y-49565208D01*
X172222942Y-49625635D01*
X172228982Y-49679248D01*
X172228983Y-49679253D01*
X172288563Y-49849522D01*
X172352012Y-49950500D01*
X172384536Y-50002261D01*
X172512090Y-50129815D01*
X172664830Y-50225788D01*
X172835097Y-50285367D01*
X172835102Y-50285368D01*
X173014348Y-50305564D01*
X173014352Y-50305564D01*
X173014356Y-50305564D01*
X173193601Y-50285368D01*
X173193604Y-50285367D01*
X173193607Y-50285367D01*
X173363874Y-50225788D01*
X173516614Y-50129815D01*
X173644168Y-50002261D01*
X173740141Y-49849521D01*
X173799720Y-49679254D01*
X173799721Y-49679248D01*
X173819917Y-49500002D01*
X173819917Y-49499995D01*
X173799721Y-49320749D01*
X173799720Y-49320744D01*
X173777605Y-49257544D01*
X173774965Y-49250000D01*
X179544355Y-49250000D01*
X179564859Y-49418869D01*
X179564860Y-49418874D01*
X179625182Y-49577931D01*
X179681686Y-49659789D01*
X179721817Y-49717929D01*
X179820738Y-49805565D01*
X179849150Y-49830736D01*
X179999773Y-49909789D01*
X179999775Y-49909790D01*
X180164944Y-49950500D01*
X180335056Y-49950500D01*
X180500225Y-49909790D01*
X180615057Y-49849521D01*
X180650849Y-49830736D01*
X180650850Y-49830734D01*
X180650852Y-49830734D01*
X180778183Y-49717929D01*
X180874818Y-49577930D01*
X180904373Y-49500000D01*
X182044355Y-49500000D01*
X182064859Y-49668869D01*
X182064860Y-49668874D01*
X182125182Y-49827931D01*
X182181686Y-49909789D01*
X182221817Y-49967929D01*
X182327505Y-50061560D01*
X182349150Y-50080736D01*
X182499773Y-50159789D01*
X182499775Y-50159790D01*
X182664944Y-50200500D01*
X182835056Y-50200500D01*
X183000225Y-50159790D01*
X183079692Y-50118081D01*
X183150849Y-50080736D01*
X183150850Y-50080734D01*
X183150852Y-50080734D01*
X183278183Y-49967929D01*
X183374818Y-49827930D01*
X183435140Y-49668872D01*
X183455645Y-49500000D01*
X183435140Y-49331128D01*
X183374818Y-49172070D01*
X183372608Y-49168869D01*
X183312045Y-49081128D01*
X183278183Y-49032071D01*
X183150852Y-48919266D01*
X183150849Y-48919263D01*
X183000226Y-48840210D01*
X182835056Y-48799500D01*
X182664944Y-48799500D01*
X182499773Y-48840210D01*
X182349150Y-48919263D01*
X182221816Y-49032072D01*
X182125182Y-49172068D01*
X182064860Y-49331125D01*
X182064859Y-49331130D01*
X182044355Y-49500000D01*
X180904373Y-49500000D01*
X180935140Y-49418872D01*
X180955645Y-49250000D01*
X180935140Y-49081128D01*
X180933450Y-49076673D01*
X180884605Y-48947876D01*
X180874818Y-48922070D01*
X180872880Y-48919263D01*
X180824741Y-48849522D01*
X180778183Y-48782071D01*
X180679262Y-48694435D01*
X180650849Y-48669263D01*
X180500226Y-48590210D01*
X180335056Y-48549500D01*
X180164944Y-48549500D01*
X179999773Y-48590210D01*
X179849150Y-48669263D01*
X179721816Y-48782072D01*
X179625182Y-48922068D01*
X179564860Y-49081125D01*
X179564859Y-49081130D01*
X179544355Y-49250000D01*
X173774965Y-49250000D01*
X173740141Y-49150477D01*
X173736013Y-49143908D01*
X173717012Y-49076673D01*
X173737378Y-49009837D01*
X173758781Y-48985117D01*
X173778183Y-48967929D01*
X173874818Y-48827930D01*
X173935140Y-48668872D01*
X173955645Y-48500000D01*
X173935140Y-48331128D01*
X173904373Y-48250000D01*
X184794355Y-48250000D01*
X184814859Y-48418869D01*
X184814860Y-48418874D01*
X184875182Y-48577931D01*
X184937475Y-48668177D01*
X184971817Y-48717929D01*
X185044219Y-48782071D01*
X185099150Y-48830736D01*
X185249773Y-48909789D01*
X185249775Y-48909790D01*
X185414944Y-48950500D01*
X185585056Y-48950500D01*
X185750225Y-48909790D01*
X185865055Y-48849522D01*
X185900849Y-48830736D01*
X185900850Y-48830734D01*
X185900852Y-48830734D01*
X186028183Y-48717929D01*
X186124818Y-48577930D01*
X186185140Y-48418872D01*
X186205645Y-48250000D01*
X186185140Y-48081128D01*
X186124818Y-47922070D01*
X186028183Y-47782071D01*
X185900852Y-47669266D01*
X185900849Y-47669263D01*
X185750226Y-47590210D01*
X185585056Y-47549500D01*
X185414944Y-47549500D01*
X185249773Y-47590210D01*
X185099150Y-47669263D01*
X184971816Y-47782072D01*
X184875182Y-47922068D01*
X184814860Y-48081125D01*
X184814859Y-48081130D01*
X184794355Y-48250000D01*
X173904373Y-48250000D01*
X173874818Y-48172070D01*
X173778183Y-48032071D01*
X173746142Y-48003685D01*
X173709016Y-47944495D01*
X173709784Y-47874630D01*
X173740687Y-47823191D01*
X174006297Y-47557581D01*
X174067618Y-47524098D01*
X174137310Y-47529082D01*
X174193243Y-47570954D01*
X174196010Y-47574801D01*
X174215962Y-47603706D01*
X174289522Y-47668874D01*
X174343295Y-47716513D01*
X174493918Y-47795566D01*
X174493920Y-47795567D01*
X174659089Y-47836277D01*
X174829201Y-47836277D01*
X174994370Y-47795567D01*
X175073837Y-47753858D01*
X175144994Y-47716513D01*
X175144995Y-47716511D01*
X175144997Y-47716511D01*
X175272328Y-47603706D01*
X175368963Y-47463707D01*
X175429285Y-47304649D01*
X175435921Y-47250000D01*
X180294355Y-47250000D01*
X180314859Y-47418869D01*
X180314860Y-47418874D01*
X180375182Y-47577931D01*
X180392974Y-47603706D01*
X180471817Y-47717929D01*
X180559453Y-47795567D01*
X180599150Y-47830736D01*
X180749773Y-47909789D01*
X180749775Y-47909790D01*
X180914944Y-47950500D01*
X181085056Y-47950500D01*
X181250225Y-47909790D01*
X181329692Y-47868081D01*
X181400849Y-47830736D01*
X181400850Y-47830734D01*
X181400852Y-47830734D01*
X181528183Y-47717929D01*
X181624818Y-47577930D01*
X181685140Y-47418872D01*
X181705645Y-47250000D01*
X181685140Y-47081128D01*
X181624818Y-46922070D01*
X181528183Y-46782071D01*
X181400852Y-46669266D01*
X181400849Y-46669263D01*
X181250226Y-46590210D01*
X181085056Y-46549500D01*
X180914944Y-46549500D01*
X180749773Y-46590210D01*
X180599150Y-46669263D01*
X180471816Y-46782072D01*
X180375182Y-46922068D01*
X180314860Y-47081125D01*
X180314859Y-47081130D01*
X180294355Y-47250000D01*
X175435921Y-47250000D01*
X175449790Y-47135777D01*
X175429285Y-46966905D01*
X175368963Y-46807847D01*
X175363039Y-46799265D01*
X175323824Y-46742452D01*
X175272328Y-46667848D01*
X175171395Y-46578430D01*
X175134270Y-46519242D01*
X175135038Y-46449377D01*
X175165941Y-46397937D01*
X176098202Y-45465676D01*
X176156204Y-45432963D01*
X176250225Y-45409790D01*
X176349344Y-45357768D01*
X180228891Y-45357768D01*
X180228891Y-45357775D01*
X180249086Y-45537021D01*
X180249087Y-45537026D01*
X180308667Y-45707295D01*
X180365496Y-45797737D01*
X180404640Y-45860034D01*
X180532194Y-45987588D01*
X180580507Y-46017945D01*
X180630756Y-46049519D01*
X180684934Y-46083561D01*
X180817123Y-46129816D01*
X180855201Y-46143140D01*
X180855206Y-46143141D01*
X181034452Y-46163337D01*
X181034456Y-46163337D01*
X181034460Y-46163337D01*
X181213705Y-46143141D01*
X181213708Y-46143140D01*
X181213711Y-46143140D01*
X181383978Y-46083561D01*
X181536718Y-45987588D01*
X181557053Y-45967252D01*
X181618372Y-45933769D01*
X181688063Y-45938752D01*
X181743998Y-45980623D01*
X181761773Y-46013980D01*
X181774208Y-46049519D01*
X181849566Y-46169449D01*
X181870184Y-46202262D01*
X181997738Y-46329816D01*
X182088080Y-46386582D01*
X182139469Y-46418872D01*
X182150478Y-46425789D01*
X182217889Y-46449377D01*
X182320745Y-46485368D01*
X182320750Y-46485369D01*
X182499996Y-46505565D01*
X182500000Y-46505565D01*
X182500003Y-46505565D01*
X182594877Y-46494875D01*
X182617082Y-46492373D01*
X182685904Y-46504427D01*
X182737284Y-46551776D01*
X182748008Y-46574638D01*
X182774211Y-46649523D01*
X182838767Y-46752262D01*
X182870184Y-46802262D01*
X182997738Y-46929816D01*
X183150478Y-47025789D01*
X183320745Y-47085368D01*
X183320750Y-47085369D01*
X183499996Y-47105565D01*
X183500000Y-47105565D01*
X183500004Y-47105565D01*
X183679249Y-47085369D01*
X183679252Y-47085368D01*
X183679255Y-47085368D01*
X183849522Y-47025789D01*
X184002262Y-46929816D01*
X184129816Y-46802262D01*
X184225789Y-46649522D01*
X184285368Y-46479255D01*
X184285759Y-46475788D01*
X184305565Y-46300003D01*
X184305565Y-46299996D01*
X184285369Y-46120750D01*
X184285368Y-46120745D01*
X184266569Y-46067021D01*
X184225789Y-45950478D01*
X184129816Y-45797738D01*
X184002262Y-45670184D01*
X184000796Y-45669263D01*
X183849523Y-45574211D01*
X183679254Y-45514631D01*
X183679249Y-45514630D01*
X183500004Y-45494435D01*
X183499996Y-45494435D01*
X183382916Y-45507626D01*
X183314094Y-45495571D01*
X183262715Y-45448222D01*
X183251991Y-45425360D01*
X183225789Y-45350478D01*
X183184878Y-45285369D01*
X183129816Y-45197738D01*
X183002262Y-45070184D01*
X182849521Y-44974210D01*
X182679249Y-44914630D01*
X182640994Y-44910320D01*
X182576580Y-44883253D01*
X182538068Y-44827177D01*
X182537668Y-44827318D01*
X182537151Y-44825842D01*
X182537025Y-44825658D01*
X182536789Y-44824806D01*
X182518336Y-44772070D01*
X182475789Y-44650478D01*
X182381235Y-44499996D01*
X184194435Y-44499996D01*
X184194435Y-44500003D01*
X184214630Y-44679249D01*
X184214631Y-44679254D01*
X184274211Y-44849523D01*
X184340162Y-44954482D01*
X184370184Y-45002262D01*
X184497738Y-45129816D01*
X184575245Y-45178517D01*
X184650474Y-45225787D01*
X184650478Y-45225789D01*
X184773594Y-45268869D01*
X184820745Y-45285368D01*
X184820750Y-45285369D01*
X184999996Y-45305565D01*
X185000000Y-45305565D01*
X185000004Y-45305565D01*
X185179249Y-45285369D01*
X185179252Y-45285368D01*
X185179255Y-45285368D01*
X185349522Y-45225789D01*
X185502262Y-45129816D01*
X185629816Y-45002262D01*
X185725789Y-44849522D01*
X185785368Y-44679255D01*
X185785369Y-44679248D01*
X185805565Y-44500003D01*
X185805565Y-44499996D01*
X185785369Y-44320750D01*
X185785368Y-44320744D01*
X185725788Y-44150476D01*
X185652549Y-44033918D01*
X185629816Y-43997738D01*
X185502262Y-43870184D01*
X185399422Y-43805565D01*
X185349523Y-43774211D01*
X185179254Y-43714631D01*
X185179249Y-43714630D01*
X185000004Y-43694435D01*
X184999996Y-43694435D01*
X184820750Y-43714630D01*
X184820745Y-43714631D01*
X184650476Y-43774211D01*
X184497737Y-43870184D01*
X184370184Y-43997737D01*
X184274211Y-44150476D01*
X184214632Y-44320744D01*
X184214630Y-44320750D01*
X184194435Y-44499996D01*
X182381235Y-44499996D01*
X182379816Y-44497738D01*
X182252262Y-44370184D01*
X182223743Y-44352264D01*
X182099523Y-44274211D01*
X181929254Y-44214631D01*
X181929249Y-44214630D01*
X181750004Y-44194435D01*
X181749996Y-44194435D01*
X181570750Y-44214630D01*
X181570745Y-44214631D01*
X181400476Y-44274211D01*
X181247737Y-44370184D01*
X181120186Y-44497735D01*
X181115843Y-44503182D01*
X181114273Y-44501930D01*
X181069311Y-44541694D01*
X181030544Y-44552647D01*
X180855205Y-44572402D01*
X180855201Y-44572403D01*
X180684932Y-44631983D01*
X180532193Y-44727956D01*
X180404640Y-44855509D01*
X180308667Y-45008248D01*
X180249087Y-45178517D01*
X180249086Y-45178522D01*
X180228891Y-45357768D01*
X176349344Y-45357768D01*
X176400852Y-45330734D01*
X176528183Y-45217929D01*
X176624818Y-45077930D01*
X176685140Y-44918872D01*
X176705645Y-44750000D01*
X176685140Y-44581128D01*
X176681831Y-44572404D01*
X176655579Y-44503182D01*
X176624818Y-44422070D01*
X176617597Y-44411609D01*
X176554881Y-44320750D01*
X176528183Y-44282071D01*
X176408984Y-44176470D01*
X176400849Y-44169263D01*
X176250226Y-44090210D01*
X176085056Y-44049500D01*
X175914944Y-44049500D01*
X175749773Y-44090210D01*
X175599150Y-44169263D01*
X175471816Y-44282072D01*
X175375182Y-44422068D01*
X175375182Y-44422069D01*
X175314858Y-44581131D01*
X175314857Y-44581134D01*
X175314468Y-44584341D01*
X175313530Y-44586518D01*
X175313064Y-44588411D01*
X175312749Y-44588333D01*
X175286840Y-44648516D01*
X175279055Y-44657063D01*
X174291443Y-45644675D01*
X174230120Y-45678160D01*
X174160428Y-45673176D01*
X174146136Y-45666790D01*
X174000226Y-45590210D01*
X173835056Y-45549500D01*
X173664944Y-45549500D01*
X173499773Y-45590210D01*
X173349150Y-45669263D01*
X173221816Y-45782072D01*
X173125182Y-45922068D01*
X173064860Y-46081125D01*
X173064859Y-46081130D01*
X173044355Y-46250000D01*
X173064859Y-46418869D01*
X173064860Y-46418874D01*
X173125181Y-46577929D01*
X173133658Y-46590210D01*
X173161631Y-46630735D01*
X173183514Y-46697089D01*
X173166049Y-46764741D01*
X173147262Y-46788856D01*
X167919385Y-52016735D01*
X167858062Y-52050220D01*
X167831704Y-52053054D01*
X166795680Y-52053054D01*
X166649309Y-52092273D01*
X166518081Y-52168039D01*
X166273244Y-52412875D01*
X166215239Y-52445590D01*
X166121218Y-52468764D01*
X165970596Y-52547817D01*
X165843262Y-52660626D01*
X165746628Y-52800622D01*
X165686306Y-52959679D01*
X165686305Y-52959684D01*
X165665801Y-53128554D01*
X165010632Y-53128554D01*
X165002262Y-53120184D01*
X164899422Y-53055565D01*
X164849523Y-53024211D01*
X164679254Y-52964631D01*
X164679249Y-52964630D01*
X164500004Y-52944435D01*
X164499996Y-52944435D01*
X164320750Y-52964630D01*
X164320745Y-52964631D01*
X164150476Y-53024211D01*
X163997737Y-53120184D01*
X163870184Y-53247737D01*
X163774211Y-53400476D01*
X163714631Y-53570745D01*
X163714630Y-53570750D01*
X163694435Y-53749996D01*
X146900500Y-53749996D01*
X146900500Y-50849993D01*
X151344700Y-50849993D01*
X151344700Y-50850006D01*
X151363864Y-51081297D01*
X151363866Y-51081308D01*
X151420842Y-51306300D01*
X151514075Y-51518848D01*
X151641016Y-51713147D01*
X151641019Y-51713151D01*
X151641021Y-51713153D01*
X151798216Y-51883913D01*
X151798219Y-51883915D01*
X151798222Y-51883918D01*
X151981365Y-52026464D01*
X151981371Y-52026468D01*
X151981374Y-52026470D01*
X152082373Y-52081128D01*
X152172338Y-52129815D01*
X152185497Y-52136936D01*
X152278529Y-52168874D01*
X152405015Y-52212297D01*
X152405017Y-52212297D01*
X152405019Y-52212298D01*
X152633951Y-52250500D01*
X152633952Y-52250500D01*
X152866048Y-52250500D01*
X152866049Y-52250500D01*
X153094981Y-52212298D01*
X153314503Y-52136936D01*
X153518626Y-52026470D01*
X153521529Y-52024211D01*
X153552635Y-52000000D01*
X161544355Y-52000000D01*
X161564859Y-52168869D01*
X161564860Y-52168874D01*
X161625182Y-52327931D01*
X161683816Y-52412875D01*
X161721817Y-52467929D01*
X161811992Y-52547817D01*
X161849150Y-52580736D01*
X161999773Y-52659789D01*
X161999775Y-52659790D01*
X162164944Y-52700500D01*
X162335056Y-52700500D01*
X162500225Y-52659790D01*
X162619058Y-52597421D01*
X162650849Y-52580736D01*
X162650850Y-52580734D01*
X162650852Y-52580734D01*
X162778183Y-52467929D01*
X162874818Y-52327930D01*
X162935140Y-52168872D01*
X162955645Y-52000000D01*
X162935140Y-51831128D01*
X162874818Y-51672070D01*
X162872880Y-51669263D01*
X162839003Y-51620184D01*
X162778183Y-51532071D01*
X162741978Y-51499996D01*
X164444435Y-51499996D01*
X164444435Y-51500003D01*
X164464630Y-51679249D01*
X164464631Y-51679254D01*
X164524211Y-51849523D01*
X164569796Y-51922070D01*
X164620184Y-52002262D01*
X164747738Y-52129816D01*
X164826410Y-52179249D01*
X164879005Y-52212297D01*
X164900478Y-52225789D01*
X164969678Y-52250003D01*
X165070745Y-52285368D01*
X165070750Y-52285369D01*
X165249996Y-52305565D01*
X165250000Y-52305565D01*
X165250004Y-52305565D01*
X165429249Y-52285369D01*
X165429252Y-52285368D01*
X165429255Y-52285368D01*
X165599522Y-52225789D01*
X165752262Y-52129816D01*
X165879816Y-52002262D01*
X165975789Y-51849522D01*
X166035368Y-51679255D01*
X166036178Y-51672068D01*
X166055565Y-51500003D01*
X166055565Y-51499996D01*
X166035369Y-51320750D01*
X166035368Y-51320745D01*
X165975788Y-51150476D01*
X165879815Y-50997737D01*
X165752262Y-50870184D01*
X165599523Y-50774211D01*
X165429254Y-50714631D01*
X165429249Y-50714630D01*
X165250004Y-50694435D01*
X165249996Y-50694435D01*
X165070750Y-50714630D01*
X165070745Y-50714631D01*
X164900476Y-50774211D01*
X164747737Y-50870184D01*
X164620184Y-50997737D01*
X164524211Y-51150476D01*
X164464631Y-51320745D01*
X164464630Y-51320750D01*
X164444435Y-51499996D01*
X162741978Y-51499996D01*
X162650852Y-51419266D01*
X162650849Y-51419263D01*
X162500226Y-51340210D01*
X162335056Y-51299500D01*
X162164944Y-51299500D01*
X161999773Y-51340210D01*
X161849150Y-51419263D01*
X161721816Y-51532072D01*
X161625182Y-51672068D01*
X161564860Y-51831125D01*
X161564859Y-51831130D01*
X161544355Y-52000000D01*
X153552635Y-52000000D01*
X153624025Y-51944435D01*
X153701784Y-51883913D01*
X153858979Y-51713153D01*
X153985924Y-51518849D01*
X154079157Y-51306300D01*
X154136134Y-51081305D01*
X154136135Y-51081297D01*
X154155300Y-50850006D01*
X154155300Y-50849993D01*
X154136135Y-50618702D01*
X154136133Y-50618691D01*
X154079157Y-50393699D01*
X153985924Y-50181151D01*
X153858983Y-49986852D01*
X153858980Y-49986849D01*
X153858979Y-49986847D01*
X153701784Y-49816087D01*
X153701779Y-49816083D01*
X153701777Y-49816081D01*
X153518634Y-49673535D01*
X153518628Y-49673531D01*
X153314504Y-49563064D01*
X153314495Y-49563061D01*
X153094984Y-49487702D01*
X152923282Y-49459050D01*
X152866049Y-49449500D01*
X152633951Y-49449500D01*
X152588164Y-49457140D01*
X152405015Y-49487702D01*
X152185504Y-49563061D01*
X152185495Y-49563064D01*
X151981371Y-49673531D01*
X151981365Y-49673535D01*
X151798222Y-49816081D01*
X151798219Y-49816084D01*
X151798216Y-49816086D01*
X151798216Y-49816087D01*
X151784373Y-49831125D01*
X151641016Y-49986852D01*
X151514075Y-50181151D01*
X151420842Y-50393699D01*
X151363866Y-50618691D01*
X151363864Y-50618702D01*
X151344700Y-50849993D01*
X146900500Y-50849993D01*
X146900500Y-48999996D01*
X159194435Y-48999996D01*
X159194435Y-49000003D01*
X159214630Y-49179249D01*
X159214631Y-49179254D01*
X159274211Y-49349523D01*
X159318032Y-49419263D01*
X159370184Y-49502262D01*
X159497738Y-49629816D01*
X159576418Y-49679254D01*
X159637965Y-49717927D01*
X159650478Y-49725789D01*
X159820745Y-49785368D01*
X159820750Y-49785369D01*
X159999996Y-49805565D01*
X160000000Y-49805565D01*
X160000004Y-49805565D01*
X160179249Y-49785369D01*
X160179252Y-49785368D01*
X160179255Y-49785368D01*
X160349522Y-49725789D01*
X160502262Y-49629816D01*
X160629816Y-49502262D01*
X160725789Y-49349522D01*
X160785368Y-49179255D01*
X160786538Y-49168872D01*
X160805565Y-49000003D01*
X160805565Y-49000000D01*
X168794355Y-49000000D01*
X168814859Y-49168869D01*
X168814860Y-49168874D01*
X168875182Y-49327931D01*
X168920850Y-49394091D01*
X168971817Y-49467929D01*
X169034359Y-49523336D01*
X169099150Y-49580736D01*
X169249773Y-49659789D01*
X169249775Y-49659790D01*
X169414944Y-49700500D01*
X169585056Y-49700500D01*
X169750225Y-49659790D01*
X169876613Y-49593456D01*
X169900849Y-49580736D01*
X169900850Y-49580734D01*
X169900852Y-49580734D01*
X170028183Y-49467929D01*
X170124818Y-49327930D01*
X170185140Y-49168872D01*
X170205645Y-49000000D01*
X170185140Y-48831128D01*
X170124818Y-48672070D01*
X170122880Y-48669263D01*
X170090476Y-48622318D01*
X170028183Y-48532071D01*
X169900852Y-48419266D01*
X169900849Y-48419263D01*
X169750226Y-48340210D01*
X169585056Y-48299500D01*
X169414944Y-48299500D01*
X169249773Y-48340210D01*
X169099150Y-48419263D01*
X168971816Y-48532072D01*
X168875182Y-48672068D01*
X168814860Y-48831125D01*
X168814859Y-48831130D01*
X168794355Y-49000000D01*
X160805565Y-49000000D01*
X160805565Y-48999996D01*
X160785369Y-48820750D01*
X160785368Y-48820745D01*
X160741170Y-48694435D01*
X160725789Y-48650478D01*
X160629816Y-48497738D01*
X160502262Y-48370184D01*
X160428573Y-48323882D01*
X160349523Y-48274211D01*
X160179254Y-48214631D01*
X160179249Y-48214630D01*
X160000004Y-48194435D01*
X159999996Y-48194435D01*
X159820750Y-48214630D01*
X159820745Y-48214631D01*
X159650476Y-48274211D01*
X159497737Y-48370184D01*
X159370184Y-48497737D01*
X159274211Y-48650476D01*
X159214631Y-48820745D01*
X159214630Y-48820750D01*
X159194435Y-48999996D01*
X146900500Y-48999996D01*
X146900500Y-44902135D01*
X151349500Y-44902135D01*
X151349500Y-46797870D01*
X151349501Y-46797876D01*
X151355908Y-46857483D01*
X151406202Y-46992328D01*
X151406206Y-46992335D01*
X151492452Y-47107544D01*
X151492455Y-47107547D01*
X151607664Y-47193793D01*
X151607671Y-47193797D01*
X151742517Y-47244091D01*
X151742516Y-47244091D01*
X151749444Y-47244835D01*
X151802127Y-47250500D01*
X153697872Y-47250499D01*
X153757483Y-47244091D01*
X153892331Y-47193796D01*
X154007546Y-47107546D01*
X154093796Y-46992331D01*
X154144091Y-46857483D01*
X154150500Y-46797873D01*
X154150499Y-45499996D01*
X158944435Y-45499996D01*
X158944435Y-45500003D01*
X158964630Y-45679249D01*
X158964631Y-45679254D01*
X159024211Y-45849523D01*
X159103549Y-45975788D01*
X159120184Y-46002262D01*
X159247738Y-46129816D01*
X159314982Y-46172068D01*
X159340655Y-46188200D01*
X159400478Y-46225789D01*
X159481012Y-46253969D01*
X159570745Y-46285368D01*
X159570750Y-46285369D01*
X159749996Y-46305565D01*
X159750000Y-46305565D01*
X159750004Y-46305565D01*
X159929249Y-46285369D01*
X159929252Y-46285368D01*
X159929255Y-46285368D01*
X160099522Y-46225789D01*
X160252262Y-46129816D01*
X160379816Y-46002262D01*
X160475789Y-45849522D01*
X160510615Y-45749996D01*
X167694435Y-45749996D01*
X167694435Y-45750003D01*
X167714630Y-45929249D01*
X167714631Y-45929254D01*
X167774211Y-46099523D01*
X167819796Y-46172070D01*
X167870184Y-46252262D01*
X167997738Y-46379816D01*
X168070902Y-46425788D01*
X168108443Y-46449377D01*
X168150478Y-46475789D01*
X168232321Y-46504427D01*
X168320745Y-46535368D01*
X168320750Y-46535369D01*
X168499996Y-46555565D01*
X168500000Y-46555565D01*
X168500003Y-46555565D01*
X168581172Y-46546419D01*
X168674877Y-46535861D01*
X168743698Y-46547915D01*
X168795078Y-46595264D01*
X168811856Y-46644133D01*
X168814859Y-46668869D01*
X168814860Y-46668874D01*
X168875182Y-46827931D01*
X168937475Y-46918177D01*
X168971817Y-46967929D01*
X169066860Y-47052129D01*
X169099150Y-47080736D01*
X169236514Y-47152830D01*
X169249775Y-47159790D01*
X169414944Y-47200500D01*
X169585056Y-47200500D01*
X169750225Y-47159790D01*
X169849767Y-47107546D01*
X169900849Y-47080736D01*
X169900850Y-47080734D01*
X169900852Y-47080734D01*
X170028183Y-46967929D01*
X170124818Y-46827930D01*
X170185140Y-46668872D01*
X170205645Y-46500000D01*
X170185140Y-46331128D01*
X170184642Y-46329816D01*
X170124817Y-46172068D01*
X170063724Y-46083561D01*
X170028183Y-46032071D01*
X170028181Y-46032069D01*
X170011383Y-46017187D01*
X169974256Y-45957998D01*
X169975024Y-45888133D01*
X170013441Y-45829773D01*
X170077312Y-45801448D01*
X170078666Y-45801276D01*
X170085053Y-45800500D01*
X170085056Y-45800500D01*
X170250225Y-45759790D01*
X170350247Y-45707294D01*
X170400849Y-45680736D01*
X170400850Y-45680734D01*
X170400852Y-45680734D01*
X170528183Y-45567929D01*
X170624818Y-45427930D01*
X170685140Y-45268872D01*
X170705645Y-45100000D01*
X170685140Y-44931128D01*
X170624818Y-44772070D01*
X170620320Y-44765554D01*
X170598439Y-44699200D01*
X170615905Y-44631549D01*
X170634687Y-44607439D01*
X170708506Y-44533621D01*
X170708511Y-44533617D01*
X170718714Y-44523413D01*
X170718716Y-44523413D01*
X170742134Y-44499995D01*
X172208787Y-44499995D01*
X172208787Y-44500002D01*
X172228982Y-44679248D01*
X172228983Y-44679253D01*
X172288563Y-44849522D01*
X172350313Y-44947796D01*
X172384536Y-45002261D01*
X172512090Y-45129815D01*
X172664830Y-45225788D01*
X172787957Y-45268872D01*
X172835097Y-45285367D01*
X172835102Y-45285368D01*
X173014348Y-45305564D01*
X173014352Y-45305564D01*
X173014356Y-45305564D01*
X173193601Y-45285368D01*
X173193604Y-45285367D01*
X173193607Y-45285367D01*
X173363874Y-45225788D01*
X173516614Y-45129815D01*
X173644168Y-45002261D01*
X173740141Y-44849521D01*
X173799720Y-44679254D01*
X173799721Y-44679248D01*
X173819917Y-44500002D01*
X173819917Y-44499995D01*
X173799721Y-44320749D01*
X173799720Y-44320744D01*
X173756319Y-44196711D01*
X173740141Y-44150477D01*
X173722214Y-44121947D01*
X173666899Y-44033913D01*
X173644168Y-43997737D01*
X173516614Y-43870183D01*
X173505416Y-43863147D01*
X173363875Y-43774210D01*
X173193606Y-43714630D01*
X173193601Y-43714629D01*
X173014356Y-43694434D01*
X173014348Y-43694434D01*
X172835102Y-43714629D01*
X172835097Y-43714630D01*
X172664828Y-43774210D01*
X172512089Y-43870183D01*
X172384536Y-43997736D01*
X172288563Y-44150475D01*
X172228983Y-44320744D01*
X172228982Y-44320749D01*
X172208787Y-44499995D01*
X170742134Y-44499995D01*
X170830520Y-44411609D01*
X170882980Y-44320744D01*
X170909577Y-44274678D01*
X170950501Y-44121950D01*
X170950501Y-43963836D01*
X170950501Y-43956241D01*
X170950500Y-43956223D01*
X170950500Y-43550096D01*
X170970185Y-43483057D01*
X170986814Y-43462419D01*
X171982149Y-42467084D01*
X172043470Y-42433601D01*
X172099501Y-42434369D01*
X172164944Y-42450500D01*
X172335056Y-42450500D01*
X172500225Y-42409790D01*
X172579692Y-42368081D01*
X172650849Y-42330736D01*
X172650850Y-42330734D01*
X172650852Y-42330734D01*
X172778183Y-42217929D01*
X172874818Y-42077930D01*
X172874819Y-42077926D01*
X172878302Y-42071291D01*
X172880108Y-42072239D01*
X172916010Y-42024826D01*
X172981607Y-42000769D01*
X172989774Y-42000500D01*
X176713331Y-42000500D01*
X176713347Y-42000501D01*
X176720943Y-42000501D01*
X176879054Y-42000501D01*
X176879057Y-42000501D01*
X177031785Y-41959577D01*
X177088906Y-41926598D01*
X177168716Y-41880520D01*
X177280520Y-41768716D01*
X177280520Y-41768714D01*
X177290724Y-41758511D01*
X177290728Y-41758506D01*
X177418535Y-41630698D01*
X177479856Y-41597215D01*
X177492311Y-41595163D01*
X177579255Y-41585368D01*
X177749522Y-41525789D01*
X177902262Y-41429816D01*
X178029816Y-41302262D01*
X178125789Y-41149522D01*
X178178110Y-40999996D01*
X180694435Y-40999996D01*
X180694435Y-41000003D01*
X180714630Y-41179249D01*
X180714631Y-41179254D01*
X180774211Y-41349523D01*
X180856080Y-41479815D01*
X180870184Y-41502262D01*
X180997738Y-41629816D01*
X181079404Y-41681130D01*
X181130221Y-41713061D01*
X181150478Y-41725789D01*
X181320745Y-41785368D01*
X181320750Y-41785369D01*
X181499996Y-41805565D01*
X181500000Y-41805565D01*
X181500004Y-41805565D01*
X181679249Y-41785369D01*
X181679252Y-41785368D01*
X181679255Y-41785368D01*
X181849522Y-41725789D01*
X182002262Y-41629816D01*
X182025609Y-41606468D01*
X182086931Y-41572983D01*
X182154246Y-41577108D01*
X182320737Y-41635366D01*
X182320743Y-41635367D01*
X182320745Y-41635368D01*
X182320746Y-41635368D01*
X182320750Y-41635369D01*
X182499996Y-41655565D01*
X182500000Y-41655565D01*
X182500004Y-41655565D01*
X182679249Y-41635369D01*
X182679252Y-41635368D01*
X182679255Y-41635368D01*
X182849522Y-41575789D01*
X183002262Y-41479816D01*
X183129816Y-41352262D01*
X183225789Y-41199522D01*
X183285368Y-41029255D01*
X183288665Y-41000000D01*
X183293102Y-40960617D01*
X183320168Y-40896203D01*
X183377763Y-40856648D01*
X183416322Y-40850500D01*
X186333678Y-40850500D01*
X186400717Y-40870185D01*
X186446472Y-40922989D01*
X186456898Y-40960617D01*
X186464630Y-41029249D01*
X186524210Y-41199521D01*
X186524211Y-41199522D01*
X186618462Y-41349522D01*
X186620185Y-41352263D01*
X186622445Y-41355097D01*
X186623334Y-41357275D01*
X186623889Y-41358158D01*
X186623734Y-41358255D01*
X186648855Y-41419783D01*
X186649500Y-41432412D01*
X186649500Y-43913330D01*
X186649499Y-43913348D01*
X186649499Y-44079054D01*
X186649498Y-44079054D01*
X186675601Y-44176468D01*
X186690423Y-44231785D01*
X186702246Y-44252262D01*
X186722265Y-44286936D01*
X186769479Y-44368715D01*
X186888349Y-44487585D01*
X186888355Y-44487590D01*
X188128994Y-45728229D01*
X188157255Y-45771940D01*
X188187689Y-45852189D01*
X188193056Y-45921852D01*
X188176742Y-45962130D01*
X188141671Y-46017945D01*
X188082096Y-46188200D01*
X188082093Y-46188213D01*
X188061898Y-46367459D01*
X188061898Y-46367466D01*
X188082093Y-46546712D01*
X188082094Y-46546717D01*
X188141674Y-46716986D01*
X188219556Y-46840934D01*
X188237647Y-46869725D01*
X188365201Y-46997279D01*
X188452485Y-47052123D01*
X188505393Y-47085368D01*
X188517941Y-47093252D01*
X188676651Y-47148787D01*
X188688208Y-47152831D01*
X188688213Y-47152832D01*
X188867459Y-47173028D01*
X188867463Y-47173028D01*
X188867467Y-47173028D01*
X189046709Y-47152832D01*
X189046708Y-47152832D01*
X189046718Y-47152831D01*
X189101568Y-47133637D01*
X189171345Y-47130075D01*
X189231973Y-47164804D01*
X189247516Y-47184707D01*
X189320919Y-47301527D01*
X189448473Y-47429081D01*
X189566083Y-47502980D01*
X189612374Y-47555315D01*
X189623022Y-47624368D01*
X189594647Y-47688217D01*
X189541066Y-47725015D01*
X189400480Y-47774208D01*
X189247737Y-47870184D01*
X189120184Y-47997737D01*
X189024209Y-48150479D01*
X188999631Y-48220719D01*
X188958909Y-48277494D01*
X188912265Y-48300160D01*
X188749773Y-48340210D01*
X188599150Y-48419263D01*
X188471816Y-48532072D01*
X188375182Y-48672068D01*
X188314860Y-48831125D01*
X188314859Y-48831130D01*
X188294355Y-49000000D01*
X188314859Y-49168869D01*
X188314860Y-49168874D01*
X188375182Y-49327931D01*
X188420850Y-49394091D01*
X188471817Y-49467929D01*
X188534359Y-49523336D01*
X188599150Y-49580736D01*
X188749773Y-49659789D01*
X188749775Y-49659790D01*
X188914944Y-49700500D01*
X189085056Y-49700500D01*
X189250225Y-49659790D01*
X189376613Y-49593456D01*
X189400849Y-49580736D01*
X189400850Y-49580734D01*
X189400852Y-49580734D01*
X189414291Y-49568828D01*
X189477518Y-49539106D01*
X189546782Y-49548286D01*
X189600088Y-49593456D01*
X189620510Y-49660274D01*
X189612460Y-49705612D01*
X189564861Y-49831122D01*
X189564859Y-49831130D01*
X189544355Y-50000000D01*
X189564859Y-50168869D01*
X189564860Y-50168874D01*
X189625182Y-50327931D01*
X189670579Y-50393699D01*
X189721817Y-50467929D01*
X189827505Y-50561560D01*
X189849150Y-50580736D01*
X189999773Y-50659789D01*
X189999775Y-50659790D01*
X190164944Y-50700500D01*
X190335056Y-50700500D01*
X190500225Y-50659790D01*
X190579692Y-50618081D01*
X190650849Y-50580736D01*
X190650850Y-50580734D01*
X190650852Y-50580734D01*
X190778183Y-50467929D01*
X190874818Y-50327930D01*
X190935140Y-50168872D01*
X190955645Y-50000000D01*
X190935140Y-49831128D01*
X190929433Y-49816081D01*
X190892209Y-49717927D01*
X190874818Y-49672070D01*
X190872608Y-49668869D01*
X190799574Y-49563061D01*
X190778183Y-49532071D01*
X190741978Y-49499996D01*
X195944435Y-49499996D01*
X195944435Y-49500003D01*
X195964630Y-49679249D01*
X195964631Y-49679254D01*
X196024211Y-49849523D01*
X196062079Y-49909789D01*
X196120184Y-50002262D01*
X196247738Y-50129816D01*
X196329437Y-50181151D01*
X196400474Y-50225787D01*
X196400478Y-50225789D01*
X196570742Y-50285367D01*
X196570745Y-50285368D01*
X196570750Y-50285369D01*
X196749996Y-50305565D01*
X196750000Y-50305565D01*
X196750004Y-50305565D01*
X196929249Y-50285369D01*
X196929252Y-50285368D01*
X196929255Y-50285368D01*
X197099522Y-50225789D01*
X197252262Y-50129816D01*
X197379816Y-50002262D01*
X197475789Y-49849522D01*
X197535368Y-49679255D01*
X197535369Y-49679248D01*
X197555565Y-49500003D01*
X197555565Y-49499996D01*
X197535369Y-49320750D01*
X197535368Y-49320745D01*
X197527934Y-49299500D01*
X197475789Y-49150478D01*
X197471661Y-49143909D01*
X197415707Y-49054858D01*
X197379816Y-48997738D01*
X197252262Y-48870184D01*
X197185017Y-48827931D01*
X197099523Y-48774211D01*
X196929254Y-48714631D01*
X196929249Y-48714630D01*
X196750004Y-48694435D01*
X196749996Y-48694435D01*
X196570750Y-48714630D01*
X196570745Y-48714631D01*
X196400476Y-48774211D01*
X196247737Y-48870184D01*
X196120184Y-48997737D01*
X196024211Y-49150476D01*
X195964631Y-49320745D01*
X195964630Y-49320750D01*
X195944435Y-49499996D01*
X190741978Y-49499996D01*
X190650852Y-49419266D01*
X190650849Y-49419263D01*
X190500226Y-49340210D01*
X190345971Y-49302190D01*
X190285590Y-49267034D01*
X190253802Y-49204814D01*
X190260698Y-49135286D01*
X190287961Y-49094116D01*
X190379816Y-49002262D01*
X190475789Y-48849522D01*
X190535368Y-48679255D01*
X190536178Y-48672068D01*
X190555565Y-48500003D01*
X190555565Y-48499996D01*
X190535722Y-48323882D01*
X190547777Y-48255061D01*
X190595126Y-48203681D01*
X190629262Y-48189604D01*
X190750225Y-48159790D01*
X190900849Y-48080736D01*
X190900850Y-48080734D01*
X190900852Y-48080734D01*
X191028183Y-47967929D01*
X191124818Y-47827930D01*
X191185140Y-47668872D01*
X191205645Y-47500000D01*
X191185140Y-47331128D01*
X191124818Y-47172070D01*
X191111537Y-47152830D01*
X191080280Y-47107546D01*
X191028183Y-47032071D01*
X190900852Y-46919266D01*
X190819814Y-46876733D01*
X190769604Y-46828150D01*
X190754222Y-46780821D01*
X190736104Y-46620015D01*
X190736103Y-46620010D01*
X190727444Y-46595264D01*
X190676524Y-46449743D01*
X190657126Y-46418872D01*
X190582434Y-46300000D01*
X190580551Y-46297003D01*
X190537517Y-46253969D01*
X190535348Y-46249996D01*
X195694435Y-46249996D01*
X195694435Y-46250003D01*
X195714630Y-46429249D01*
X195714631Y-46429254D01*
X195774211Y-46599523D01*
X195864020Y-46742452D01*
X195870184Y-46752262D01*
X195997738Y-46879816D01*
X196088080Y-46936582D01*
X196137965Y-46967927D01*
X196150478Y-46975789D01*
X196211893Y-46997279D01*
X196320745Y-47035368D01*
X196320750Y-47035369D01*
X196499996Y-47055565D01*
X196500000Y-47055565D01*
X196500004Y-47055565D01*
X196530446Y-47052135D01*
X204099500Y-47052135D01*
X204099500Y-48947870D01*
X204099501Y-48947876D01*
X204105908Y-49007483D01*
X204156202Y-49142328D01*
X204156206Y-49142335D01*
X204242452Y-49257544D01*
X204242455Y-49257547D01*
X204357664Y-49343793D01*
X204357671Y-49343797D01*
X204492517Y-49394091D01*
X204492516Y-49394091D01*
X204499444Y-49394835D01*
X204552127Y-49400500D01*
X206447872Y-49400499D01*
X206507483Y-49394091D01*
X206642331Y-49343796D01*
X206757546Y-49257546D01*
X206843796Y-49142331D01*
X206894091Y-49007483D01*
X206900500Y-48947873D01*
X206900499Y-47052128D01*
X206894091Y-46992517D01*
X206887851Y-46975788D01*
X206843797Y-46857671D01*
X206843793Y-46857664D01*
X206757547Y-46742455D01*
X206757544Y-46742452D01*
X206642335Y-46656206D01*
X206642328Y-46656202D01*
X206507482Y-46605908D01*
X206507483Y-46605908D01*
X206447883Y-46599501D01*
X206447881Y-46599500D01*
X206447873Y-46599500D01*
X206447864Y-46599500D01*
X204552129Y-46599500D01*
X204552123Y-46599501D01*
X204492516Y-46605908D01*
X204357671Y-46656202D01*
X204357664Y-46656206D01*
X204242455Y-46742452D01*
X204242452Y-46742455D01*
X204156206Y-46857664D01*
X204156202Y-46857671D01*
X204105908Y-46992517D01*
X204099501Y-47052116D01*
X204099501Y-47052123D01*
X204099500Y-47052135D01*
X196530446Y-47052135D01*
X196679249Y-47035369D01*
X196679252Y-47035368D01*
X196679255Y-47035368D01*
X196849522Y-46975789D01*
X197002262Y-46879816D01*
X197129816Y-46752262D01*
X197225789Y-46599522D01*
X197285368Y-46429255D01*
X197286538Y-46418872D01*
X197305565Y-46250003D01*
X197305565Y-46249996D01*
X197285369Y-46070750D01*
X197285368Y-46070745D01*
X197243284Y-45950476D01*
X197225789Y-45900478D01*
X197129816Y-45747738D01*
X197002262Y-45620184D01*
X196954559Y-45590210D01*
X196849523Y-45524211D01*
X196679254Y-45464631D01*
X196679249Y-45464630D01*
X196500004Y-45444435D01*
X196499996Y-45444435D01*
X196320750Y-45464630D01*
X196320745Y-45464631D01*
X196150476Y-45524211D01*
X195997737Y-45620184D01*
X195870184Y-45747737D01*
X195774211Y-45900476D01*
X195714631Y-46070745D01*
X195714630Y-46070750D01*
X195694435Y-46249996D01*
X190535348Y-46249996D01*
X190504032Y-46192646D01*
X190509016Y-46122954D01*
X190550888Y-46067021D01*
X190616352Y-46042604D01*
X190639081Y-46043068D01*
X190749996Y-46055565D01*
X190750000Y-46055565D01*
X190750004Y-46055565D01*
X190929249Y-46035369D01*
X190929252Y-46035368D01*
X190929255Y-46035368D01*
X191099522Y-45975789D01*
X191252262Y-45879816D01*
X191379816Y-45752262D01*
X191475789Y-45599522D01*
X191535368Y-45429255D01*
X191535369Y-45429249D01*
X191555565Y-45250003D01*
X191555565Y-45249996D01*
X191535369Y-45070750D01*
X191535368Y-45070745D01*
X191513499Y-45008248D01*
X191475789Y-44900478D01*
X191379816Y-44747738D01*
X191252262Y-44620184D01*
X191201696Y-44588411D01*
X191099523Y-44524211D01*
X190929254Y-44464631D01*
X190929249Y-44464630D01*
X190750004Y-44444435D01*
X190749996Y-44444435D01*
X190570750Y-44464630D01*
X190570745Y-44464631D01*
X190400476Y-44524211D01*
X190247737Y-44620184D01*
X190120184Y-44747737D01*
X190024211Y-44900476D01*
X189964631Y-45070745D01*
X189964630Y-45070750D01*
X189944435Y-45249996D01*
X189944435Y-45250003D01*
X189964630Y-45429249D01*
X189964631Y-45429254D01*
X190024211Y-45599523D01*
X190120184Y-45752262D01*
X190163217Y-45795295D01*
X190196702Y-45856618D01*
X190191718Y-45926310D01*
X190149846Y-45982243D01*
X190084382Y-46006660D01*
X190061653Y-46006196D01*
X189950739Y-45993700D01*
X189950731Y-45993700D01*
X189771481Y-46013896D01*
X189771480Y-46013896D01*
X189716628Y-46033089D01*
X189646849Y-46036650D01*
X189586222Y-46001920D01*
X189570682Y-45982020D01*
X189518789Y-45899434D01*
X189499788Y-45832197D01*
X189507840Y-45789489D01*
X189510653Y-45782072D01*
X189521016Y-45754748D01*
X189541521Y-45585876D01*
X189521016Y-45417004D01*
X189460694Y-45257946D01*
X189455211Y-45250003D01*
X189405868Y-45178517D01*
X189364059Y-45117947D01*
X189258253Y-45024211D01*
X189236725Y-45005139D01*
X189086102Y-44926086D01*
X189039002Y-44914477D01*
X188980996Y-44881761D01*
X188630903Y-44531668D01*
X188597418Y-44470345D01*
X188602402Y-44400653D01*
X188644274Y-44344720D01*
X188677630Y-44326945D01*
X188721743Y-44311509D01*
X188775539Y-44292685D01*
X188928279Y-44196712D01*
X189055833Y-44069158D01*
X189151806Y-43916418D01*
X189211385Y-43746151D01*
X189211386Y-43746145D01*
X189231582Y-43566899D01*
X189231582Y-43566892D01*
X189211386Y-43387646D01*
X189211385Y-43387641D01*
X189162430Y-43247737D01*
X189151806Y-43217374D01*
X189127850Y-43179249D01*
X189055832Y-43064633D01*
X188991195Y-42999996D01*
X195694435Y-42999996D01*
X195694435Y-43000003D01*
X195714630Y-43179249D01*
X195714631Y-43179254D01*
X195774211Y-43349523D01*
X195841304Y-43456300D01*
X195870184Y-43502262D01*
X195997738Y-43629816D01*
X196059857Y-43668848D01*
X196132721Y-43714632D01*
X196150478Y-43725789D01*
X196219678Y-43750003D01*
X196320745Y-43785368D01*
X196320750Y-43785369D01*
X196499996Y-43805565D01*
X196500000Y-43805565D01*
X196500004Y-43805565D01*
X196679249Y-43785369D01*
X196679252Y-43785368D01*
X196679255Y-43785368D01*
X196849522Y-43725789D01*
X197002262Y-43629816D01*
X197129816Y-43502262D01*
X197225789Y-43349522D01*
X197285368Y-43179255D01*
X197304401Y-43010335D01*
X197305565Y-43000003D01*
X197305565Y-42999996D01*
X197305565Y-42999993D01*
X204094700Y-42999993D01*
X204094700Y-43000006D01*
X204113864Y-43231297D01*
X204113866Y-43231308D01*
X204170842Y-43456300D01*
X204264075Y-43668848D01*
X204391016Y-43863147D01*
X204391019Y-43863151D01*
X204391021Y-43863153D01*
X204548216Y-44033913D01*
X204548219Y-44033915D01*
X204548222Y-44033918D01*
X204731365Y-44176464D01*
X204731371Y-44176468D01*
X204731374Y-44176470D01*
X204935497Y-44286936D01*
X205007076Y-44311509D01*
X205155015Y-44362297D01*
X205155017Y-44362297D01*
X205155019Y-44362298D01*
X205383951Y-44400500D01*
X205383952Y-44400500D01*
X205616048Y-44400500D01*
X205616049Y-44400500D01*
X205844981Y-44362298D01*
X206064503Y-44286936D01*
X206268626Y-44176470D01*
X206451784Y-44033913D01*
X206608979Y-43863153D01*
X206735924Y-43668849D01*
X206829157Y-43456300D01*
X206886134Y-43231305D01*
X206886135Y-43231297D01*
X206905300Y-43000006D01*
X206905300Y-42999993D01*
X206886135Y-42768702D01*
X206886133Y-42768691D01*
X206829157Y-42543699D01*
X206735924Y-42331151D01*
X206608983Y-42136852D01*
X206608980Y-42136849D01*
X206608979Y-42136847D01*
X206451784Y-41966087D01*
X206451779Y-41966083D01*
X206451777Y-41966081D01*
X206268634Y-41823535D01*
X206268628Y-41823531D01*
X206064504Y-41713064D01*
X206064495Y-41713061D01*
X205844984Y-41637702D01*
X205657812Y-41606469D01*
X205616049Y-41599500D01*
X205383951Y-41599500D01*
X205342188Y-41606469D01*
X205155015Y-41637702D01*
X204935504Y-41713061D01*
X204935495Y-41713064D01*
X204731371Y-41823531D01*
X204731365Y-41823535D01*
X204548222Y-41966081D01*
X204548219Y-41966084D01*
X204391016Y-42136852D01*
X204264075Y-42331151D01*
X204170842Y-42543699D01*
X204113866Y-42768691D01*
X204113864Y-42768702D01*
X204094700Y-42999993D01*
X197305565Y-42999993D01*
X197285369Y-42820750D01*
X197285368Y-42820745D01*
X197267155Y-42768695D01*
X197225789Y-42650478D01*
X197129816Y-42497738D01*
X197002262Y-42370184D01*
X196849523Y-42274211D01*
X196679254Y-42214631D01*
X196679249Y-42214630D01*
X196500004Y-42194435D01*
X196499996Y-42194435D01*
X196320750Y-42214630D01*
X196320745Y-42214631D01*
X196150476Y-42274211D01*
X195997737Y-42370184D01*
X195870184Y-42497737D01*
X195774211Y-42650476D01*
X195714631Y-42820745D01*
X195714630Y-42820750D01*
X195694435Y-42999996D01*
X188991195Y-42999996D01*
X188928279Y-42937080D01*
X188775540Y-42841107D01*
X188605271Y-42781527D01*
X188605266Y-42781526D01*
X188426021Y-42761331D01*
X188426013Y-42761331D01*
X188246767Y-42781526D01*
X188246762Y-42781527D01*
X188076491Y-42841108D01*
X188040471Y-42863741D01*
X187973234Y-42882741D01*
X187906399Y-42862373D01*
X187861186Y-42809104D01*
X187850500Y-42758747D01*
X187850500Y-41850000D01*
X189544355Y-41850000D01*
X189564859Y-42018869D01*
X189564860Y-42018874D01*
X189625182Y-42177931D01*
X189687475Y-42268177D01*
X189721817Y-42317929D01*
X189780801Y-42370184D01*
X189849150Y-42430736D01*
X189976810Y-42497737D01*
X189999775Y-42509790D01*
X190164944Y-42550500D01*
X190335056Y-42550500D01*
X190500225Y-42509790D01*
X190581590Y-42467086D01*
X190650849Y-42430736D01*
X190650850Y-42430734D01*
X190650852Y-42430734D01*
X190778183Y-42317929D01*
X190874818Y-42177930D01*
X190935140Y-42018872D01*
X190955645Y-41850000D01*
X190935140Y-41681128D01*
X190874818Y-41522070D01*
X190861145Y-41502262D01*
X190811139Y-41429816D01*
X190778183Y-41382071D01*
X190650852Y-41269266D01*
X190650849Y-41269263D01*
X190500226Y-41190210D01*
X190335056Y-41149500D01*
X190164944Y-41149500D01*
X189999773Y-41190210D01*
X189849150Y-41269263D01*
X189755463Y-41352263D01*
X189722374Y-41381578D01*
X189721816Y-41382072D01*
X189625182Y-41522068D01*
X189564860Y-41681125D01*
X189564859Y-41681130D01*
X189544355Y-41850000D01*
X187850500Y-41850000D01*
X187850500Y-41432412D01*
X187870185Y-41365373D01*
X187877555Y-41355097D01*
X187879810Y-41352267D01*
X187879816Y-41352262D01*
X187975789Y-41199522D01*
X188035368Y-41029255D01*
X188038665Y-41000000D01*
X188043102Y-40960617D01*
X188070168Y-40896203D01*
X188127763Y-40856648D01*
X188166322Y-40850500D01*
X194364137Y-40850500D01*
X194426136Y-40867112D01*
X194499687Y-40909577D01*
X194611490Y-40939534D01*
X194652413Y-40950500D01*
X194652414Y-40950500D01*
X195313331Y-40950500D01*
X195313347Y-40950501D01*
X195320943Y-40950501D01*
X195479054Y-40950501D01*
X195479057Y-40950501D01*
X195631785Y-40909577D01*
X195702558Y-40868716D01*
X195768716Y-40830520D01*
X195880520Y-40718716D01*
X195880520Y-40718714D01*
X195890724Y-40708511D01*
X195890728Y-40708506D01*
X196018535Y-40580698D01*
X196079856Y-40547215D01*
X196092311Y-40545163D01*
X196179255Y-40535368D01*
X196349522Y-40475789D01*
X196502262Y-40379816D01*
X196629816Y-40252262D01*
X196725789Y-40099522D01*
X196785368Y-39929255D01*
X196785369Y-39929249D01*
X196805565Y-39750003D01*
X196805565Y-39749996D01*
X196785369Y-39570750D01*
X196785368Y-39570745D01*
X196725788Y-39400476D01*
X196653461Y-39285369D01*
X196629816Y-39247738D01*
X196502262Y-39120184D01*
X196444028Y-39083593D01*
X196349523Y-39024211D01*
X196179254Y-38964631D01*
X196179249Y-38964630D01*
X196000004Y-38944435D01*
X195999996Y-38944435D01*
X195820750Y-38964630D01*
X195820745Y-38964631D01*
X195650476Y-39024211D01*
X195555972Y-39083593D01*
X195488735Y-39102593D01*
X195424028Y-39083593D01*
X195329523Y-39024211D01*
X195159254Y-38964631D01*
X195159249Y-38964630D01*
X194980004Y-38944435D01*
X194979996Y-38944435D01*
X194800750Y-38964630D01*
X194800745Y-38964631D01*
X194630476Y-39024211D01*
X194477737Y-39120184D01*
X194350184Y-39247737D01*
X194254211Y-39400477D01*
X194196133Y-39566455D01*
X194155411Y-39623231D01*
X194090458Y-39648978D01*
X194079091Y-39649500D01*
X181670940Y-39649500D01*
X181630019Y-39660464D01*
X181630019Y-39660465D01*
X181592751Y-39670451D01*
X181518214Y-39690423D01*
X181518209Y-39690426D01*
X181381290Y-39769475D01*
X181381282Y-39769481D01*
X181019479Y-40131284D01*
X180997872Y-40168710D01*
X180988739Y-40184530D01*
X180940423Y-40268215D01*
X180931193Y-40302662D01*
X180899498Y-40420945D01*
X180898438Y-40429003D01*
X180896232Y-40428712D01*
X180879814Y-40484628D01*
X180872445Y-40494903D01*
X180870184Y-40497737D01*
X180774211Y-40650476D01*
X180714631Y-40820745D01*
X180714630Y-40820750D01*
X180694435Y-40999996D01*
X178178110Y-40999996D01*
X178185368Y-40979255D01*
X178188608Y-40950500D01*
X178205565Y-40800003D01*
X178205565Y-40799996D01*
X178185369Y-40620750D01*
X178185368Y-40620745D01*
X178142326Y-40497738D01*
X178125789Y-40450478D01*
X178112295Y-40429003D01*
X178054207Y-40336556D01*
X178029816Y-40297738D01*
X177902262Y-40170184D01*
X177822688Y-40120184D01*
X177749523Y-40074211D01*
X177579254Y-40014631D01*
X177579249Y-40014630D01*
X177400004Y-39994435D01*
X177399996Y-39994435D01*
X177220750Y-40014630D01*
X177220745Y-40014631D01*
X177050476Y-40074211D01*
X176897737Y-40170184D01*
X176765260Y-40302662D01*
X176763332Y-40300734D01*
X176716238Y-40333748D01*
X176646424Y-40336556D01*
X176586176Y-40301175D01*
X176554620Y-40238837D01*
X176553329Y-40230154D01*
X176535369Y-40070750D01*
X176535368Y-40070745D01*
X176515733Y-40014631D01*
X176475789Y-39900478D01*
X176379816Y-39747738D01*
X176252262Y-39620184D01*
X176099523Y-39524211D01*
X175929254Y-39464631D01*
X175929249Y-39464630D01*
X175750004Y-39444435D01*
X175749996Y-39444435D01*
X175570750Y-39464630D01*
X175570745Y-39464631D01*
X175400476Y-39524211D01*
X175247737Y-39620184D01*
X175120184Y-39747737D01*
X175024209Y-39900479D01*
X175004081Y-39958002D01*
X174963359Y-40014778D01*
X174898406Y-40040524D01*
X174829844Y-40027067D01*
X174826618Y-40025219D01*
X174824529Y-40024213D01*
X174654254Y-39964631D01*
X174654249Y-39964630D01*
X174475004Y-39944435D01*
X174474996Y-39944435D01*
X174295750Y-39964630D01*
X174295745Y-39964631D01*
X174125476Y-40024211D01*
X173972737Y-40120184D01*
X173845184Y-40247737D01*
X173749211Y-40400476D01*
X173689631Y-40570745D01*
X173689630Y-40570749D01*
X173676264Y-40689384D01*
X173649197Y-40753798D01*
X173591603Y-40793353D01*
X173553044Y-40799500D01*
X172907038Y-40799500D01*
X172839999Y-40779815D01*
X172831550Y-40773875D01*
X172825816Y-40769475D01*
X172737896Y-40718715D01*
X172737895Y-40718715D01*
X172717184Y-40706757D01*
X172688892Y-40690423D01*
X172536164Y-40649499D01*
X172378050Y-40649499D01*
X172370454Y-40649499D01*
X172370438Y-40649500D01*
X171963835Y-40649500D01*
X171811107Y-40690423D01*
X171762106Y-40718715D01*
X171762104Y-40718715D01*
X171674183Y-40769475D01*
X171674175Y-40769481D01*
X171269481Y-41174175D01*
X171269475Y-41174183D01*
X171225993Y-41249498D01*
X171225993Y-41249499D01*
X171190423Y-41311108D01*
X171149499Y-41463836D01*
X171149499Y-41463838D01*
X171149499Y-41549903D01*
X171129814Y-41616942D01*
X171113180Y-41637584D01*
X169869481Y-42881282D01*
X169869475Y-42881290D01*
X169868539Y-42882912D01*
X169867391Y-42884006D01*
X169864530Y-42887735D01*
X169863948Y-42887288D01*
X169817970Y-42931125D01*
X169756963Y-42942880D01*
X169756963Y-42944435D01*
X169749996Y-42944435D01*
X169570750Y-42964630D01*
X169570745Y-42964631D01*
X169400476Y-43024211D01*
X169247737Y-43120184D01*
X169120184Y-43247737D01*
X169024211Y-43400476D01*
X168964631Y-43570745D01*
X168964630Y-43570750D01*
X168944435Y-43749996D01*
X168944435Y-43750003D01*
X168964630Y-43929249D01*
X168964631Y-43929254D01*
X169024211Y-44099523D01*
X169120184Y-44252262D01*
X169124525Y-44257705D01*
X169122914Y-44258989D01*
X169151593Y-44311509D01*
X169146609Y-44381201D01*
X169118108Y-44425548D01*
X168631399Y-44912257D01*
X168570076Y-44945742D01*
X168529835Y-44947796D01*
X168500003Y-44944435D01*
X168499996Y-44944435D01*
X168320750Y-44964630D01*
X168320745Y-44964631D01*
X168150476Y-45024211D01*
X167997737Y-45120184D01*
X167870184Y-45247737D01*
X167774211Y-45400476D01*
X167714631Y-45570745D01*
X167714630Y-45570750D01*
X167694435Y-45749996D01*
X160510615Y-45749996D01*
X160535368Y-45679255D01*
X160535369Y-45679249D01*
X160555565Y-45500003D01*
X160555565Y-45499996D01*
X160535369Y-45320750D01*
X160535368Y-45320745D01*
X160522989Y-45285367D01*
X160475789Y-45150478D01*
X160455348Y-45117947D01*
X160430204Y-45077930D01*
X160379816Y-44997738D01*
X160252262Y-44870184D01*
X160099523Y-44774211D01*
X159929254Y-44714631D01*
X159929249Y-44714630D01*
X159750004Y-44694435D01*
X159749996Y-44694435D01*
X159570750Y-44714630D01*
X159570745Y-44714631D01*
X159400476Y-44774211D01*
X159247737Y-44870184D01*
X159120184Y-44997737D01*
X159024211Y-45150476D01*
X158964631Y-45320745D01*
X158964630Y-45320750D01*
X158944435Y-45499996D01*
X154150499Y-45499996D01*
X154150499Y-44902128D01*
X154144091Y-44842517D01*
X154138422Y-44827318D01*
X154093797Y-44707671D01*
X154093793Y-44707664D01*
X154007547Y-44592455D01*
X154007544Y-44592452D01*
X153892335Y-44506206D01*
X153892328Y-44506202D01*
X153757482Y-44455908D01*
X153757483Y-44455908D01*
X153697883Y-44449501D01*
X153697881Y-44449500D01*
X153697873Y-44449500D01*
X153697864Y-44449500D01*
X151802129Y-44449500D01*
X151802123Y-44449501D01*
X151742516Y-44455908D01*
X151607671Y-44506202D01*
X151607664Y-44506206D01*
X151492455Y-44592452D01*
X151492452Y-44592455D01*
X151406206Y-44707664D01*
X151406202Y-44707671D01*
X151355908Y-44842517D01*
X151349677Y-44900478D01*
X151349501Y-44902123D01*
X151349500Y-44902135D01*
X146900500Y-44902135D01*
X146900500Y-38000000D01*
X163794355Y-38000000D01*
X163814859Y-38168869D01*
X163814860Y-38168874D01*
X163875182Y-38327931D01*
X163937475Y-38418177D01*
X163971817Y-38467929D01*
X164077505Y-38561560D01*
X164099150Y-38580736D01*
X164249773Y-38659789D01*
X164249775Y-38659790D01*
X164414944Y-38700500D01*
X164585056Y-38700500D01*
X164750225Y-38659790D01*
X164829692Y-38618081D01*
X164900849Y-38580736D01*
X164900850Y-38580734D01*
X164900852Y-38580734D01*
X164991987Y-38499996D01*
X172694435Y-38499996D01*
X172694435Y-38500003D01*
X172714630Y-38679249D01*
X172714631Y-38679254D01*
X172774211Y-38849523D01*
X172833849Y-38944435D01*
X172870184Y-39002262D01*
X172997738Y-39129816D01*
X173150478Y-39225789D01*
X173213202Y-39247737D01*
X173320745Y-39285368D01*
X173320750Y-39285369D01*
X173499996Y-39305565D01*
X173500000Y-39305565D01*
X173500004Y-39305565D01*
X173679249Y-39285369D01*
X173679252Y-39285368D01*
X173679255Y-39285368D01*
X173849522Y-39225789D01*
X174002262Y-39129816D01*
X174129816Y-39002262D01*
X174225789Y-38849522D01*
X174285368Y-38679255D01*
X174287561Y-38659790D01*
X174305565Y-38500003D01*
X174305565Y-38499996D01*
X174285369Y-38320750D01*
X174285368Y-38320745D01*
X174225789Y-38150478D01*
X174131235Y-37999996D01*
X188694435Y-37999996D01*
X188694435Y-38000003D01*
X188714630Y-38179249D01*
X188714631Y-38179254D01*
X188774211Y-38349523D01*
X188848610Y-38467927D01*
X188870184Y-38502262D01*
X188997738Y-38629816D01*
X189150478Y-38725789D01*
X189320745Y-38785368D01*
X189320750Y-38785369D01*
X189499996Y-38805565D01*
X189500000Y-38805565D01*
X189500004Y-38805565D01*
X189679249Y-38785369D01*
X189679252Y-38785368D01*
X189679255Y-38785368D01*
X189849522Y-38725789D01*
X190002262Y-38629816D01*
X190129816Y-38502262D01*
X190225789Y-38349522D01*
X190285368Y-38179255D01*
X190286538Y-38168872D01*
X190305565Y-38000003D01*
X190305565Y-37999996D01*
X190285369Y-37820750D01*
X190285368Y-37820745D01*
X190225789Y-37650478D01*
X190129816Y-37497738D01*
X190002262Y-37370184D01*
X189935017Y-37327931D01*
X189849523Y-37274211D01*
X189679254Y-37214631D01*
X189679249Y-37214630D01*
X189500004Y-37194435D01*
X189499996Y-37194435D01*
X189320750Y-37214630D01*
X189320745Y-37214631D01*
X189150476Y-37274211D01*
X188997737Y-37370184D01*
X188870184Y-37497737D01*
X188774211Y-37650476D01*
X188714631Y-37820745D01*
X188714630Y-37820750D01*
X188694435Y-37999996D01*
X174131235Y-37999996D01*
X174129816Y-37997738D01*
X174002262Y-37870184D01*
X173940100Y-37831125D01*
X173849523Y-37774211D01*
X173679254Y-37714631D01*
X173679249Y-37714630D01*
X173500004Y-37694435D01*
X173499996Y-37694435D01*
X173320750Y-37714630D01*
X173320745Y-37714631D01*
X173150476Y-37774211D01*
X172997737Y-37870184D01*
X172870184Y-37997737D01*
X172774211Y-38150476D01*
X172714631Y-38320745D01*
X172714630Y-38320750D01*
X172694435Y-38499996D01*
X164991987Y-38499996D01*
X165028183Y-38467929D01*
X165124818Y-38327930D01*
X165185140Y-38168872D01*
X165205645Y-38000000D01*
X165185140Y-37831128D01*
X165124818Y-37672070D01*
X165028183Y-37532071D01*
X164900852Y-37419266D01*
X164900849Y-37419263D01*
X164750226Y-37340210D01*
X164585056Y-37299500D01*
X164414944Y-37299500D01*
X164249773Y-37340210D01*
X164099150Y-37419263D01*
X163971816Y-37532072D01*
X163875182Y-37672068D01*
X163814860Y-37831125D01*
X163814859Y-37831130D01*
X163794355Y-38000000D01*
X146900500Y-38000000D01*
X146900500Y-36249996D01*
X176944435Y-36249996D01*
X176944435Y-36250003D01*
X176964630Y-36429249D01*
X176964631Y-36429254D01*
X177024211Y-36599523D01*
X177069795Y-36672069D01*
X177120184Y-36752262D01*
X177247738Y-36879816D01*
X177400478Y-36975789D01*
X177493681Y-37008402D01*
X177570745Y-37035368D01*
X177570750Y-37035369D01*
X177749996Y-37055565D01*
X177750000Y-37055565D01*
X177750004Y-37055565D01*
X177929249Y-37035369D01*
X177929252Y-37035368D01*
X177929255Y-37035368D01*
X178099522Y-36975789D01*
X178232036Y-36892525D01*
X194727838Y-36892525D01*
X194727838Y-36892532D01*
X194748033Y-37071778D01*
X194748034Y-37071783D01*
X194807614Y-37242052D01*
X194851172Y-37311373D01*
X194903587Y-37394791D01*
X195031141Y-37522345D01*
X195183881Y-37618318D01*
X195302401Y-37659790D01*
X195354148Y-37677897D01*
X195354153Y-37677898D01*
X195533399Y-37698094D01*
X195533403Y-37698094D01*
X195533407Y-37698094D01*
X195712652Y-37677898D01*
X195712655Y-37677897D01*
X195712658Y-37677897D01*
X195882925Y-37618318D01*
X196035665Y-37522345D01*
X196163219Y-37394791D01*
X196259192Y-37242051D01*
X196316781Y-37077468D01*
X196357503Y-37020694D01*
X196422455Y-36994946D01*
X196491017Y-37008402D01*
X196541420Y-37056789D01*
X196556919Y-37103476D01*
X196564859Y-37168869D01*
X196564860Y-37168874D01*
X196625182Y-37327931D01*
X196654348Y-37370184D01*
X196721817Y-37467929D01*
X196794219Y-37532071D01*
X196849150Y-37580736D01*
X196999773Y-37659789D01*
X196999775Y-37659790D01*
X197164944Y-37700500D01*
X197335056Y-37700500D01*
X197500225Y-37659790D01*
X197579692Y-37618081D01*
X197650849Y-37580736D01*
X197650850Y-37580734D01*
X197650852Y-37580734D01*
X197778183Y-37467929D01*
X197874818Y-37327930D01*
X197875460Y-37326234D01*
X197876264Y-37325173D01*
X197878302Y-37321291D01*
X197878947Y-37321629D01*
X197917636Y-37270532D01*
X197983233Y-37246473D01*
X198051424Y-37261698D01*
X198100558Y-37311373D01*
X198114499Y-37355257D01*
X198119485Y-37396325D01*
X198119486Y-37396330D01*
X198179808Y-37555387D01*
X198223246Y-37618317D01*
X198276443Y-37695385D01*
X198382131Y-37789016D01*
X198403776Y-37808192D01*
X198521892Y-37870184D01*
X198554401Y-37887246D01*
X198719570Y-37927956D01*
X198889682Y-37927956D01*
X199054851Y-37887246D01*
X199161774Y-37831128D01*
X199205475Y-37808192D01*
X199205476Y-37808190D01*
X199205478Y-37808190D01*
X199332809Y-37695385D01*
X199429444Y-37555386D01*
X199489766Y-37396328D01*
X199510271Y-37227456D01*
X199489766Y-37058584D01*
X199480961Y-37035368D01*
X199431962Y-36906165D01*
X199429444Y-36899526D01*
X199424616Y-36892532D01*
X199357306Y-36795017D01*
X199332809Y-36759527D01*
X199205478Y-36646722D01*
X199205475Y-36646719D01*
X199054852Y-36567666D01*
X198889682Y-36526956D01*
X198719570Y-36526956D01*
X198554399Y-36567666D01*
X198403776Y-36646719D01*
X198276442Y-36759528D01*
X198179808Y-36899524D01*
X198179805Y-36899531D01*
X198179159Y-36901235D01*
X198178352Y-36902300D01*
X198176324Y-36906165D01*
X198175680Y-36905827D01*
X198136975Y-36956933D01*
X198071375Y-36980983D01*
X198003186Y-36965748D01*
X197954058Y-36916067D01*
X197940126Y-36872199D01*
X197935140Y-36831128D01*
X197874818Y-36672070D01*
X197857321Y-36646722D01*
X197824741Y-36599521D01*
X197778183Y-36532071D01*
X197683316Y-36448026D01*
X197650849Y-36419263D01*
X197500226Y-36340210D01*
X197335056Y-36299500D01*
X197164944Y-36299500D01*
X196999773Y-36340210D01*
X196849150Y-36419263D01*
X196721816Y-36532072D01*
X196625182Y-36672068D01*
X196625182Y-36672069D01*
X196567143Y-36825106D01*
X196524965Y-36880809D01*
X196459367Y-36904866D01*
X196391177Y-36889639D01*
X196342044Y-36839963D01*
X196327981Y-36795017D01*
X196318772Y-36713279D01*
X196318771Y-36713274D01*
X196278967Y-36599521D01*
X196259192Y-36543007D01*
X196252320Y-36532071D01*
X196163218Y-36390266D01*
X196035665Y-36262713D01*
X195882926Y-36166740D01*
X195712657Y-36107160D01*
X195712652Y-36107159D01*
X195533407Y-36086964D01*
X195533399Y-36086964D01*
X195354153Y-36107159D01*
X195354148Y-36107160D01*
X195183879Y-36166740D01*
X195031140Y-36262713D01*
X194903587Y-36390266D01*
X194807614Y-36543005D01*
X194748034Y-36713274D01*
X194748033Y-36713279D01*
X194727838Y-36892525D01*
X178232036Y-36892525D01*
X178252262Y-36879816D01*
X178379816Y-36752262D01*
X178475789Y-36599522D01*
X178535368Y-36429255D01*
X178545161Y-36342329D01*
X178572226Y-36277918D01*
X178580690Y-36268543D01*
X180849238Y-33999996D01*
X188194435Y-33999996D01*
X188194435Y-34000003D01*
X188214630Y-34179249D01*
X188214631Y-34179254D01*
X188274211Y-34349523D01*
X188370184Y-34502262D01*
X188497738Y-34629816D01*
X188632719Y-34714630D01*
X188650478Y-34725789D01*
X188698129Y-34742463D01*
X188754905Y-34783185D01*
X188780653Y-34848138D01*
X188774217Y-34900459D01*
X188714632Y-35070742D01*
X188714630Y-35070750D01*
X188694435Y-35249996D01*
X188694435Y-35250003D01*
X188714630Y-35429249D01*
X188714631Y-35429254D01*
X188774211Y-35599523D01*
X188867341Y-35747737D01*
X188870184Y-35752262D01*
X188997738Y-35879816D01*
X189043110Y-35908325D01*
X189135449Y-35966346D01*
X189150478Y-35975789D01*
X189320745Y-36035368D01*
X189320750Y-36035369D01*
X189499996Y-36055565D01*
X189500000Y-36055565D01*
X189500004Y-36055565D01*
X189679249Y-36035369D01*
X189679252Y-36035368D01*
X189679255Y-36035368D01*
X189849522Y-35975789D01*
X189864551Y-35966346D01*
X189926650Y-35927326D01*
X189993887Y-35908325D01*
X190060722Y-35928692D01*
X190097616Y-35966346D01*
X190120182Y-36002260D01*
X190120184Y-36002262D01*
X190247738Y-36129816D01*
X190400478Y-36225789D01*
X190549454Y-36277918D01*
X190570745Y-36285368D01*
X190570750Y-36285369D01*
X190749996Y-36305565D01*
X190750000Y-36305565D01*
X190750004Y-36305565D01*
X190929249Y-36285369D01*
X190929252Y-36285368D01*
X190929255Y-36285368D01*
X191099522Y-36225789D01*
X191252262Y-36129816D01*
X191379816Y-36002262D01*
X191475789Y-35849522D01*
X191535368Y-35679255D01*
X191552837Y-35524211D01*
X191555565Y-35500003D01*
X191555565Y-35499996D01*
X191535369Y-35320750D01*
X191535368Y-35320745D01*
X191475788Y-35150476D01*
X191436582Y-35088080D01*
X191379816Y-34997738D01*
X191252262Y-34870184D01*
X191206889Y-34841674D01*
X191099523Y-34774211D01*
X190929254Y-34714631D01*
X190929249Y-34714630D01*
X190750004Y-34694435D01*
X190749996Y-34694435D01*
X190570750Y-34714630D01*
X190570745Y-34714631D01*
X190400474Y-34774212D01*
X190323347Y-34822674D01*
X190256110Y-34841674D01*
X190189275Y-34821306D01*
X190152382Y-34783652D01*
X190152089Y-34783185D01*
X190129816Y-34747738D01*
X190002262Y-34620184D01*
X189849522Y-34524211D01*
X189849519Y-34524209D01*
X189801868Y-34507535D01*
X189745092Y-34466814D01*
X189719345Y-34401861D01*
X189725782Y-34349538D01*
X189725785Y-34349527D01*
X189725789Y-34349522D01*
X189785368Y-34179255D01*
X189805565Y-34000000D01*
X189785368Y-33820745D01*
X189725789Y-33650478D01*
X189629816Y-33497738D01*
X189502262Y-33370184D01*
X189429006Y-33324154D01*
X189349523Y-33274211D01*
X189179254Y-33214631D01*
X189179249Y-33214630D01*
X189000004Y-33194435D01*
X188999996Y-33194435D01*
X188820750Y-33214630D01*
X188820745Y-33214631D01*
X188650476Y-33274211D01*
X188497737Y-33370184D01*
X188370184Y-33497737D01*
X188274211Y-33650476D01*
X188214631Y-33820745D01*
X188214630Y-33820750D01*
X188194435Y-33999996D01*
X180849238Y-33999996D01*
X181962416Y-32886819D01*
X182023739Y-32853334D01*
X182050097Y-32850500D01*
X198283514Y-32850500D01*
X198350553Y-32870185D01*
X198396308Y-32922989D01*
X198398061Y-32927013D01*
X198407678Y-32950231D01*
X198407679Y-32950233D01*
X198407681Y-32950237D01*
X198511697Y-33105907D01*
X198511700Y-33105911D01*
X198644088Y-33238299D01*
X198644092Y-33238302D01*
X198799762Y-33342318D01*
X198799768Y-33342321D01*
X198799769Y-33342322D01*
X198972749Y-33413973D01*
X199102868Y-33439855D01*
X199156379Y-33450499D01*
X199156383Y-33450500D01*
X199156384Y-33450500D01*
X199343617Y-33450500D01*
X199343618Y-33450499D01*
X199527251Y-33413973D01*
X199700231Y-33342322D01*
X199806560Y-33271274D01*
X199873234Y-33250397D01*
X199940614Y-33268881D01*
X199944340Y-33271275D01*
X200050000Y-33341875D01*
X200050012Y-33341882D01*
X200222889Y-33413489D01*
X200222896Y-33413491D01*
X200250000Y-33418882D01*
X200250000Y-32416988D01*
X200259940Y-32434205D01*
X200315795Y-32490060D01*
X200384204Y-32529556D01*
X200460504Y-32550000D01*
X200539496Y-32550000D01*
X200615796Y-32529556D01*
X200684205Y-32490060D01*
X200740060Y-32434205D01*
X200750000Y-32416988D01*
X200750000Y-33418881D01*
X200777103Y-33413491D01*
X200777110Y-33413489D01*
X200949987Y-33341882D01*
X200950001Y-33341874D01*
X201055657Y-33271276D01*
X201122334Y-33250397D01*
X201189714Y-33268881D01*
X201193429Y-33271268D01*
X201299769Y-33342322D01*
X201472749Y-33413973D01*
X201602868Y-33439855D01*
X201656379Y-33450499D01*
X201656383Y-33450500D01*
X201656384Y-33450500D01*
X201843617Y-33450500D01*
X201843618Y-33450499D01*
X202027251Y-33413973D01*
X202200231Y-33342322D01*
X202200901Y-33341874D01*
X202306109Y-33271577D01*
X202372787Y-33250699D01*
X202440167Y-33269183D01*
X202443891Y-33271577D01*
X202549762Y-33342318D01*
X202549768Y-33342321D01*
X202549769Y-33342322D01*
X202722749Y-33413973D01*
X202852868Y-33439855D01*
X202906379Y-33450499D01*
X202906383Y-33450500D01*
X202906384Y-33450500D01*
X203093617Y-33450500D01*
X203093618Y-33450499D01*
X203277251Y-33413973D01*
X203450231Y-33342322D01*
X203450901Y-33341874D01*
X203556109Y-33271577D01*
X203622787Y-33250699D01*
X203690167Y-33269183D01*
X203693891Y-33271577D01*
X203799762Y-33342318D01*
X203799768Y-33342321D01*
X203799769Y-33342322D01*
X203972749Y-33413973D01*
X204102868Y-33439855D01*
X204156379Y-33450499D01*
X204156383Y-33450500D01*
X204156384Y-33450500D01*
X204343617Y-33450500D01*
X204343618Y-33450499D01*
X204527251Y-33413973D01*
X204700231Y-33342322D01*
X204700901Y-33341874D01*
X204806109Y-33271577D01*
X204872787Y-33250699D01*
X204940167Y-33269183D01*
X204943891Y-33271577D01*
X205049762Y-33342318D01*
X205049768Y-33342321D01*
X205049769Y-33342322D01*
X205222749Y-33413973D01*
X205352868Y-33439855D01*
X205406379Y-33450499D01*
X205406383Y-33450500D01*
X205406384Y-33450500D01*
X205593617Y-33450500D01*
X205593618Y-33450499D01*
X205777251Y-33413973D01*
X205950231Y-33342322D01*
X205950901Y-33341874D01*
X206056109Y-33271577D01*
X206122787Y-33250699D01*
X206190167Y-33269183D01*
X206193891Y-33271577D01*
X206299762Y-33342318D01*
X206299768Y-33342321D01*
X206299769Y-33342322D01*
X206472749Y-33413973D01*
X206602868Y-33439855D01*
X206656379Y-33450499D01*
X206656383Y-33450500D01*
X206656384Y-33450500D01*
X206843617Y-33450500D01*
X206843618Y-33450499D01*
X207027251Y-33413973D01*
X207200231Y-33342322D01*
X207227422Y-33324153D01*
X207294097Y-33303275D01*
X207361410Y-33321717D01*
X207466507Y-33386542D01*
X207466518Y-33386547D01*
X207627393Y-33439855D01*
X207726683Y-33449999D01*
X208250000Y-33449999D01*
X208273308Y-33449999D01*
X208273322Y-33449998D01*
X208372607Y-33439855D01*
X208533481Y-33386547D01*
X208533492Y-33386542D01*
X208677728Y-33297575D01*
X208677732Y-33297572D01*
X208797572Y-33177732D01*
X208797575Y-33177728D01*
X208886542Y-33033492D01*
X208886547Y-33033481D01*
X208939855Y-32872606D01*
X208949999Y-32773322D01*
X208950000Y-32773309D01*
X208950000Y-32500000D01*
X208250000Y-32500000D01*
X208250000Y-33449999D01*
X207726683Y-33449999D01*
X207750000Y-33449998D01*
X207750000Y-32416988D01*
X207759940Y-32434205D01*
X207815795Y-32490060D01*
X207884204Y-32529556D01*
X207960504Y-32550000D01*
X208039496Y-32550000D01*
X208115796Y-32529556D01*
X208184205Y-32490060D01*
X208240060Y-32434205D01*
X208279556Y-32365796D01*
X208300000Y-32289496D01*
X208300000Y-32210504D01*
X208279556Y-32134204D01*
X208240060Y-32065795D01*
X208184205Y-32009940D01*
X208166988Y-32000000D01*
X208250000Y-32000000D01*
X208949999Y-32000000D01*
X208949999Y-31726692D01*
X208949998Y-31726677D01*
X208939855Y-31627392D01*
X208886547Y-31466518D01*
X208886542Y-31466507D01*
X208797575Y-31322271D01*
X208797572Y-31322267D01*
X208677732Y-31202427D01*
X208677728Y-31202424D01*
X208533492Y-31113457D01*
X208533481Y-31113452D01*
X208372606Y-31060144D01*
X208273322Y-31050000D01*
X208250000Y-31050000D01*
X208250000Y-32000000D01*
X208166988Y-32000000D01*
X208115796Y-31970444D01*
X208039496Y-31950000D01*
X207960504Y-31950000D01*
X207884204Y-31970444D01*
X207815795Y-32009940D01*
X207759940Y-32065795D01*
X207750000Y-32083011D01*
X207750000Y-31049999D01*
X207726693Y-31050000D01*
X207726674Y-31050001D01*
X207627392Y-31060144D01*
X207466518Y-31113452D01*
X207466507Y-31113457D01*
X207361410Y-31178283D01*
X207294018Y-31196724D01*
X207227423Y-31175847D01*
X207200231Y-31157678D01*
X207200230Y-31157677D01*
X207200228Y-31157676D01*
X207027251Y-31086027D01*
X207027243Y-31086025D01*
X206843620Y-31049500D01*
X206843616Y-31049500D01*
X206656384Y-31049500D01*
X206656379Y-31049500D01*
X206472756Y-31086025D01*
X206472748Y-31086027D01*
X206299771Y-31157676D01*
X206299764Y-31157680D01*
X206193890Y-31228423D01*
X206127213Y-31249300D01*
X206059833Y-31230815D01*
X206056110Y-31228423D01*
X205950235Y-31157680D01*
X205950228Y-31157676D01*
X205777251Y-31086027D01*
X205777243Y-31086025D01*
X205593620Y-31049500D01*
X205593616Y-31049500D01*
X205406384Y-31049500D01*
X205406379Y-31049500D01*
X205222756Y-31086025D01*
X205222748Y-31086027D01*
X205049771Y-31157676D01*
X205049764Y-31157680D01*
X204943890Y-31228423D01*
X204877213Y-31249300D01*
X204809833Y-31230815D01*
X204806110Y-31228423D01*
X204700235Y-31157680D01*
X204700228Y-31157676D01*
X204527251Y-31086027D01*
X204527243Y-31086025D01*
X204343620Y-31049500D01*
X204343616Y-31049500D01*
X204156384Y-31049500D01*
X204156379Y-31049500D01*
X203972756Y-31086025D01*
X203972748Y-31086027D01*
X203799771Y-31157676D01*
X203799764Y-31157680D01*
X203693890Y-31228423D01*
X203627213Y-31249300D01*
X203559833Y-31230815D01*
X203556110Y-31228423D01*
X203450235Y-31157680D01*
X203450228Y-31157676D01*
X203277251Y-31086027D01*
X203277243Y-31086025D01*
X203093620Y-31049500D01*
X203093616Y-31049500D01*
X202906384Y-31049500D01*
X202906379Y-31049500D01*
X202722756Y-31086025D01*
X202722748Y-31086027D01*
X202549771Y-31157676D01*
X202549764Y-31157680D01*
X202443890Y-31228423D01*
X202377213Y-31249300D01*
X202309833Y-31230815D01*
X202306110Y-31228423D01*
X202200235Y-31157680D01*
X202200228Y-31157676D01*
X202027251Y-31086027D01*
X202027243Y-31086025D01*
X201843620Y-31049500D01*
X201843616Y-31049500D01*
X201656384Y-31049500D01*
X201656379Y-31049500D01*
X201472756Y-31086025D01*
X201472748Y-31086027D01*
X201299771Y-31157676D01*
X201299757Y-31157684D01*
X201193440Y-31228723D01*
X201126763Y-31249601D01*
X201059383Y-31231116D01*
X201055660Y-31228723D01*
X200950005Y-31158127D01*
X200949991Y-31158119D01*
X200777103Y-31086507D01*
X200777100Y-31086506D01*
X200750000Y-31081115D01*
X200750000Y-32083011D01*
X200740060Y-32065795D01*
X200684205Y-32009940D01*
X200615796Y-31970444D01*
X200539496Y-31950000D01*
X200460504Y-31950000D01*
X200384204Y-31970444D01*
X200315795Y-32009940D01*
X200259940Y-32065795D01*
X200250000Y-32083011D01*
X200250000Y-31081116D01*
X200249999Y-31081115D01*
X200222899Y-31086506D01*
X200222896Y-31086507D01*
X200050008Y-31158119D01*
X200049994Y-31158127D01*
X199944340Y-31228723D01*
X199877663Y-31249601D01*
X199810283Y-31231116D01*
X199806560Y-31228723D01*
X199700242Y-31157684D01*
X199700228Y-31157676D01*
X199527251Y-31086027D01*
X199527243Y-31086025D01*
X199343620Y-31049500D01*
X199343616Y-31049500D01*
X199156384Y-31049500D01*
X199156379Y-31049500D01*
X198972756Y-31086025D01*
X198972748Y-31086027D01*
X198799771Y-31157676D01*
X198799762Y-31157681D01*
X198644092Y-31261697D01*
X198644088Y-31261700D01*
X198511700Y-31394088D01*
X198511697Y-31394092D01*
X198407681Y-31549762D01*
X198407679Y-31549766D01*
X198407678Y-31549769D01*
X198398074Y-31572953D01*
X198354235Y-31627356D01*
X198287941Y-31649421D01*
X198283514Y-31649500D01*
X193854500Y-31649500D01*
X193787461Y-31629815D01*
X193741706Y-31577011D01*
X193730500Y-31525500D01*
X193730500Y-31474236D01*
X193730500Y-31474234D01*
X193691281Y-31327865D01*
X193615515Y-31196635D01*
X193508365Y-31089485D01*
X193414632Y-31035368D01*
X193377136Y-31013719D01*
X193303950Y-30994109D01*
X193230766Y-30974500D01*
X193079234Y-30974500D01*
X192932863Y-31013719D01*
X192801635Y-31089485D01*
X192801632Y-31089487D01*
X192694487Y-31196632D01*
X192694485Y-31196635D01*
X192618719Y-31327863D01*
X192579500Y-31474234D01*
X192579500Y-31525500D01*
X192559815Y-31592539D01*
X192507011Y-31638294D01*
X192455500Y-31649500D01*
X187854500Y-31649500D01*
X187787461Y-31629815D01*
X187741706Y-31577011D01*
X187730500Y-31525500D01*
X187730500Y-31474236D01*
X187730500Y-31474234D01*
X187691281Y-31327865D01*
X187615515Y-31196635D01*
X187508365Y-31089485D01*
X187414632Y-31035368D01*
X187377136Y-31013719D01*
X187303950Y-30994109D01*
X187230766Y-30974500D01*
X187079234Y-30974500D01*
X186932863Y-31013719D01*
X186801635Y-31089485D01*
X186801632Y-31089487D01*
X186694487Y-31196632D01*
X186694485Y-31196635D01*
X186618719Y-31327863D01*
X186579500Y-31474234D01*
X186579500Y-31525500D01*
X186559815Y-31592539D01*
X186507011Y-31638294D01*
X186455500Y-31649500D01*
X181829057Y-31649500D01*
X181670942Y-31649500D01*
X181518215Y-31690423D01*
X181518214Y-31690423D01*
X181518212Y-31690424D01*
X181518209Y-31690425D01*
X181468096Y-31719359D01*
X181468095Y-31719360D01*
X181455396Y-31726692D01*
X181381285Y-31769479D01*
X181381282Y-31769481D01*
X181269478Y-31881286D01*
X177731465Y-35419298D01*
X177670142Y-35452783D01*
X177657668Y-35454837D01*
X177570750Y-35464630D01*
X177400478Y-35524210D01*
X177247737Y-35620184D01*
X177120184Y-35747737D01*
X177024211Y-35900476D01*
X176964631Y-36070745D01*
X176964630Y-36070750D01*
X176944435Y-36249996D01*
X146900500Y-36249996D01*
X146900500Y-33999996D01*
X174444435Y-33999996D01*
X174444435Y-34000003D01*
X174464630Y-34179249D01*
X174464631Y-34179254D01*
X174524211Y-34349523D01*
X174620184Y-34502262D01*
X174747738Y-34629816D01*
X174838080Y-34686582D01*
X174882721Y-34714632D01*
X174900478Y-34725789D01*
X174948130Y-34742463D01*
X175070745Y-34785368D01*
X175070750Y-34785369D01*
X175249996Y-34805565D01*
X175250000Y-34805565D01*
X175250004Y-34805565D01*
X175429249Y-34785369D01*
X175429252Y-34785368D01*
X175429255Y-34785368D01*
X175599522Y-34725789D01*
X175752262Y-34629816D01*
X175879816Y-34502262D01*
X175975789Y-34349522D01*
X176035368Y-34179255D01*
X176055565Y-34000000D01*
X176035368Y-33820745D01*
X175975789Y-33650478D01*
X175879816Y-33497738D01*
X175752262Y-33370184D01*
X175679006Y-33324154D01*
X175599523Y-33274211D01*
X175429254Y-33214631D01*
X175429249Y-33214630D01*
X175250004Y-33194435D01*
X175249996Y-33194435D01*
X175070750Y-33214630D01*
X175070745Y-33214631D01*
X174900476Y-33274211D01*
X174747737Y-33370184D01*
X174620184Y-33497737D01*
X174524211Y-33650476D01*
X174464631Y-33820745D01*
X174464630Y-33820750D01*
X174444435Y-33999996D01*
X146900500Y-33999996D01*
X146900500Y-30249993D01*
X158344700Y-30249993D01*
X158344700Y-30250006D01*
X158363864Y-30481297D01*
X158363866Y-30481308D01*
X158420842Y-30706300D01*
X158514075Y-30918848D01*
X158641016Y-31113147D01*
X158641019Y-31113151D01*
X158641021Y-31113153D01*
X158798216Y-31283913D01*
X158798219Y-31283915D01*
X158798222Y-31283918D01*
X158981365Y-31426464D01*
X158981371Y-31426468D01*
X158981374Y-31426470D01*
X159185497Y-31536936D01*
X159290408Y-31572952D01*
X159405015Y-31612297D01*
X159405017Y-31612297D01*
X159405019Y-31612298D01*
X159633951Y-31650500D01*
X159633952Y-31650500D01*
X159866048Y-31650500D01*
X159866049Y-31650500D01*
X160094981Y-31612298D01*
X160314503Y-31536936D01*
X160518626Y-31426470D01*
X160560226Y-31394092D01*
X160645314Y-31327865D01*
X160701784Y-31283913D01*
X160858979Y-31113153D01*
X160985924Y-30918849D01*
X161079157Y-30706300D01*
X161136134Y-30481305D01*
X161140447Y-30429254D01*
X161155300Y-30250006D01*
X161155300Y-30249993D01*
X161136135Y-30018702D01*
X161136133Y-30018691D01*
X161079157Y-29793699D01*
X160985924Y-29581151D01*
X160858983Y-29386852D01*
X160858980Y-29386849D01*
X160858979Y-29386847D01*
X160780996Y-29302135D01*
X163349500Y-29302135D01*
X163349500Y-31197870D01*
X163349501Y-31197876D01*
X163355908Y-31257483D01*
X163406202Y-31392328D01*
X163406206Y-31392335D01*
X163492452Y-31507544D01*
X163492455Y-31507547D01*
X163607664Y-31593793D01*
X163607671Y-31593797D01*
X163742517Y-31644091D01*
X163742516Y-31644091D01*
X163749444Y-31644835D01*
X163802127Y-31650500D01*
X165697872Y-31650499D01*
X165757483Y-31644091D01*
X165892331Y-31593796D01*
X166007546Y-31507546D01*
X166093796Y-31392331D01*
X166144091Y-31257483D01*
X166150500Y-31197873D01*
X166150499Y-30249996D01*
X184254435Y-30249996D01*
X184254435Y-30250003D01*
X184274630Y-30429249D01*
X184274631Y-30429254D01*
X184334211Y-30599523D01*
X184401304Y-30706300D01*
X184430184Y-30752262D01*
X184557738Y-30879816D01*
X184619857Y-30918848D01*
X184708426Y-30974500D01*
X184710478Y-30975789D01*
X184818876Y-31013719D01*
X184880745Y-31035368D01*
X184880750Y-31035369D01*
X185059996Y-31055565D01*
X185060000Y-31055565D01*
X185060004Y-31055565D01*
X185239249Y-31035369D01*
X185239252Y-31035368D01*
X185239255Y-31035368D01*
X185409522Y-30975789D01*
X185562262Y-30879816D01*
X185689816Y-30752262D01*
X185785789Y-30599522D01*
X185845368Y-30429255D01*
X185845369Y-30429249D01*
X185865565Y-30250003D01*
X185865565Y-30249996D01*
X194444435Y-30249996D01*
X194444435Y-30250003D01*
X194464630Y-30429249D01*
X194464631Y-30429254D01*
X194524211Y-30599523D01*
X194591304Y-30706300D01*
X194620184Y-30752262D01*
X194747738Y-30879816D01*
X194809857Y-30918848D01*
X194898426Y-30974500D01*
X194900478Y-30975789D01*
X195008876Y-31013719D01*
X195070745Y-31035368D01*
X195070750Y-31035369D01*
X195249996Y-31055565D01*
X195250000Y-31055565D01*
X195250004Y-31055565D01*
X195429249Y-31035369D01*
X195429252Y-31035368D01*
X195429255Y-31035368D01*
X195599522Y-30975789D01*
X195752262Y-30879816D01*
X195879816Y-30752262D01*
X195975789Y-30599522D01*
X196035368Y-30429255D01*
X196035369Y-30429249D01*
X196055565Y-30250003D01*
X196055565Y-30249996D01*
X196035369Y-30070750D01*
X196035368Y-30070745D01*
X196017155Y-30018695D01*
X195975789Y-29900478D01*
X195879816Y-29747738D01*
X195752262Y-29620184D01*
X195599523Y-29524211D01*
X195429254Y-29464631D01*
X195429249Y-29464630D01*
X195250004Y-29444435D01*
X195249996Y-29444435D01*
X195070750Y-29464630D01*
X195070745Y-29464631D01*
X194900476Y-29524211D01*
X194747737Y-29620184D01*
X194620184Y-29747737D01*
X194524211Y-29900476D01*
X194464631Y-30070745D01*
X194464630Y-30070750D01*
X194444435Y-30249996D01*
X185865565Y-30249996D01*
X185845369Y-30070750D01*
X185845368Y-30070745D01*
X185827155Y-30018695D01*
X185785789Y-29900478D01*
X185689816Y-29747738D01*
X185562262Y-29620184D01*
X185409523Y-29524211D01*
X185239254Y-29464631D01*
X185239249Y-29464630D01*
X185060004Y-29444435D01*
X185059996Y-29444435D01*
X184880750Y-29464630D01*
X184880745Y-29464631D01*
X184710476Y-29524211D01*
X184557737Y-29620184D01*
X184430184Y-29747737D01*
X184334211Y-29900476D01*
X184274631Y-30070745D01*
X184274630Y-30070750D01*
X184254435Y-30249996D01*
X166150499Y-30249996D01*
X166150499Y-29302128D01*
X166144091Y-29242517D01*
X166134233Y-29216087D01*
X166093797Y-29107671D01*
X166093793Y-29107664D01*
X166007547Y-28992455D01*
X166007544Y-28992452D01*
X165892335Y-28906206D01*
X165892328Y-28906202D01*
X165757482Y-28855908D01*
X165757483Y-28855908D01*
X165697883Y-28849501D01*
X165697881Y-28849500D01*
X165697873Y-28849500D01*
X165697864Y-28849500D01*
X163802129Y-28849500D01*
X163802123Y-28849501D01*
X163742516Y-28855908D01*
X163607671Y-28906202D01*
X163607664Y-28906206D01*
X163492455Y-28992452D01*
X163492452Y-28992455D01*
X163406206Y-29107664D01*
X163406202Y-29107671D01*
X163355908Y-29242517D01*
X163349501Y-29302116D01*
X163349501Y-29302123D01*
X163349500Y-29302135D01*
X160780996Y-29302135D01*
X160701784Y-29216087D01*
X160701779Y-29216083D01*
X160701777Y-29216081D01*
X160518634Y-29073535D01*
X160518628Y-29073531D01*
X160314504Y-28963064D01*
X160314495Y-28963061D01*
X160094984Y-28887702D01*
X159904444Y-28855907D01*
X159866049Y-28849500D01*
X159633951Y-28849500D01*
X159595556Y-28855907D01*
X159405015Y-28887702D01*
X159185504Y-28963061D01*
X159185495Y-28963064D01*
X158981371Y-29073531D01*
X158981365Y-29073535D01*
X158798222Y-29216081D01*
X158798219Y-29216084D01*
X158798216Y-29216086D01*
X158798216Y-29216087D01*
X158773886Y-29242517D01*
X158641016Y-29386852D01*
X158514075Y-29581151D01*
X158420842Y-29793699D01*
X158363866Y-30018691D01*
X158363864Y-30018702D01*
X158344700Y-30249993D01*
X146900500Y-30249993D01*
X146900500Y-27749992D01*
X147744671Y-27749992D01*
X147744671Y-27750007D01*
X147763964Y-28044363D01*
X147763965Y-28044373D01*
X147763966Y-28044380D01*
X147814811Y-28300000D01*
X147821518Y-28333716D01*
X147821521Y-28333730D01*
X147916349Y-28613080D01*
X148046825Y-28877660D01*
X148046829Y-28877667D01*
X148210725Y-29122955D01*
X148405241Y-29344758D01*
X148627044Y-29539274D01*
X148748135Y-29620184D01*
X148872335Y-29703172D01*
X149136923Y-29833652D01*
X149416278Y-29928481D01*
X149705620Y-29986034D01*
X149733888Y-29987886D01*
X149999993Y-30005329D01*
X150000000Y-30005329D01*
X150000007Y-30005329D01*
X150235675Y-29989881D01*
X150294380Y-29986034D01*
X150583722Y-29928481D01*
X150863077Y-29833652D01*
X151127665Y-29703172D01*
X151372957Y-29539273D01*
X151594758Y-29344758D01*
X151789273Y-29122957D01*
X151953172Y-28877665D01*
X152083652Y-28613077D01*
X152178481Y-28333722D01*
X152236034Y-28044380D01*
X152246533Y-27884204D01*
X152255329Y-27750007D01*
X152255329Y-27749992D01*
X152237412Y-27476647D01*
X170359500Y-27476647D01*
X170359500Y-28523337D01*
X170359501Y-28523355D01*
X170369650Y-28622707D01*
X170369651Y-28622710D01*
X170422996Y-28783694D01*
X170423001Y-28783705D01*
X170512029Y-28928040D01*
X170512032Y-28928044D01*
X170631955Y-29047967D01*
X170631959Y-29047970D01*
X170776294Y-29136998D01*
X170776297Y-29136999D01*
X170776303Y-29137003D01*
X170937292Y-29190349D01*
X171036655Y-29200500D01*
X171583344Y-29200499D01*
X171583352Y-29200498D01*
X171583355Y-29200498D01*
X171637760Y-29194940D01*
X171682708Y-29190349D01*
X171843697Y-29137003D01*
X171949048Y-29072021D01*
X172016437Y-29053581D01*
X172083032Y-29074457D01*
X172109769Y-29092322D01*
X172282749Y-29163973D01*
X172466374Y-29200498D01*
X172466379Y-29200499D01*
X172466383Y-29200500D01*
X172466384Y-29200500D01*
X172653617Y-29200500D01*
X172653618Y-29200499D01*
X172837251Y-29163973D01*
X173010231Y-29092322D01*
X173116560Y-29021274D01*
X173183234Y-29000397D01*
X173250614Y-29018881D01*
X173254340Y-29021275D01*
X173360000Y-29091875D01*
X173360012Y-29091882D01*
X173532889Y-29163489D01*
X173532896Y-29163491D01*
X173560000Y-29168882D01*
X173560000Y-28166988D01*
X173569940Y-28184205D01*
X173625795Y-28240060D01*
X173694204Y-28279556D01*
X173770504Y-28300000D01*
X173849496Y-28300000D01*
X173925796Y-28279556D01*
X173994205Y-28240060D01*
X174050060Y-28184205D01*
X174060000Y-28166988D01*
X174060000Y-29168881D01*
X174087103Y-29163491D01*
X174087110Y-29163489D01*
X174259987Y-29091882D01*
X174260001Y-29091874D01*
X174365657Y-29021276D01*
X174432334Y-29000397D01*
X174499714Y-29018881D01*
X174503429Y-29021268D01*
X174609769Y-29092322D01*
X174782749Y-29163973D01*
X174966374Y-29200498D01*
X174966379Y-29200499D01*
X174966383Y-29200500D01*
X174966384Y-29200500D01*
X175153617Y-29200500D01*
X175153618Y-29200499D01*
X175337251Y-29163973D01*
X175510231Y-29092322D01*
X175510901Y-29091874D01*
X175616109Y-29021577D01*
X175682787Y-29000699D01*
X175750167Y-29019183D01*
X175753891Y-29021577D01*
X175859762Y-29092318D01*
X175859768Y-29092321D01*
X175859769Y-29092322D01*
X176032749Y-29163973D01*
X176216374Y-29200498D01*
X176216379Y-29200499D01*
X176216383Y-29200500D01*
X176216384Y-29200500D01*
X176403617Y-29200500D01*
X176403618Y-29200499D01*
X176587251Y-29163973D01*
X176760231Y-29092322D01*
X176760901Y-29091874D01*
X176866109Y-29021577D01*
X176932787Y-29000699D01*
X177000167Y-29019183D01*
X177003891Y-29021577D01*
X177109762Y-29092318D01*
X177109768Y-29092321D01*
X177109769Y-29092322D01*
X177282749Y-29163973D01*
X177466374Y-29200498D01*
X177466379Y-29200499D01*
X177466383Y-29200500D01*
X177466384Y-29200500D01*
X177653617Y-29200500D01*
X177653618Y-29200499D01*
X177837251Y-29163973D01*
X178010231Y-29092322D01*
X178010901Y-29091874D01*
X178116109Y-29021577D01*
X178182787Y-29000699D01*
X178250167Y-29019183D01*
X178253891Y-29021577D01*
X178359762Y-29092318D01*
X178359768Y-29092321D01*
X178359769Y-29092322D01*
X178532749Y-29163973D01*
X178716374Y-29200498D01*
X178716379Y-29200499D01*
X178716383Y-29200500D01*
X178716384Y-29200500D01*
X178903617Y-29200500D01*
X178903618Y-29200499D01*
X179087251Y-29163973D01*
X179260231Y-29092322D01*
X179260901Y-29091874D01*
X179366109Y-29021577D01*
X179432787Y-29000699D01*
X179500167Y-29019183D01*
X179503891Y-29021577D01*
X179609762Y-29092318D01*
X179609768Y-29092321D01*
X179609769Y-29092322D01*
X179782749Y-29163973D01*
X179966374Y-29200498D01*
X179966379Y-29200499D01*
X179966383Y-29200500D01*
X179966384Y-29200500D01*
X180153617Y-29200500D01*
X180153618Y-29200499D01*
X180337251Y-29163973D01*
X180510231Y-29092322D01*
X180665908Y-28988302D01*
X180798302Y-28855908D01*
X180902322Y-28700231D01*
X180973973Y-28527251D01*
X181010500Y-28343616D01*
X181010500Y-27749992D01*
X205244671Y-27749992D01*
X205244671Y-27750007D01*
X205263964Y-28044363D01*
X205263965Y-28044373D01*
X205263966Y-28044380D01*
X205314811Y-28300000D01*
X205321518Y-28333716D01*
X205321521Y-28333730D01*
X205416349Y-28613080D01*
X205546825Y-28877660D01*
X205546829Y-28877667D01*
X205710725Y-29122955D01*
X205905241Y-29344758D01*
X206127044Y-29539274D01*
X206248135Y-29620184D01*
X206372335Y-29703172D01*
X206636923Y-29833652D01*
X206916278Y-29928481D01*
X207205620Y-29986034D01*
X207233888Y-29987886D01*
X207499993Y-30005329D01*
X207500000Y-30005329D01*
X207500007Y-30005329D01*
X207735675Y-29989881D01*
X207794380Y-29986034D01*
X208083722Y-29928481D01*
X208363077Y-29833652D01*
X208627665Y-29703172D01*
X208872957Y-29539273D01*
X209094758Y-29344758D01*
X209289273Y-29122957D01*
X209453172Y-28877665D01*
X209583652Y-28613077D01*
X209678481Y-28333722D01*
X209736034Y-28044380D01*
X209746533Y-27884204D01*
X209755329Y-27750007D01*
X209755329Y-27749992D01*
X209736035Y-27455636D01*
X209736034Y-27455620D01*
X209678481Y-27166278D01*
X209583652Y-26886923D01*
X209453172Y-26622336D01*
X209289273Y-26377043D01*
X209246655Y-26328447D01*
X209094758Y-26155241D01*
X208872955Y-25960725D01*
X208627667Y-25796829D01*
X208627660Y-25796825D01*
X208363080Y-25666349D01*
X208083730Y-25571521D01*
X208083724Y-25571519D01*
X208083722Y-25571519D01*
X207794380Y-25513966D01*
X207794373Y-25513965D01*
X207794363Y-25513964D01*
X207500007Y-25494671D01*
X207499993Y-25494671D01*
X207205636Y-25513964D01*
X207205624Y-25513965D01*
X207205620Y-25513966D01*
X207205612Y-25513967D01*
X207205609Y-25513968D01*
X206916283Y-25571518D01*
X206916269Y-25571521D01*
X206636919Y-25666349D01*
X206372334Y-25796828D01*
X206127041Y-25960728D01*
X205905241Y-26155241D01*
X205710728Y-26377041D01*
X205546828Y-26622334D01*
X205416349Y-26886919D01*
X205321521Y-27166269D01*
X205321518Y-27166283D01*
X205263968Y-27455609D01*
X205263964Y-27455636D01*
X205244671Y-27749992D01*
X181010500Y-27749992D01*
X181010500Y-27656384D01*
X180973973Y-27472749D01*
X180902322Y-27299769D01*
X180902321Y-27299768D01*
X180902318Y-27299762D01*
X180798302Y-27144092D01*
X180798299Y-27144088D01*
X180665911Y-27011700D01*
X180665907Y-27011697D01*
X180510237Y-26907681D01*
X180510228Y-26907676D01*
X180337251Y-26836027D01*
X180337243Y-26836025D01*
X180153620Y-26799500D01*
X180153616Y-26799500D01*
X179966384Y-26799500D01*
X179966379Y-26799500D01*
X179782756Y-26836025D01*
X179782748Y-26836027D01*
X179609771Y-26907676D01*
X179609764Y-26907680D01*
X179503890Y-26978423D01*
X179437213Y-26999300D01*
X179369833Y-26980815D01*
X179366110Y-26978423D01*
X179260235Y-26907680D01*
X179260228Y-26907676D01*
X179087251Y-26836027D01*
X179087243Y-26836025D01*
X178903620Y-26799500D01*
X178903616Y-26799500D01*
X178716384Y-26799500D01*
X178716379Y-26799500D01*
X178532756Y-26836025D01*
X178532748Y-26836027D01*
X178359771Y-26907676D01*
X178359764Y-26907680D01*
X178253890Y-26978423D01*
X178187213Y-26999300D01*
X178119833Y-26980815D01*
X178116110Y-26978423D01*
X178010235Y-26907680D01*
X178010228Y-26907676D01*
X177837251Y-26836027D01*
X177837243Y-26836025D01*
X177653620Y-26799500D01*
X177653616Y-26799500D01*
X177466384Y-26799500D01*
X177466379Y-26799500D01*
X177282756Y-26836025D01*
X177282748Y-26836027D01*
X177109771Y-26907676D01*
X177109764Y-26907680D01*
X177003890Y-26978423D01*
X176937213Y-26999300D01*
X176869833Y-26980815D01*
X176866110Y-26978423D01*
X176760235Y-26907680D01*
X176760228Y-26907676D01*
X176587251Y-26836027D01*
X176587243Y-26836025D01*
X176403620Y-26799500D01*
X176403616Y-26799500D01*
X176216384Y-26799500D01*
X176216379Y-26799500D01*
X176032756Y-26836025D01*
X176032748Y-26836027D01*
X175859771Y-26907676D01*
X175859764Y-26907680D01*
X175753890Y-26978423D01*
X175687213Y-26999300D01*
X175619833Y-26980815D01*
X175616110Y-26978423D01*
X175510235Y-26907680D01*
X175510228Y-26907676D01*
X175337251Y-26836027D01*
X175337243Y-26836025D01*
X175153620Y-26799500D01*
X175153616Y-26799500D01*
X174966384Y-26799500D01*
X174966379Y-26799500D01*
X174782756Y-26836025D01*
X174782748Y-26836027D01*
X174609771Y-26907676D01*
X174609757Y-26907684D01*
X174503440Y-26978723D01*
X174436763Y-26999601D01*
X174369383Y-26981116D01*
X174365660Y-26978723D01*
X174260005Y-26908127D01*
X174259991Y-26908119D01*
X174087103Y-26836507D01*
X174087100Y-26836506D01*
X174060000Y-26831115D01*
X174060000Y-27833011D01*
X174050060Y-27815795D01*
X173994205Y-27759940D01*
X173925796Y-27720444D01*
X173849496Y-27700000D01*
X173770504Y-27700000D01*
X173694204Y-27720444D01*
X173625795Y-27759940D01*
X173569940Y-27815795D01*
X173560000Y-27833011D01*
X173560000Y-26831116D01*
X173559999Y-26831115D01*
X173532899Y-26836506D01*
X173532896Y-26836507D01*
X173360008Y-26908119D01*
X173359994Y-26908127D01*
X173254340Y-26978723D01*
X173187663Y-26999601D01*
X173120283Y-26981116D01*
X173116560Y-26978723D01*
X173010242Y-26907684D01*
X173010228Y-26907676D01*
X172837251Y-26836027D01*
X172837243Y-26836025D01*
X172653620Y-26799500D01*
X172653616Y-26799500D01*
X172466384Y-26799500D01*
X172466379Y-26799500D01*
X172282756Y-26836025D01*
X172282748Y-26836027D01*
X172109767Y-26907678D01*
X172083032Y-26925542D01*
X172016354Y-26946419D01*
X171949046Y-26927977D01*
X171843705Y-26863001D01*
X171843699Y-26862998D01*
X171843697Y-26862997D01*
X171763752Y-26836506D01*
X171682709Y-26809651D01*
X171583346Y-26799500D01*
X171036662Y-26799500D01*
X171036644Y-26799501D01*
X170937292Y-26809650D01*
X170937289Y-26809651D01*
X170776305Y-26862996D01*
X170776294Y-26863001D01*
X170631959Y-26952029D01*
X170631955Y-26952032D01*
X170512032Y-27071955D01*
X170512029Y-27071959D01*
X170423001Y-27216294D01*
X170422996Y-27216305D01*
X170369651Y-27377290D01*
X170359500Y-27476647D01*
X152237412Y-27476647D01*
X152236035Y-27455636D01*
X152236034Y-27455620D01*
X152178481Y-27166278D01*
X152083652Y-26886923D01*
X151953172Y-26622336D01*
X151789273Y-26377043D01*
X151746655Y-26328447D01*
X151594758Y-26155241D01*
X151372955Y-25960725D01*
X151127667Y-25796829D01*
X151127660Y-25796825D01*
X150863080Y-25666349D01*
X150583730Y-25571521D01*
X150583724Y-25571519D01*
X150583722Y-25571519D01*
X150294380Y-25513966D01*
X150294373Y-25513965D01*
X150294363Y-25513964D01*
X150000007Y-25494671D01*
X149999993Y-25494671D01*
X149705636Y-25513964D01*
X149705624Y-25513965D01*
X149705620Y-25513966D01*
X149705612Y-25513967D01*
X149705609Y-25513968D01*
X149416283Y-25571518D01*
X149416269Y-25571521D01*
X149136919Y-25666349D01*
X148872334Y-25796828D01*
X148627041Y-25960728D01*
X148405241Y-26155241D01*
X148210728Y-26377041D01*
X148046828Y-26622334D01*
X147916349Y-26886919D01*
X147821521Y-27166269D01*
X147821518Y-27166283D01*
X147763968Y-27455609D01*
X147763964Y-27455636D01*
X147744671Y-27749992D01*
X146900500Y-27749992D01*
X146900500Y-24224500D01*
X146920185Y-24157461D01*
X146972989Y-24111706D01*
X147024500Y-24100500D01*
X211075500Y-24100500D01*
X211142539Y-24120185D01*
G37*
%TD.AperFunction*%
%TD*%
M02*
