%TF.GenerationSoftware,KiCad,Pcbnew,8.0.6*%
%TF.CreationDate,2026-03-23T17:40:54+00:00*%
%TF.ProjectId,AIS IREC 2026 FC,41495320-4952-4454-9320-323032362046,1*%
%TF.SameCoordinates,Original*%
%TF.FileFunction,Legend,Top*%
%TF.FilePolarity,Positive*%
%FSLAX46Y46*%
G04 Gerber Fmt 4.6, Leading zero omitted, Abs format (unit mm)*
G04 Created by KiCad (PCBNEW 8.0.6) date 2026-03-23 17:40:54*
%MOMM*%
%LPD*%
G01*
G04 APERTURE LIST*
%ADD10C,0.254000*%
%ADD11C,0.150000*%
%ADD12C,0.200000*%
%ADD13C,0.100000*%
%ADD14C,0.120000*%
G04 APERTURE END LIST*
D10*
X192693809Y-38559318D02*
X192089047Y-38559318D01*
X192089047Y-38559318D02*
X192089047Y-37289318D01*
X193117142Y-37894080D02*
X193540476Y-37894080D01*
X193721904Y-38559318D02*
X193117142Y-38559318D01*
X193117142Y-38559318D02*
X193117142Y-37289318D01*
X193117142Y-37289318D02*
X193721904Y-37289318D01*
X194266190Y-38559318D02*
X194266190Y-37289318D01*
X194266190Y-37289318D02*
X194568571Y-37289318D01*
X194568571Y-37289318D02*
X194750000Y-37349794D01*
X194750000Y-37349794D02*
X194870952Y-37470746D01*
X194870952Y-37470746D02*
X194931429Y-37591699D01*
X194931429Y-37591699D02*
X194991905Y-37833603D01*
X194991905Y-37833603D02*
X194991905Y-38015032D01*
X194991905Y-38015032D02*
X194931429Y-38256937D01*
X194931429Y-38256937D02*
X194870952Y-38377889D01*
X194870952Y-38377889D02*
X194750000Y-38498842D01*
X194750000Y-38498842D02*
X194568571Y-38559318D01*
X194568571Y-38559318D02*
X194266190Y-38559318D01*
X196080476Y-37712651D02*
X196080476Y-38559318D01*
X195778095Y-37228842D02*
X195475714Y-38135984D01*
X195475714Y-38135984D02*
X196261905Y-38135984D01*
X162763365Y-51611666D02*
X162823842Y-51672142D01*
X162823842Y-51672142D02*
X162884318Y-51853571D01*
X162884318Y-51853571D02*
X162884318Y-51974523D01*
X162884318Y-51974523D02*
X162823842Y-52155952D01*
X162823842Y-52155952D02*
X162702889Y-52276904D01*
X162702889Y-52276904D02*
X162581937Y-52337381D01*
X162581937Y-52337381D02*
X162340032Y-52397857D01*
X162340032Y-52397857D02*
X162158603Y-52397857D01*
X162158603Y-52397857D02*
X161916699Y-52337381D01*
X161916699Y-52337381D02*
X161795746Y-52276904D01*
X161795746Y-52276904D02*
X161674794Y-52155952D01*
X161674794Y-52155952D02*
X161614318Y-51974523D01*
X161614318Y-51974523D02*
X161614318Y-51853571D01*
X161614318Y-51853571D02*
X161674794Y-51672142D01*
X161674794Y-51672142D02*
X161735270Y-51611666D01*
X161614318Y-50462619D02*
X161614318Y-51067381D01*
X161614318Y-51067381D02*
X162219080Y-51127857D01*
X162219080Y-51127857D02*
X162158603Y-51067381D01*
X162158603Y-51067381D02*
X162098127Y-50946428D01*
X162098127Y-50946428D02*
X162098127Y-50644047D01*
X162098127Y-50644047D02*
X162158603Y-50523095D01*
X162158603Y-50523095D02*
X162219080Y-50462619D01*
X162219080Y-50462619D02*
X162340032Y-50402142D01*
X162340032Y-50402142D02*
X162642413Y-50402142D01*
X162642413Y-50402142D02*
X162763365Y-50462619D01*
X162763365Y-50462619D02*
X162823842Y-50523095D01*
X162823842Y-50523095D02*
X162884318Y-50644047D01*
X162884318Y-50644047D02*
X162884318Y-50946428D01*
X162884318Y-50946428D02*
X162823842Y-51067381D01*
X162823842Y-51067381D02*
X162763365Y-51127857D01*
X169178571Y-55278365D02*
X169118095Y-55338842D01*
X169118095Y-55338842D02*
X168936666Y-55399318D01*
X168936666Y-55399318D02*
X168815714Y-55399318D01*
X168815714Y-55399318D02*
X168634285Y-55338842D01*
X168634285Y-55338842D02*
X168513333Y-55217889D01*
X168513333Y-55217889D02*
X168452856Y-55096937D01*
X168452856Y-55096937D02*
X168392380Y-54855032D01*
X168392380Y-54855032D02*
X168392380Y-54673603D01*
X168392380Y-54673603D02*
X168452856Y-54431699D01*
X168452856Y-54431699D02*
X168513333Y-54310746D01*
X168513333Y-54310746D02*
X168634285Y-54189794D01*
X168634285Y-54189794D02*
X168815714Y-54129318D01*
X168815714Y-54129318D02*
X168936666Y-54129318D01*
X168936666Y-54129318D02*
X169118095Y-54189794D01*
X169118095Y-54189794D02*
X169178571Y-54250270D01*
X169662380Y-54250270D02*
X169722856Y-54189794D01*
X169722856Y-54189794D02*
X169843809Y-54129318D01*
X169843809Y-54129318D02*
X170146190Y-54129318D01*
X170146190Y-54129318D02*
X170267142Y-54189794D01*
X170267142Y-54189794D02*
X170327618Y-54250270D01*
X170327618Y-54250270D02*
X170388095Y-54371222D01*
X170388095Y-54371222D02*
X170388095Y-54492175D01*
X170388095Y-54492175D02*
X170327618Y-54673603D01*
X170327618Y-54673603D02*
X169601904Y-55399318D01*
X169601904Y-55399318D02*
X170388095Y-55399318D01*
X171113809Y-54673603D02*
X170992857Y-54613127D01*
X170992857Y-54613127D02*
X170932380Y-54552651D01*
X170932380Y-54552651D02*
X170871904Y-54431699D01*
X170871904Y-54431699D02*
X170871904Y-54371222D01*
X170871904Y-54371222D02*
X170932380Y-54250270D01*
X170932380Y-54250270D02*
X170992857Y-54189794D01*
X170992857Y-54189794D02*
X171113809Y-54129318D01*
X171113809Y-54129318D02*
X171355714Y-54129318D01*
X171355714Y-54129318D02*
X171476666Y-54189794D01*
X171476666Y-54189794D02*
X171537142Y-54250270D01*
X171537142Y-54250270D02*
X171597619Y-54371222D01*
X171597619Y-54371222D02*
X171597619Y-54431699D01*
X171597619Y-54431699D02*
X171537142Y-54552651D01*
X171537142Y-54552651D02*
X171476666Y-54613127D01*
X171476666Y-54613127D02*
X171355714Y-54673603D01*
X171355714Y-54673603D02*
X171113809Y-54673603D01*
X171113809Y-54673603D02*
X170992857Y-54734080D01*
X170992857Y-54734080D02*
X170932380Y-54794556D01*
X170932380Y-54794556D02*
X170871904Y-54915508D01*
X170871904Y-54915508D02*
X170871904Y-55157413D01*
X170871904Y-55157413D02*
X170932380Y-55278365D01*
X170932380Y-55278365D02*
X170992857Y-55338842D01*
X170992857Y-55338842D02*
X171113809Y-55399318D01*
X171113809Y-55399318D02*
X171355714Y-55399318D01*
X171355714Y-55399318D02*
X171476666Y-55338842D01*
X171476666Y-55338842D02*
X171537142Y-55278365D01*
X171537142Y-55278365D02*
X171597619Y-55157413D01*
X171597619Y-55157413D02*
X171597619Y-54915508D01*
X171597619Y-54915508D02*
X171537142Y-54794556D01*
X171537142Y-54794556D02*
X171476666Y-54734080D01*
X171476666Y-54734080D02*
X171355714Y-54673603D01*
D11*
X191333333Y-47154819D02*
X191000000Y-46678628D01*
X190761905Y-47154819D02*
X190761905Y-46154819D01*
X190761905Y-46154819D02*
X191142857Y-46154819D01*
X191142857Y-46154819D02*
X191238095Y-46202438D01*
X191238095Y-46202438D02*
X191285714Y-46250057D01*
X191285714Y-46250057D02*
X191333333Y-46345295D01*
X191333333Y-46345295D02*
X191333333Y-46488152D01*
X191333333Y-46488152D02*
X191285714Y-46583390D01*
X191285714Y-46583390D02*
X191238095Y-46631009D01*
X191238095Y-46631009D02*
X191142857Y-46678628D01*
X191142857Y-46678628D02*
X190761905Y-46678628D01*
X191809524Y-47154819D02*
X192000000Y-47154819D01*
X192000000Y-47154819D02*
X192095238Y-47107200D01*
X192095238Y-47107200D02*
X192142857Y-47059580D01*
X192142857Y-47059580D02*
X192238095Y-46916723D01*
X192238095Y-46916723D02*
X192285714Y-46726247D01*
X192285714Y-46726247D02*
X192285714Y-46345295D01*
X192285714Y-46345295D02*
X192238095Y-46250057D01*
X192238095Y-46250057D02*
X192190476Y-46202438D01*
X192190476Y-46202438D02*
X192095238Y-46154819D01*
X192095238Y-46154819D02*
X191904762Y-46154819D01*
X191904762Y-46154819D02*
X191809524Y-46202438D01*
X191809524Y-46202438D02*
X191761905Y-46250057D01*
X191761905Y-46250057D02*
X191714286Y-46345295D01*
X191714286Y-46345295D02*
X191714286Y-46583390D01*
X191714286Y-46583390D02*
X191761905Y-46678628D01*
X191761905Y-46678628D02*
X191809524Y-46726247D01*
X191809524Y-46726247D02*
X191904762Y-46773866D01*
X191904762Y-46773866D02*
X192095238Y-46773866D01*
X192095238Y-46773866D02*
X192190476Y-46726247D01*
X192190476Y-46726247D02*
X192238095Y-46678628D01*
X192238095Y-46678628D02*
X192285714Y-46583390D01*
X190964819Y-35346666D02*
X190488628Y-35679999D01*
X190964819Y-35918094D02*
X189964819Y-35918094D01*
X189964819Y-35918094D02*
X189964819Y-35537142D01*
X189964819Y-35537142D02*
X190012438Y-35441904D01*
X190012438Y-35441904D02*
X190060057Y-35394285D01*
X190060057Y-35394285D02*
X190155295Y-35346666D01*
X190155295Y-35346666D02*
X190298152Y-35346666D01*
X190298152Y-35346666D02*
X190393390Y-35394285D01*
X190393390Y-35394285D02*
X190441009Y-35441904D01*
X190441009Y-35441904D02*
X190488628Y-35537142D01*
X190488628Y-35537142D02*
X190488628Y-35918094D01*
X190060057Y-34965713D02*
X190012438Y-34918094D01*
X190012438Y-34918094D02*
X189964819Y-34822856D01*
X189964819Y-34822856D02*
X189964819Y-34584761D01*
X189964819Y-34584761D02*
X190012438Y-34489523D01*
X190012438Y-34489523D02*
X190060057Y-34441904D01*
X190060057Y-34441904D02*
X190155295Y-34394285D01*
X190155295Y-34394285D02*
X190250533Y-34394285D01*
X190250533Y-34394285D02*
X190393390Y-34441904D01*
X190393390Y-34441904D02*
X190964819Y-35013332D01*
X190964819Y-35013332D02*
X190964819Y-34394285D01*
X169903333Y-52004819D02*
X169570000Y-51528628D01*
X169331905Y-52004819D02*
X169331905Y-51004819D01*
X169331905Y-51004819D02*
X169712857Y-51004819D01*
X169712857Y-51004819D02*
X169808095Y-51052438D01*
X169808095Y-51052438D02*
X169855714Y-51100057D01*
X169855714Y-51100057D02*
X169903333Y-51195295D01*
X169903333Y-51195295D02*
X169903333Y-51338152D01*
X169903333Y-51338152D02*
X169855714Y-51433390D01*
X169855714Y-51433390D02*
X169808095Y-51481009D01*
X169808095Y-51481009D02*
X169712857Y-51528628D01*
X169712857Y-51528628D02*
X169331905Y-51528628D01*
X170808095Y-51004819D02*
X170331905Y-51004819D01*
X170331905Y-51004819D02*
X170284286Y-51481009D01*
X170284286Y-51481009D02*
X170331905Y-51433390D01*
X170331905Y-51433390D02*
X170427143Y-51385771D01*
X170427143Y-51385771D02*
X170665238Y-51385771D01*
X170665238Y-51385771D02*
X170760476Y-51433390D01*
X170760476Y-51433390D02*
X170808095Y-51481009D01*
X170808095Y-51481009D02*
X170855714Y-51576247D01*
X170855714Y-51576247D02*
X170855714Y-51814342D01*
X170855714Y-51814342D02*
X170808095Y-51909580D01*
X170808095Y-51909580D02*
X170760476Y-51957200D01*
X170760476Y-51957200D02*
X170665238Y-52004819D01*
X170665238Y-52004819D02*
X170427143Y-52004819D01*
X170427143Y-52004819D02*
X170331905Y-51957200D01*
X170331905Y-51957200D02*
X170284286Y-51909580D01*
D10*
X204560270Y-54620952D02*
X204499794Y-54741904D01*
X204499794Y-54741904D02*
X204378842Y-54862857D01*
X204378842Y-54862857D02*
X204197413Y-55044285D01*
X204197413Y-55044285D02*
X204136937Y-55165238D01*
X204136937Y-55165238D02*
X204136937Y-55286190D01*
X204439318Y-55225714D02*
X204378842Y-55346666D01*
X204378842Y-55346666D02*
X204257889Y-55467619D01*
X204257889Y-55467619D02*
X204015984Y-55528095D01*
X204015984Y-55528095D02*
X203592651Y-55528095D01*
X203592651Y-55528095D02*
X203350746Y-55467619D01*
X203350746Y-55467619D02*
X203229794Y-55346666D01*
X203229794Y-55346666D02*
X203169318Y-55225714D01*
X203169318Y-55225714D02*
X203169318Y-54983809D01*
X203169318Y-54983809D02*
X203229794Y-54862857D01*
X203229794Y-54862857D02*
X203350746Y-54741904D01*
X203350746Y-54741904D02*
X203592651Y-54681428D01*
X203592651Y-54681428D02*
X204015984Y-54681428D01*
X204015984Y-54681428D02*
X204257889Y-54741904D01*
X204257889Y-54741904D02*
X204378842Y-54862857D01*
X204378842Y-54862857D02*
X204439318Y-54983809D01*
X204439318Y-54983809D02*
X204439318Y-55225714D01*
X203169318Y-54258095D02*
X203169318Y-53471904D01*
X203169318Y-53471904D02*
X203653127Y-53895238D01*
X203653127Y-53895238D02*
X203653127Y-53713809D01*
X203653127Y-53713809D02*
X203713603Y-53592857D01*
X203713603Y-53592857D02*
X203774080Y-53532381D01*
X203774080Y-53532381D02*
X203895032Y-53471904D01*
X203895032Y-53471904D02*
X204197413Y-53471904D01*
X204197413Y-53471904D02*
X204318365Y-53532381D01*
X204318365Y-53532381D02*
X204378842Y-53592857D01*
X204378842Y-53592857D02*
X204439318Y-53713809D01*
X204439318Y-53713809D02*
X204439318Y-54076666D01*
X204439318Y-54076666D02*
X204378842Y-54197619D01*
X204378842Y-54197619D02*
X204318365Y-54258095D01*
X193463809Y-48559318D02*
X192859047Y-48559318D01*
X192859047Y-48559318D02*
X192859047Y-47289318D01*
X193887142Y-47894080D02*
X194310476Y-47894080D01*
X194491904Y-48559318D02*
X193887142Y-48559318D01*
X193887142Y-48559318D02*
X193887142Y-47289318D01*
X193887142Y-47289318D02*
X194491904Y-47289318D01*
X195036190Y-48559318D02*
X195036190Y-47289318D01*
X195036190Y-47289318D02*
X195338571Y-47289318D01*
X195338571Y-47289318D02*
X195520000Y-47349794D01*
X195520000Y-47349794D02*
X195640952Y-47470746D01*
X195640952Y-47470746D02*
X195701429Y-47591699D01*
X195701429Y-47591699D02*
X195761905Y-47833603D01*
X195761905Y-47833603D02*
X195761905Y-48015032D01*
X195761905Y-48015032D02*
X195701429Y-48256937D01*
X195701429Y-48256937D02*
X195640952Y-48377889D01*
X195640952Y-48377889D02*
X195520000Y-48498842D01*
X195520000Y-48498842D02*
X195338571Y-48559318D01*
X195338571Y-48559318D02*
X195036190Y-48559318D01*
X196850476Y-47289318D02*
X196608571Y-47289318D01*
X196608571Y-47289318D02*
X196487619Y-47349794D01*
X196487619Y-47349794D02*
X196427143Y-47410270D01*
X196427143Y-47410270D02*
X196306190Y-47591699D01*
X196306190Y-47591699D02*
X196245714Y-47833603D01*
X196245714Y-47833603D02*
X196245714Y-48317413D01*
X196245714Y-48317413D02*
X196306190Y-48438365D01*
X196306190Y-48438365D02*
X196366667Y-48498842D01*
X196366667Y-48498842D02*
X196487619Y-48559318D01*
X196487619Y-48559318D02*
X196729524Y-48559318D01*
X196729524Y-48559318D02*
X196850476Y-48498842D01*
X196850476Y-48498842D02*
X196910952Y-48438365D01*
X196910952Y-48438365D02*
X196971429Y-48317413D01*
X196971429Y-48317413D02*
X196971429Y-48015032D01*
X196971429Y-48015032D02*
X196910952Y-47894080D01*
X196910952Y-47894080D02*
X196850476Y-47833603D01*
X196850476Y-47833603D02*
X196729524Y-47773127D01*
X196729524Y-47773127D02*
X196487619Y-47773127D01*
X196487619Y-47773127D02*
X196366667Y-47833603D01*
X196366667Y-47833603D02*
X196306190Y-47894080D01*
X196306190Y-47894080D02*
X196245714Y-48015032D01*
X197538333Y-37703365D02*
X197477857Y-37763842D01*
X197477857Y-37763842D02*
X197296428Y-37824318D01*
X197296428Y-37824318D02*
X197175476Y-37824318D01*
X197175476Y-37824318D02*
X196994047Y-37763842D01*
X196994047Y-37763842D02*
X196873095Y-37642889D01*
X196873095Y-37642889D02*
X196812618Y-37521937D01*
X196812618Y-37521937D02*
X196752142Y-37280032D01*
X196752142Y-37280032D02*
X196752142Y-37098603D01*
X196752142Y-37098603D02*
X196812618Y-36856699D01*
X196812618Y-36856699D02*
X196873095Y-36735746D01*
X196873095Y-36735746D02*
X196994047Y-36614794D01*
X196994047Y-36614794D02*
X197175476Y-36554318D01*
X197175476Y-36554318D02*
X197296428Y-36554318D01*
X197296428Y-36554318D02*
X197477857Y-36614794D01*
X197477857Y-36614794D02*
X197538333Y-36675270D01*
X198264047Y-37098603D02*
X198143095Y-37038127D01*
X198143095Y-37038127D02*
X198082618Y-36977651D01*
X198082618Y-36977651D02*
X198022142Y-36856699D01*
X198022142Y-36856699D02*
X198022142Y-36796222D01*
X198022142Y-36796222D02*
X198082618Y-36675270D01*
X198082618Y-36675270D02*
X198143095Y-36614794D01*
X198143095Y-36614794D02*
X198264047Y-36554318D01*
X198264047Y-36554318D02*
X198505952Y-36554318D01*
X198505952Y-36554318D02*
X198626904Y-36614794D01*
X198626904Y-36614794D02*
X198687380Y-36675270D01*
X198687380Y-36675270D02*
X198747857Y-36796222D01*
X198747857Y-36796222D02*
X198747857Y-36856699D01*
X198747857Y-36856699D02*
X198687380Y-36977651D01*
X198687380Y-36977651D02*
X198626904Y-37038127D01*
X198626904Y-37038127D02*
X198505952Y-37098603D01*
X198505952Y-37098603D02*
X198264047Y-37098603D01*
X198264047Y-37098603D02*
X198143095Y-37159080D01*
X198143095Y-37159080D02*
X198082618Y-37219556D01*
X198082618Y-37219556D02*
X198022142Y-37340508D01*
X198022142Y-37340508D02*
X198022142Y-37582413D01*
X198022142Y-37582413D02*
X198082618Y-37703365D01*
X198082618Y-37703365D02*
X198143095Y-37763842D01*
X198143095Y-37763842D02*
X198264047Y-37824318D01*
X198264047Y-37824318D02*
X198505952Y-37824318D01*
X198505952Y-37824318D02*
X198626904Y-37763842D01*
X198626904Y-37763842D02*
X198687380Y-37703365D01*
X198687380Y-37703365D02*
X198747857Y-37582413D01*
X198747857Y-37582413D02*
X198747857Y-37340508D01*
X198747857Y-37340508D02*
X198687380Y-37219556D01*
X198687380Y-37219556D02*
X198626904Y-37159080D01*
X198626904Y-37159080D02*
X198505952Y-37098603D01*
D11*
X169813333Y-55479819D02*
X169480000Y-55003628D01*
X169241905Y-55479819D02*
X169241905Y-54479819D01*
X169241905Y-54479819D02*
X169622857Y-54479819D01*
X169622857Y-54479819D02*
X169718095Y-54527438D01*
X169718095Y-54527438D02*
X169765714Y-54575057D01*
X169765714Y-54575057D02*
X169813333Y-54670295D01*
X169813333Y-54670295D02*
X169813333Y-54813152D01*
X169813333Y-54813152D02*
X169765714Y-54908390D01*
X169765714Y-54908390D02*
X169718095Y-54956009D01*
X169718095Y-54956009D02*
X169622857Y-55003628D01*
X169622857Y-55003628D02*
X169241905Y-55003628D01*
X170146667Y-54479819D02*
X170765714Y-54479819D01*
X170765714Y-54479819D02*
X170432381Y-54860771D01*
X170432381Y-54860771D02*
X170575238Y-54860771D01*
X170575238Y-54860771D02*
X170670476Y-54908390D01*
X170670476Y-54908390D02*
X170718095Y-54956009D01*
X170718095Y-54956009D02*
X170765714Y-55051247D01*
X170765714Y-55051247D02*
X170765714Y-55289342D01*
X170765714Y-55289342D02*
X170718095Y-55384580D01*
X170718095Y-55384580D02*
X170670476Y-55432200D01*
X170670476Y-55432200D02*
X170575238Y-55479819D01*
X170575238Y-55479819D02*
X170289524Y-55479819D01*
X170289524Y-55479819D02*
X170194286Y-55432200D01*
X170194286Y-55432200D02*
X170146667Y-55384580D01*
X191333333Y-50404819D02*
X191000000Y-49928628D01*
X190761905Y-50404819D02*
X190761905Y-49404819D01*
X190761905Y-49404819D02*
X191142857Y-49404819D01*
X191142857Y-49404819D02*
X191238095Y-49452438D01*
X191238095Y-49452438D02*
X191285714Y-49500057D01*
X191285714Y-49500057D02*
X191333333Y-49595295D01*
X191333333Y-49595295D02*
X191333333Y-49738152D01*
X191333333Y-49738152D02*
X191285714Y-49833390D01*
X191285714Y-49833390D02*
X191238095Y-49881009D01*
X191238095Y-49881009D02*
X191142857Y-49928628D01*
X191142857Y-49928628D02*
X190761905Y-49928628D01*
X191904762Y-49833390D02*
X191809524Y-49785771D01*
X191809524Y-49785771D02*
X191761905Y-49738152D01*
X191761905Y-49738152D02*
X191714286Y-49642914D01*
X191714286Y-49642914D02*
X191714286Y-49595295D01*
X191714286Y-49595295D02*
X191761905Y-49500057D01*
X191761905Y-49500057D02*
X191809524Y-49452438D01*
X191809524Y-49452438D02*
X191904762Y-49404819D01*
X191904762Y-49404819D02*
X192095238Y-49404819D01*
X192095238Y-49404819D02*
X192190476Y-49452438D01*
X192190476Y-49452438D02*
X192238095Y-49500057D01*
X192238095Y-49500057D02*
X192285714Y-49595295D01*
X192285714Y-49595295D02*
X192285714Y-49642914D01*
X192285714Y-49642914D02*
X192238095Y-49738152D01*
X192238095Y-49738152D02*
X192190476Y-49785771D01*
X192190476Y-49785771D02*
X192095238Y-49833390D01*
X192095238Y-49833390D02*
X191904762Y-49833390D01*
X191904762Y-49833390D02*
X191809524Y-49881009D01*
X191809524Y-49881009D02*
X191761905Y-49928628D01*
X191761905Y-49928628D02*
X191714286Y-50023866D01*
X191714286Y-50023866D02*
X191714286Y-50214342D01*
X191714286Y-50214342D02*
X191761905Y-50309580D01*
X191761905Y-50309580D02*
X191809524Y-50357200D01*
X191809524Y-50357200D02*
X191904762Y-50404819D01*
X191904762Y-50404819D02*
X192095238Y-50404819D01*
X192095238Y-50404819D02*
X192190476Y-50357200D01*
X192190476Y-50357200D02*
X192238095Y-50309580D01*
X192238095Y-50309580D02*
X192285714Y-50214342D01*
X192285714Y-50214342D02*
X192285714Y-50023866D01*
X192285714Y-50023866D02*
X192238095Y-49928628D01*
X192238095Y-49928628D02*
X192190476Y-49881009D01*
X192190476Y-49881009D02*
X192095238Y-49833390D01*
D10*
X197703365Y-57006428D02*
X197763842Y-57066904D01*
X197763842Y-57066904D02*
X197824318Y-57248333D01*
X197824318Y-57248333D02*
X197824318Y-57369285D01*
X197824318Y-57369285D02*
X197763842Y-57550714D01*
X197763842Y-57550714D02*
X197642889Y-57671666D01*
X197642889Y-57671666D02*
X197521937Y-57732143D01*
X197521937Y-57732143D02*
X197280032Y-57792619D01*
X197280032Y-57792619D02*
X197098603Y-57792619D01*
X197098603Y-57792619D02*
X196856699Y-57732143D01*
X196856699Y-57732143D02*
X196735746Y-57671666D01*
X196735746Y-57671666D02*
X196614794Y-57550714D01*
X196614794Y-57550714D02*
X196554318Y-57369285D01*
X196554318Y-57369285D02*
X196554318Y-57248333D01*
X196554318Y-57248333D02*
X196614794Y-57066904D01*
X196614794Y-57066904D02*
X196675270Y-57006428D01*
X197824318Y-55796904D02*
X197824318Y-56522619D01*
X197824318Y-56159762D02*
X196554318Y-56159762D01*
X196554318Y-56159762D02*
X196735746Y-56280714D01*
X196735746Y-56280714D02*
X196856699Y-56401666D01*
X196856699Y-56401666D02*
X196917175Y-56522619D01*
X196554318Y-55010714D02*
X196554318Y-54889761D01*
X196554318Y-54889761D02*
X196614794Y-54768809D01*
X196614794Y-54768809D02*
X196675270Y-54708333D01*
X196675270Y-54708333D02*
X196796222Y-54647857D01*
X196796222Y-54647857D02*
X197038127Y-54587380D01*
X197038127Y-54587380D02*
X197340508Y-54587380D01*
X197340508Y-54587380D02*
X197582413Y-54647857D01*
X197582413Y-54647857D02*
X197703365Y-54708333D01*
X197703365Y-54708333D02*
X197763842Y-54768809D01*
X197763842Y-54768809D02*
X197824318Y-54889761D01*
X197824318Y-54889761D02*
X197824318Y-55010714D01*
X197824318Y-55010714D02*
X197763842Y-55131666D01*
X197763842Y-55131666D02*
X197703365Y-55192142D01*
X197703365Y-55192142D02*
X197582413Y-55252619D01*
X197582413Y-55252619D02*
X197340508Y-55313095D01*
X197340508Y-55313095D02*
X197038127Y-55313095D01*
X197038127Y-55313095D02*
X196796222Y-55252619D01*
X196796222Y-55252619D02*
X196675270Y-55192142D01*
X196675270Y-55192142D02*
X196614794Y-55131666D01*
X196614794Y-55131666D02*
X196554318Y-55010714D01*
X169178571Y-54528365D02*
X169118095Y-54588842D01*
X169118095Y-54588842D02*
X168936666Y-54649318D01*
X168936666Y-54649318D02*
X168815714Y-54649318D01*
X168815714Y-54649318D02*
X168634285Y-54588842D01*
X168634285Y-54588842D02*
X168513333Y-54467889D01*
X168513333Y-54467889D02*
X168452856Y-54346937D01*
X168452856Y-54346937D02*
X168392380Y-54105032D01*
X168392380Y-54105032D02*
X168392380Y-53923603D01*
X168392380Y-53923603D02*
X168452856Y-53681699D01*
X168452856Y-53681699D02*
X168513333Y-53560746D01*
X168513333Y-53560746D02*
X168634285Y-53439794D01*
X168634285Y-53439794D02*
X168815714Y-53379318D01*
X168815714Y-53379318D02*
X168936666Y-53379318D01*
X168936666Y-53379318D02*
X169118095Y-53439794D01*
X169118095Y-53439794D02*
X169178571Y-53500270D01*
X169662380Y-53500270D02*
X169722856Y-53439794D01*
X169722856Y-53439794D02*
X169843809Y-53379318D01*
X169843809Y-53379318D02*
X170146190Y-53379318D01*
X170146190Y-53379318D02*
X170267142Y-53439794D01*
X170267142Y-53439794D02*
X170327618Y-53500270D01*
X170327618Y-53500270D02*
X170388095Y-53621222D01*
X170388095Y-53621222D02*
X170388095Y-53742175D01*
X170388095Y-53742175D02*
X170327618Y-53923603D01*
X170327618Y-53923603D02*
X169601904Y-54649318D01*
X169601904Y-54649318D02*
X170388095Y-54649318D01*
X170871904Y-53500270D02*
X170932380Y-53439794D01*
X170932380Y-53439794D02*
X171053333Y-53379318D01*
X171053333Y-53379318D02*
X171355714Y-53379318D01*
X171355714Y-53379318D02*
X171476666Y-53439794D01*
X171476666Y-53439794D02*
X171537142Y-53500270D01*
X171537142Y-53500270D02*
X171597619Y-53621222D01*
X171597619Y-53621222D02*
X171597619Y-53742175D01*
X171597619Y-53742175D02*
X171537142Y-53923603D01*
X171537142Y-53923603D02*
X170811428Y-54649318D01*
X170811428Y-54649318D02*
X171597619Y-54649318D01*
D11*
X203286666Y-35104819D02*
X203286666Y-35819104D01*
X203286666Y-35819104D02*
X203239047Y-35961961D01*
X203239047Y-35961961D02*
X203143809Y-36057200D01*
X203143809Y-36057200D02*
X203000952Y-36104819D01*
X203000952Y-36104819D02*
X202905714Y-36104819D01*
X204191428Y-35104819D02*
X204000952Y-35104819D01*
X204000952Y-35104819D02*
X203905714Y-35152438D01*
X203905714Y-35152438D02*
X203858095Y-35200057D01*
X203858095Y-35200057D02*
X203762857Y-35342914D01*
X203762857Y-35342914D02*
X203715238Y-35533390D01*
X203715238Y-35533390D02*
X203715238Y-35914342D01*
X203715238Y-35914342D02*
X203762857Y-36009580D01*
X203762857Y-36009580D02*
X203810476Y-36057200D01*
X203810476Y-36057200D02*
X203905714Y-36104819D01*
X203905714Y-36104819D02*
X204096190Y-36104819D01*
X204096190Y-36104819D02*
X204191428Y-36057200D01*
X204191428Y-36057200D02*
X204239047Y-36009580D01*
X204239047Y-36009580D02*
X204286666Y-35914342D01*
X204286666Y-35914342D02*
X204286666Y-35676247D01*
X204286666Y-35676247D02*
X204239047Y-35581009D01*
X204239047Y-35581009D02*
X204191428Y-35533390D01*
X204191428Y-35533390D02*
X204096190Y-35485771D01*
X204096190Y-35485771D02*
X203905714Y-35485771D01*
X203905714Y-35485771D02*
X203810476Y-35533390D01*
X203810476Y-35533390D02*
X203762857Y-35581009D01*
X203762857Y-35581009D02*
X203715238Y-35676247D01*
D10*
X193463809Y-45309318D02*
X192859047Y-45309318D01*
X192859047Y-45309318D02*
X192859047Y-44039318D01*
X193887142Y-44644080D02*
X194310476Y-44644080D01*
X194491904Y-45309318D02*
X193887142Y-45309318D01*
X193887142Y-45309318D02*
X193887142Y-44039318D01*
X193887142Y-44039318D02*
X194491904Y-44039318D01*
X195036190Y-45309318D02*
X195036190Y-44039318D01*
X195036190Y-44039318D02*
X195338571Y-44039318D01*
X195338571Y-44039318D02*
X195520000Y-44099794D01*
X195520000Y-44099794D02*
X195640952Y-44220746D01*
X195640952Y-44220746D02*
X195701429Y-44341699D01*
X195701429Y-44341699D02*
X195761905Y-44583603D01*
X195761905Y-44583603D02*
X195761905Y-44765032D01*
X195761905Y-44765032D02*
X195701429Y-45006937D01*
X195701429Y-45006937D02*
X195640952Y-45127889D01*
X195640952Y-45127889D02*
X195520000Y-45248842D01*
X195520000Y-45248842D02*
X195338571Y-45309318D01*
X195338571Y-45309318D02*
X195036190Y-45309318D01*
X196185238Y-44039318D02*
X197031905Y-44039318D01*
X197031905Y-44039318D02*
X196487619Y-45309318D01*
D11*
X190738333Y-37154819D02*
X190405000Y-36678628D01*
X190166905Y-37154819D02*
X190166905Y-36154819D01*
X190166905Y-36154819D02*
X190547857Y-36154819D01*
X190547857Y-36154819D02*
X190643095Y-36202438D01*
X190643095Y-36202438D02*
X190690714Y-36250057D01*
X190690714Y-36250057D02*
X190738333Y-36345295D01*
X190738333Y-36345295D02*
X190738333Y-36488152D01*
X190738333Y-36488152D02*
X190690714Y-36583390D01*
X190690714Y-36583390D02*
X190643095Y-36631009D01*
X190643095Y-36631009D02*
X190547857Y-36678628D01*
X190547857Y-36678628D02*
X190166905Y-36678628D01*
X191071667Y-36154819D02*
X191738333Y-36154819D01*
X191738333Y-36154819D02*
X191309762Y-37154819D01*
D10*
X193463809Y-42059318D02*
X192859047Y-42059318D01*
X192859047Y-42059318D02*
X192859047Y-40789318D01*
X193887142Y-41394080D02*
X194310476Y-41394080D01*
X194491904Y-42059318D02*
X193887142Y-42059318D01*
X193887142Y-42059318D02*
X193887142Y-40789318D01*
X193887142Y-40789318D02*
X194491904Y-40789318D01*
X195036190Y-42059318D02*
X195036190Y-40789318D01*
X195036190Y-40789318D02*
X195338571Y-40789318D01*
X195338571Y-40789318D02*
X195520000Y-40849794D01*
X195520000Y-40849794D02*
X195640952Y-40970746D01*
X195640952Y-40970746D02*
X195701429Y-41091699D01*
X195701429Y-41091699D02*
X195761905Y-41333603D01*
X195761905Y-41333603D02*
X195761905Y-41515032D01*
X195761905Y-41515032D02*
X195701429Y-41756937D01*
X195701429Y-41756937D02*
X195640952Y-41877889D01*
X195640952Y-41877889D02*
X195520000Y-41998842D01*
X195520000Y-41998842D02*
X195338571Y-42059318D01*
X195338571Y-42059318D02*
X195036190Y-42059318D01*
X196487619Y-41333603D02*
X196366667Y-41273127D01*
X196366667Y-41273127D02*
X196306190Y-41212651D01*
X196306190Y-41212651D02*
X196245714Y-41091699D01*
X196245714Y-41091699D02*
X196245714Y-41031222D01*
X196245714Y-41031222D02*
X196306190Y-40910270D01*
X196306190Y-40910270D02*
X196366667Y-40849794D01*
X196366667Y-40849794D02*
X196487619Y-40789318D01*
X196487619Y-40789318D02*
X196729524Y-40789318D01*
X196729524Y-40789318D02*
X196850476Y-40849794D01*
X196850476Y-40849794D02*
X196910952Y-40910270D01*
X196910952Y-40910270D02*
X196971429Y-41031222D01*
X196971429Y-41031222D02*
X196971429Y-41091699D01*
X196971429Y-41091699D02*
X196910952Y-41212651D01*
X196910952Y-41212651D02*
X196850476Y-41273127D01*
X196850476Y-41273127D02*
X196729524Y-41333603D01*
X196729524Y-41333603D02*
X196487619Y-41333603D01*
X196487619Y-41333603D02*
X196366667Y-41394080D01*
X196366667Y-41394080D02*
X196306190Y-41454556D01*
X196306190Y-41454556D02*
X196245714Y-41575508D01*
X196245714Y-41575508D02*
X196245714Y-41817413D01*
X196245714Y-41817413D02*
X196306190Y-41938365D01*
X196306190Y-41938365D02*
X196366667Y-41998842D01*
X196366667Y-41998842D02*
X196487619Y-42059318D01*
X196487619Y-42059318D02*
X196729524Y-42059318D01*
X196729524Y-42059318D02*
X196850476Y-41998842D01*
X196850476Y-41998842D02*
X196910952Y-41938365D01*
X196910952Y-41938365D02*
X196971429Y-41817413D01*
X196971429Y-41817413D02*
X196971429Y-41575508D01*
X196971429Y-41575508D02*
X196910952Y-41454556D01*
X196910952Y-41454556D02*
X196850476Y-41394080D01*
X196850476Y-41394080D02*
X196729524Y-41333603D01*
X174028365Y-40904428D02*
X174088842Y-40964904D01*
X174088842Y-40964904D02*
X174149318Y-41146333D01*
X174149318Y-41146333D02*
X174149318Y-41267285D01*
X174149318Y-41267285D02*
X174088842Y-41448714D01*
X174088842Y-41448714D02*
X173967889Y-41569666D01*
X173967889Y-41569666D02*
X173846937Y-41630143D01*
X173846937Y-41630143D02*
X173605032Y-41690619D01*
X173605032Y-41690619D02*
X173423603Y-41690619D01*
X173423603Y-41690619D02*
X173181699Y-41630143D01*
X173181699Y-41630143D02*
X173060746Y-41569666D01*
X173060746Y-41569666D02*
X172939794Y-41448714D01*
X172939794Y-41448714D02*
X172879318Y-41267285D01*
X172879318Y-41267285D02*
X172879318Y-41146333D01*
X172879318Y-41146333D02*
X172939794Y-40964904D01*
X172939794Y-40964904D02*
X173000270Y-40904428D01*
X173000270Y-40420619D02*
X172939794Y-40360143D01*
X172939794Y-40360143D02*
X172879318Y-40239190D01*
X172879318Y-40239190D02*
X172879318Y-39936809D01*
X172879318Y-39936809D02*
X172939794Y-39815857D01*
X172939794Y-39815857D02*
X173000270Y-39755381D01*
X173000270Y-39755381D02*
X173121222Y-39694904D01*
X173121222Y-39694904D02*
X173242175Y-39694904D01*
X173242175Y-39694904D02*
X173423603Y-39755381D01*
X173423603Y-39755381D02*
X174149318Y-40481095D01*
X174149318Y-40481095D02*
X174149318Y-39694904D01*
X172879318Y-38908714D02*
X172879318Y-38787761D01*
X172879318Y-38787761D02*
X172939794Y-38666809D01*
X172939794Y-38666809D02*
X173000270Y-38606333D01*
X173000270Y-38606333D02*
X173121222Y-38545857D01*
X173121222Y-38545857D02*
X173363127Y-38485380D01*
X173363127Y-38485380D02*
X173665508Y-38485380D01*
X173665508Y-38485380D02*
X173907413Y-38545857D01*
X173907413Y-38545857D02*
X174028365Y-38606333D01*
X174028365Y-38606333D02*
X174088842Y-38666809D01*
X174088842Y-38666809D02*
X174149318Y-38787761D01*
X174149318Y-38787761D02*
X174149318Y-38908714D01*
X174149318Y-38908714D02*
X174088842Y-39029666D01*
X174088842Y-39029666D02*
X174028365Y-39090142D01*
X174028365Y-39090142D02*
X173907413Y-39150619D01*
X173907413Y-39150619D02*
X173665508Y-39211095D01*
X173665508Y-39211095D02*
X173363127Y-39211095D01*
X173363127Y-39211095D02*
X173121222Y-39150619D01*
X173121222Y-39150619D02*
X173000270Y-39090142D01*
X173000270Y-39090142D02*
X172939794Y-39029666D01*
X172939794Y-39029666D02*
X172879318Y-38908714D01*
X152554318Y-48423332D02*
X153461461Y-48423332D01*
X153461461Y-48423332D02*
X153642889Y-48483809D01*
X153642889Y-48483809D02*
X153763842Y-48604761D01*
X153763842Y-48604761D02*
X153824318Y-48786190D01*
X153824318Y-48786190D02*
X153824318Y-48907142D01*
X152554318Y-47213809D02*
X152554318Y-47818571D01*
X152554318Y-47818571D02*
X153159080Y-47879047D01*
X153159080Y-47879047D02*
X153098603Y-47818571D01*
X153098603Y-47818571D02*
X153038127Y-47697618D01*
X153038127Y-47697618D02*
X153038127Y-47395237D01*
X153038127Y-47395237D02*
X153098603Y-47274285D01*
X153098603Y-47274285D02*
X153159080Y-47213809D01*
X153159080Y-47213809D02*
X153280032Y-47153332D01*
X153280032Y-47153332D02*
X153582413Y-47153332D01*
X153582413Y-47153332D02*
X153703365Y-47213809D01*
X153703365Y-47213809D02*
X153763842Y-47274285D01*
X153763842Y-47274285D02*
X153824318Y-47395237D01*
X153824318Y-47395237D02*
X153824318Y-47697618D01*
X153824318Y-47697618D02*
X153763842Y-47818571D01*
X153763842Y-47818571D02*
X153703365Y-47879047D01*
X204304318Y-46273332D02*
X205211461Y-46273332D01*
X205211461Y-46273332D02*
X205392889Y-46333809D01*
X205392889Y-46333809D02*
X205513842Y-46454761D01*
X205513842Y-46454761D02*
X205574318Y-46636190D01*
X205574318Y-46636190D02*
X205574318Y-46757142D01*
X204727651Y-45124285D02*
X205574318Y-45124285D01*
X204243842Y-45426666D02*
X205150984Y-45729047D01*
X205150984Y-45729047D02*
X205150984Y-44942856D01*
D11*
X191107142Y-43904819D02*
X190773809Y-43428628D01*
X190535714Y-43904819D02*
X190535714Y-42904819D01*
X190535714Y-42904819D02*
X190916666Y-42904819D01*
X190916666Y-42904819D02*
X191011904Y-42952438D01*
X191011904Y-42952438D02*
X191059523Y-43000057D01*
X191059523Y-43000057D02*
X191107142Y-43095295D01*
X191107142Y-43095295D02*
X191107142Y-43238152D01*
X191107142Y-43238152D02*
X191059523Y-43333390D01*
X191059523Y-43333390D02*
X191011904Y-43381009D01*
X191011904Y-43381009D02*
X190916666Y-43428628D01*
X190916666Y-43428628D02*
X190535714Y-43428628D01*
X192059523Y-43904819D02*
X191488095Y-43904819D01*
X191773809Y-43904819D02*
X191773809Y-42904819D01*
X191773809Y-42904819D02*
X191678571Y-43047676D01*
X191678571Y-43047676D02*
X191583333Y-43142914D01*
X191583333Y-43142914D02*
X191488095Y-43190533D01*
X192678571Y-42904819D02*
X192773809Y-42904819D01*
X192773809Y-42904819D02*
X192869047Y-42952438D01*
X192869047Y-42952438D02*
X192916666Y-43000057D01*
X192916666Y-43000057D02*
X192964285Y-43095295D01*
X192964285Y-43095295D02*
X193011904Y-43285771D01*
X193011904Y-43285771D02*
X193011904Y-43523866D01*
X193011904Y-43523866D02*
X192964285Y-43714342D01*
X192964285Y-43714342D02*
X192916666Y-43809580D01*
X192916666Y-43809580D02*
X192869047Y-43857200D01*
X192869047Y-43857200D02*
X192773809Y-43904819D01*
X192773809Y-43904819D02*
X192678571Y-43904819D01*
X192678571Y-43904819D02*
X192583333Y-43857200D01*
X192583333Y-43857200D02*
X192535714Y-43809580D01*
X192535714Y-43809580D02*
X192488095Y-43714342D01*
X192488095Y-43714342D02*
X192440476Y-43523866D01*
X192440476Y-43523866D02*
X192440476Y-43285771D01*
X192440476Y-43285771D02*
X192488095Y-43095295D01*
X192488095Y-43095295D02*
X192535714Y-43000057D01*
X192535714Y-43000057D02*
X192583333Y-42952438D01*
X192583333Y-42952438D02*
X192678571Y-42904819D01*
D10*
X193463809Y-51809318D02*
X192859047Y-51809318D01*
X192859047Y-51809318D02*
X192859047Y-50539318D01*
X193887142Y-51144080D02*
X194310476Y-51144080D01*
X194491904Y-51809318D02*
X193887142Y-51809318D01*
X193887142Y-51809318D02*
X193887142Y-50539318D01*
X193887142Y-50539318D02*
X194491904Y-50539318D01*
X195036190Y-51809318D02*
X195036190Y-50539318D01*
X195036190Y-50539318D02*
X195338571Y-50539318D01*
X195338571Y-50539318D02*
X195520000Y-50599794D01*
X195520000Y-50599794D02*
X195640952Y-50720746D01*
X195640952Y-50720746D02*
X195701429Y-50841699D01*
X195701429Y-50841699D02*
X195761905Y-51083603D01*
X195761905Y-51083603D02*
X195761905Y-51265032D01*
X195761905Y-51265032D02*
X195701429Y-51506937D01*
X195701429Y-51506937D02*
X195640952Y-51627889D01*
X195640952Y-51627889D02*
X195520000Y-51748842D01*
X195520000Y-51748842D02*
X195338571Y-51809318D01*
X195338571Y-51809318D02*
X195036190Y-51809318D01*
X196910952Y-50539318D02*
X196306190Y-50539318D01*
X196306190Y-50539318D02*
X196245714Y-51144080D01*
X196245714Y-51144080D02*
X196306190Y-51083603D01*
X196306190Y-51083603D02*
X196427143Y-51023127D01*
X196427143Y-51023127D02*
X196729524Y-51023127D01*
X196729524Y-51023127D02*
X196850476Y-51083603D01*
X196850476Y-51083603D02*
X196910952Y-51144080D01*
X196910952Y-51144080D02*
X196971429Y-51265032D01*
X196971429Y-51265032D02*
X196971429Y-51567413D01*
X196971429Y-51567413D02*
X196910952Y-51688365D01*
X196910952Y-51688365D02*
X196850476Y-51748842D01*
X196850476Y-51748842D02*
X196729524Y-51809318D01*
X196729524Y-51809318D02*
X196427143Y-51809318D01*
X196427143Y-51809318D02*
X196306190Y-51748842D01*
X196306190Y-51748842D02*
X196245714Y-51688365D01*
X197848333Y-59453365D02*
X197787857Y-59513842D01*
X197787857Y-59513842D02*
X197606428Y-59574318D01*
X197606428Y-59574318D02*
X197485476Y-59574318D01*
X197485476Y-59574318D02*
X197304047Y-59513842D01*
X197304047Y-59513842D02*
X197183095Y-59392889D01*
X197183095Y-59392889D02*
X197122618Y-59271937D01*
X197122618Y-59271937D02*
X197062142Y-59030032D01*
X197062142Y-59030032D02*
X197062142Y-58848603D01*
X197062142Y-58848603D02*
X197122618Y-58606699D01*
X197122618Y-58606699D02*
X197183095Y-58485746D01*
X197183095Y-58485746D02*
X197304047Y-58364794D01*
X197304047Y-58364794D02*
X197485476Y-58304318D01*
X197485476Y-58304318D02*
X197606428Y-58304318D01*
X197606428Y-58304318D02*
X197787857Y-58364794D01*
X197787857Y-58364794D02*
X197848333Y-58425270D01*
X198271666Y-58304318D02*
X199057857Y-58304318D01*
X199057857Y-58304318D02*
X198634523Y-58788127D01*
X198634523Y-58788127D02*
X198815952Y-58788127D01*
X198815952Y-58788127D02*
X198936904Y-58848603D01*
X198936904Y-58848603D02*
X198997380Y-58909080D01*
X198997380Y-58909080D02*
X199057857Y-59030032D01*
X199057857Y-59030032D02*
X199057857Y-59332413D01*
X199057857Y-59332413D02*
X198997380Y-59453365D01*
X198997380Y-59453365D02*
X198936904Y-59513842D01*
X198936904Y-59513842D02*
X198815952Y-59574318D01*
X198815952Y-59574318D02*
X198453095Y-59574318D01*
X198453095Y-59574318D02*
X198332142Y-59513842D01*
X198332142Y-59513842D02*
X198271666Y-59453365D01*
X164693571Y-38353365D02*
X164633095Y-38413842D01*
X164633095Y-38413842D02*
X164451666Y-38474318D01*
X164451666Y-38474318D02*
X164330714Y-38474318D01*
X164330714Y-38474318D02*
X164149285Y-38413842D01*
X164149285Y-38413842D02*
X164028333Y-38292889D01*
X164028333Y-38292889D02*
X163967856Y-38171937D01*
X163967856Y-38171937D02*
X163907380Y-37930032D01*
X163907380Y-37930032D02*
X163907380Y-37748603D01*
X163907380Y-37748603D02*
X163967856Y-37506699D01*
X163967856Y-37506699D02*
X164028333Y-37385746D01*
X164028333Y-37385746D02*
X164149285Y-37264794D01*
X164149285Y-37264794D02*
X164330714Y-37204318D01*
X164330714Y-37204318D02*
X164451666Y-37204318D01*
X164451666Y-37204318D02*
X164633095Y-37264794D01*
X164633095Y-37264794D02*
X164693571Y-37325270D01*
X165116904Y-37204318D02*
X165903095Y-37204318D01*
X165903095Y-37204318D02*
X165479761Y-37688127D01*
X165479761Y-37688127D02*
X165661190Y-37688127D01*
X165661190Y-37688127D02*
X165782142Y-37748603D01*
X165782142Y-37748603D02*
X165842618Y-37809080D01*
X165842618Y-37809080D02*
X165903095Y-37930032D01*
X165903095Y-37930032D02*
X165903095Y-38232413D01*
X165903095Y-38232413D02*
X165842618Y-38353365D01*
X165842618Y-38353365D02*
X165782142Y-38413842D01*
X165782142Y-38413842D02*
X165661190Y-38474318D01*
X165661190Y-38474318D02*
X165298333Y-38474318D01*
X165298333Y-38474318D02*
X165177380Y-38413842D01*
X165177380Y-38413842D02*
X165116904Y-38353365D01*
X167112619Y-38474318D02*
X166386904Y-38474318D01*
X166749761Y-38474318D02*
X166749761Y-37204318D01*
X166749761Y-37204318D02*
X166628809Y-37385746D01*
X166628809Y-37385746D02*
X166507857Y-37506699D01*
X166507857Y-37506699D02*
X166386904Y-37567175D01*
D11*
X191404819Y-42392857D02*
X190928628Y-42726190D01*
X191404819Y-42964285D02*
X190404819Y-42964285D01*
X190404819Y-42964285D02*
X190404819Y-42583333D01*
X190404819Y-42583333D02*
X190452438Y-42488095D01*
X190452438Y-42488095D02*
X190500057Y-42440476D01*
X190500057Y-42440476D02*
X190595295Y-42392857D01*
X190595295Y-42392857D02*
X190738152Y-42392857D01*
X190738152Y-42392857D02*
X190833390Y-42440476D01*
X190833390Y-42440476D02*
X190881009Y-42488095D01*
X190881009Y-42488095D02*
X190928628Y-42583333D01*
X190928628Y-42583333D02*
X190928628Y-42964285D01*
X191404819Y-41440476D02*
X191404819Y-42011904D01*
X191404819Y-41726190D02*
X190404819Y-41726190D01*
X190404819Y-41726190D02*
X190547676Y-41821428D01*
X190547676Y-41821428D02*
X190642914Y-41916666D01*
X190642914Y-41916666D02*
X190690533Y-42011904D01*
X191404819Y-40488095D02*
X191404819Y-41059523D01*
X191404819Y-40773809D02*
X190404819Y-40773809D01*
X190404819Y-40773809D02*
X190547676Y-40869047D01*
X190547676Y-40869047D02*
X190642914Y-40964285D01*
X190642914Y-40964285D02*
X190690533Y-41059523D01*
D10*
X189731667Y-29079318D02*
X189731667Y-29986461D01*
X189731667Y-29986461D02*
X189671190Y-30167889D01*
X189671190Y-30167889D02*
X189550238Y-30288842D01*
X189550238Y-30288842D02*
X189368809Y-30349318D01*
X189368809Y-30349318D02*
X189247857Y-30349318D01*
X191001667Y-30349318D02*
X190275952Y-30349318D01*
X190638809Y-30349318D02*
X190638809Y-29079318D01*
X190638809Y-29079318D02*
X190517857Y-29260746D01*
X190517857Y-29260746D02*
X190396905Y-29381699D01*
X190396905Y-29381699D02*
X190275952Y-29442175D01*
D11*
X178813095Y-40034819D02*
X178813095Y-40844342D01*
X178813095Y-40844342D02*
X178860714Y-40939580D01*
X178860714Y-40939580D02*
X178908333Y-40987200D01*
X178908333Y-40987200D02*
X179003571Y-41034819D01*
X179003571Y-41034819D02*
X179194047Y-41034819D01*
X179194047Y-41034819D02*
X179289285Y-40987200D01*
X179289285Y-40987200D02*
X179336904Y-40939580D01*
X179336904Y-40939580D02*
X179384523Y-40844342D01*
X179384523Y-40844342D02*
X179384523Y-40034819D01*
X180384523Y-41034819D02*
X179813095Y-41034819D01*
X180098809Y-41034819D02*
X180098809Y-40034819D01*
X180098809Y-40034819D02*
X180003571Y-40177676D01*
X180003571Y-40177676D02*
X179908333Y-40272914D01*
X179908333Y-40272914D02*
X179813095Y-40320533D01*
X175356666Y-24054819D02*
X175356666Y-24769104D01*
X175356666Y-24769104D02*
X175309047Y-24911961D01*
X175309047Y-24911961D02*
X175213809Y-25007200D01*
X175213809Y-25007200D02*
X175070952Y-25054819D01*
X175070952Y-25054819D02*
X174975714Y-25054819D01*
X175737619Y-24054819D02*
X176356666Y-24054819D01*
X176356666Y-24054819D02*
X176023333Y-24435771D01*
X176023333Y-24435771D02*
X176166190Y-24435771D01*
X176166190Y-24435771D02*
X176261428Y-24483390D01*
X176261428Y-24483390D02*
X176309047Y-24531009D01*
X176309047Y-24531009D02*
X176356666Y-24626247D01*
X176356666Y-24626247D02*
X176356666Y-24864342D01*
X176356666Y-24864342D02*
X176309047Y-24959580D01*
X176309047Y-24959580D02*
X176261428Y-25007200D01*
X176261428Y-25007200D02*
X176166190Y-25054819D01*
X176166190Y-25054819D02*
X175880476Y-25054819D01*
X175880476Y-25054819D02*
X175785238Y-25007200D01*
X175785238Y-25007200D02*
X175737619Y-24959580D01*
D10*
X188771571Y-45528365D02*
X188711095Y-45588842D01*
X188711095Y-45588842D02*
X188529666Y-45649318D01*
X188529666Y-45649318D02*
X188408714Y-45649318D01*
X188408714Y-45649318D02*
X188227285Y-45588842D01*
X188227285Y-45588842D02*
X188106333Y-45467889D01*
X188106333Y-45467889D02*
X188045856Y-45346937D01*
X188045856Y-45346937D02*
X187985380Y-45105032D01*
X187985380Y-45105032D02*
X187985380Y-44923603D01*
X187985380Y-44923603D02*
X188045856Y-44681699D01*
X188045856Y-44681699D02*
X188106333Y-44560746D01*
X188106333Y-44560746D02*
X188227285Y-44439794D01*
X188227285Y-44439794D02*
X188408714Y-44379318D01*
X188408714Y-44379318D02*
X188529666Y-44379318D01*
X188529666Y-44379318D02*
X188711095Y-44439794D01*
X188711095Y-44439794D02*
X188771571Y-44500270D01*
X189981095Y-45649318D02*
X189255380Y-45649318D01*
X189618237Y-45649318D02*
X189618237Y-44379318D01*
X189618237Y-44379318D02*
X189497285Y-44560746D01*
X189497285Y-44560746D02*
X189376333Y-44681699D01*
X189376333Y-44681699D02*
X189255380Y-44742175D01*
X190706809Y-44923603D02*
X190585857Y-44863127D01*
X190585857Y-44863127D02*
X190525380Y-44802651D01*
X190525380Y-44802651D02*
X190464904Y-44681699D01*
X190464904Y-44681699D02*
X190464904Y-44621222D01*
X190464904Y-44621222D02*
X190525380Y-44500270D01*
X190525380Y-44500270D02*
X190585857Y-44439794D01*
X190585857Y-44439794D02*
X190706809Y-44379318D01*
X190706809Y-44379318D02*
X190948714Y-44379318D01*
X190948714Y-44379318D02*
X191069666Y-44439794D01*
X191069666Y-44439794D02*
X191130142Y-44500270D01*
X191130142Y-44500270D02*
X191190619Y-44621222D01*
X191190619Y-44621222D02*
X191190619Y-44681699D01*
X191190619Y-44681699D02*
X191130142Y-44802651D01*
X191130142Y-44802651D02*
X191069666Y-44863127D01*
X191069666Y-44863127D02*
X190948714Y-44923603D01*
X190948714Y-44923603D02*
X190706809Y-44923603D01*
X190706809Y-44923603D02*
X190585857Y-44984080D01*
X190585857Y-44984080D02*
X190525380Y-45044556D01*
X190525380Y-45044556D02*
X190464904Y-45165508D01*
X190464904Y-45165508D02*
X190464904Y-45407413D01*
X190464904Y-45407413D02*
X190525380Y-45528365D01*
X190525380Y-45528365D02*
X190585857Y-45588842D01*
X190585857Y-45588842D02*
X190706809Y-45649318D01*
X190706809Y-45649318D02*
X190948714Y-45649318D01*
X190948714Y-45649318D02*
X191069666Y-45588842D01*
X191069666Y-45588842D02*
X191130142Y-45528365D01*
X191130142Y-45528365D02*
X191190619Y-45407413D01*
X191190619Y-45407413D02*
X191190619Y-45165508D01*
X191190619Y-45165508D02*
X191130142Y-45044556D01*
X191130142Y-45044556D02*
X191069666Y-44984080D01*
X191069666Y-44984080D02*
X190948714Y-44923603D01*
X168538809Y-58664318D02*
X167934047Y-58664318D01*
X167934047Y-58664318D02*
X167934047Y-57394318D01*
X168962142Y-57999080D02*
X169385476Y-57999080D01*
X169566904Y-58664318D02*
X168962142Y-58664318D01*
X168962142Y-58664318D02*
X168962142Y-57394318D01*
X168962142Y-57394318D02*
X169566904Y-57394318D01*
X170111190Y-58664318D02*
X170111190Y-57394318D01*
X170111190Y-57394318D02*
X170413571Y-57394318D01*
X170413571Y-57394318D02*
X170595000Y-57454794D01*
X170595000Y-57454794D02*
X170715952Y-57575746D01*
X170715952Y-57575746D02*
X170776429Y-57696699D01*
X170776429Y-57696699D02*
X170836905Y-57938603D01*
X170836905Y-57938603D02*
X170836905Y-58120032D01*
X170836905Y-58120032D02*
X170776429Y-58361937D01*
X170776429Y-58361937D02*
X170715952Y-58482889D01*
X170715952Y-58482889D02*
X170595000Y-58603842D01*
X170595000Y-58603842D02*
X170413571Y-58664318D01*
X170413571Y-58664318D02*
X170111190Y-58664318D01*
X172046429Y-58664318D02*
X171320714Y-58664318D01*
X171683571Y-58664318D02*
X171683571Y-57394318D01*
X171683571Y-57394318D02*
X171562619Y-57575746D01*
X171562619Y-57575746D02*
X171441667Y-57696699D01*
X171441667Y-57696699D02*
X171320714Y-57757175D01*
X200203365Y-56401666D02*
X200263842Y-56462142D01*
X200263842Y-56462142D02*
X200324318Y-56643571D01*
X200324318Y-56643571D02*
X200324318Y-56764523D01*
X200324318Y-56764523D02*
X200263842Y-56945952D01*
X200263842Y-56945952D02*
X200142889Y-57066904D01*
X200142889Y-57066904D02*
X200021937Y-57127381D01*
X200021937Y-57127381D02*
X199780032Y-57187857D01*
X199780032Y-57187857D02*
X199598603Y-57187857D01*
X199598603Y-57187857D02*
X199356699Y-57127381D01*
X199356699Y-57127381D02*
X199235746Y-57066904D01*
X199235746Y-57066904D02*
X199114794Y-56945952D01*
X199114794Y-56945952D02*
X199054318Y-56764523D01*
X199054318Y-56764523D02*
X199054318Y-56643571D01*
X199054318Y-56643571D02*
X199114794Y-56462142D01*
X199114794Y-56462142D02*
X199175270Y-56401666D01*
X200324318Y-55796904D02*
X200324318Y-55555000D01*
X200324318Y-55555000D02*
X200263842Y-55434047D01*
X200263842Y-55434047D02*
X200203365Y-55373571D01*
X200203365Y-55373571D02*
X200021937Y-55252619D01*
X200021937Y-55252619D02*
X199780032Y-55192142D01*
X199780032Y-55192142D02*
X199296222Y-55192142D01*
X199296222Y-55192142D02*
X199175270Y-55252619D01*
X199175270Y-55252619D02*
X199114794Y-55313095D01*
X199114794Y-55313095D02*
X199054318Y-55434047D01*
X199054318Y-55434047D02*
X199054318Y-55675952D01*
X199054318Y-55675952D02*
X199114794Y-55796904D01*
X199114794Y-55796904D02*
X199175270Y-55857381D01*
X199175270Y-55857381D02*
X199296222Y-55917857D01*
X199296222Y-55917857D02*
X199598603Y-55917857D01*
X199598603Y-55917857D02*
X199719556Y-55857381D01*
X199719556Y-55857381D02*
X199780032Y-55796904D01*
X199780032Y-55796904D02*
X199840508Y-55675952D01*
X199840508Y-55675952D02*
X199840508Y-55434047D01*
X199840508Y-55434047D02*
X199780032Y-55313095D01*
X199780032Y-55313095D02*
X199719556Y-55252619D01*
X199719556Y-55252619D02*
X199598603Y-55192142D01*
X162098333Y-57178365D02*
X162037857Y-57238842D01*
X162037857Y-57238842D02*
X161856428Y-57299318D01*
X161856428Y-57299318D02*
X161735476Y-57299318D01*
X161735476Y-57299318D02*
X161554047Y-57238842D01*
X161554047Y-57238842D02*
X161433095Y-57117889D01*
X161433095Y-57117889D02*
X161372618Y-56996937D01*
X161372618Y-56996937D02*
X161312142Y-56755032D01*
X161312142Y-56755032D02*
X161312142Y-56573603D01*
X161312142Y-56573603D02*
X161372618Y-56331699D01*
X161372618Y-56331699D02*
X161433095Y-56210746D01*
X161433095Y-56210746D02*
X161554047Y-56089794D01*
X161554047Y-56089794D02*
X161735476Y-56029318D01*
X161735476Y-56029318D02*
X161856428Y-56029318D01*
X161856428Y-56029318D02*
X162037857Y-56089794D01*
X162037857Y-56089794D02*
X162098333Y-56150270D01*
X163186904Y-56452651D02*
X163186904Y-57299318D01*
X162884523Y-55968842D02*
X162582142Y-56875984D01*
X162582142Y-56875984D02*
X163368333Y-56875984D01*
X162176667Y-30054318D02*
X162176667Y-30961461D01*
X162176667Y-30961461D02*
X162116190Y-31142889D01*
X162116190Y-31142889D02*
X161995238Y-31263842D01*
X161995238Y-31263842D02*
X161813809Y-31324318D01*
X161813809Y-31324318D02*
X161692857Y-31324318D01*
X162720952Y-30175270D02*
X162781428Y-30114794D01*
X162781428Y-30114794D02*
X162902381Y-30054318D01*
X162902381Y-30054318D02*
X163204762Y-30054318D01*
X163204762Y-30054318D02*
X163325714Y-30114794D01*
X163325714Y-30114794D02*
X163386190Y-30175270D01*
X163386190Y-30175270D02*
X163446667Y-30296222D01*
X163446667Y-30296222D02*
X163446667Y-30417175D01*
X163446667Y-30417175D02*
X163386190Y-30598603D01*
X163386190Y-30598603D02*
X162660476Y-31324318D01*
X162660476Y-31324318D02*
X163446667Y-31324318D01*
D12*
%TO.C,LED4*%
X194315000Y-37400000D02*
X193915000Y-37400000D01*
X194315000Y-38100000D02*
X193915000Y-38100000D01*
X194515000Y-38600000D02*
X193715000Y-38600000D01*
D13*
X195915000Y-37750000D02*
X195915000Y-37750000D01*
X196015000Y-37750000D02*
X196015000Y-37750000D01*
X195915000Y-37750000D02*
G75*
G02*
X196015000Y-37750000I50000J0D01*
G01*
X196015000Y-37750000D02*
G75*
G02*
X195915000Y-37750000I-50000J0D01*
G01*
%TO.C,C5*%
X162310000Y-50600000D02*
X162310000Y-50600000D01*
X162310000Y-50700000D02*
X162310000Y-50700000D01*
X162310000Y-50600000D02*
G75*
G02*
X162310000Y-50700000I0J-50000D01*
G01*
X162310000Y-50700000D02*
G75*
G02*
X162310000Y-50600000I0J50000D01*
G01*
%TO.C,Q3*%
X201665000Y-54250000D02*
X201665000Y-54250000D01*
X201765000Y-54250000D02*
X201765000Y-54250000D01*
X201665000Y-54250000D02*
G75*
G02*
X201765000Y-54250000I50000J0D01*
G01*
X201765000Y-54250000D02*
G75*
G02*
X201665000Y-54250000I-50000J0D01*
G01*
D12*
%TO.C,LED6*%
X195085000Y-47400000D02*
X194685000Y-47400000D01*
X195085000Y-48100000D02*
X194685000Y-48100000D01*
X195285000Y-48600000D02*
X194485000Y-48600000D01*
D13*
X196685000Y-47750000D02*
X196685000Y-47750000D01*
X196785000Y-47750000D02*
X196785000Y-47750000D01*
X196685000Y-47750000D02*
G75*
G02*
X196785000Y-47750000I50000J0D01*
G01*
X196785000Y-47750000D02*
G75*
G02*
X196685000Y-47750000I-50000J0D01*
G01*
%TO.C,C8*%
X198450000Y-37250000D02*
X198450000Y-37250000D01*
X198550000Y-37250000D02*
X198550000Y-37250000D01*
X198450000Y-37250000D02*
G75*
G02*
X198550000Y-37250000I50000J0D01*
G01*
X198550000Y-37250000D02*
G75*
G02*
X198450000Y-37250000I-50000J0D01*
G01*
%TO.C,C10*%
X197250000Y-56890000D02*
X197250000Y-56890000D01*
X197250000Y-56990000D02*
X197250000Y-56990000D01*
X197250000Y-56890000D02*
G75*
G02*
X197250000Y-56990000I0J-50000D01*
G01*
X197250000Y-56990000D02*
G75*
G02*
X197250000Y-56890000I0J50000D01*
G01*
D14*
%TO.C,J6*%
X197700000Y-30950000D02*
X197700000Y-34550000D01*
X197700000Y-33000000D02*
X198000000Y-33000000D01*
X197700000Y-34550000D02*
X209550000Y-34550000D01*
X198000000Y-31250000D02*
X198000000Y-32250000D01*
X198000000Y-32250000D02*
X197700000Y-32250000D01*
X198000000Y-33000000D02*
X198000000Y-34100000D01*
X198000000Y-34100000D02*
X198300000Y-34100000D01*
X198300000Y-34100000D02*
X198300000Y-34550000D01*
X199500000Y-34100000D02*
X198300000Y-34100000D01*
X199500000Y-34400000D02*
X199500000Y-34100000D01*
X200250000Y-34100000D02*
X200250000Y-34400000D01*
X200250000Y-34400000D02*
X199500000Y-34400000D01*
X207000000Y-34100000D02*
X200250000Y-34100000D01*
X207000000Y-34400000D02*
X207000000Y-34100000D01*
X207750000Y-34100000D02*
X207750000Y-34400000D01*
X207750000Y-34400000D02*
X207000000Y-34400000D01*
X208950000Y-34100000D02*
X207750000Y-34100000D01*
X208950000Y-34100000D02*
X208950000Y-34550000D01*
X209250000Y-31250000D02*
X198000000Y-31250000D01*
X209250000Y-32250000D02*
X209250000Y-31250000D01*
X209250000Y-33000000D02*
X209250000Y-34100000D01*
X209250000Y-34100000D02*
X208950000Y-34100000D01*
X209550000Y-30950000D02*
X197700000Y-30950000D01*
X209550000Y-32250000D02*
X209250000Y-32250000D01*
X209550000Y-33000000D02*
X209250000Y-33000000D01*
X209550000Y-34550000D02*
X209550000Y-30950000D01*
X209860000Y-30640000D02*
X207950000Y-30640000D01*
X209860000Y-32550000D02*
X209860000Y-30640000D01*
D12*
%TO.C,LED7*%
X195085000Y-44150000D02*
X194685000Y-44150000D01*
X195085000Y-44850000D02*
X194685000Y-44850000D01*
X195285000Y-45350000D02*
X194485000Y-45350000D01*
D13*
X196685000Y-44500000D02*
X196685000Y-44500000D01*
X196785000Y-44500000D02*
X196785000Y-44500000D01*
X196685000Y-44500000D02*
G75*
G02*
X196785000Y-44500000I50000J0D01*
G01*
X196785000Y-44500000D02*
G75*
G02*
X196685000Y-44500000I-50000J0D01*
G01*
D12*
%TO.C,LED8*%
X195085000Y-40900000D02*
X194685000Y-40900000D01*
X195085000Y-41600000D02*
X194685000Y-41600000D01*
X195285000Y-42100000D02*
X194485000Y-42100000D01*
D13*
X196685000Y-41250000D02*
X196685000Y-41250000D01*
X196785000Y-41250000D02*
X196785000Y-41250000D01*
X196685000Y-41250000D02*
G75*
G02*
X196785000Y-41250000I50000J0D01*
G01*
X196785000Y-41250000D02*
G75*
G02*
X196685000Y-41250000I-50000J0D01*
G01*
%TO.C,C20*%
X173525000Y-40788000D02*
X173525000Y-40788000D01*
X173625000Y-40788000D02*
X173625000Y-40788000D01*
X173525000Y-40788000D02*
G75*
G02*
X173625000Y-40788000I50000J0D01*
G01*
X173625000Y-40788000D02*
G75*
G02*
X173525000Y-40788000I-50000J0D01*
G01*
D12*
%TO.C,J5*%
X148750000Y-43350000D02*
X157750000Y-43350000D01*
X148750000Y-53350000D02*
X148750000Y-43350000D01*
D13*
X152750000Y-42150000D02*
X152750000Y-42150000D01*
X152750000Y-42250000D02*
X152750000Y-42250000D01*
D12*
X156000000Y-42650000D02*
X156250000Y-43350000D01*
X156500000Y-43350000D02*
X156750000Y-42650000D01*
X156750000Y-42650000D02*
X156000000Y-42650000D01*
X157750000Y-43350000D02*
X157750000Y-53350000D01*
X157750000Y-53350000D02*
X148750000Y-53350000D01*
D13*
X152750000Y-42150000D02*
G75*
G02*
X152750000Y-42250000I0J-50000D01*
G01*
X152750000Y-42250000D02*
G75*
G02*
X152750000Y-42150000I0J50000D01*
G01*
D12*
%TO.C,J4*%
X200500000Y-40500000D02*
X209500000Y-40500000D01*
X200500000Y-50500000D02*
X200500000Y-40500000D01*
X201500000Y-51200000D02*
X202250000Y-51200000D01*
X201750000Y-50500000D02*
X201500000Y-51200000D01*
X202250000Y-51200000D02*
X202000000Y-50500000D01*
D13*
X205500000Y-51600000D02*
X205500000Y-51600000D01*
X205500000Y-51700000D02*
X205500000Y-51700000D01*
D12*
X209500000Y-40500000D02*
X209500000Y-50500000D01*
X209500000Y-50500000D02*
X200500000Y-50500000D01*
D13*
X205500000Y-51600000D02*
G75*
G02*
X205500000Y-51700000I0J-50000D01*
G01*
X205500000Y-51700000D02*
G75*
G02*
X205500000Y-51600000I0J50000D01*
G01*
D12*
%TO.C,LED5*%
X195085000Y-50650000D02*
X194685000Y-50650000D01*
X195085000Y-51350000D02*
X194685000Y-51350000D01*
X195285000Y-51850000D02*
X194485000Y-51850000D01*
D13*
X196685000Y-51000000D02*
X196685000Y-51000000D01*
X196785000Y-51000000D02*
X196785000Y-51000000D01*
X196685000Y-51000000D02*
G75*
G02*
X196785000Y-51000000I50000J0D01*
G01*
X196785000Y-51000000D02*
G75*
G02*
X196685000Y-51000000I-50000J0D01*
G01*
%TO.C,C3*%
X198760000Y-59000000D02*
X198760000Y-59000000D01*
X198860000Y-59000000D02*
X198860000Y-59000000D01*
X198760000Y-59000000D02*
G75*
G02*
X198860000Y-59000000I50000J0D01*
G01*
X198860000Y-59000000D02*
G75*
G02*
X198760000Y-59000000I-50000J0D01*
G01*
%TO.C,C31*%
X166210000Y-37900000D02*
X166210000Y-37900000D01*
X166310000Y-37900000D02*
X166310000Y-37900000D01*
X166210000Y-37900000D02*
G75*
G02*
X166310000Y-37900000I50000J0D01*
G01*
X166310000Y-37900000D02*
G75*
G02*
X166210000Y-37900000I-50000J0D01*
G01*
D12*
%TO.C,J1*%
X185685000Y-26150000D02*
X185685000Y-27087000D01*
X185685000Y-31087000D02*
X185685000Y-29287000D01*
D13*
X193355000Y-33887000D02*
X193355000Y-33887000D01*
X193355000Y-33987000D02*
X193355000Y-33987000D01*
D12*
X194625000Y-26150000D02*
X185685000Y-26150000D01*
X194625000Y-27087000D02*
X194625000Y-26150000D01*
X194625000Y-31087000D02*
X194625000Y-29287000D01*
D13*
X193355000Y-33887000D02*
G75*
G02*
X193355000Y-33987000I0J-50000D01*
G01*
X193355000Y-33987000D02*
G75*
G02*
X193355000Y-33887000I0J50000D01*
G01*
D14*
%TO.C,U1*%
X172465000Y-42890000D02*
X172465000Y-43590000D01*
X172465000Y-57110000D02*
X172465000Y-56410000D01*
X173165000Y-42890000D02*
X172465000Y-42890000D01*
X173165000Y-57110000D02*
X172465000Y-57110000D01*
X185985000Y-42890000D02*
X186685000Y-42890000D01*
X185985000Y-57110000D02*
X186685000Y-57110000D01*
X186685000Y-42890000D02*
X186685000Y-43590000D01*
X186685000Y-57110000D02*
X186685000Y-56410000D01*
X171837500Y-43590000D02*
X171497500Y-43120000D01*
X172177500Y-43120000D01*
X171837500Y-43590000D01*
G36*
X171837500Y-43590000D02*
G01*
X171497500Y-43120000D01*
X172177500Y-43120000D01*
X171837500Y-43590000D01*
G37*
%TO.C,J3*%
X169450000Y-27700000D02*
X169450000Y-29610000D01*
X169450000Y-29610000D02*
X171360000Y-29610000D01*
X169760000Y-25700000D02*
X169760000Y-29300000D01*
X169760000Y-27250000D02*
X170060000Y-27250000D01*
X169760000Y-28000000D02*
X170060000Y-28000000D01*
X169760000Y-29300000D02*
X181610000Y-29300000D01*
X170060000Y-26150000D02*
X170360000Y-26150000D01*
X170060000Y-27250000D02*
X170060000Y-26150000D01*
X170060000Y-28000000D02*
X170060000Y-29000000D01*
X170060000Y-29000000D02*
X181310000Y-29000000D01*
X170360000Y-26150000D02*
X170360000Y-25700000D01*
X170360000Y-26150000D02*
X171560000Y-26150000D01*
X171560000Y-25850000D02*
X172310000Y-25850000D01*
X171560000Y-26150000D02*
X171560000Y-25850000D01*
X172310000Y-25850000D02*
X172310000Y-26150000D01*
X172310000Y-26150000D02*
X179060000Y-26150000D01*
X179060000Y-25850000D02*
X179810000Y-25850000D01*
X179060000Y-26150000D02*
X179060000Y-25850000D01*
X179810000Y-25850000D02*
X179810000Y-26150000D01*
X179810000Y-26150000D02*
X181010000Y-26150000D01*
X181010000Y-26150000D02*
X181010000Y-25700000D01*
X181310000Y-26150000D02*
X181010000Y-26150000D01*
X181310000Y-27250000D02*
X181310000Y-26150000D01*
X181310000Y-28000000D02*
X181610000Y-28000000D01*
X181310000Y-29000000D02*
X181310000Y-28000000D01*
X181610000Y-25700000D02*
X169760000Y-25700000D01*
X181610000Y-27250000D02*
X181310000Y-27250000D01*
X181610000Y-29300000D02*
X181610000Y-25700000D01*
D13*
%TO.C,C18*%
X188888000Y-45025000D02*
X188888000Y-45025000D01*
X188888000Y-45125000D02*
X188888000Y-45125000D01*
X188888000Y-45025000D02*
G75*
G02*
X188888000Y-45125000I0J-50000D01*
G01*
X188888000Y-45125000D02*
G75*
G02*
X188888000Y-45025000I0J50000D01*
G01*
%TO.C,LED1*%
X168060000Y-58325000D02*
X168060000Y-58325000D01*
X168160000Y-58325000D02*
X168160000Y-58325000D01*
D12*
X169560000Y-57475000D02*
X170360000Y-57475000D01*
X169760000Y-57975000D02*
X170160000Y-57975000D01*
X169760000Y-58675000D02*
X170160000Y-58675000D01*
D13*
X168060000Y-58325000D02*
G75*
G02*
X168160000Y-58325000I50000J0D01*
G01*
X168160000Y-58325000D02*
G75*
G02*
X168060000Y-58325000I-50000J0D01*
G01*
%TO.C,C9*%
X199750000Y-56890000D02*
X199750000Y-56890000D01*
X199750000Y-56990000D02*
X199750000Y-56990000D01*
X199750000Y-56890000D02*
G75*
G02*
X199750000Y-56990000I0J-50000D01*
G01*
X199750000Y-56990000D02*
G75*
G02*
X199750000Y-56890000I0J50000D01*
G01*
%TO.C,C4*%
X163010000Y-56725000D02*
X163010000Y-56725000D01*
X163110000Y-56725000D02*
X163110000Y-56725000D01*
X163010000Y-56725000D02*
G75*
G02*
X163110000Y-56725000I50000J0D01*
G01*
X163110000Y-56725000D02*
G75*
G02*
X163010000Y-56725000I-50000J0D01*
G01*
D12*
%TO.C,J2*%
X157250000Y-26250000D02*
X167250000Y-26250000D01*
X157250000Y-35250000D02*
X157250000Y-26250000D01*
X167250000Y-26250000D02*
X167250000Y-35250000D01*
X167250000Y-34000000D02*
X167950000Y-34250000D01*
X167250000Y-35250000D02*
X157250000Y-35250000D01*
X167950000Y-33500000D02*
X167250000Y-33750000D01*
X167950000Y-34250000D02*
X167950000Y-33500000D01*
D13*
X168350000Y-30250000D02*
X168350000Y-30250000D01*
X168450000Y-30250000D02*
X168450000Y-30250000D01*
X168350000Y-30250000D02*
G75*
G02*
X168450000Y-30250000I50000J0D01*
G01*
X168450000Y-30250000D02*
G75*
G02*
X168350000Y-30250000I-50000J0D01*
G01*
%TD*%
M02*
