%TF.GenerationSoftware,KiCad,Pcbnew,8.0.6*%
%TF.CreationDate,2026-03-23T17:40:54+00:00*%
%TF.ProjectId,AIS IREC 2026 FC,41495320-4952-4454-9320-323032362046,1*%
%TF.SameCoordinates,Original*%
%TF.FileFunction,Paste,Top*%
%TF.FilePolarity,Positive*%
%FSLAX46Y46*%
G04 Gerber Fmt 4.6, Leading zero omitted, Abs format (unit mm)*
G04 Created by KiCad (PCBNEW 8.0.6) date 2026-03-23 17:40:54*
%MOMM*%
%LPD*%
G01*
G04 APERTURE LIST*
G04 Aperture macros list*
%AMRoundRect*
0 Rectangle with rounded corners*
0 $1 Rounding radius*
0 $2 $3 $4 $5 $6 $7 $8 $9 X,Y pos of 4 corners*
0 Add a 4 corners polygon primitive as box body*
4,1,4,$2,$3,$4,$5,$6,$7,$8,$9,$2,$3,0*
0 Add four circle primitives for the rounded corners*
1,1,$1+$1,$2,$3*
1,1,$1+$1,$4,$5*
1,1,$1+$1,$6,$7*
1,1,$1+$1,$8,$9*
0 Add four rect primitives between the rounded corners*
20,1,$1+$1,$2,$3,$4,$5,0*
20,1,$1+$1,$4,$5,$6,$7,0*
20,1,$1+$1,$6,$7,$8,$9,0*
20,1,$1+$1,$8,$9,$2,$3,0*%
G04 Aperture macros list end*
%ADD10R,0.810000X0.760000*%
%ADD11R,0.230000X0.180000*%
%ADD12R,0.460000X0.420000*%
%ADD13RoundRect,0.079500X-0.079500X-0.100500X0.079500X-0.100500X0.079500X0.100500X-0.079500X0.100500X0*%
%ADD14RoundRect,0.079500X0.100500X-0.079500X0.100500X0.079500X-0.100500X0.079500X-0.100500X-0.079500X0*%
%ADD15RoundRect,0.079500X0.079500X0.100500X-0.079500X0.100500X-0.079500X-0.100500X0.079500X-0.100500X0*%
%ADD16R,0.530000X0.850000*%
%ADD17R,0.530000X0.350000*%
%ADD18R,1.800000X1.600000*%
%ADD19R,0.180000X0.230000*%
%ADD20R,0.350000X0.250000*%
%ADD21R,0.600000X1.150000*%
%ADD22R,0.300000X1.150000*%
%ADD23R,1.550000X1.250000*%
%ADD24R,1.550000X1.500000*%
%ADD25RoundRect,0.075000X-0.725000X-0.075000X0.725000X-0.075000X0.725000X0.075000X-0.725000X0.075000X0*%
%ADD26RoundRect,0.075000X-0.075000X-0.725000X0.075000X-0.725000X0.075000X0.725000X-0.075000X0.725000X0*%
%ADD27R,0.250000X0.350000*%
G04 APERTURE END LIST*
D10*
%TO.C,LED4*%
X194980000Y-37750000D03*
X193250000Y-37750000D03*
%TD*%
D11*
%TO.C,C5*%
X162310000Y-51210000D03*
X162310000Y-51590000D03*
%TD*%
D12*
%TO.C,C28*%
X170325000Y-54825000D03*
X169665000Y-54825000D03*
%TD*%
D13*
%TO.C,R9*%
X191155000Y-47750000D03*
X191845000Y-47750000D03*
%TD*%
D14*
%TO.C,R2*%
X191560000Y-35525000D03*
X191560000Y-34835000D03*
%TD*%
D15*
%TO.C,R5*%
X170415000Y-50500000D03*
X169725000Y-50500000D03*
%TD*%
D16*
%TO.C,Q3*%
X202480000Y-54250000D03*
D17*
X202480000Y-55000000D03*
X205250000Y-55000000D03*
D16*
X205250000Y-54250000D03*
D18*
X203865000Y-54500000D03*
%TD*%
D10*
%TO.C,LED6*%
X195750000Y-47750000D03*
X194020000Y-47750000D03*
%TD*%
D19*
%TO.C,C8*%
X197940000Y-37250000D03*
X197560000Y-37250000D03*
%TD*%
D13*
%TO.C,R3*%
X169635000Y-56075000D03*
X170325000Y-56075000D03*
%TD*%
%TO.C,R8*%
X191155000Y-51000000D03*
X191845000Y-51000000D03*
%TD*%
D11*
%TO.C,C10*%
X197250000Y-56380000D03*
X197250000Y-56000000D03*
%TD*%
D12*
%TO.C,C22*%
X170325000Y-54075000D03*
X169665000Y-54075000D03*
%TD*%
D10*
%TO.C,LED7*%
X195750000Y-44500000D03*
X194020000Y-44500000D03*
%TD*%
D13*
%TO.C,R7*%
X190560000Y-37750000D03*
X191250000Y-37750000D03*
%TD*%
D10*
%TO.C,LED8*%
X195750000Y-41250000D03*
X194020000Y-41250000D03*
%TD*%
D20*
%TO.C,C20*%
X173575000Y-40325000D03*
X173575000Y-39851000D03*
%TD*%
D13*
%TO.C,R10*%
X191405000Y-44500000D03*
X192095000Y-44500000D03*
%TD*%
D10*
%TO.C,LED5*%
X195750000Y-51000000D03*
X194020000Y-51000000D03*
%TD*%
D19*
%TO.C,C3*%
X198250000Y-59000000D03*
X197870000Y-59000000D03*
%TD*%
%TO.C,C31*%
X165700000Y-37900000D03*
X165320000Y-37900000D03*
%TD*%
D14*
%TO.C,R11*%
X192000000Y-42095000D03*
X192000000Y-41405000D03*
%TD*%
D21*
%TO.C,J1*%
X193355000Y-32825000D03*
X192555000Y-32825000D03*
D22*
X191405000Y-32825000D03*
X190405000Y-32825000D03*
X189905000Y-32825000D03*
X188905000Y-32825000D03*
D21*
X186955000Y-32825000D03*
X187755000Y-32825000D03*
D22*
X188405000Y-32825000D03*
X189405000Y-32825000D03*
X190905000Y-32825000D03*
X191905000Y-32825000D03*
D23*
X195250000Y-32175000D03*
X185060000Y-32175000D03*
D24*
X185060000Y-28250000D03*
X195250000Y-28250000D03*
%TD*%
D25*
%TO.C,U1*%
X171900000Y-44000000D03*
X171900000Y-44500000D03*
X171900000Y-45000000D03*
X171900000Y-45500000D03*
X171900000Y-46000000D03*
X171900000Y-46500000D03*
X171900000Y-47000000D03*
X171900000Y-47500000D03*
X171900000Y-48000000D03*
X171900000Y-48500000D03*
X171900000Y-49000000D03*
X171900000Y-49500000D03*
X171900000Y-50000000D03*
X171900000Y-50500000D03*
X171900000Y-51000000D03*
X171900000Y-51500000D03*
X171900000Y-52000000D03*
X171900000Y-52500000D03*
X171900000Y-53000000D03*
X171900000Y-53500000D03*
X171900000Y-54000000D03*
X171900000Y-54500000D03*
X171900000Y-55000000D03*
X171900000Y-55500000D03*
X171900000Y-56000000D03*
D26*
X173575000Y-57675000D03*
X174075000Y-57675000D03*
X174575000Y-57675000D03*
X175075000Y-57675000D03*
X175575000Y-57675000D03*
X176075000Y-57675000D03*
X176575000Y-57675000D03*
X177075000Y-57675000D03*
X177575000Y-57675000D03*
X178075000Y-57675000D03*
X178575000Y-57675000D03*
X179075000Y-57675000D03*
X179575000Y-57675000D03*
X180075000Y-57675000D03*
X180575000Y-57675000D03*
X181075000Y-57675000D03*
X181575000Y-57675000D03*
X182075000Y-57675000D03*
X182575000Y-57675000D03*
X183075000Y-57675000D03*
X183575000Y-57675000D03*
X184075000Y-57675000D03*
X184575000Y-57675000D03*
X185075000Y-57675000D03*
X185575000Y-57675000D03*
D25*
X187250000Y-56000000D03*
X187250000Y-55500000D03*
X187250000Y-55000000D03*
X187250000Y-54500000D03*
X187250000Y-54000000D03*
X187250000Y-53500000D03*
X187250000Y-53000000D03*
X187250000Y-52500000D03*
X187250000Y-52000000D03*
X187250000Y-51500000D03*
X187250000Y-51000000D03*
X187250000Y-50500000D03*
X187250000Y-50000000D03*
X187250000Y-49500000D03*
X187250000Y-49000000D03*
X187250000Y-48500000D03*
X187250000Y-48000000D03*
X187250000Y-47500000D03*
X187250000Y-47000000D03*
X187250000Y-46500000D03*
X187250000Y-46000000D03*
X187250000Y-45500000D03*
X187250000Y-45000000D03*
X187250000Y-44500000D03*
X187250000Y-44000000D03*
D26*
X185575000Y-42325000D03*
X185075000Y-42325000D03*
X184575000Y-42325000D03*
X184075000Y-42325000D03*
X183575000Y-42325000D03*
X183075000Y-42325000D03*
X182575000Y-42325000D03*
X182075000Y-42325000D03*
X181575000Y-42325000D03*
X181075000Y-42325000D03*
X180575000Y-42325000D03*
X180075000Y-42325000D03*
X179575000Y-42325000D03*
X179075000Y-42325000D03*
X178575000Y-42325000D03*
X178075000Y-42325000D03*
X177575000Y-42325000D03*
X177075000Y-42325000D03*
X176575000Y-42325000D03*
X176075000Y-42325000D03*
X175575000Y-42325000D03*
X175075000Y-42325000D03*
X174575000Y-42325000D03*
X174075000Y-42325000D03*
X173575000Y-42325000D03*
%TD*%
D27*
%TO.C,C18*%
X189351000Y-45075000D03*
X189825000Y-45075000D03*
%TD*%
D10*
%TO.C,LED1*%
X169095000Y-58325000D03*
X170825000Y-58325000D03*
%TD*%
D11*
%TO.C,C9*%
X199750000Y-56380000D03*
X199750000Y-56000000D03*
%TD*%
D19*
%TO.C,C4*%
X162500000Y-56725000D03*
X162120000Y-56725000D03*
%TD*%
M02*
