%TF.GenerationSoftware,KiCad,Pcbnew,8.0.6*%
%TF.CreationDate,2026-03-23T17:40:54+00:00*%
%TF.ProjectId,AIS IREC 2026 FC,41495320-4952-4454-9320-323032362046,1*%
%TF.SameCoordinates,Original*%
%TF.FileFunction,Legend,Bot*%
%TF.FilePolarity,Positive*%
%FSLAX46Y46*%
G04 Gerber Fmt 4.6, Leading zero omitted, Abs format (unit mm)*
G04 Created by KiCad (PCBNEW 8.0.6) date 2026-03-23 17:40:54*
%MOMM*%
%LPD*%
G01*
G04 APERTURE LIST*
%ADD10C,0.254000*%
%ADD11C,0.150000*%
%ADD12C,0.200000*%
%ADD13C,0.120000*%
%ADD14C,0.100000*%
%ADD15C,0.250000*%
G04 APERTURE END LIST*
D10*
X160203365Y-47013571D02*
X160263842Y-46953095D01*
X160263842Y-46953095D02*
X160324318Y-46771666D01*
X160324318Y-46771666D02*
X160324318Y-46650714D01*
X160324318Y-46650714D02*
X160263842Y-46469285D01*
X160263842Y-46469285D02*
X160142889Y-46348333D01*
X160142889Y-46348333D02*
X160021937Y-46287856D01*
X160021937Y-46287856D02*
X159780032Y-46227380D01*
X159780032Y-46227380D02*
X159598603Y-46227380D01*
X159598603Y-46227380D02*
X159356699Y-46287856D01*
X159356699Y-46287856D02*
X159235746Y-46348333D01*
X159235746Y-46348333D02*
X159114794Y-46469285D01*
X159114794Y-46469285D02*
X159054318Y-46650714D01*
X159054318Y-46650714D02*
X159054318Y-46771666D01*
X159054318Y-46771666D02*
X159114794Y-46953095D01*
X159114794Y-46953095D02*
X159175270Y-47013571D01*
X159175270Y-47497380D02*
X159114794Y-47557856D01*
X159114794Y-47557856D02*
X159054318Y-47678809D01*
X159054318Y-47678809D02*
X159054318Y-47981190D01*
X159054318Y-47981190D02*
X159114794Y-48102142D01*
X159114794Y-48102142D02*
X159175270Y-48162618D01*
X159175270Y-48162618D02*
X159296222Y-48223095D01*
X159296222Y-48223095D02*
X159417175Y-48223095D01*
X159417175Y-48223095D02*
X159598603Y-48162618D01*
X159598603Y-48162618D02*
X160324318Y-47436904D01*
X160324318Y-47436904D02*
X160324318Y-48223095D01*
X160324318Y-49432619D02*
X160324318Y-48706904D01*
X160324318Y-49069761D02*
X159054318Y-49069761D01*
X159054318Y-49069761D02*
X159235746Y-48948809D01*
X159235746Y-48948809D02*
X159356699Y-48827857D01*
X159356699Y-48827857D02*
X159417175Y-48706904D01*
X174845952Y-44320270D02*
X174966904Y-44259794D01*
X174966904Y-44259794D02*
X175087857Y-44138842D01*
X175087857Y-44138842D02*
X175269285Y-43957413D01*
X175269285Y-43957413D02*
X175390238Y-43896937D01*
X175390238Y-43896937D02*
X175511190Y-43896937D01*
X175450714Y-44199318D02*
X175571666Y-44138842D01*
X175571666Y-44138842D02*
X175692619Y-44017889D01*
X175692619Y-44017889D02*
X175753095Y-43775984D01*
X175753095Y-43775984D02*
X175753095Y-43352651D01*
X175753095Y-43352651D02*
X175692619Y-43110746D01*
X175692619Y-43110746D02*
X175571666Y-42989794D01*
X175571666Y-42989794D02*
X175450714Y-42929318D01*
X175450714Y-42929318D02*
X175208809Y-42929318D01*
X175208809Y-42929318D02*
X175087857Y-42989794D01*
X175087857Y-42989794D02*
X174966904Y-43110746D01*
X174966904Y-43110746D02*
X174906428Y-43352651D01*
X174906428Y-43352651D02*
X174906428Y-43775984D01*
X174906428Y-43775984D02*
X174966904Y-44017889D01*
X174966904Y-44017889D02*
X175087857Y-44138842D01*
X175087857Y-44138842D02*
X175208809Y-44199318D01*
X175208809Y-44199318D02*
X175450714Y-44199318D01*
X173696904Y-44199318D02*
X174422619Y-44199318D01*
X174059762Y-44199318D02*
X174059762Y-42929318D01*
X174059762Y-42929318D02*
X174180714Y-43110746D01*
X174180714Y-43110746D02*
X174301666Y-43231699D01*
X174301666Y-43231699D02*
X174422619Y-43292175D01*
D11*
X176854819Y-49588095D02*
X177664342Y-49588095D01*
X177664342Y-49588095D02*
X177759580Y-49635714D01*
X177759580Y-49635714D02*
X177807200Y-49683333D01*
X177807200Y-49683333D02*
X177854819Y-49778571D01*
X177854819Y-49778571D02*
X177854819Y-49969047D01*
X177854819Y-49969047D02*
X177807200Y-50064285D01*
X177807200Y-50064285D02*
X177759580Y-50111904D01*
X177759580Y-50111904D02*
X177664342Y-50159523D01*
X177664342Y-50159523D02*
X176854819Y-50159523D01*
X176950057Y-50588095D02*
X176902438Y-50635714D01*
X176902438Y-50635714D02*
X176854819Y-50730952D01*
X176854819Y-50730952D02*
X176854819Y-50969047D01*
X176854819Y-50969047D02*
X176902438Y-51064285D01*
X176902438Y-51064285D02*
X176950057Y-51111904D01*
X176950057Y-51111904D02*
X177045295Y-51159523D01*
X177045295Y-51159523D02*
X177140533Y-51159523D01*
X177140533Y-51159523D02*
X177283390Y-51111904D01*
X177283390Y-51111904D02*
X177854819Y-50540476D01*
X177854819Y-50540476D02*
X177854819Y-51159523D01*
D10*
X199074318Y-46910237D02*
X197804318Y-46910237D01*
X198953365Y-48240714D02*
X199013842Y-48180238D01*
X199013842Y-48180238D02*
X199074318Y-47998809D01*
X199074318Y-47998809D02*
X199074318Y-47877857D01*
X199074318Y-47877857D02*
X199013842Y-47696428D01*
X199013842Y-47696428D02*
X198892889Y-47575476D01*
X198892889Y-47575476D02*
X198771937Y-47514999D01*
X198771937Y-47514999D02*
X198530032Y-47454523D01*
X198530032Y-47454523D02*
X198348603Y-47454523D01*
X198348603Y-47454523D02*
X198106699Y-47514999D01*
X198106699Y-47514999D02*
X197985746Y-47575476D01*
X197985746Y-47575476D02*
X197864794Y-47696428D01*
X197864794Y-47696428D02*
X197804318Y-47877857D01*
X197804318Y-47877857D02*
X197804318Y-47998809D01*
X197804318Y-47998809D02*
X197864794Y-48180238D01*
X197864794Y-48180238D02*
X197925270Y-48240714D01*
X197925270Y-48724523D02*
X197864794Y-48784999D01*
X197864794Y-48784999D02*
X197804318Y-48905952D01*
X197804318Y-48905952D02*
X197804318Y-49208333D01*
X197804318Y-49208333D02*
X197864794Y-49329285D01*
X197864794Y-49329285D02*
X197925270Y-49389761D01*
X197925270Y-49389761D02*
X198046222Y-49450238D01*
X198046222Y-49450238D02*
X198167175Y-49450238D01*
X198167175Y-49450238D02*
X198348603Y-49389761D01*
X198348603Y-49389761D02*
X199074318Y-48664047D01*
X199074318Y-48664047D02*
X199074318Y-49450238D01*
X189771666Y-44528365D02*
X189832142Y-44588842D01*
X189832142Y-44588842D02*
X190013571Y-44649318D01*
X190013571Y-44649318D02*
X190134523Y-44649318D01*
X190134523Y-44649318D02*
X190315952Y-44588842D01*
X190315952Y-44588842D02*
X190436904Y-44467889D01*
X190436904Y-44467889D02*
X190497381Y-44346937D01*
X190497381Y-44346937D02*
X190557857Y-44105032D01*
X190557857Y-44105032D02*
X190557857Y-43923603D01*
X190557857Y-43923603D02*
X190497381Y-43681699D01*
X190497381Y-43681699D02*
X190436904Y-43560746D01*
X190436904Y-43560746D02*
X190315952Y-43439794D01*
X190315952Y-43439794D02*
X190134523Y-43379318D01*
X190134523Y-43379318D02*
X190013571Y-43379318D01*
X190013571Y-43379318D02*
X189832142Y-43439794D01*
X189832142Y-43439794D02*
X189771666Y-43500270D01*
X189348333Y-43379318D02*
X188501666Y-43379318D01*
X188501666Y-43379318D02*
X189045952Y-44649318D01*
D11*
X161404819Y-37138095D02*
X162214342Y-37138095D01*
X162214342Y-37138095D02*
X162309580Y-37185714D01*
X162309580Y-37185714D02*
X162357200Y-37233333D01*
X162357200Y-37233333D02*
X162404819Y-37328571D01*
X162404819Y-37328571D02*
X162404819Y-37519047D01*
X162404819Y-37519047D02*
X162357200Y-37614285D01*
X162357200Y-37614285D02*
X162309580Y-37661904D01*
X162309580Y-37661904D02*
X162214342Y-37709523D01*
X162214342Y-37709523D02*
X161404819Y-37709523D01*
X161738152Y-38614285D02*
X162404819Y-38614285D01*
X161357200Y-38376190D02*
X162071485Y-38138095D01*
X162071485Y-38138095D02*
X162071485Y-38757142D01*
D10*
X170226666Y-53528365D02*
X170287142Y-53588842D01*
X170287142Y-53588842D02*
X170468571Y-53649318D01*
X170468571Y-53649318D02*
X170589523Y-53649318D01*
X170589523Y-53649318D02*
X170770952Y-53588842D01*
X170770952Y-53588842D02*
X170891904Y-53467889D01*
X170891904Y-53467889D02*
X170952381Y-53346937D01*
X170952381Y-53346937D02*
X171012857Y-53105032D01*
X171012857Y-53105032D02*
X171012857Y-52923603D01*
X171012857Y-52923603D02*
X170952381Y-52681699D01*
X170952381Y-52681699D02*
X170891904Y-52560746D01*
X170891904Y-52560746D02*
X170770952Y-52439794D01*
X170770952Y-52439794D02*
X170589523Y-52379318D01*
X170589523Y-52379318D02*
X170468571Y-52379318D01*
X170468571Y-52379318D02*
X170287142Y-52439794D01*
X170287142Y-52439794D02*
X170226666Y-52500270D01*
X169017142Y-53649318D02*
X169742857Y-53649318D01*
X169380000Y-53649318D02*
X169380000Y-52379318D01*
X169380000Y-52379318D02*
X169500952Y-52560746D01*
X169500952Y-52560746D02*
X169621904Y-52681699D01*
X169621904Y-52681699D02*
X169742857Y-52742175D01*
X170951428Y-47028365D02*
X171011904Y-47088842D01*
X171011904Y-47088842D02*
X171193333Y-47149318D01*
X171193333Y-47149318D02*
X171314285Y-47149318D01*
X171314285Y-47149318D02*
X171495714Y-47088842D01*
X171495714Y-47088842D02*
X171616666Y-46967889D01*
X171616666Y-46967889D02*
X171677143Y-46846937D01*
X171677143Y-46846937D02*
X171737619Y-46605032D01*
X171737619Y-46605032D02*
X171737619Y-46423603D01*
X171737619Y-46423603D02*
X171677143Y-46181699D01*
X171677143Y-46181699D02*
X171616666Y-46060746D01*
X171616666Y-46060746D02*
X171495714Y-45939794D01*
X171495714Y-45939794D02*
X171314285Y-45879318D01*
X171314285Y-45879318D02*
X171193333Y-45879318D01*
X171193333Y-45879318D02*
X171011904Y-45939794D01*
X171011904Y-45939794D02*
X170951428Y-46000270D01*
X169741904Y-47149318D02*
X170467619Y-47149318D01*
X170104762Y-47149318D02*
X170104762Y-45879318D01*
X170104762Y-45879318D02*
X170225714Y-46060746D01*
X170225714Y-46060746D02*
X170346666Y-46181699D01*
X170346666Y-46181699D02*
X170467619Y-46242175D01*
X168653333Y-45879318D02*
X168895238Y-45879318D01*
X168895238Y-45879318D02*
X169016190Y-45939794D01*
X169016190Y-45939794D02*
X169076666Y-46000270D01*
X169076666Y-46000270D02*
X169197619Y-46181699D01*
X169197619Y-46181699D02*
X169258095Y-46423603D01*
X169258095Y-46423603D02*
X169258095Y-46907413D01*
X169258095Y-46907413D02*
X169197619Y-47028365D01*
X169197619Y-47028365D02*
X169137142Y-47088842D01*
X169137142Y-47088842D02*
X169016190Y-47149318D01*
X169016190Y-47149318D02*
X168774285Y-47149318D01*
X168774285Y-47149318D02*
X168653333Y-47088842D01*
X168653333Y-47088842D02*
X168592857Y-47028365D01*
X168592857Y-47028365D02*
X168532380Y-46907413D01*
X168532380Y-46907413D02*
X168532380Y-46605032D01*
X168532380Y-46605032D02*
X168592857Y-46484080D01*
X168592857Y-46484080D02*
X168653333Y-46423603D01*
X168653333Y-46423603D02*
X168774285Y-46363127D01*
X168774285Y-46363127D02*
X169016190Y-46363127D01*
X169016190Y-46363127D02*
X169137142Y-46423603D01*
X169137142Y-46423603D02*
X169197619Y-46484080D01*
X169197619Y-46484080D02*
X169258095Y-46605032D01*
X171953365Y-41493571D02*
X172013842Y-41433095D01*
X172013842Y-41433095D02*
X172074318Y-41251666D01*
X172074318Y-41251666D02*
X172074318Y-41130714D01*
X172074318Y-41130714D02*
X172013842Y-40949285D01*
X172013842Y-40949285D02*
X171892889Y-40828333D01*
X171892889Y-40828333D02*
X171771937Y-40767856D01*
X171771937Y-40767856D02*
X171530032Y-40707380D01*
X171530032Y-40707380D02*
X171348603Y-40707380D01*
X171348603Y-40707380D02*
X171106699Y-40767856D01*
X171106699Y-40767856D02*
X170985746Y-40828333D01*
X170985746Y-40828333D02*
X170864794Y-40949285D01*
X170864794Y-40949285D02*
X170804318Y-41130714D01*
X170804318Y-41130714D02*
X170804318Y-41251666D01*
X170804318Y-41251666D02*
X170864794Y-41433095D01*
X170864794Y-41433095D02*
X170925270Y-41493571D01*
X170925270Y-41977380D02*
X170864794Y-42037856D01*
X170864794Y-42037856D02*
X170804318Y-42158809D01*
X170804318Y-42158809D02*
X170804318Y-42461190D01*
X170804318Y-42461190D02*
X170864794Y-42582142D01*
X170864794Y-42582142D02*
X170925270Y-42642618D01*
X170925270Y-42642618D02*
X171046222Y-42703095D01*
X171046222Y-42703095D02*
X171167175Y-42703095D01*
X171167175Y-42703095D02*
X171348603Y-42642618D01*
X171348603Y-42642618D02*
X172074318Y-41916904D01*
X172074318Y-41916904D02*
X172074318Y-42703095D01*
X170804318Y-43126428D02*
X170804318Y-43912619D01*
X170804318Y-43912619D02*
X171288127Y-43489285D01*
X171288127Y-43489285D02*
X171288127Y-43670714D01*
X171288127Y-43670714D02*
X171348603Y-43791666D01*
X171348603Y-43791666D02*
X171409080Y-43852142D01*
X171409080Y-43852142D02*
X171530032Y-43912619D01*
X171530032Y-43912619D02*
X171832413Y-43912619D01*
X171832413Y-43912619D02*
X171953365Y-43852142D01*
X171953365Y-43852142D02*
X172013842Y-43791666D01*
X172013842Y-43791666D02*
X172074318Y-43670714D01*
X172074318Y-43670714D02*
X172074318Y-43307857D01*
X172074318Y-43307857D02*
X172013842Y-43186904D01*
X172013842Y-43186904D02*
X171953365Y-43126428D01*
X156020952Y-46645270D02*
X156141904Y-46584794D01*
X156141904Y-46584794D02*
X156262857Y-46463842D01*
X156262857Y-46463842D02*
X156444285Y-46282413D01*
X156444285Y-46282413D02*
X156565238Y-46221937D01*
X156565238Y-46221937D02*
X156686190Y-46221937D01*
X156625714Y-46524318D02*
X156746666Y-46463842D01*
X156746666Y-46463842D02*
X156867619Y-46342889D01*
X156867619Y-46342889D02*
X156928095Y-46100984D01*
X156928095Y-46100984D02*
X156928095Y-45677651D01*
X156928095Y-45677651D02*
X156867619Y-45435746D01*
X156867619Y-45435746D02*
X156746666Y-45314794D01*
X156746666Y-45314794D02*
X156625714Y-45254318D01*
X156625714Y-45254318D02*
X156383809Y-45254318D01*
X156383809Y-45254318D02*
X156262857Y-45314794D01*
X156262857Y-45314794D02*
X156141904Y-45435746D01*
X156141904Y-45435746D02*
X156081428Y-45677651D01*
X156081428Y-45677651D02*
X156081428Y-46100984D01*
X156081428Y-46100984D02*
X156141904Y-46342889D01*
X156141904Y-46342889D02*
X156262857Y-46463842D01*
X156262857Y-46463842D02*
X156383809Y-46524318D01*
X156383809Y-46524318D02*
X156625714Y-46524318D01*
X155597619Y-45375270D02*
X155537143Y-45314794D01*
X155537143Y-45314794D02*
X155416190Y-45254318D01*
X155416190Y-45254318D02*
X155113809Y-45254318D01*
X155113809Y-45254318D02*
X154992857Y-45314794D01*
X154992857Y-45314794D02*
X154932381Y-45375270D01*
X154932381Y-45375270D02*
X154871904Y-45496222D01*
X154871904Y-45496222D02*
X154871904Y-45617175D01*
X154871904Y-45617175D02*
X154932381Y-45798603D01*
X154932381Y-45798603D02*
X155658095Y-46524318D01*
X155658095Y-46524318D02*
X154871904Y-46524318D01*
D11*
X165261904Y-58079819D02*
X165261904Y-58889342D01*
X165261904Y-58889342D02*
X165214285Y-58984580D01*
X165214285Y-58984580D02*
X165166666Y-59032200D01*
X165166666Y-59032200D02*
X165071428Y-59079819D01*
X165071428Y-59079819D02*
X164880952Y-59079819D01*
X164880952Y-59079819D02*
X164785714Y-59032200D01*
X164785714Y-59032200D02*
X164738095Y-58984580D01*
X164738095Y-58984580D02*
X164690476Y-58889342D01*
X164690476Y-58889342D02*
X164690476Y-58079819D01*
X163738095Y-58079819D02*
X164214285Y-58079819D01*
X164214285Y-58079819D02*
X164261904Y-58556009D01*
X164261904Y-58556009D02*
X164214285Y-58508390D01*
X164214285Y-58508390D02*
X164119047Y-58460771D01*
X164119047Y-58460771D02*
X163880952Y-58460771D01*
X163880952Y-58460771D02*
X163785714Y-58508390D01*
X163785714Y-58508390D02*
X163738095Y-58556009D01*
X163738095Y-58556009D02*
X163690476Y-58651247D01*
X163690476Y-58651247D02*
X163690476Y-58889342D01*
X163690476Y-58889342D02*
X163738095Y-58984580D01*
X163738095Y-58984580D02*
X163785714Y-59032200D01*
X163785714Y-59032200D02*
X163880952Y-59079819D01*
X163880952Y-59079819D02*
X164119047Y-59079819D01*
X164119047Y-59079819D02*
X164214285Y-59032200D01*
X164214285Y-59032200D02*
X164261904Y-58984580D01*
D10*
X185528365Y-54696571D02*
X185588842Y-54636095D01*
X185588842Y-54636095D02*
X185649318Y-54454666D01*
X185649318Y-54454666D02*
X185649318Y-54333714D01*
X185649318Y-54333714D02*
X185588842Y-54152285D01*
X185588842Y-54152285D02*
X185467889Y-54031333D01*
X185467889Y-54031333D02*
X185346937Y-53970856D01*
X185346937Y-53970856D02*
X185105032Y-53910380D01*
X185105032Y-53910380D02*
X184923603Y-53910380D01*
X184923603Y-53910380D02*
X184681699Y-53970856D01*
X184681699Y-53970856D02*
X184560746Y-54031333D01*
X184560746Y-54031333D02*
X184439794Y-54152285D01*
X184439794Y-54152285D02*
X184379318Y-54333714D01*
X184379318Y-54333714D02*
X184379318Y-54454666D01*
X184379318Y-54454666D02*
X184439794Y-54636095D01*
X184439794Y-54636095D02*
X184500270Y-54696571D01*
X185649318Y-55906095D02*
X185649318Y-55180380D01*
X185649318Y-55543237D02*
X184379318Y-55543237D01*
X184379318Y-55543237D02*
X184560746Y-55422285D01*
X184560746Y-55422285D02*
X184681699Y-55301333D01*
X184681699Y-55301333D02*
X184742175Y-55180380D01*
X185649318Y-56510857D02*
X185649318Y-56752761D01*
X185649318Y-56752761D02*
X185588842Y-56873714D01*
X185588842Y-56873714D02*
X185528365Y-56934190D01*
X185528365Y-56934190D02*
X185346937Y-57055142D01*
X185346937Y-57055142D02*
X185105032Y-57115619D01*
X185105032Y-57115619D02*
X184621222Y-57115619D01*
X184621222Y-57115619D02*
X184500270Y-57055142D01*
X184500270Y-57055142D02*
X184439794Y-56994666D01*
X184439794Y-56994666D02*
X184379318Y-56873714D01*
X184379318Y-56873714D02*
X184379318Y-56631809D01*
X184379318Y-56631809D02*
X184439794Y-56510857D01*
X184439794Y-56510857D02*
X184500270Y-56450380D01*
X184500270Y-56450380D02*
X184621222Y-56389904D01*
X184621222Y-56389904D02*
X184923603Y-56389904D01*
X184923603Y-56389904D02*
X185044556Y-56450380D01*
X185044556Y-56450380D02*
X185105032Y-56510857D01*
X185105032Y-56510857D02*
X185165508Y-56631809D01*
X185165508Y-56631809D02*
X185165508Y-56873714D01*
X185165508Y-56873714D02*
X185105032Y-56994666D01*
X185105032Y-56994666D02*
X185044556Y-57055142D01*
X185044556Y-57055142D02*
X184923603Y-57115619D01*
X170951428Y-49528365D02*
X171011904Y-49588842D01*
X171011904Y-49588842D02*
X171193333Y-49649318D01*
X171193333Y-49649318D02*
X171314285Y-49649318D01*
X171314285Y-49649318D02*
X171495714Y-49588842D01*
X171495714Y-49588842D02*
X171616666Y-49467889D01*
X171616666Y-49467889D02*
X171677143Y-49346937D01*
X171677143Y-49346937D02*
X171737619Y-49105032D01*
X171737619Y-49105032D02*
X171737619Y-48923603D01*
X171737619Y-48923603D02*
X171677143Y-48681699D01*
X171677143Y-48681699D02*
X171616666Y-48560746D01*
X171616666Y-48560746D02*
X171495714Y-48439794D01*
X171495714Y-48439794D02*
X171314285Y-48379318D01*
X171314285Y-48379318D02*
X171193333Y-48379318D01*
X171193333Y-48379318D02*
X171011904Y-48439794D01*
X171011904Y-48439794D02*
X170951428Y-48500270D01*
X169741904Y-49649318D02*
X170467619Y-49649318D01*
X170104762Y-49649318D02*
X170104762Y-48379318D01*
X170104762Y-48379318D02*
X170225714Y-48560746D01*
X170225714Y-48560746D02*
X170346666Y-48681699D01*
X170346666Y-48681699D02*
X170467619Y-48742175D01*
X168653333Y-48802651D02*
X168653333Y-49649318D01*
X168955714Y-48318842D02*
X169258095Y-49225984D01*
X169258095Y-49225984D02*
X168471904Y-49225984D01*
X164739762Y-48349318D02*
X164739762Y-47079318D01*
X163409285Y-48228365D02*
X163469761Y-48288842D01*
X163469761Y-48288842D02*
X163651190Y-48349318D01*
X163651190Y-48349318D02*
X163772142Y-48349318D01*
X163772142Y-48349318D02*
X163953571Y-48288842D01*
X163953571Y-48288842D02*
X164074523Y-48167889D01*
X164074523Y-48167889D02*
X164135000Y-48046937D01*
X164135000Y-48046937D02*
X164195476Y-47805032D01*
X164195476Y-47805032D02*
X164195476Y-47623603D01*
X164195476Y-47623603D02*
X164135000Y-47381699D01*
X164135000Y-47381699D02*
X164074523Y-47260746D01*
X164074523Y-47260746D02*
X163953571Y-47139794D01*
X163953571Y-47139794D02*
X163772142Y-47079318D01*
X163772142Y-47079318D02*
X163651190Y-47079318D01*
X163651190Y-47079318D02*
X163469761Y-47139794D01*
X163469761Y-47139794D02*
X163409285Y-47200270D01*
X162199761Y-48349318D02*
X162925476Y-48349318D01*
X162562619Y-48349318D02*
X162562619Y-47079318D01*
X162562619Y-47079318D02*
X162683571Y-47260746D01*
X162683571Y-47260746D02*
X162804523Y-47381699D01*
X162804523Y-47381699D02*
X162925476Y-47442175D01*
X187451428Y-58278365D02*
X187511904Y-58338842D01*
X187511904Y-58338842D02*
X187693333Y-58399318D01*
X187693333Y-58399318D02*
X187814285Y-58399318D01*
X187814285Y-58399318D02*
X187995714Y-58338842D01*
X187995714Y-58338842D02*
X188116666Y-58217889D01*
X188116666Y-58217889D02*
X188177143Y-58096937D01*
X188177143Y-58096937D02*
X188237619Y-57855032D01*
X188237619Y-57855032D02*
X188237619Y-57673603D01*
X188237619Y-57673603D02*
X188177143Y-57431699D01*
X188177143Y-57431699D02*
X188116666Y-57310746D01*
X188116666Y-57310746D02*
X187995714Y-57189794D01*
X187995714Y-57189794D02*
X187814285Y-57129318D01*
X187814285Y-57129318D02*
X187693333Y-57129318D01*
X187693333Y-57129318D02*
X187511904Y-57189794D01*
X187511904Y-57189794D02*
X187451428Y-57250270D01*
X186241904Y-58399318D02*
X186967619Y-58399318D01*
X186604762Y-58399318D02*
X186604762Y-57129318D01*
X186604762Y-57129318D02*
X186725714Y-57310746D01*
X186725714Y-57310746D02*
X186846666Y-57431699D01*
X186846666Y-57431699D02*
X186967619Y-57492175D01*
X185092857Y-57129318D02*
X185697619Y-57129318D01*
X185697619Y-57129318D02*
X185758095Y-57734080D01*
X185758095Y-57734080D02*
X185697619Y-57673603D01*
X185697619Y-57673603D02*
X185576666Y-57613127D01*
X185576666Y-57613127D02*
X185274285Y-57613127D01*
X185274285Y-57613127D02*
X185153333Y-57673603D01*
X185153333Y-57673603D02*
X185092857Y-57734080D01*
X185092857Y-57734080D02*
X185032380Y-57855032D01*
X185032380Y-57855032D02*
X185032380Y-58157413D01*
X185032380Y-58157413D02*
X185092857Y-58278365D01*
X185092857Y-58278365D02*
X185153333Y-58338842D01*
X185153333Y-58338842D02*
X185274285Y-58399318D01*
X185274285Y-58399318D02*
X185576666Y-58399318D01*
X185576666Y-58399318D02*
X185697619Y-58338842D01*
X185697619Y-58338842D02*
X185758095Y-58278365D01*
X175778365Y-46568571D02*
X175838842Y-46508095D01*
X175838842Y-46508095D02*
X175899318Y-46326666D01*
X175899318Y-46326666D02*
X175899318Y-46205714D01*
X175899318Y-46205714D02*
X175838842Y-46024285D01*
X175838842Y-46024285D02*
X175717889Y-45903333D01*
X175717889Y-45903333D02*
X175596937Y-45842856D01*
X175596937Y-45842856D02*
X175355032Y-45782380D01*
X175355032Y-45782380D02*
X175173603Y-45782380D01*
X175173603Y-45782380D02*
X174931699Y-45842856D01*
X174931699Y-45842856D02*
X174810746Y-45903333D01*
X174810746Y-45903333D02*
X174689794Y-46024285D01*
X174689794Y-46024285D02*
X174629318Y-46205714D01*
X174629318Y-46205714D02*
X174629318Y-46326666D01*
X174629318Y-46326666D02*
X174689794Y-46508095D01*
X174689794Y-46508095D02*
X174750270Y-46568571D01*
X175899318Y-47778095D02*
X175899318Y-47052380D01*
X175899318Y-47415237D02*
X174629318Y-47415237D01*
X174629318Y-47415237D02*
X174810746Y-47294285D01*
X174810746Y-47294285D02*
X174931699Y-47173333D01*
X174931699Y-47173333D02*
X174992175Y-47052380D01*
X174629318Y-48201428D02*
X174629318Y-49048095D01*
X174629318Y-49048095D02*
X175899318Y-48503809D01*
X174596666Y-59778365D02*
X174657142Y-59838842D01*
X174657142Y-59838842D02*
X174838571Y-59899318D01*
X174838571Y-59899318D02*
X174959523Y-59899318D01*
X174959523Y-59899318D02*
X175140952Y-59838842D01*
X175140952Y-59838842D02*
X175261904Y-59717889D01*
X175261904Y-59717889D02*
X175322381Y-59596937D01*
X175322381Y-59596937D02*
X175382857Y-59355032D01*
X175382857Y-59355032D02*
X175382857Y-59173603D01*
X175382857Y-59173603D02*
X175322381Y-58931699D01*
X175322381Y-58931699D02*
X175261904Y-58810746D01*
X175261904Y-58810746D02*
X175140952Y-58689794D01*
X175140952Y-58689794D02*
X174959523Y-58629318D01*
X174959523Y-58629318D02*
X174838571Y-58629318D01*
X174838571Y-58629318D02*
X174657142Y-58689794D01*
X174657142Y-58689794D02*
X174596666Y-58750270D01*
X173508095Y-58629318D02*
X173750000Y-58629318D01*
X173750000Y-58629318D02*
X173870952Y-58689794D01*
X173870952Y-58689794D02*
X173931428Y-58750270D01*
X173931428Y-58750270D02*
X174052381Y-58931699D01*
X174052381Y-58931699D02*
X174112857Y-59173603D01*
X174112857Y-59173603D02*
X174112857Y-59657413D01*
X174112857Y-59657413D02*
X174052381Y-59778365D01*
X174052381Y-59778365D02*
X173991904Y-59838842D01*
X173991904Y-59838842D02*
X173870952Y-59899318D01*
X173870952Y-59899318D02*
X173629047Y-59899318D01*
X173629047Y-59899318D02*
X173508095Y-59838842D01*
X173508095Y-59838842D02*
X173447619Y-59778365D01*
X173447619Y-59778365D02*
X173387142Y-59657413D01*
X173387142Y-59657413D02*
X173387142Y-59355032D01*
X173387142Y-59355032D02*
X173447619Y-59234080D01*
X173447619Y-59234080D02*
X173508095Y-59173603D01*
X173508095Y-59173603D02*
X173629047Y-59113127D01*
X173629047Y-59113127D02*
X173870952Y-59113127D01*
X173870952Y-59113127D02*
X173991904Y-59173603D01*
X173991904Y-59173603D02*
X174052381Y-59234080D01*
X174052381Y-59234080D02*
X174112857Y-59355032D01*
X181141428Y-45899318D02*
X181746190Y-45899318D01*
X181746190Y-45899318D02*
X181746190Y-44629318D01*
X180778571Y-45838842D02*
X180597142Y-45899318D01*
X180597142Y-45899318D02*
X180294761Y-45899318D01*
X180294761Y-45899318D02*
X180173809Y-45838842D01*
X180173809Y-45838842D02*
X180113333Y-45778365D01*
X180113333Y-45778365D02*
X180052856Y-45657413D01*
X180052856Y-45657413D02*
X180052856Y-45536461D01*
X180052856Y-45536461D02*
X180113333Y-45415508D01*
X180113333Y-45415508D02*
X180173809Y-45355032D01*
X180173809Y-45355032D02*
X180294761Y-45294556D01*
X180294761Y-45294556D02*
X180536666Y-45234080D01*
X180536666Y-45234080D02*
X180657618Y-45173603D01*
X180657618Y-45173603D02*
X180718095Y-45113127D01*
X180718095Y-45113127D02*
X180778571Y-44992175D01*
X180778571Y-44992175D02*
X180778571Y-44871222D01*
X180778571Y-44871222D02*
X180718095Y-44750270D01*
X180718095Y-44750270D02*
X180657618Y-44689794D01*
X180657618Y-44689794D02*
X180536666Y-44629318D01*
X180536666Y-44629318D02*
X180234285Y-44629318D01*
X180234285Y-44629318D02*
X180052856Y-44689794D01*
X178843332Y-45899318D02*
X179569047Y-45899318D01*
X179206190Y-45899318D02*
X179206190Y-44629318D01*
X179206190Y-44629318D02*
X179327142Y-44810746D01*
X179327142Y-44810746D02*
X179448094Y-44931699D01*
X179448094Y-44931699D02*
X179569047Y-44992175D01*
D12*
%TO.C,Q1*%
X174200000Y-45125000D02*
X173050000Y-45125000D01*
X174550000Y-42165000D02*
X174900000Y-42165000D01*
X174550000Y-45085000D02*
X174550000Y-42165000D01*
X174900000Y-42165000D02*
X174900000Y-45085000D01*
X174900000Y-45085000D02*
X174550000Y-45085000D01*
D13*
%TO.C,U2*%
X173190000Y-51490000D02*
X173190000Y-49210000D01*
X176610000Y-49200000D02*
X176610000Y-51810000D01*
X176610000Y-51810000D02*
X176070000Y-51810000D01*
D12*
%TO.C,IC2*%
X192250000Y-38950000D02*
X192250000Y-37650000D01*
X192500000Y-39300000D02*
X204500000Y-39300000D01*
X192500000Y-57000000D02*
X192500000Y-39300000D01*
X204500000Y-39300000D02*
X204500000Y-57000000D01*
X204500000Y-57000000D02*
X192500000Y-57000000D01*
D14*
%TO.C,C7*%
X188760000Y-44075000D02*
X188760000Y-44075000D01*
X188860000Y-44075000D02*
X188860000Y-44075000D01*
X188760000Y-44075000D02*
G75*
G02*
X188860000Y-44075000I50000J0D01*
G01*
X188860000Y-44075000D02*
G75*
G02*
X188760000Y-44075000I-50000J0D01*
G01*
D13*
%TO.C,U4*%
X163040000Y-39810000D02*
X163040000Y-36050000D01*
X164300000Y-39810000D02*
X163040000Y-39810000D01*
X168600000Y-39810000D02*
X169860000Y-39810000D01*
X169860000Y-39810000D02*
X169860000Y-36050000D01*
X163140000Y-34770000D02*
X162810000Y-35010000D01*
X162810000Y-34530000D01*
X163140000Y-34770000D01*
G36*
X163140000Y-34770000D02*
G01*
X162810000Y-35010000D01*
X162810000Y-34530000D01*
X163140000Y-34770000D01*
G37*
D14*
%TO.C,C1*%
X170715000Y-53075000D02*
X170715000Y-53075000D01*
X170815000Y-53075000D02*
X170815000Y-53075000D01*
X170715000Y-53075000D02*
G75*
G02*
X170815000Y-53075000I50000J0D01*
G01*
X170815000Y-53075000D02*
G75*
G02*
X170715000Y-53075000I-50000J0D01*
G01*
%TO.C,C16*%
X170835000Y-46575000D02*
X170835000Y-46575000D01*
X170935000Y-46575000D02*
X170935000Y-46575000D01*
X170835000Y-46575000D02*
G75*
G02*
X170935000Y-46575000I50000J0D01*
G01*
X170935000Y-46575000D02*
G75*
G02*
X170835000Y-46575000I-50000J0D01*
G01*
%TO.C,C23*%
X171500000Y-43010000D02*
X171500000Y-43010000D01*
X171500000Y-43110000D02*
X171500000Y-43110000D01*
X171500000Y-43010000D02*
G75*
G02*
X171500000Y-43110000I0J-50000D01*
G01*
X171500000Y-43110000D02*
G75*
G02*
X171500000Y-43010000I0J50000D01*
G01*
%TO.C,Q2*%
X155650000Y-43750000D02*
X155650000Y-43750000D01*
X155650000Y-43850000D02*
X155650000Y-43850000D01*
X155650000Y-43750000D02*
G75*
G02*
X155650000Y-43850000I0J-50000D01*
G01*
X155650000Y-43850000D02*
G75*
G02*
X155650000Y-43750000I0J50000D01*
G01*
D13*
%TO.C,U5*%
X162850000Y-52375000D02*
X163350000Y-52375000D01*
X162850000Y-52875000D02*
X162850000Y-52375000D01*
X163900000Y-57575000D02*
X163150000Y-57575000D01*
X165650000Y-52375000D02*
X166150000Y-52375000D01*
X166150000Y-52375000D02*
X166150000Y-52875000D01*
X166150000Y-57075000D02*
X166150000Y-57575000D01*
X166150000Y-57575000D02*
X165650000Y-57575000D01*
X162950000Y-57935000D02*
X162590000Y-57575000D01*
X162950000Y-57575000D01*
X162950000Y-57935000D01*
G36*
X162950000Y-57935000D02*
G01*
X162590000Y-57575000D01*
X162950000Y-57575000D01*
X162950000Y-57935000D01*
G37*
D14*
%TO.C,C19*%
X185025000Y-56213000D02*
X185025000Y-56213000D01*
X185125000Y-56213000D02*
X185125000Y-56213000D01*
X185025000Y-56213000D02*
G75*
G02*
X185125000Y-56213000I50000J0D01*
G01*
X185125000Y-56213000D02*
G75*
G02*
X185025000Y-56213000I-50000J0D01*
G01*
%TO.C,C14*%
X170835000Y-49075000D02*
X170835000Y-49075000D01*
X170935000Y-49075000D02*
X170935000Y-49075000D01*
X170835000Y-49075000D02*
G75*
G02*
X170935000Y-49075000I50000J0D01*
G01*
X170935000Y-49075000D02*
G75*
G02*
X170835000Y-49075000I-50000J0D01*
G01*
D15*
%TO.C,IC1*%
X160750000Y-50275000D02*
G75*
G02*
X160500000Y-50275000I-125000J0D01*
G01*
X160500000Y-50275000D02*
G75*
G02*
X160750000Y-50275000I125000J0D01*
G01*
D14*
%TO.C,C15*%
X185835000Y-57825000D02*
X185835000Y-57825000D01*
X185935000Y-57825000D02*
X185935000Y-57825000D01*
X185835000Y-57825000D02*
G75*
G02*
X185935000Y-57825000I50000J0D01*
G01*
X185935000Y-57825000D02*
G75*
G02*
X185835000Y-57825000I-50000J0D01*
G01*
%TO.C,C17*%
X175325000Y-48085000D02*
X175325000Y-48085000D01*
X175325000Y-48185000D02*
X175325000Y-48185000D01*
X175325000Y-48085000D02*
G75*
G02*
X175325000Y-48185000I0J-50000D01*
G01*
X175325000Y-48185000D02*
G75*
G02*
X175325000Y-48085000I0J50000D01*
G01*
%TO.C,C6*%
X175085000Y-59325000D02*
X175085000Y-59325000D01*
X175185000Y-59325000D02*
X175185000Y-59325000D01*
X175085000Y-59325000D02*
G75*
G02*
X175185000Y-59325000I50000J0D01*
G01*
X175185000Y-59325000D02*
G75*
G02*
X175085000Y-59325000I-50000J0D01*
G01*
%TO.C,LS1*%
X177825000Y-44825000D02*
X177825000Y-45825000D01*
D12*
X178325000Y-42225000D02*
X178325000Y-42225000D01*
X178325000Y-42425000D02*
X178325000Y-42425000D01*
D14*
X182825000Y-45325000D02*
X182825000Y-47825000D01*
X182825000Y-47825000D02*
X180325000Y-47825000D01*
D12*
X178325000Y-42225000D02*
G75*
G02*
X178325000Y-42425000I0J-100000D01*
G01*
X178325000Y-42425000D02*
G75*
G02*
X178325000Y-42225000I0J100000D01*
G01*
%TD*%
M02*
