M48
; DRILL file {KiCad 8.0.6} date 2026-03-23T17:41:27+0000
; FORMAT={-:-/ absolute / metric / decimal}
; #@! TF.CreationDate,2026-03-23T17:41:27+00:00
; #@! TF.GenerationSoftware,Kicad,Pcbnew,8.0.6
; #@! TF.FileFunction,Plated,1,4,PTH
FMAT,2
METRIC
; #@! TA.AperFunction,Plated,PTH,ViaDrill
T1C0.200
; #@! TA.AperFunction,Plated,PTH,ViaDrill
T2C0.300
; #@! TA.AperFunction,Plated,PTH,ComponentDrill
T3C0.600
; #@! TA.AperFunction,Plated,PTH,ComponentDrill
T4C1.200
; #@! TA.AperFunction,Plated,PTH,ViaDrill
T5C3.100
%
G90
G05
T1
X161.75Y-56.75
X162.25Y-51.0
X162.25Y-52.0
X162.75Y-57.25
X164.5Y-38.0
X166.371Y-53.129
X169.25Y-53.25
X169.5Y-46.5
X169.5Y-49.0
X170.0Y-45.1
X170.0Y-52.0
X170.75Y-46.5
X170.75Y-49.0
X170.75Y-53.0
X171.516Y-42.809
X172.25Y-41.75
X172.516Y-43.016
X173.25Y-48.5
X173.75Y-46.25
X174.567Y-58.762
X174.744Y-47.136
X174.75Y-47.75
X176.0Y-44.75
X180.25Y-49.25
X181.0Y-47.25
X182.75Y-49.5
X185.5Y-48.25
X186.0Y-57.75
X187.75Y-57.75
X188.836Y-45.586
X189.0Y-49.0
X189.039Y-44.039
X190.25Y-41.85
X190.25Y-50.0
X190.5Y-47.5
X194.25Y-52.25
X197.25Y-37.0
X197.25Y-57.0
X197.75Y-56.11
X198.25Y-37.456
X198.805Y-37.227
X199.235Y-56.11
X199.712Y-58.9
T2
X155.75Y-43.5
X155.75Y-48.25
X159.0Y-47.5
X159.75Y-45.5
X160.0Y-49.0
X162.25Y-55.0
X164.5Y-53.75
X165.25Y-51.5
X166.45Y-37.9
X166.65Y-54.6
X167.25Y-53.3
X168.238Y-56.115
X168.25Y-58.25
X168.5Y-45.75
X168.75Y-55.5
X169.0Y-50.5
X169.0Y-54.5
X169.75Y-43.75
X172.5Y-40.25
X173.014Y-44.5
X173.014Y-49.5
X173.5Y-38.5
X173.5Y-52.75
X173.75Y-59.0
X174.475Y-40.75
X175.25Y-34.0
X175.75Y-40.25
X176.0Y-60.0
X177.4Y-40.8
X177.75Y-36.25
X181.034Y-45.358
X181.5Y-41.0
X181.75Y-45.0
X182.5Y-40.85
X182.5Y-45.7
X182.5Y-55.75
X183.5Y-46.3
X185.0Y-44.5
X185.0Y-52.0
X185.0Y-54.0
X185.004Y-56.496
X185.06Y-30.25
X187.25Y-40.85
X188.426Y-43.567
X188.867Y-46.367
X189.0Y-34.0
X189.0Y-54.0
X189.15Y-55.5
X189.25Y-40.85
X189.5Y-35.25
X189.5Y-38.0
X189.75Y-48.5
X189.951Y-46.799
X190.35Y-52.25
X190.35Y-54.25
X190.75Y-35.5
X190.75Y-45.25
X191.032Y-38.718
X192.25Y-52.25
X192.75Y-56.75
X194.15Y-53.111
X194.98Y-39.75
X195.25Y-30.25
X195.35Y-53.75
X195.35Y-56.75
X195.533Y-36.893
X196.0Y-39.75
X196.5Y-43.0
X196.5Y-46.25
X196.75Y-49.5
X197.807Y-54.4
X198.75Y-56.75
X200.269Y-56.764
X201.5Y-54.25
X201.77Y-59.2
X204.25Y-56.5
X206.0Y-54.25
T3
X171.31Y-28.0
X172.56Y-28.0
X173.81Y-28.0
X175.06Y-28.0
X176.31Y-28.0
X177.56Y-28.0
X178.81Y-28.0
X180.06Y-28.0
X199.25Y-32.25
X200.5Y-32.25
X201.75Y-32.25
X203.0Y-32.25
X204.25Y-32.25
X205.5Y-32.25
X206.75Y-32.25
X208.0Y-32.25
T4
X152.75Y-45.85
X152.75Y-50.85
X159.75Y-30.25
X164.75Y-30.25
X205.5Y-43.0
X205.5Y-48.0
T5
X150.0Y-27.75
X150.0Y-57.25
X207.5Y-27.75
X207.5Y-57.25
M30
